<svg width="16" height="16" fill="none" xmlns="http://www.w3.org/2000/svg"><path d="M15.833 9.882l-1.714-1.715a.572.572 0 00-.808 0L8 13.477V16h2.522l5.31-5.31a.572.572 0 000-.808zm-5.784 4.975h-.906v-.906L12 11.094l.907.906-2.858 2.857zm3.666-3.665l-.907-.906.907-.907.906.907-.906.906zM3.429 8h5.714v1.143H3.43V8zm0-3.429h6.857v1.143H3.429V4.571z" fill="#457EEF"/><path d="M13.714 1.143A1.144 1.144 0 0012.572 0H1.142A1.144 1.144 0 000 1.143V8.57a6.275 6.275 0 003.328 5.547l2.958 1.578V14.4l-2.42-1.29a5.135 5.135 0 01-2.723-4.54V1.143h11.429v5.143h1.143V1.143z" fill="#457EEF"/></svg>