<svg width="272" height="416" fill="none" xmlns="http://www.w3.org/2000/svg"><path d="M136.072.523c-2.505 0-4.954.75-7.038 2.156a12.759 12.759 0 00-4.665 5.74 12.9 12.9 0 00-.721 7.39 12.827 12.827 0 003.467 6.548 12.624 12.624 0 006.486 3.5 12.56 12.56 0 007.319-.728 12.693 12.693 0 005.685-4.71 12.877 12.877 0 002.135-7.106c0-3.392-1.335-6.645-3.71-9.044a12.608 12.608 0 00-8.958-3.746zm0 11.553a3.649 3.649 0 01-2.042-.626 3.7 3.7 0 01-1.354-1.666 3.746 3.746 0 01-.21-2.144 3.72 3.72 0 011.007-1.9 3.644 3.644 0 014.006-.805c.672.28 1.246.756 1.65 1.367a3.737 3.737 0 01-.457 4.687 3.644 3.644 0 01-2.6 1.087z" fill="#407BFF"/><path opacity=".6" d="M136.072.523c-2.505 0-4.954.75-7.038 2.156a12.759 12.759 0 00-4.665 5.74 12.9 12.9 0 00-.721 7.39 12.827 12.827 0 003.467 6.548 12.624 12.624 0 006.486 3.5 12.56 12.56 0 007.319-.728 12.693 12.693 0 005.685-4.71 12.877 12.877 0 002.135-7.106c0-3.392-1.335-6.645-3.71-9.044a12.608 12.608 0 00-8.958-3.746zm0 11.553a3.649 3.649 0 01-2.042-.626 3.7 3.7 0 01-1.354-1.666 3.746 3.746 0 01-.21-2.144 3.72 3.72 0 011.007-1.9 3.644 3.644 0 014.006-.805c.672.28 1.246.756 1.65 1.367a3.737 3.737 0 01-.457 4.687 3.644 3.644 0 01-2.6 1.087z" fill="#fff"/><path d="M261.413 17.316H10.717C5.02 17.316.403 21.978.403 27.73v377.18c0 5.751 4.618 10.413 10.314 10.413h250.696c5.696 0 10.314-4.662 10.314-10.413V27.729c0-5.75-4.618-10.413-10.314-10.413z" fill="#407BFF"/><path d="M257.366 40.45h-242.6v355.939h242.6V40.449z" fill="#F4F7FF"/><path d="M200.595 13.925H71.55c-1.468 0-2.658 1.201-2.658 2.683v16.71c0 1.482 1.19 2.683 2.658 2.683h129.045c1.468 0 2.657-1.201 2.657-2.683v-16.71c0-1.482-1.189-2.683-2.657-2.683z" fill="#407BFF"/><path opacity=".4" d="M200.595 13.925H71.55c-1.468 0-2.658 1.201-2.658 2.683v16.71c0 1.482 1.19 2.683 2.658 2.683h129.045c1.468 0 2.657-1.201 2.657-2.683v-16.71c0-1.482-1.189-2.683-2.657-2.683z" fill="#fff"/><path d="M185.738 56.506h-38.884a4.308 4.308 0 01-2.257-.593 4.36 4.36 0 01-1.626-1.687 7.851 7.851 0 00-2.872-3.044 7.748 7.748 0 00-8.026 0 7.851 7.851 0 00-2.872 3.044 4.37 4.37 0 01-1.627 1.685 4.317 4.317 0 01-2.255.595H86.393a4.111 4.111 0 01-2.921-1.222 4.191 4.191 0 01-1.21-2.949V28.911c0-1.106.435-2.167 1.21-2.95a4.111 4.111 0 012.92-1.22h99.346c1.096 0 2.146.439 2.921 1.22a4.19 4.19 0 011.21 2.95v23.355a4.2 4.2 0 01-1.185 2.994 4.101 4.101 0 01-2.946 1.246zm-49.666-9.245a10.446 10.446 0 015.442 1.518 10.58 10.58 0 013.88 4.14c.15.254.364.462.621.604.257.142.546.212.839.202h38.884c.365 0 .715-.146.974-.407.258-.26.403-.614.403-.983V28.911c0-.369-.145-.723-.403-.983a1.373 1.373 0 00-.974-.407H86.393a1.37 1.37 0 00-.974.407c-.258.26-.403.614-.403.983v23.355c0 .368.145.722.403.983.258.26.609.407.974.407h38.912a1.615 1.615 0 001.445-.806 10.6 10.6 0 013.895-4.099 10.456 10.456 0 015.427-1.49z" fill="#6C757D"/><path d="M185.738 56.506h-38.884a4.308 4.308 0 01-2.257-.593 4.36 4.36 0 01-1.626-1.687 7.851 7.851 0 00-2.872-3.044 7.748 7.748 0 00-8.026 0 7.851 7.851 0 00-2.872 3.044 4.37 4.37 0 01-1.627 1.685 4.317 4.317 0 01-2.255.595H86.393a4.111 4.111 0 01-2.921-1.222 4.191 4.191 0 01-1.21-2.949V28.911c0-1.106.435-2.167 1.21-2.95a4.111 4.111 0 012.92-1.22h99.346c1.096 0 2.146.439 2.921 1.22a4.19 4.19 0 011.21 2.95v23.355a4.2 4.2 0 01-1.185 2.994 4.101 4.101 0 01-2.946 1.246zm-49.666-9.245a10.446 10.446 0 015.442 1.518 10.58 10.58 0 013.88 4.14c.15.254.364.462.621.604.257.142.546.212.839.202h38.884c.365 0 .715-.146.974-.407.258-.26.403-.614.403-.983V28.911c0-.369-.145-.723-.403-.983a1.373 1.373 0 00-.974-.407H86.393a1.37 1.37 0 00-.974.407c-.258.26-.403.614-.403.983v23.355c0 .368.145.722.403.983.258.26.609.407.974.407h38.912a1.615 1.615 0 001.445-.806 10.6 10.6 0 013.895-4.099 10.456 10.456 0 015.427-1.49z" fill="#fff" opacity=".2"/><path d="M179.844 20.667H92.341c-.882 0-1.597.722-1.597 1.613v6.255c0 .891.715 1.613 1.597 1.613h87.503c.882 0 1.598-.722 1.598-1.613V22.28c0-.891-.716-1.613-1.598-1.613z" fill="#407BFF"/><path opacity=".6" d="M179.803 20.667H92.299c-.882 0-1.597.722-1.597 1.613v6.255c0 .891.715 1.613 1.597 1.613h87.504c.882 0 1.597-.722 1.597-1.613V22.28c0-.891-.715-1.613-1.597-1.613z" fill="#fff"/><path opacity=".3" d="M158.598 234.851h-24.509v24.745h24.509v-24.745zm-2.864 34.698h-18.781a2.85 2.85 0 01-2.025-.846 2.908 2.908 0 01-.839-2.045 2.907 2.907 0 01.844-2.036 2.851 2.851 0 012.02-.842h18.781c.758 0 1.484.303 2.021.842.536.54.84 1.271.843 2.036 0 .767-.301 1.502-.838 2.045a2.853 2.853 0 01-2.026.846zm78.871-34.698h-63.036c-1.444 0-2.616 1.183-2.616 2.641v.014c0 1.459 1.172 2.642 2.616 2.642h63.036c1.445 0 2.616-1.183 2.616-2.642v-.014c0-1.458-1.171-2.641-2.616-2.641zm-13.769 13.901h-49.267c-1.444 0-2.616 1.183-2.616 2.642v.014c0 1.458 1.172 2.641 2.616 2.641h49.267c1.445 0 2.616-1.183 2.616-2.641v-.014c0-1.459-1.171-2.642-2.616-2.642zm13.769 13.902h-63.036c-1.444 0-2.616 1.183-2.616 2.642v.014c0 1.458 1.172 2.641 2.616 2.641h63.036c1.445 0 2.616-1.183 2.616-2.641v-.014c0-1.459-1.171-2.642-2.616-2.642zm-35.8 13.902h-27.236c-1.444 0-2.616 1.183-2.616 2.641v.014c0 1.459 1.172 2.642 2.616 2.642h27.236c1.445 0 2.616-1.183 2.616-2.642v-.014c0-1.458-1.171-2.641-2.616-2.641zm9.707-199.448H62.944a4.741 4.741 0 01-3.355-1.409 4.82 4.82 0 01-.004-6.779 4.723 4.723 0 013.359-1.404h145.568c1.26 0 2.468.505 3.359 1.404a4.82 4.82 0 01-.004 6.779 4.74 4.74 0 01-3.355 1.409zm24.275 28.387h-96.082a2.614 2.614 0 01-1.85-.782 2.667 2.667 0 010-3.741 2.605 2.605 0 011.85-.773h96.082c.694 0 1.359.278 1.85.773a2.67 2.67 0 01.001 3.741 2.617 2.617 0 01-1.851.782zm-13.769 13.902h-82.313a2.615 2.615 0 01-1.85-.783 2.665 2.665 0 010-3.74 2.602 2.602 0 011.85-.774h82.313c.694 0 1.359.278 1.85.774a2.669 2.669 0 01.001 3.74 2.62 2.62 0 01-1.851.783zm13.769 13.902h-96.082a2.62 2.62 0 01-1.85-.783 2.667 2.667 0 010-3.74 2.602 2.602 0 011.85-.774h96.082c.694 0 1.359.278 1.85.774a2.67 2.67 0 01.001 3.74 2.622 2.622 0 01-1.851.783zM205.249 147.2h-68.544a2.614 2.614 0 01-1.85-.782 2.667 2.667 0 010-3.741 2.605 2.605 0 011.85-.773h68.544c.693 0 1.359.278 1.85.773a2.667 2.667 0 010 3.741 2.614 2.614 0 01-1.85.782zm-64.289 16.571l1.514 3.087 3.387.5-2.45 2.405.578 3.406-3.029-1.613-3.016 1.613.578-3.406-2.45-2.405 3.373-.5 1.515-3.087zm17.101 0l1.515 3.087 3.373.5-2.451 2.405.579 3.406-3.016-1.613-3.029 1.613.578-3.406-2.451-2.405 3.388-.5 1.514-3.087zm17.088 0l1.514 3.087 3.388.5-2.451 2.405.578 3.406-3.029-1.613-3.03 1.613.579-3.406-2.437-2.405 3.373-.5 1.515-3.087zm17.102 0l1.501 3.087 3.387.5-2.451 2.405.578 3.406-3.015-1.613-3.03 1.613.579-3.406-2.451-2.405 3.387-.5 1.515-3.087zm17.087 0l1.515 3.087 3.373.5-2.437 2.405.578 3.406-3.029-1.613-3.029 1.613.578-3.406-2.437-2.405 3.374-.5 1.514-3.087zm-68.378 17.711l1.514 3.086 3.387.501-2.45 2.405.578 3.405-3.029-1.612-3.016 1.612.578-3.405-2.45-2.405 3.373-.501 1.515-3.086zm17.101 0l1.515 3.086 3.373.501-2.451 2.405.579 3.405-3.016-1.612-3.029 1.612.578-3.405-2.451-2.405 3.388-.501 1.514-3.086zm17.088 0l1.514 3.086 3.388.501-2.451 2.405.578 3.405-3.029-1.612-3.03 1.612.579-3.405-2.437-2.405 3.373-.501 1.515-3.086z" fill="#6C757D"/><path opacity=".1" d="M192.251 181.482l1.501 3.086 3.387.501-2.451 2.405.578 3.405-3.015-1.612-3.03 1.612.579-3.405-2.451-2.405 3.387-.501 1.515-3.086zm17.087 0l1.515 3.086 3.373.501-2.437 2.405.578 3.405-3.029-1.612-3.029 1.612.578-3.405-2.437-2.405 3.374-.501 1.514-3.086z" fill="#6C757D"/><path opacity=".3" d="M140.96 199.193l1.514 3.086 3.387.5-2.45 2.406.578 3.405-3.029-1.612-3.016 1.612.578-3.405-2.45-2.406 3.373-.5 1.515-3.086zm17.101 0l1.515 3.086 3.373.5-2.451 2.406.579 3.405-3.016-1.612-3.029 1.612.578-3.405-2.451-2.406 3.388-.5 1.514-3.086zm17.088 0l1.514 3.086 3.388.5-2.451 2.406.578 3.405-3.029-1.612-3.03 1.612.579-3.405-2.437-2.406 3.373-.5 1.515-3.086zm17.102 0l1.501 3.086 3.387.5-2.451 2.406.578 3.405-3.015-1.612-3.03 1.612.579-3.405-2.451-2.406 3.387-.5 1.515-3.086z" fill="#6C757D"/><path opacity=".1" d="M209.338 199.193l1.515 3.086 3.373.5-2.437 2.406.578 3.405-3.029-1.612-3.029 1.612.578-3.405-2.437-2.406 3.374-.5 1.514-3.086z" fill="#6C757D"/><path opacity=".3" d="M158.598 304.359h-24.509v24.745h24.509v-24.745zm-2.864 34.699h-18.781a2.848 2.848 0 01-2.025-.847 2.904 2.904 0 01-.839-2.044 2.906 2.906 0 01.844-2.036 2.851 2.851 0 012.02-.842h18.781c.758 0 1.484.303 2.021.842.536.539.84 1.271.843 2.036 0 .767-.301 1.502-.838 2.044a2.85 2.85 0 01-2.026.847zm78.871-34.699h-63.036c-1.444 0-2.616 1.183-2.616 2.642v.014c0 1.458 1.172 2.641 2.616 2.641h63.036c1.445 0 2.616-1.183 2.616-2.641v-.014c0-1.459-1.171-2.642-2.616-2.642zm-13.769 13.902h-49.267c-1.444 0-2.616 1.183-2.616 2.642v.013c0 1.459 1.172 2.642 2.616 2.642h49.267c1.445 0 2.616-1.183 2.616-2.642v-.013c0-1.459-1.171-2.642-2.616-2.642zm13.769 13.902h-63.036c-1.444 0-2.616 1.183-2.616 2.641v.014c0 1.459 1.172 2.642 2.616 2.642h63.036c1.445 0 2.616-1.183 2.616-2.642v-.014c0-1.458-1.171-2.641-2.616-2.641zm-35.8 13.901h-27.236c-1.444 0-2.616 1.183-2.616 2.642v.014c0 1.458 1.172 2.641 2.616 2.641h27.236c1.445 0 2.616-1.183 2.616-2.641v-.014c0-1.459-1.171-2.642-2.616-2.642z" fill="#6C757D"/><path d="M118.447 100.199H30.076v118.47h88.371v-118.47z" fill="#fff"/><path d="M114.316 104.369h-80.11v110.13h80.11v-110.13z" fill="#407BFF"/><path opacity=".4" d="M114.316 104.369h-80.11v110.13h80.11v-110.13z" fill="#fff"/><path d="M114.316 189.892v24.606h-6.223a32.379 32.379 0 00-5.659-4.351 13.257 13.257 0 00-3.14-1.39c-9.35-2.558 4.131-27.803 4.131-27.803 3.112 1.001 6.981 4.559 10.891 8.938z" fill="#407BFF"/><path opacity=".6" d="M114.316 189.892v24.606h-6.223a32.379 32.379 0 00-5.659-4.351 13.257 13.257 0 00-3.14-1.39c-9.35-2.558 4.131-27.803 4.131-27.803 3.112 1.001 6.981 4.559 10.891 8.938z" fill="#fff"/><path opacity=".2" d="M114.317 214.415v.084h-6.224a32.336 32.336 0 00-5.659-4.352l1.845-11.635a26.969 26.969 0 014.75 5.171 35.558 35.558 0 015.288 10.732z" fill="#6C757D"/><path d="M97.16 179.939c-.193 1.001-.386 2.016-.606 3.017-.22 1-.523 2.377-.812 3.558-3.002 12.192-7.959 22.869-15.064 27.985H56.39c-7.064-3.629-8.413-9.732-8.179-16.126.152-4.324 1.033-8.731 1.377-12.512.11-1.304.11-2.616 0-3.92-.179-1.974-.55-4.352-1.005-6.951-2.107-12.109-6.224-29.583-4.13-38.55 2.492-10.899 10.367-13.901 10.367-13.901s2.672-.181 6.775-.153c3.03 0 6.885.153 10.919.542h.29a79.228 79.228 0 0113.397 2.391l1.005.292a50.52 50.52 0 012.575.848c.55.195 1.087.403 1.624.626a5.504 5.504 0 011.846 1.292c6.237 6.465 7.779 30.167 3.91 51.562z" fill="#6C757D"/><path d="M89.903 128.433c8.744-4.17 12.517 24.62 9.391 45.403" stroke="#6C757D" stroke-width=".635" stroke-linecap="round" stroke-linejoin="round"/><path d="M109.69 214.499H46.847a273.672 273.672 0 00-.798-3.573 144.726 144.726 0 00-6.155-20.324 58.24 58.24 0 018.041-4.018c.523-.236 1.06-.459 1.639-.681a91.715 91.715 0 017.545-2.642l.909-.264a90.918 90.918 0 016.884-1.723 95 95 0 0115.532-1.975 93.406 93.406 0 0111.924.195 82.52 82.52 0 014.75.473c2.025.25 4.132.57 6.211.973.234.375 4.062 6.52 5.645 22.757.386 3.197.62 6.784.716 10.802z" fill="#407BFF"/><path d="M57.477 195.648s-7.188-17.878 15.256-19.893c22.444-2.016 26.92 12.108 26.92 12.108l-10.424-3.642-5.508 25.648c-3.538-9.781-10.544-17.89-19.662-22.757l-6.582 8.536z" fill="#407BFF"/><path opacity=".6" d="M57.477 195.648s-7.188-17.878 15.256-19.893c22.444-2.016 26.92 12.108 26.92 12.108l-10.424-3.642-5.508 25.648c-3.538-9.781-10.544-17.89-19.662-22.757l-6.582 8.536z" fill="#fff"/><path d="M82.785 198.511a92.704 92.704 0 00-19.511-15.569c5.37-4.588 4.82-11.817 3.745-16.363a26.105 26.105 0 00-1.377-4.17l14.912 3.642a44.623 44.623 0 00-.922 6.367 19.868 19.868 0 00.179 4.727c.785 4.601 3.346 4.796 3.346 4.796 2.437 5.171-.372 16.57-.372 16.57z" fill="#FFBDA7"/><path opacity=".2" d="M79.687 172.404a19.858 19.858 0 00.179 4.727c-5.935-1.112-10.217-6.187-12.847-10.524a26.105 26.105 0 00-1.377-4.17l14.912 3.642a44.596 44.596 0 00-.867 6.325z" fill="#6C757D"/><path d="M74.964 122.858c16.234 0 17.597 7.924 18.533 21.576 1.157 17.071-2.616 29.193-19.015 25.496-22.265-4.991-21.315-47.072.482-47.072z" fill="#FFBDA7"/><path d="M85.016 143.683c1.042 2 2.318 3.867 3.8 5.561a3.59 3.59 0 01-1.517 1.246 3.552 3.552 0 01-1.94.255l-.343-7.062z" fill="#F19B7C"/><path d="M76.988 142.626c0 1.099-.537 1.988-1.267 2.002-.73.014-1.377-.848-1.377-1.946 0-1.098.537-1.974 1.253-1.988.716-.014 1.364.792 1.391 1.932z" fill="#6C757D"/><path d="M75.35 140.695l2.327-.987s-1.13 2.015-2.327.987zm15.036 1.362c0 1.098-.537 1.987-1.267 2.001-.73.014-1.377-.848-1.377-1.946 0-1.098.537-1.974 1.253-1.988.716-.014 1.363.848 1.39 1.933z" fill="#6C757D"/><path d="M88.747 140.18l2.313-.973s-1.046 2.03-2.313.973z" fill="#6C757D"/><path d="M76.878 133.424s-3.69-.487-5.7 1.988m15.242-2.517a6.07 6.07 0 015.219 1.099" stroke="#6C757D" stroke-width=".9" stroke-linecap="round" stroke-linejoin="round"/><path d="M60.85 145.949s6.155-10.871 5.247-19.281c0 0 9.252-9.634 21.714-.112 0 0 5.218 9.064 5.507 16.099 0 0 2.589-23.633-19.965-24.231-22.554-.598-22.5 32.739-10.878 42.692 0 0-5.439-8.369-1.625-15.167z" fill="#6C757D"/><path d="M62.985 148.744a5.843 5.843 0 00-2.005-3.948 5.736 5.736 0 00-4.177-1.377c-4.131.445-6.031 8.87 4.13 10.913 1.405.292 2.23-1.14 2.052-5.588z" fill="#FFBDA7"/><path d="M83.583 157.919s-5.507 1.251-7.78-3.712" stroke="#6C757D" stroke-width=".9" stroke-linecap="round" stroke-linejoin="round"/><path d="M66.096 126.668s14.995-6.715 24.923 2.154c0 0 3.896-11.677-9.405-15.667-13.3-3.99-26.822 9.439-26.822 9.439l11.304 4.074z" fill="#6C757D"/><path d="M66.097 126.667s-8.757 8.717-7.49 26.08c1.266 17.363-.4 28.346-3.815 39.217-3.415 10.871 5.508 14.11 5.508 14.11s-10.19 2.53-12.282-8.48c-1.377-7.229 1.9-22.882.248-41.524-1.653-18.643 4.943-31.835 17.83-29.403z" fill="#6C757D"/><path opacity=".2" d="M49.752 214.499h-2.905a270.44 270.44 0 00-.799-3.573l2.19-1.932a45.857 45.857 0 011.514 5.505z" fill="#6C757D"/><path d="M48.251 214.499H34.207v-19.463a35.074 35.074 0 015.672-4.407 12.74 12.74 0 015.125 3.991 12.906 12.906 0 012.518 6.019c.405 2.763.64 5.548.702 8.341.069 1.988.055 3.892.027 5.519z" fill="#407BFF"/><path opacity=".6" d="M48.251 214.499H34.207v-19.463a35.074 35.074 0 015.672-4.407 12.74 12.74 0 015.125 3.991 12.906 12.906 0 012.518 6.019c.405 2.763.64 5.548.702 8.341.069 1.988.055 3.892.027 5.519z" fill="#fff"/><path opacity=".3" d="M118.447 232.474H30.076v118.303h88.371V232.474z" fill="#6C757D"/><path opacity=".3" d="M103.59 250.81H43.322a2.617 2.617 0 01-1.85-.783 2.667 2.667 0 010-3.74 2.601 2.601 0 011.85-.774h60.268a2.592 2.592 0 011.859.769 2.635 2.635 0 01.771 1.873 2.682 2.682 0 01-.77 1.877 2.63 2.63 0 01-1.86.778zm.014 9.495H43.322c-1.445 0-2.616 1.182-2.616 2.641v.014c0 1.459 1.171 2.641 2.616 2.641h60.282c1.445 0 2.616-1.182 2.616-2.641v-.014c0-1.459-1.171-2.641-2.616-2.641zm-27.552 20.101h-32.73a2.616 2.616 0 01-1.85-.782 2.67 2.67 0 010-3.74 2.601 2.601 0 011.85-.774h32.73a2.59 2.59 0 011.859.769 2.639 2.639 0 01.77 1.872 2.67 2.67 0 01-.77 1.878 2.616 2.616 0 01-1.86.777zm27.538 14.792H43.322a2.602 2.602 0 01-1.85-.774 2.67 2.67 0 010-3.74 2.617 2.617 0 011.85-.783h60.268c.698 0 1.367.28 1.86.778a2.669 2.669 0 01-.001 3.75 2.602 2.602 0 01-1.859.769zm0 14.792H43.322a2.606 2.606 0 01-1.85-.774 2.654 2.654 0 01-.766-1.868c0-.7.276-1.372.766-1.867a2.601 2.601 0 011.85-.774h60.268a2.592 2.592 0 011.859.769 2.641 2.641 0 01.771 1.872 2.635 2.635 0 01-1.624 2.445 2.592 2.592 0 01-1.006.197zm-41.307 14.749h-18.96a2.6 2.6 0 01-1.85-.774 2.653 2.653 0 01-.767-1.867 2.663 2.663 0 01.762-1.877 2.6 2.6 0 011.854-.779h18.96a2.607 2.607 0 011.864.774 2.642 2.642 0 01.767 1.882 2.667 2.667 0 01-.772 1.872 2.607 2.607 0 01-1.858.769zm27.538 14.847H43.322a2.605 2.605 0 01-1.85-.773 2.657 2.657 0 010-3.736 2.604 2.604 0 011.85-.773h46.5a2.59 2.59 0 011.858.768 2.655 2.655 0 01.57 2.887 2.621 2.621 0 01-2.43 1.627z" fill="#fff"/></svg>