<svg width="14" height="18" fill="none" xmlns="http://www.w3.org/2000/svg"><path d="M7.833 8.583a1.25 1.25 0 112.5 0 1.25 1.25 0 01-2.5 0zM6.28 9.919a.625.625 0 00-1.06 0l-2.084 3.333a.625.625 0 00.53.956h6.667a.625.625 0 00.5-1l-1.25-1.667a.625.625 0 00-1 0l-.703.938-1.6-2.56z" fill="#457EEF"/><path fill-rule="evenodd" clip-rule="evenodd" d="M2.833.875A2.292 2.292 0 00.542 3.167v11.666a2.292 2.292 0 002.291 2.292h8.334a2.292 2.292 0 002.291-2.292V5.64c0-.317-.103-.626-.295-.88l-2.498-3.306A1.458 1.458 0 009.502.875H2.833zM1.791 3.167c0-.575.467-1.042 1.042-1.042h6.042v3.664c0 .345.28.625.625.625h2.708v8.42c0 .574-.466 1.041-1.042 1.041H2.833a1.042 1.042 0 01-1.042-1.042V3.167z" fill="#457EEF"/></svg>