<svg width="224" height="186" fill="none" xmlns="http://www.w3.org/2000/svg"><path d="M53.34 66.303c-.09-.403.044-.805.358-1.029l2.102-2.058c.269-.313.671-.447 1.03-.358l7.515 3.535-7.47 7.471-3.535-7.56z" fill="#E0E0E0"/><path d="M54.593 62.143l3.042 3.042c.448.448.448 1.119 0 1.522l-.402.402c-.447.448-1.119.448-1.521 0l-3.043-3.042c-.447-.447-.447-1.118 0-1.521l.403-.403c.403-.447 1.074-.447 1.521 0zm-7.113 44.559h12.662l-.895-1.208H48.375l-.895 1.208z" fill="#E0E0E0"/><path d="M53.654 105.629l-14.54-21.296a.285.285 0 010-.268l15.882-19.596s0-.044.045-.044c.09-.09.223-.09.313 0 .09.089.09.223 0 .313L39.516 84.244l14.45 21.161c.046.09.046.224-.044.269-.045.044-.09.044-.134.044-.045 0-.09-.044-.134-.089z" fill="#E0E0E0"/><path d="M40.366 84.245c0 .581-.492 1.073-1.074 1.073a1.089 1.089 0 01-1.073-1.073c0-.582.492-1.074 1.073-1.074a1.06 1.06 0 011.074 1.074z" fill="#E0E0E0"/><path opacity=".3" d="M53.698 65.275l2.103-2.103-.447-.269-1.88 1.969.18.313" fill="#E0E0E0"/><path d="M223.879 138.331H.186v.134h223.693v-.134zm-193.358 6.398h-7.203v.135h7.203v-.135zm69.84-1.208H76.426v.135h23.935v-.135zm-53.24 5.37H30.926v.134H47.12v-.134zm141.687-5.414H169.48v.134h19.328v-.134zm6.802 0h-2.819v.134h2.819v-.134zm-29.842 2.773h-24.114v.134h24.114v-.134z" fill="#E0E0E0"/><path d="M205.496 183.25c0 1.521-41.83 2.729-93.459 2.729-51.628 0-93.459-1.208-93.459-2.729 0-1.522 41.83-2.729 93.459-2.729 51.629 0 93.459 1.252 93.459 2.729z" fill="#F5F5F5"/><path d="M126.487 0h-25.098v33.912h25.098V0z" fill="#407BFF"/><path d="M124.383 2.505h-20.848V31.45h20.848V2.505z" fill="#fff" stroke="#263238" stroke-width=".224" stroke-miterlimit="10"/><path opacity=".3" d="M101.389 0l2.147 2.505h20.848L126.532 0h-25.143zm0 33.956l2.147-2.506h20.848l2.148 2.506c-.09.178-25.143 0-25.143 0z" fill="#000"/><path d="M107.652 8.589h6.935m-6.935 3.311h12.527m-12.527 2.461h12.527m-12.527 2.415h12.527m-12.527 2.461h12.527m-7.427 5.368h2.684" stroke="#263238" stroke-width=".447" stroke-miterlimit="10" stroke-linecap="round" stroke-linejoin="round"/><path d="M120.537 24.74c0 .94-.76 1.656-1.655 1.656a1.65 1.65 0 01-1.655-1.656c0-.894.76-1.655 1.655-1.655s1.655.76 1.655 1.655z" fill="#407BFF"/><path d="M42.555 3.568v25.098h33.912V3.568H42.555z" fill="#263238"/><path opacity=".3" d="M42.555 3.568v25.098h33.912V3.568H42.555z" fill="#fff"/><path d="M45.016 5.67v20.85h28.946V5.67H45.016z" fill="#fff" stroke="#263238" stroke-width=".224" stroke-miterlimit="10"/><path opacity=".3" d="M42.557 28.676l2.46-2.147V5.68l-2.46-2.148v25.143zm33.913 0l-2.505-2.147V5.68l2.505-2.148c.18.09 0 25.143 0 25.143z" fill="#000"/><path d="M49.986 12.974h19.506m-19.506 2.46h19.506M56.248 17.85h7.874m-11.139 3.579H50.3" stroke="#263238" stroke-width=".447" stroke-miterlimit="10" stroke-linecap="round" stroke-linejoin="round"/><path d="M68.462 19.684c.895 0 1.61.67 1.61 1.476 0 .805-.715 1.476-1.61 1.476-.895 0-1.61-.67-1.61-1.476 0-.805.715-1.476 1.61-1.476z" fill="#407BFF"/><path d="M56.248 10.245h7.874" stroke="#263238" stroke-width=".447" stroke-miterlimit="10" stroke-linecap="round" stroke-linejoin="round"/><path d="M46.393 37.652v19.371h26.172V37.652H46.393z" fill="#407BFF"/><path d="M48.315 39.353v16.061h22.324V39.353H48.315z" fill="#fff" stroke="#263238" stroke-width=".224" stroke-miterlimit="10"/><path opacity=".3" d="M46.406 57.042l1.924-1.656v-16.06l-1.924-1.656v19.372zm26.125 0l-1.924-1.656v-16.06l1.924-1.656c.18.045 0 19.372 0 19.372z" fill="#000"/><path d="M52.13 44.963h15.033M52.13 46.84h15.033m-10.2 1.88h6.084m-8.634 2.73h-2.057" stroke="#263238" stroke-width=".447" stroke-miterlimit="10" stroke-linecap="round" stroke-linejoin="round"/><path d="M66.402 50.107c.671 0 1.208.492 1.208 1.164 0 .626-.537 1.163-1.208 1.163-.671 0-1.208-.492-1.208-1.163-.045-.672.492-1.164 1.208-1.164z" fill="#407BFF"/><path d="M56.963 42.815h6.084" stroke="#263238" stroke-width=".447" stroke-miterlimit="10" stroke-linecap="round" stroke-linejoin="round"/><path d="M152.469 3.514v25.098h33.912V3.514h-33.912z" fill="#263238"/><path opacity=".3" d="M152.469 3.514v25.098h33.912V3.514h-33.912z" fill="#fff"/><path d="M154.928 5.662V26.51h28.946V5.662h-28.946z" fill="#fff" stroke="#263238" stroke-width=".224" stroke-miterlimit="10"/><path opacity=".3" d="M152.436 28.632l2.505-2.147V5.637l-2.505-2.148v25.143zm33.958 0l-2.505-2.147V5.637l2.505-2.148c.179.09 0 25.143 0 25.143z" fill="#000"/><path d="M159.908 12.93h19.506m-19.506 2.46h19.506m-13.287 2.417h7.874m-11.143 3.578h-2.684" stroke="#263238" stroke-width=".447" stroke-miterlimit="10" stroke-linecap="round" stroke-linejoin="round"/><path d="M178.384 19.64c.895 0 1.611.67 1.611 1.476 0 .805-.716 1.476-1.611 1.476s-1.611-.67-1.611-1.476c0-.805.716-1.476 1.611-1.476z" fill="#407BFF"/><path d="M166.127 10.201h7.874" stroke="#263238" stroke-width=".447" stroke-miterlimit="10" stroke-linecap="round" stroke-linejoin="round"/><path d="M156.967 37.63V57h26.172V37.629h-26.172z" fill="#407BFF"/><path d="M158.893 39.285v16.062h22.324V39.285h-22.324z" fill="#fff" stroke="#263238" stroke-width=".224" stroke-miterlimit="10"/><path opacity=".3" d="M156.957 56.997l1.924-1.655V39.28l-1.924-1.655v19.372zm26.174 0l-1.924-1.655V39.28l1.924-1.655c.134.045 0 19.372 0 19.372z" fill="#000"/><path d="M162.729 44.918h15.032m-15.032 1.878h15.032m-10.243 1.88h6.084m-8.591 2.728h-2.058" stroke="#263238" stroke-width=".447" stroke-miterlimit="10" stroke-linecap="round" stroke-linejoin="round"/><path d="M176.956 50.063c.671 0 1.208.492 1.208 1.163 0 .626-.537 1.163-1.208 1.163-.671 0-1.208-.492-1.208-1.163s.537-1.163 1.208-1.163z" fill="#407BFF"/><path d="M167.518 42.77h6.084" stroke="#263238" stroke-width=".447" stroke-miterlimit="10" stroke-linecap="round" stroke-linejoin="round"/><path d="M179.857 97.441h-27.201v8.456h27.201v-8.456z" fill="#407BFF"/><path opacity=".6" d="M179.857 97.441h-27.201v8.456h27.201v-8.456z" fill="#fff"/><path opacity=".6" d="M173.639 97.441h-20.983v8.456h20.983v-8.456z" fill="#fff"/><path opacity=".2" d="M173.639 97.441h-20.983v.85h20.535l.448-.85zm6.218 2.996l-27.201-.313V99.9h27.201v.537zm-27.201.851l27.201 1.521v-.224l-27.201-1.834v.537zm0 3.355l27.201-.626v-.224l-27.201.358v.492z" fill="#407BFF"/><path d="M178.07 90.863h-27.201v6.577h27.201v-6.577z" fill="#407BFF"/><path opacity=".6" d="M178.07 90.863h-27.201v6.577h27.201v-6.577z" fill="#fff"/><path opacity=".6" d="M172.567 90.863h-21.698v6.577h21.698v-6.577z" fill="#fff"/><path opacity=".2" d="M171.673 90.863h-20.804v.716h20.356l.448-.716zm6.442 4.654l-27.246.268v.179h27.246v-.447zm-27.246-.762l27.246-1.297v.179l-27.246 1.566v-.448zm0-2.907l27.246.537v.178l-27.246-.268v-.447z" fill="#407BFF"/><path d="M178.963 87.554h-27.201v3.445h27.201v-3.445z" fill="#407BFF"/><path opacity=".6" d="M178.963 87.554h-27.201v3.445h27.201v-3.445z" fill="#fff"/><path opacity=".6" d="M173.46 87.554h-21.698v3.445h21.698v-3.445z" fill="#fff"/><path opacity=".2" d="M178.963 89.969l-27.201.134v.09h27.201v-.224zm-27.201-.402l27.201-.671v.089l-27.201.85v-.268zm0-1.521l27.201.313v.09l-27.201-.135v-.268z" fill="#407BFF"/><path d="M180.754 84.107h-27.201v3.445h27.201v-3.445z" fill="#407BFF"/><path opacity=".6" d="M180.754 84.107h-27.201v3.445h27.201v-3.445z" fill="#fff"/><path opacity=".6" d="M175.251 84.107h-21.698v3.445h21.698v-3.445z" fill="#fff"/><path opacity=".2" d="M180.754 86.522l-27.201.135v.134h27.201v-.269zm-27.201-.357l27.201-.716v.09l-27.201.85v-.224zm0-1.521l27.201.269v.09l-27.201-.135v-.224z" fill="#407BFF"/><path d="M180.798 108.67H43.137v73.908h137.661V108.67z" fill="#8AAEFD"/><path d="M135.789 106.165H93.242V76.593a8.096 8.096 0 018.098-8.098h26.351a8.096 8.096 0 018.098 8.098v29.572z" fill="#407BFF"/><path opacity=".5" d="M135.789 106.165H93.242V76.593a8.096 8.096 0 018.098-8.098h26.351a8.096 8.096 0 018.098 8.098v29.572z" fill="#6594FE"/><path d="M109.034 55.476c-.761.313-7.382 4.027-5.771 13.511 1.61 9.485-4.25 6.04-2.774 7.606 1.476 1.566 2.192 2.505 6.8 1.029s12.169-1.969 15.972-2.326c3.803-.358.224-15.212-1.834-17.628-4.653-5.547-12.393-2.192-12.393-2.192z" fill="#263238"/><path d="M111.227 58.92s-4.026 7.025-4.205 9.217c-1.521 1.252-2.64-1.298-2.55-4.787.045-2.819 1.566-5.906 4.071-6.98 3.534-1.52 2.684 2.55 2.684 2.55z" fill="#263238"/><path d="M111.984 79.276c.671-.67.492-1.431.402-2.37-.089-.717-.313-1.477-.626-2.238l.984-1.073 5.235-4.787c-.269 3.31-.671 8.947 1.924 10.871l-10.917 6.756 1.029-6.443s.985-.179 1.969-.716z" fill="#FFB07B"/><path opacity=".2" d="M112.387 77.173c1.432-.76 2.998-2.102 2.863-3.668a7.206 7.206 0 00-.313-1.7l-2.953 3.534c.224.582.269.94.403 1.834z" fill="#000"/><path d="M119.589 63.574c-.671 5.01-.85 7.158-3.579 9.708-4.161 3.847-10.29 2.281-11.185-2.774-.805-4.519.403-11.99 5.593-13.914 5.055-1.879 9.842 1.969 9.171 6.98z" fill="#FFB07B"/><path d="M112.565 65.364c0 .492-.268.894-.626.894-.358.045-.627-.357-.627-.805 0-.492.269-.895.627-.895.358-.044.671.314.626.806zm-4.923-.359c.045.447-.223.85-.581.895-.358.044-.627-.313-.671-.76-.045-.448.223-.85.581-.895.358-.045.671.268.671.76zm6.311-1.297c-.045 0-.134 0-.179-.045-.76-.76-1.655-.537-1.7-.537-.134.045-.268-.044-.268-.179-.045-.134.089-.268.223-.313.045 0 1.208-.268 2.148.671a.273.273 0 010 .358c-.09.045-.134.045-.224.045zm-8.009-1.03c-.045 0-.09-.044-.134-.134-.045-.134 0-.268.134-.313 1.297-.626 2.326-.09 2.371-.045.134.045.134.224.09.314-.09.134-.224.134-.358.089-.045 0-.85-.403-1.879.045-.09.09-.179.09-.224.044z" fill="#263238"/><path d="M121.022 67.735a4.28 4.28 0 01-2.595 1.834c-1.387.269-2.013-1.879-1.476-3.22.447-1.209 1.834-1.925 3.176-1.611 1.253.313 1.611 1.834.895 2.997z" fill="#FFB07B"/><path d="M109.119 64.603s-.895 1.834-1.834 2.997c-.179.179-.09.492.178.582.627.268 1.387.09 1.387.09l.269-3.67z" fill="#DF9869"/><path d="M112.075 64.513l-1.208-.224s.716.85 1.208.224zm-4.879-.268l-1.208-.135c.582.627 1.029.314 1.208.135zm13.783-3.4c.716.984-.716 3.847-.716 3.847s-2.46-.716-2.594 2.908c-.895.134-1.924-3.266-1.79-6.666.179-1.924 3.892-1.834 5.1-.09z" fill="#263238"/><path opacity=".2" d="M119.102 65.99c.447-.18.895.134 1.029.492.179.447-.045 1.431-1.432 1.744" stroke="#000" stroke-width=".224" stroke-miterlimit="10" stroke-linecap="round" stroke-linejoin="round"/><path d="M108.363 69.926c.403.537.85 1.655.85 1.655.09-.045.224-.045.313-.09 1.477-.357 2.014-.984 2.193-1.61.089-.313.044-.626 0-.895-.045-.313-.179-.492-.179-.492-.671.627-2.014 1.074-2.729 1.298-.224.089-.448.134-.448.134z" fill="#263238"/><path d="M108.855 69.792l.269.492c1.387-.358 2.282-.76 2.639-1.298a1.144 1.144 0 00-.178-.492c-.672.627-1.969 1.074-2.73 1.298z" fill="#fff"/><path d="M109.57 71.447c1.477-.358 2.014-.985 2.193-1.611-.493.134-1.074.358-1.522.716-.402.313-.581.626-.671.894z" fill="#FB504E"/><path d="M106.395 58.026c1.073-2.193 5.547-4.25 10.692-2.148 4.608 1.924 5.95 8.5 2.64 8.724-3.356.269-7.293-2.953-7.293-2.953l-6.039-3.623zm-12.35 48.139s-1.79-2.461-.09-7.337c1.7-4.921 4.698-16.598 6.935-17.717l2.908 14.004-1.476 4.384 9.037 2.64-.358 4.071-16.956-.045z" fill="#263238"/><path d="M102.412 81.067l7.964-2.237 2.013-1.655 3.176 3.623 2.595-4.16 2.058 2.326 8.545 2.55-3.982 24.428-19.685.223-2.684-25.098z" fill="#fff"/><path d="M110.375 78.83l5.19 20.804s.179 6.487.269 6.487h-10.738l-2.147-12.93-2.013-12.124 9.439-2.237z" fill="#263238"/><path opacity=".3" d="M103.442 96.233c0-.045-1.88-8.993-1.88-8.993l1.164 11.14.716-2.147z" fill="#000"/><path opacity=".5" d="M110.375 78.83s-2.237 4.474-2.281 5.548l4.787 10.2c.76.984 2.684 5.056 2.684 5.056l-5.19-20.804z" fill="#000"/><path d="M120.219 78.965l-4.877 20.714s-.358 6.487-.402 6.487h9.753l2.416-13.511 1.834-11.587-8.724-2.103zm-4.653 1.834c0 .045-1.476 1.7-1.476 1.7l.85 1.834h1.208l.939-2.058-1.521-1.476z" fill="#263238"/><path d="M114.938 84.378c-.223.045-1.208 7.83-1.208 7.83s1.611 7.426 1.611 7.247c0-.224 2.237-9.172 2.237-9.172l-1.432-5.86h-1.208v-.045z" fill="#263238"/><path opacity=".3" d="M102.322 99.454s-3.132-.134-4.877 1.387c0 0 0-3.266 5.101-2.058l-.224.67z" fill="#000"/><path d="M111.004 106.032l.357-3.937-9.037-2.64.671-1.879" stroke="#263238" stroke-width=".224" stroke-miterlimit="10" stroke-linecap="round" stroke-linejoin="round"/><path d="M135.787 106.164s1.789-2.461.089-7.337c-1.7-4.921-4.698-16.598-6.934-17.717l-2.909 14.004 1.477 4.384-9.037 2.64.358 4.071 16.956-.045z" fill="#263238"/><path opacity=".3" d="M126.482 96.411c0-.044 1.164-9.037 1.164-9.037l-.448 11.05-.716-2.013zm1.029 3.043s3.132-.134 4.876 1.387c0 0 0-3.266-5.1-2.058l.224.67z" fill="#000"/><path d="M126.481 96.411l1.029 3.042-9.037 2.64.358 4.071" stroke="#263238" stroke-width=".224" stroke-miterlimit="10" stroke-linecap="round" stroke-linejoin="round"/><path opacity=".5" d="M120.218 78.965l-4.921 20.714s1.924-4.116 2.684-5.056l4.787-10.2c-.089-1.118-2.55-5.458-2.55-5.458z" fill="#000"/><path d="M110.6 78.83l2.684 4.653 2.326-2.684s2.371 2.326 2.371 2.236c0-.089 2.327-4.16 2.327-4.16" stroke="#263238" stroke-width=".224" stroke-miterlimit="10" stroke-linecap="round" stroke-linejoin="round"/><path opacity=".3" d="M107.064 58.384a46.995 46.995 0 0012.483 5.905m-7.918-6.934c2.595 2.73 5.637 5.011 8.992 6.846" stroke="#000" stroke-width=".224" stroke-miterlimit="10" stroke-linecap="round" stroke-linejoin="round"/><path d="M111.45 102.541s4.742-.313 5.413.224c.671.537 2.998 1.655 3.266 2.908 0 0 .045.492 0 .537-.045.044-8.992 0-8.992 0l.313-3.669z" fill="#FFAF6B"/><path d="M75.032 105.136h-18.88v1.029h20.625l-1.745-1.029z" fill="#263238"/><path d="M87.876 100.885H53.83L51.414 74.31H85.46l2.416 26.575z" fill="#407BFF"/><path d="M87.382 100.885H53.336L50.875 74.31h34.046l2.46 26.575z" fill="#263238"/><path opacity=".3" d="M73.646 100.886H69.8l4.25-9.35-.403 9.35z" fill="#000"/><path d="M61.568 105.001l7.74.448 4.742-13.914h-7.874l-4.608 13.466z" fill="#407BFF"/><path d="M60.897 105.896h7.873l4.877-14.36h-7.471l-5.28 14.36z" fill="#263238"/><path opacity=".3" d="M60.986 105.852l5.19-14.317h7.874" stroke="#000" stroke-width=".224" stroke-miterlimit="10" stroke-linecap="round" stroke-linejoin="round"/><path d="M185.63 109.744H38.44a1.814 1.814 0 01-1.834-1.834v-.403c0-1.029.805-1.834 1.834-1.834h147.19c1.029 0 1.834.805 1.834 1.834v.403a1.814 1.814 0 01-1.834 1.834z" fill="#8AAEFD"/><path opacity=".3" d="M180.798 109.744H43.137v4.787h137.661v-4.787z" fill="#000"/><path d="M142.186 110.951v71.135c0 .85 1.342.85 1.342 0v-71.135c0-.85-1.342-.894-1.342 0zm-67.018.269v69.837c0 .85 1.342.85 1.342 0V111.22c0-.85-1.342-.85-1.342 0z" fill="#000" opacity=".3"/><path d="M179.142 81.693h-23.98v2.371h23.98v-2.37z" fill="#263238"/><path d="M179.187 82.275h-3.49v1.164h3.49v-1.164z" fill="#EBEBEB"/><path d="M170.465 82.588h-13.869v.582h13.869v-.582z" fill="#407BFF"/></svg>