<svg width="226" height="181" fill="none" xmlns="http://www.w3.org/2000/svg"><path d="M112.944 180.632c62.377 0 112.943-2.952 112.943-6.594 0-3.641-50.566-6.594-112.943-6.594C50.566 167.444 0 170.397 0 174.038c0 3.642 50.566 6.594 112.944 6.594z" fill="#F5F5F5"/><path d="M68.88 169.135h-4.27l-.424-9.879h4.27l.425 9.879z" fill="#FFB07B"/><path d="M94.505 169.135h-4.27l-2.143-9.879h4.27l2.143 9.879z" fill="#9F5B53"/><path d="M89.933 168.657h4.794a.371.371 0 01.367.292l.844 3.792a.629.629 0 01-.629.757c-1.672-.029-2.487-.128-4.596-.128-1.293 0-3.967.14-5.76.14-1.795 0-2.022-1.777-1.294-1.934 3.291-.723 4.532-1.713 5.58-2.657.19-.171.438-.264.694-.262zm-25.294 0h4.66a.377.377 0 01.367.291l.838 3.793a.617.617 0 01-.611.757c-1.684-.029-4.113-.128-6.227-.128-2.47 0-4.602.14-7.497.14-1.748 0-2.243-1.777-1.509-1.934 3.338-.734 6.064-.81 8.953-2.587a1.926 1.926 0 011.026-.332z" fill="#263238"/><path d="M61.499 29.675l-5.761-2.277S49.115 40.928 47 41.61c-2.837.932-8.668 3.495-12.192 4.002-.448.582-1.165 2.33-1.02 2.97 4.859 1.585 15.21-.524 17.354-2.19 4.922-3.798 10.357-16.718 10.357-16.718z" fill="#FFB07B"/><path d="M63.05 26.605c1.44 3.821-5.825 15.064-5.825 15.064l-8.534-4.66a51.906 51.906 0 014.928-9.99c3-4.474 7.853-4.573 9.431-.414z" fill="#407BFF"/><path opacity=".6" d="M63.05 26.605c1.44 3.821-5.825 15.064-5.825 15.064l-8.534-4.66a51.906 51.906 0 014.928-9.99c3-4.474 7.853-4.573 9.431-.414z" fill="#FAFAFA"/><path d="M63.176 27.106c-1.672-.792-3.548-.128-5.435 3.023-1.887 3.151-3.408 8.429-3.542 9.932l3 1.625s6.728-10.398 5.977-14.58z" fill="#407BFF"/><path opacity=".4" d="M63.176 27.106c-1.672-.792-3.548-.128-5.435 3.023-1.887 3.151-3.408 8.429-3.542 9.932l3 1.625s6.728-10.398 5.977-14.58z" fill="#FAFAFA"/><path d="M35.556 45.571l-4.812-1.98-1.63 5.207a19.49 19.49 0 005.824 0l.618-3.227z" fill="#FFB07B"/><path d="M27.242 43.469l.082 3.46 1.788 1.87 1.631-5.202-3.5-.128z" fill="#FFB07B"/><path d="M92.362 159.256h-4.27l1.107 5.097h4.27l-1.107-5.097z" fill="#8A4743"/><path d="M57.983 23.687s-5.038 12.885-.25 36.89h22.823c.157-3.495-2.045-20.603 1.34-37.112a59.569 59.569 0 00-7.643-.967 84.235 84.235 0 00-9.705 0c-2.215.224-4.41.622-6.565 1.189z" fill="#407BFF"/><path opacity=".6" d="M57.983 23.687s-5.038 12.885-.25 36.89h22.823c.157-3.495-2.045-20.603 1.34-37.112a59.569 59.569 0 00-7.643-.967 84.235 84.235 0 00-9.705 0c-2.215.224-4.41.622-6.565 1.189z" fill="#FAFAFA"/><path d="M76.931 27.543c-.379 2.714.478 9.215 3.064 16.73-.038-6.423.49-12.836 1.579-19.165v-.035c-1.503-.151-4.276-.076-4.643 2.47z" fill="#407BFF"/><path opacity=".4" d="M76.931 27.543c-.379 2.714.478 9.215 3.064 16.73-.038-6.423.49-12.836 1.579-19.165v-.035c-1.503-.151-4.276-.076-4.643 2.47z" fill="#FAFAFA"/><path d="M63.073 22.667a37.61 37.61 0 011.474-.169 84.235 84.235 0 019.704 0c.408 0 .816.047 1.224.082l-.14.35c-.064.157-1.62 3.902-8.155 3.902-.857 0-3.449 0-4.264-1.747a2.814 2.814 0 01.157-2.418z" fill="#FAFAFA"/><path d="M72.981 13.423c-.611 3.122-.914 6.99 1.27 9.075 0 0-1.258 3.17-7.06 3.17-5.3 0-2.645-3.17-2.645-3.17 3.495-.827 3.297-5.132 2.692-7.572l5.743-1.503z" fill="#FFB07B"/><path d="M72.574 16.324l-4.112-1.707-.53.14a8.9 8.9 0 00.646 2.085 7.573 7.573 0 004.363 3.495 10.67 10.67 0 01-.367-4.013zm6.237-2.272a4.078 4.078 0 01-2.779 1.322c-1.41.064-1.8-1.275-1.165-2.44.583-1.049 2.04-2.33 3.326-1.859a1.812 1.812 0 01.618 2.977z" fill="#DF9869"/><path d="M78.12 4.225c1.922 1.23 2.039 7.229-.839 8.103-2.878.873-2.785-10.445.839-8.103z" fill="#263238"/><path d="M67.14 7.3c-.466 4.212-.95 6.653.786 9.152 2.604 3.763 8.08 2.75 9.792-1.24 1.544-3.59 2.045-9.869-1.748-12.234a5.778 5.778 0 00-8.83 4.323z" fill="#FFB07B"/><path d="M66.44 9.887c1.125.582 2.523-2.167 2.814-5.045 1.911 1.812 12.816 1.585 11.167-1.037C77.87-.272 68.584-1.146 67.134 1.54c-2.65.117-3.25 7.072-.693 8.348z" fill="#263238"/><path d="M64.465 11.565a4.037 4.037 0 002.167 2.184c1.31.53 2.126-.582 1.899-1.916-.21-1.165-1.136-2.913-2.51-2.866a1.806 1.806 0 00-1.556 2.598z" fill="#DF9869"/><path d="M57.731 60.577s-.582 31.91-.128 44.924c.483 13.537 5.213 57.861 5.213 57.861h7.23s.267-43.532.582-56.83c.35-14.493 2.103-45.955 2.103-45.955h-15z" fill="#407BFF"/><path d="M70.523 161.148c.035 0 0 2.365 0 2.365h-8.336l-.35-2.657 8.686.292z" fill="#407BFF"/><path opacity=".6" d="M70.523 161.148c.035 0 0 2.365 0 2.365h-8.336l-.35-2.657 8.686.292z" fill="#FAFAFA"/><path d="M67.717 69.046c.134 15.833 1.09 25.45 3.046 33.203.25-7.572.723-17.54 1.165-25.834l-4.211-7.37z" fill="#407BFF"/><path opacity=".2" d="M67.717 69.046c.134 15.833 1.09 25.45 3.046 33.203.25-7.572.723-17.54 1.165-25.834l-4.211-7.37z" fill="#000"/><path d="M65.828 60.577s4.84 32.62 7.503 44.854c2.912 13.397 13.881 57.954 13.881 57.954h7.817s-7.234-43.491-8.894-56.737c-1.806-14.382-5.58-46.018-5.58-46.018l-14.727-.053z" fill="#407BFF"/><path d="M95.03 161.328c.028 0 .39 2.185.39 2.185h-8.593l-.763-2.511 8.965.326z" fill="#407BFF"/><path opacity=".6" d="M95.03 161.328c.028 0 .39 2.185.39 2.185h-8.593l-.763-2.511 8.965.326z" fill="#FAFAFA"/><path d="M91.878 158.754a.092.092 0 01-.048-.02.09.09 0 01-.028-.044c-.064-.396-6.588-39.663-8.08-51.564-1.619-12.914-5.032-41.557-5.067-41.848a.07.07 0 01.064-.076.076.076 0 01.081.064c.035.286 3.443 28.928 5.068 41.842 1.491 11.901 8.015 51.163 8.08 51.559a.065.065 0 01-.001.027.07.07 0 01-.032.045.06.06 0 01-.026.009l-.011.006z" fill="#407BFF"/><path opacity=".2" d="M91.878 158.754a.092.092 0 01-.048-.02.09.09 0 01-.028-.044c-.064-.396-6.588-39.663-8.08-51.564-1.619-12.914-5.032-41.557-5.067-41.848a.07.07 0 01.064-.076.076.076 0 01.081.064c.035.286 3.443 28.928 5.068 41.842 1.491 11.901 8.015 51.163 8.08 51.559a.065.065 0 01-.001.027.07.07 0 01-.032.045.06.06 0 01-.026.009l-.011.006z" fill="#000"/><path d="M73.26 9.56c-.064.339.07.642.291.682.222.041.449-.204.507-.547.058-.344-.07-.641-.291-.682-.221-.04-.437.204-.507.548zm3.834.653c-.058.338.07.64.291.682.222.04.449-.204.513-.548.064-.344-.076-.64-.297-.682-.222-.04-.449.216-.507.548z" fill="#263238"/><path d="M75.84 10.178a12.473 12.473 0 001.119 3.18 1.976 1.976 0 01-1.672 0l.553-3.18z" fill="#DF9869"/><path d="M74.141 14.15a.105.105 0 00.117-.081.1.1 0 00-.016-.076.101.101 0 00-.066-.04 2.732 2.732 0 01-2.01-1.41.105.105 0 00-.133-.053.1.1 0 00-.062.095c0 .014.003.027.01.039a2.913 2.913 0 002.16 1.526zm-1.823-6.029a.204.204 0 00.175-.052 1.619 1.619 0 011.386-.443.204.204 0 00.245-.145.193.193 0 00-.146-.245 1.992 1.992 0 00-1.747.536.21.21 0 000 .291.245.245 0 00.087.058zm6.733 1.037a.221.221 0 00.087 0 .203.203 0 00.123-.262 2.022 2.022 0 00-1.323-1.287.204.204 0 00-.244.151.21.21 0 00.151.245 1.59 1.59 0 011.037 1.031.187.187 0 00.169.122z" fill="#263238"/><path d="M83.11 26.343l-5.12 3.448s7.386 13.136 6.763 15.239c-.844 2.866-2.021 9.134-3.623 12.308.21.688 1.276 2.255 1.87 2.528 4.077-3.104 8.202-12.815 8.044-15.535-.372-6.157-7.933-17.988-7.933-17.988z" fill="#FFB07B"/><path d="M81.892 23.466c4.037.582 8.662 14.563 8.662 14.563l-8.487 4.805s-3.734-6.652-5.58-11.598c-1.923-5.172 1.071-8.4 5.405-7.77z" fill="#407BFF"/><path opacity=".6" d="M81.892 23.466c4.037.582 8.662 14.563 8.662 14.563l-8.487 4.805s-3.734-6.652-5.58-11.598c-1.923-5.172 1.071-8.4 5.405-7.77z" fill="#FAFAFA"/><path d="M88.523 169.385a1.29 1.29 0 01-.822-.216.626.626 0 01-.21-.536.333.333 0 01.176-.285c.466-.239 1.846.582 2.003.705a.093.093 0 01.047.099.098.098 0 01-.076.081c-.365.095-.74.145-1.118.152zm-.63-.88a.278.278 0 00-.127 0c-.03 0-.059.041-.065.123a.42.42 0 00.135.367 2.076 2.076 0 001.514.075 4.05 4.05 0 00-1.456-.565z" fill="#407BFF"/><path d="M89.641 169.238h-.052c-.443-.244-1.293-1.165-1.206-1.654a.334.334 0 01.326-.262.537.537 0 01.431.128c.496.408.583 1.637.583 1.689a.122.122 0 01-.013.052.136.136 0 01-.034.042l-.035.005zm-.862-1.747h-.046c-.134 0-.146.076-.146.105-.058.279.49.984.926 1.322a2.424 2.424 0 00-.5-1.34.374.374 0 00-.257-.087h.023zm-25.935 1.899c-.365.03-.73-.062-1.037-.262a.583.583 0 01-.186-.495.313.313 0 01.169-.268c.512-.291 2.23.582 2.423.681.02.008.037.023.046.043.01.019.012.041.006.062a.096.096 0 01-.024.054.1.1 0 01-.051.028 6.922 6.922 0 01-1.346.157zm-.769-.885a.438.438 0 00-.192.035.127.127 0 00-.064.11.402.402 0 00.122.326c.268.233.967.268 1.91.117a5.506 5.506 0 00-1.758-.588h-.018z" fill="#407BFF"/><path d="M64.187 169.239h-.041c-.513-.227-1.532-1.165-1.456-1.637 0-.11.099-.25.378-.279a.711.711 0 01.583.175c.541.442.658 1.59.664 1.642a.104.104 0 01-.013.05.111.111 0 01-.034.038.08.08 0 01-.039.018.078.078 0 01-.042-.007zm-1.037-1.747h-.064c-.18 0-.193.093-.198.116-.047.292.646 1.014 1.165 1.328a2.416 2.416 0 00-.583-1.316.534.534 0 00-.32-.128z" fill="#407BFF"/><path d="M81.113 57.338l-4.078-.315 2.138 4.497s3.56.158 4.153-2.563l-2.213-1.619z" fill="#FFB07B"/><path d="M73.756 59.074l2.132 3.973 3.303-1.532-2.138-4.492-3.297 2.05z" fill="#FFB07B"/><path d="M48.086 173.923h-5.697L29.463 34.271l5.639-.524 12.984 140.176z" fill="#407BFF"/><path opacity=".3" d="M48.086 173.923h-5.697L29.463 34.271l5.639-.524 12.984 140.176z" fill="#FAFAFA"/><path d="M59.454 173.923H53.77L40.74 33.228l5.638-.524 13.077 141.219z" fill="#407BFF"/><path opacity=".3" d="M59.454 173.923H53.77L40.74 33.228l5.638-.524 13.077 141.219z" fill="#FAFAFA"/><path d="M53.77 173.923h-5.686L35.1 33.747l5.638-.519L53.77 173.923z" fill="#407BFF"/><path opacity=".4" d="M53.77 173.923h-5.686L35.1 33.747l5.638-.519L53.77 173.923z" fill="#FAFAFA"/><path d="M39.552 23.465l-5.074.472-5.015 10.333 16.916-1.567-6.827-9.238z" fill="#407BFF"/><path opacity=".8" d="M39.552 23.465l-5.074.472-5.015 10.333 16.916-1.567-6.827-9.238z" fill="#FAFAFA"/><path d="M36.62 19.504l-2.143 4.433 5.073-.472-2.93-3.961z" fill="#407BFF"/><path opacity=".4" d="M36.62 19.504l-2.143 4.433 5.073-.472-2.93-3.961z" fill="#FAFAFA"/><path d="M189.462 13.912l-6.618-.734a67.64 67.64 0 01-1.293 13.526l-2.283 11.434 6.611.734 2.284-11.434a67.64 67.64 0 001.293-13.526h.006z" fill="#407BFF"/><path opacity=".4" d="M189.462 13.912l-6.618-.734a67.64 67.64 0 01-1.293 13.526l-2.283 11.434 6.611.734 2.284-11.434a67.64 67.64 0 001.293-13.526h.006z" fill="#FAFAFA"/><path d="M200.04 27.542H97.955L85.303 173.928h102.085L200.04 27.542z" fill="#407BFF"/><path opacity=".8" d="M200.04 27.542H97.955L85.303 173.928h102.085L200.04 27.542z" fill="#FAFAFA"/><path d="M188.011 166.676H85.931l-.628 7.252h102.085l.623-7.252z" fill="#407BFF"/><path opacity=".4" d="M188.011 166.676H85.931l-.628 7.252h102.085l.623-7.252z" fill="#FAFAFA"/><path d="M193.388 27.542H91.303L78.65 173.928h102.086l12.652-146.386z" fill="#FAFAFA"/><path d="M181.359 166.676H79.279l-.629 7.252h102.086l.623-7.252z" fill="#407BFF"/><path opacity=".6" d="M181.359 166.676H79.279l-.629 7.252h102.086l.623-7.252z" fill="#FAFAFA"/><path d="M186.398 34.887H97.034a.122.122 0 01-.122-.122.128.128 0 01.122-.122h89.364c.033 0 .065.012.088.035a.13.13 0 01.04.087.114.114 0 01-.01.048.119.119 0 01-.07.067.12.12 0 01-.048.007zm-.506 5.879H96.529a.122.122 0 01-.123-.122.128.128 0 01.123-.122h89.363a.122.122 0 010 .245zm-.508 5.877H96.05a.122.122 0 110-.245h89.334a.122.122 0 110 .245zm-.508 5.877H95.513a.122.122 0 01-.087-.209.122.122 0 01.087-.036h89.363a.123.123 0 01.123.123.109.109 0 01-.01.046.123.123 0 01-.026.04.127.127 0 01-.087.036zm-.506 5.879H95.007a.122.122 0 110-.245h89.363a.123.123 0 01.123.123.122.122 0 01-.123.122zm-.511 5.878H94.501a.123.123 0 010-.245h89.358a.122.122 0 01.122.123.122.122 0 01-.122.122zm-.508 5.877H93.988a.122.122 0 110-.245h89.363a.122.122 0 010 .245zm-.508 5.883H93.48a.122.122 0 01-.123-.123.122.122 0 01.123-.122h89.363a.121.121 0 01.122.122.121.121 0 01-.122.123zm-.506 5.872H92.974a.122.122 0 010-.245h89.363a.122.122 0 110 .245zm-.506 5.878H92.468a.122.122 0 010-.245h89.363a.123.123 0 01.123.122.13.13 0 01-.123.123zm-.511 5.877H91.974a.13.13 0 01-.143-.07.127.127 0 01.035-.155.127.127 0 01.108-.026h89.357a.129.129 0 01.156.125.132.132 0 01-.048.1.127.127 0 01-.108.026h-.011zm-.508 5.877H91.449a.128.128 0 010-.25h89.363a.12.12 0 01.048.01.135.135 0 01.041.028.13.13 0 01.026.042.115.115 0 01.007.048.126.126 0 01-.035.087.125.125 0 01-.087.035zm-.508 5.877H90.941a.132.132 0 01-.048-.009.13.13 0 01-.04-.028.124.124 0 01-.034-.091.122.122 0 01.122-.122h89.363a.123.123 0 01.123.122.136.136 0 01-.008.049.14.14 0 01-.026.042.13.13 0 01-.041.028.128.128 0 01-.048.009zm-.506 5.878H90.435a.131.131 0 01-.048-.009.15.15 0 01-.04-.028.124.124 0 01-.034-.091.122.122 0 01.122-.122h89.363a.128.128 0 01.101.125c0 .029-.01.058-.028.081a.129.129 0 01-.073.044zm-.507 5.878H89.927a.114.114 0 01-.048-.01.125.125 0 01-.067-.069.124.124 0 01-.007-.049.122.122 0 01.122-.122h89.364a.126.126 0 01.072.045.123.123 0 01.029.08.128.128 0 01-.101.125zm-.522 5.877H89.423a.135.135 0 01-.057 0 .137.137 0 01-.05-.025.127.127 0 010-.2.137.137 0 01.05-.025.135.135 0 01.057 0h89.346a.137.137 0 01.057 0 .13.13 0 01.086.07.13.13 0 01-.086.18.137.137 0 01-.057 0zm-.496 5.871H88.909a.121.121 0 01-.086-.208.122.122 0 01.086-.036h89.364a.122.122 0 01.122.122.121.121 0 01-.122.122zm-.506 5.879H88.404a.122.122 0 010-.244h89.363c.032 0 .064.013.086.035a.124.124 0 01.036.087.12.12 0 01-.036.086.12.12 0 01-.086.036zm-.508 5.895H87.896a.122.122 0 01-.087-.209.122.122 0 01.087-.036h89.363a.122.122 0 01.122.123.121.121 0 01-.122.122zm-.508 5.86H87.388a.122.122 0 010-.244h89.363a.122.122 0 01.087.208.123.123 0 01-.087.036zm-.511 5.878H86.882a.122.122 0 01-.086-.209.122.122 0 01.086-.036h89.358a.122.122 0 01.122.123.122.122 0 01-.122.122zm-.508 5.877H86.368a.122.122 0 010-.245h89.364a.122.122 0 01.122.123.122.122 0 01-.122.122z" fill="#407BFF"/><path d="M186.398 34.888H97.034a.124.124 0 01-.113-.075.123.123 0 01-.009-.047.128.128 0 01.122-.122h89.364c.033 0 .065.012.088.035a.13.13 0 01.04.087.115.115 0 01-.01.048.12.12 0 01-.118.074zm-.506 5.878H96.529a.122.122 0 01-.123-.122.128.128 0 01.123-.122h89.363a.122.122 0 010 .245zm-.508 5.877H96.05a.122.122 0 110-.245h89.334a.122.122 0 110 .245zm-.508 5.877H95.513a.122.122 0 01-.087-.209.122.122 0 01.087-.036h89.363a.123.123 0 01.123.123.109.109 0 01-.01.046.123.123 0 01-.026.04.127.127 0 01-.087.036zm-.506 5.878H95.007a.122.122 0 110-.245h89.363a.123.123 0 01.123.123.122.122 0 01-.123.122zm-.511 5.878H94.501a.123.123 0 01-.086-.209.122.122 0 01.086-.036h89.358a.122.122 0 010 .245zm-.508 5.878H93.988a.122.122 0 110-.245h89.363a.122.122 0 010 .245zm-.506 5.883H93.482a.122.122 0 110-.245h89.363a.121.121 0 01.122.122.121.121 0 01-.122.123zm-.508 5.872H92.974a.122.122 0 010-.245h89.363a.122.122 0 110 .245zm-.508 5.878H92.466a.122.122 0 01-.086-.21.122.122 0 01.086-.035h89.363a.123.123 0 01.123.122.13.13 0 01-.123.123zm-.511 5.877H91.972a.13.13 0 01-.143-.07.129.129 0 01.086-.18.128.128 0 01.057 0h89.357a.129.129 0 01.156.124.132.132 0 01-.048.1.127.127 0 01-.108.026h-.011zm-.506 5.877H91.449a.128.128 0 010-.25h89.363a.12.12 0 01.048.01.135.135 0 01.041.028.13.13 0 01.026.042.115.115 0 01.007.048.126.126 0 01-.035.087.125.125 0 01-.087.035zm-.51 5.878H90.939a.131.131 0 01-.048-.009.13.13 0 01-.04-.028.126.126 0 01-.034-.091.122.122 0 01.122-.122h89.363a.123.123 0 01.123.122.136.136 0 01-.008.049.14.14 0 01-.026.042.13.13 0 01-.041.028.128.128 0 01-.048.009zm-.506 5.877H90.433a.132.132 0 01-.048-.009.149.149 0 01-.04-.028.124.124 0 01-.034-.091.122.122 0 01.122-.122h89.363a.128.128 0 01.101.125c0 .029-.01.058-.028.081a.129.129 0 01-.073.044zm-.504 5.877H89.929a.114.114 0 01-.048-.01.124.124 0 01-.066-.069.124.124 0 01-.008-.049.122.122 0 01.122-.122h89.363a.128.128 0 01.101.125c0 .029-.01.058-.028.081a.129.129 0 01-.073.044zm-.523 5.878H89.423a.135.135 0 01-.057 0 .137.137 0 01-.05-.025.127.127 0 010-.2.137.137 0 01.05-.025.135.135 0 01.057 0h89.346a.137.137 0 01.057 0 .13.13 0 01.086.07.13.13 0 01-.086.18.137.137 0 01-.057 0zm-.498 5.873H88.908a.125.125 0 01-.087-.035.124.124 0 01-.036-.087.122.122 0 01.122-.122h89.364a.122.122 0 01.122.122.124.124 0 01-.036.087.125.125 0 01-.086.035zm-.506 5.876H88.402a.122.122 0 01-.087-.208.122.122 0 01.087-.036h89.363c.032 0 .064.013.087.036a.124.124 0 010 .172.124.124 0 01-.087.036zm-.506 5.897H87.896a.122.122 0 01-.087-.209.122.122 0 01.087-.036h89.363a.121.121 0 01.122.122.122.122 0 01-.122.123zm-.508 5.86H87.388a.122.122 0 01-.087-.209.117.117 0 01.087-.035h89.363a.118.118 0 01.087.035.123.123 0 01-.087.209zm-.513 5.877H86.88a.122.122 0 010-.245h89.358a.122.122 0 01.122.123.122.122 0 01-.122.122zm-.506 5.876H86.368a.122.122 0 010-.245h89.364a.122.122 0 01.122.123.122.122 0 01-.122.122z" opacity=".5" fill="#FAFAFA"/><path d="M166.183 163.618a.067.067 0 01-.042-.024.075.075 0 01-.016-.045l11.446-132.4c0-.035.03-.052.064-.058a.072.072 0 01.043.024c.01.013.016.029.016.046L166.242 163.56c0 .016-.007.03-.018.041a.055.055 0 01-.041.017z" fill="#407BFF"/><path opacity=".3" d="M166.183 163.618a.067.067 0 01-.042-.024.075.075 0 01-.016-.045l11.446-132.4c0-.035.03-.052.064-.058a.072.072 0 01.043.024c.01.013.016.029.016.046L166.242 163.56c0 .016-.007.03-.018.041a.055.055 0 01-.041.017z" fill="#000"/><path d="M175.4 12.205h-6.653c.53 4.51.601 9.06.21 13.584l-1.002 11.621h6.652l1.002-11.62a66.967 66.967 0 00-.209-13.585z" fill="#407BFF"/><path opacity=".3" d="M175.4 12.205h-6.653c.53 4.51.601 9.06.21 13.584l-1.002 11.621h6.652l1.002-11.62a66.967 66.967 0 00-.209-13.585z" fill="#000"/><path d="M117.238 39.73h-.047a.135.135 0 01-.099-.128 1.162 1.162 0 00-.431-.81 2.27 2.27 0 00-1.684-.443 7.6 7.6 0 00-1.374.373 7.097 7.097 0 01-1.527.396 3.685 3.685 0 01-2.638-.775 2.548 2.548 0 01-2.558 1.119 2.52 2.52 0 01-1.648-1.165.89.89 0 00-1.165-.303 24.79 24.79 0 01-2.33 1.03.15.15 0 01-.123 0 .149.149 0 01-.069-.104 2.272 2.272 0 010-.583.456.456 0 00-.164-.413.379.379 0 00-.378-.064 3.012 3.012 0 00-.886.46l-.128.099c-.582.454-1.083.792-1.421.746a.379.379 0 01-.245-.146.932.932 0 01-.134-.647 2.383 2.383 0 011.853-2.033.148.148 0 01.169.11c.004.02.004.04.001.06a.142.142 0 01-.064.095.144.144 0 01-.054.02 2.073 2.073 0 00-1.613 1.777.664.664 0 00.075.443.064.064 0 00.053.03c.244.034.844-.414 1.206-.688l.128-.099c.293-.22.62-.39.967-.507a.672.672 0 01.652.117.73.73 0 01.274.67 1.83 1.83 0 000 .314c.716-.28 1.418-.597 2.103-.95a1.166 1.166 0 011.555.42 2.159 2.159 0 003.017.767 2.16 2.16 0 00.775-.843.135.135 0 01.164-.071.158.158 0 01.058.03 3.356 3.356 0 002.551.816c.499-.074.99-.2 1.462-.379.463-.174.94-.304 1.427-.39a2.605 2.605 0 011.911.507c.226.18.393.423.478.699.926-1.049 2.033-2.091 3.419-2.033a.639.639 0 01.483.186.672.672 0 01.094.536l-.164 1.23a6.194 6.194 0 001.847-1.585c.229-.31.507-.581.821-.804a.853.853 0 011.049-.035c.2.185.336.427.39.693 0 .076.047.152.076.222a.706.706 0 00.344.384.207.207 0 00.186 0 .145.145 0 01.192.07.152.152 0 01-.07.198.52.52 0 01-.419 0 .99.99 0 01-.501-.547c-.035-.076-.058-.158-.087-.24a1.08 1.08 0 00-.292-.582.58.58 0 00-.693.03 3.271 3.271 0 00-.751.74 6.407 6.407 0 01-2.191 1.793.145.145 0 01-.145 0 .143.143 0 01-.064-.14l.198-1.508c0-.117.029-.245-.029-.309-.059-.064-.128-.076-.262-.081h-.088c-1.328 0-2.4 1.118-3.303 2.172a.158.158 0 01-.139.053zm33.196-.02a1.745 1.745 0 01-1.34-.92 6.308 6.308 0 01-.326-.652 5.147 5.147 0 00-.396-.757 6.263 6.263 0 01-2.231 1.252.134.134 0 01-.14 0 .138.138 0 01-.046-.14c.046-.222.076-.448.087-.675a1.119 1.119 0 00-.466-.973 1.075 1.075 0 00-1.043-.134l-1.677.647c-.268.099-1.078.413-1.515-.082a1.65 1.65 0 01-.14-.204.584.584 0 00-.192-.216c-.134-.064-.314.03-.477.134a76.158 76.158 0 01-3.251 1.894c-.38.25-.816.403-1.27.442a1.436 1.436 0 01-1.112-.541 1.463 1.463 0 01-.367-.845 3.818 3.818 0 01-2.301 1.043 1.096 1.096 0 01-.647-.227 1.042 1.042 0 01-.285-1.206c.166-.366.411-.69.716-.95a.146.146 0 01.22-.016.152.152 0 01.042.114.144.144 0 01-.058.106 2.553 2.553 0 00-.646.85.756.756 0 00.18.863.81.81 0 00.495.128c.851 0 1.602-.583 2.365-1.165a.154.154 0 01.082-.024c.029 0 .057.008.081.024a.134.134 0 01.06.064.138.138 0 01.01.087 1.179 1.179 0 00.291.944 1.172 1.172 0 00.874.437 2.547 2.547 0 001.165-.402 60.424 60.424 0 003.233-1.893.812.812 0 01.763-.146.749.749 0 01.309.326c.032.056.069.108.111.158.209.238.582.238 1.194 0l1.678-.647a1.395 1.395 0 011.322.175 1.423 1.423 0 01.582 1.223 4.153 4.153 0 01-.052.472 6.04 6.04 0 002.015-1.218.164.164 0 01.111-.04.132.132 0 01.099.058c.215.288.391.604.524.938.099.215.198.43.315.629a1.314 1.314 0 001.27.751c.384-.087.635-.437.903-.815a1.957 1.957 0 011.077-.932c.481-.047.961.088 1.346.378.151.082.303.17.454.24.886.39 1.853.156 2.872-.094a6.616 6.616 0 012.423-.28.143.143 0 01.101.053c.012.016.02.034.025.053a.142.142 0 01.003.057.147.147 0 01-.164.122 6.499 6.499 0 00-2.33.28c-1.025.25-2.079.507-3.058.07a4.605 4.605 0 01-.477-.25 1.703 1.703 0 00-1.166-.344c-.39.088-.64.443-.908.816a1.95 1.95 0 01-1.072.932 1.16 1.16 0 01-.245.029zm-48.648 5.762a.157.157 0 01-.081 0 .16.16 0 01-.065-.134c.03-.304.099-.604.204-.891a3.866 3.866 0 01-3.11.658 1.194 1.194 0 01-.583-.25 1.037 1.037 0 010-1.375 2.546 2.546 0 011.165-.722.146.146 0 01.105.273 2.332 2.332 0 00-1.031.63.758.758 0 000 .978c.13.094.28.155.437.18a3.627 3.627 0 003.425-1.106.145.145 0 01.198 0c.03.022.051.055.057.092a.142.142 0 01-.022.106c-.243.36-.408.767-.483 1.194l3.798-2.004a.144.144 0 01.186.04.15.15 0 01.032.094.15.15 0 01-.032.094.206.206 0 00-.035.21.42.42 0 00.291.267c.29.004.57-.1.787-.291l.04-.035c.255-.222.569-.366.903-.413.213 0 .423.044.618.128 1.908.644 3.932.873 5.936.67.308-.035.623-.076.932-.123a7.715 7.715 0 013.611.076.131.131 0 01.05.028.134.134 0 01.048.102.136.136 0 01-.01.056.123.123 0 01-.027.05.133.133 0 01-.154.038 7.608 7.608 0 00-3.495-.059c-.315.041-.629.088-.944.117a14.335 14.335 0 01-6.058-.734 1.048 1.048 0 00-1.276.245l-.046.029a1.364 1.364 0 01-1.008.343.702.702 0 01-.512-.466.387.387 0 01-.03-.11l-3.734 1.998a.155.155 0 01-.087.017zm23.524-.36a.148.148 0 01-.088 0 .159.159 0 01-.042-.052.147.147 0 01-.016-.065v-.868c0-.038.015-.076.043-.103a.144.144 0 01.103-.043.15.15 0 01.101.041.143.143 0 01.044.1v.675a7.221 7.221 0 003.123-1.928.121.121 0 01.099-.047.205.205 0 01.104.041c.148.174.238.39.257.617.041.21.075.39.209.467a.6.6 0 00.356 0 8.333 8.333 0 002.4-.682c.681-.309 1.607-.728 2.254-.192l.117.11a.652.652 0 00.198.152.797.797 0 00.279.047.944.944 0 01.181 0c.205.038.402.111.582.215.096.052.195.096.297.134.239.093.548.064.641-.122a.147.147 0 01.081-.077.139.139 0 01.111.007c.018.008.034.02.048.034a.157.157 0 01.03.05.161.161 0 01.008.058.157.157 0 01-.016.056.793.793 0 01-1.002.268 3.421 3.421 0 01-.332-.146 1.58 1.58 0 00-.495-.192h-.157a1.064 1.064 0 01-.39-.07.962.962 0 01-.28-.215l-.099-.094c-.507-.413-1.305-.052-1.946.24a8.73 8.73 0 01-2.481.704.903.903 0 01-.536-.058.842.842 0 01-.355-.67 1.792 1.792 0 00-.088-.338 7.57 7.57 0 01-3.308 1.94l-.035.006zm19.012-.421a.68.68 0 01-.151 0 .642.642 0 01-.425-.337.44.44 0 010-.408.141.141 0 01.198-.064c.017.008.031.02.043.035a.152.152 0 01.027.049.142.142 0 01-.012.108.179.179 0 000 .157.352.352 0 00.221.175.99.99 0 00.583-.163 6.875 6.875 0 001.911-1.515.152.152 0 01.169-.035.805.805 0 01.361.682c.015.134.048.265.099.39a.47.47 0 00.279.227 1.8 1.8 0 001.165-.256l2.097-1.136a.964.964 0 01.624-.157.938.938 0 01.442.309l.094.093c.681.652 1.8.28 2.784-.047l.186-.058a9.228 9.228 0 015.639 0 .136.136 0 01.089.069.134.134 0 01.01.112.152.152 0 01-.074.084.152.152 0 01-.112.009 8.953 8.953 0 00-5.458 0l-.187.064c-1.013.332-2.266.751-3.081 0l-.099-.105a.726.726 0 00-.297-.221.713.713 0 00-.42.128l-2.097 1.136c-.422.25-.918.35-1.404.28a.742.742 0 01-.454-.373 1.524 1.524 0 01-.128-.478 1.003 1.003 0 00-.117-.396 7.09 7.09 0 01-1.905 1.474c-.183.102-.389.16-.6.168zm-30.989 7.259a.128.128 0 01-.064 0 .159.159 0 01-.082-.157 8.54 8.54 0 000-2.534 3.793 3.793 0 01-1.31.914 1.596 1.596 0 01-1.829-.436 1.2 1.2 0 01-.099-.152c-.163-.245-.286-.42-.431-.373a.43.43 0 00-.169.146l-1.707 1.963a.139.139 0 01-.09.033.144.144 0 01-.091-.033.151.151 0 01-.07-.169l.327-1.09a22.137 22.137 0 01-3.565-.203.15.15 0 01-.073-.033.147.147 0 01-.044-.066l-.175-.501a5.243 5.243 0 01-1.998 1.194 2.13 2.13 0 01-2.248-.664 1.841 1.841 0 01-1.748.367.15.15 0 01-.099-.157 1.165 1.165 0 011.119-.99.134.134 0 01.145.145.146.146 0 01-.145.146.91.91 0 00-.804.617 1.538 1.538 0 001.462-.454.14.14 0 01.186-.022.15.15 0 01.047.051 1.81 1.81 0 002.021.681 5.6 5.6 0 002.051-1.27.143.143 0 01.134 0 .142.142 0 01.061.035c.017.016.03.036.038.059l.209.617c1.203.159 2.417.22 3.63.187a.138.138 0 01.116.052.142.142 0 010 .134l-.186.635 1.264-1.456a.745.745 0 01.303-.233c.361-.117.582.239.763.495.027.049.058.095.093.14a1.304 1.304 0 001.491.332 4.155 4.155 0 001.404-1.049.163.163 0 01.146-.035.152.152 0 01.066.044.152.152 0 01.033.073c.144.807.175 1.63.093 2.446l1.27-1.398a2.544 2.544 0 011.089-.815 2.568 2.568 0 011.59.221 2.18 2.18 0 001.445.192.145.145 0 01.186.088.15.15 0 01-.087.186 2.412 2.412 0 01-1.643-.192 1.677 1.677 0 00-2.365.518l-1.578 1.748a.16.16 0 01-.082.023zm16.574-1.386h-.157c-.402-.1-.531-.495-.641-.845a1.564 1.564 0 00-.28-.582 5.399 5.399 0 01-3.338 1.165.15.15 0 01-.145-.146c0-.038.015-.075.042-.103a.148.148 0 01.103-.042 5.071 5.071 0 003.227-1.166.145.145 0 01.175 0c.247.216.415.507.478.828.116.367.204.582.431.646a.695.695 0 00.402-.058 5.353 5.353 0 001.509-.792c.127-.11.276-.194.436-.245.279-.045.565.013.804.163l.14.064c.833.367 1.748.17 2.709-.035a5.468 5.468 0 012.615-.14.152.152 0 01.105.181.14.14 0 01-.07.087.14.14 0 01-.11.012 5.32 5.32 0 00-2.482.146c-.967.204-1.969.42-2.883 0l-.146-.064a.95.95 0 00-.583-.152.923.923 0 00-.314.18 5.954 5.954 0 01-1.608.857 1.449 1.449 0 01-.419.04zm-33.01 12.407a1.75 1.75 0 01-.658-.128.961.961 0 01-.484-.396c-.32-.583.262-1.165.856-1.526a.147.147 0 01.162.014.145.145 0 01.036.044.145.145 0 01-.052.198c-.39.221-.979.705-.746 1.13.082.121.2.213.338.262.618.262 1.41.047 2.33-.629a13.091 13.091 0 001.818-1.584.156.156 0 01.11-.047.139.139 0 01.105.053c.156.239.212.53.158.81a.81.81 0 00.104.582.674.674 0 00.63.087 8.123 8.123 0 002.464-1.095c.326-.198.664-.396 1.007-.583a.701.701 0 01.332-.104c.373 0 .484.36.583.646.035.184.12.355.245.495.163.134.378.059.71-.07.195-.092.403-.151.618-.174.326.01.642.114.908.303l.187.104c.274.14.664.233.868 0a.145.145 0 01.204 0 .152.152 0 010 .21 1.04 1.04 0 01-1.212.03l-.198-.111a1.382 1.382 0 00-.746-.263 1.836 1.836 0 00-.524.152c-.326.128-.693.28-1.008 0a1.273 1.273 0 01-.338-.64c-.087-.304-.145-.432-.285-.438a.493.493 0 00-.204.076c-.332.169-.664.367-.99.583a8.334 8.334 0 01-2.557 1.135.938.938 0 01-.897-.18 1.034 1.034 0 01-.181-.822c.024-.148.024-.3 0-.448a13.837 13.837 0 01-1.748 1.474 3.495 3.495 0 01-1.945.85zm19.284.029a1.37 1.37 0 01-.641-.14 1.058 1.058 0 01-.548-1.042.69.69 0 01.495-.63.143.143 0 01.109.013.15.15 0 01.042.037.152.152 0 01.024.05.148.148 0 01-.012.11.142.142 0 01-.037.044.14.14 0 01-.05.026.403.403 0 00-.28.38.787.787 0 00.385.75 2.14 2.14 0 001.648-.163l3.07-1.165a.679.679 0 01.414-.046.589.589 0 01.349.379.73.73 0 00.146.22c.116.094.32.053.612-.116l2.475-1.48a.8.8 0 01.519-.157c.384.059.472.455.541.775.018.093.041.184.07.274a1.208 1.208 0 001.41.647 4.073 4.073 0 001.456-.793l.134-.099c.269-.23.603-.37.956-.402.248.023.488.099.704.222h.047a8.822 8.822 0 003.495.856 1.09 1.09 0 01-.093-.582 1.432 1.432 0 01.553-.997 2.434 2.434 0 011.876-.285c.645.124 1.26.371 1.812.728l.186.128c.18.138.375.253.583.344a2.912 2.912 0 001.957-.268l.507-.186c1.66-.542 3.46-.297 5.044-.088l6.239.839a.14.14 0 01.128.163.145.145 0 01-.163.123l-6.239-.834c-1.561-.21-3.326-.448-4.916.076l-.501.175a2.33 2.33 0 01-2.819-.105l-.187-.122a4.734 4.734 0 00-1.707-.688 2.146 2.146 0 00-1.648.24 1.1 1.1 0 00-.431.78.746.746 0 00.186.582.155.155 0 01.026.158.152.152 0 01-.131.093 9.196 9.196 0 01-3.897-.891h-.046a1.434 1.434 0 00-.583-.193 1.443 1.443 0 00-.769.35l-.134.093a4.18 4.18 0 01-1.567.845 1.502 1.502 0 01-1.747-.828c-.029-.093-.053-.198-.076-.297-.07-.326-.128-.524-.297-.547a.58.58 0 00-.326.116l-2.482 1.48c-.151.087-.611.361-.943.093a.959.959 0 01-.222-.32c-.058-.128-.105-.21-.169-.227a.384.384 0 00-.227.04l-3.07 1.165c-.393.17-.813.27-1.24.297zm43.101-1.078a.725.725 0 01-.391-.1.539.539 0 01-.25-.471.38.38 0 01.204-.338.152.152 0 01.198.064.15.15 0 01.007.112.15.15 0 01-.071.086.08.08 0 00-.038.036.078.078 0 00-.009.051.253.253 0 00.105.21c.188.07.395.07.583 0a31.114 31.114 0 003.267-.815c.536-.163 1.165-.17 1.334.32.018.059.029.12.035.18a.445.445 0 00.053.175c.052.07.198.076.32.076a15.973 15.973 0 004.614-.81.146.146 0 01.178.206.145.145 0 01-.085.074 16.31 16.31 0 01-4.701.821.646.646 0 01-.583-.198.587.587 0 01-.104-.303.474.474 0 00-.03-.128c-.128-.384-.885-.163-.966-.134a32.095 32.095 0 01-3.298.822 2.03 2.03 0 01-.372.064zM91.77 139.531a1.382 1.382 0 01-.64-.145 1.059 1.059 0 01-.548-1.043.679.679 0 01.495-.629.152.152 0 01.06-.01.15.15 0 01.106.054.144.144 0 01.03.114.148.148 0 01-.064.1.162.162 0 01-.056.022.397.397 0 00-.28.378.797.797 0 00.385.757c.55.165 1.143.104 1.648-.168l3.07-1.165a.676.676 0 01.414-.047.579.579 0 01.35.379.669.669 0 00.145.221c.116.093.32.052.582-.117l2.476-1.479a.834.834 0 01.518-.152c.385.053.472.449.542.769.017.093.041.185.07.274a1.205 1.205 0 001.404.629 4.03 4.03 0 001.45-.792l.14-.099a1.29 1.29 0 011.66-.181h.041a8.864 8.864 0 003.495.857 1.177 1.177 0 01-.093-.583 1.416 1.416 0 01.583-.996 2.465 2.465 0 011.875-.285c.645.124 1.26.371 1.812.728l.18.128a2.116 2.116 0 002.564.076l.506-.187c1.655-.536 3.46-.297 5.045-.087l6.239.839a.12.12 0 01.055.016.124.124 0 01.045.037.126.126 0 01.025.052.142.142 0 01.003.058.154.154 0 01-.058.093.152.152 0 01-.105.029l-6.257-.775c-1.561-.209-3.326-.442-4.916.076l-.501.175c-.66.352-1.428.45-2.155.274a3.14 3.14 0 01-.67-.379l-.181-.122a4.85 4.85 0 00-1.706-.688 2.185 2.185 0 00-1.649.239 1.112 1.112 0 00-.431.781.745.745 0 00.186.582.158.158 0 01.036.076.154.154 0 01-.062.147.157.157 0 01-.078.028 9.219 9.219 0 01-3.897-.892h-.047a1.537 1.537 0 00-.583-.192 1.442 1.442 0 00-.769.35l-.134.099a4.276 4.276 0 01-1.566.839 1.505 1.505 0 01-1.748-.828 4.006 4.006 0 01-.076-.297c-.07-.326-.128-.524-.297-.547a.581.581 0 00-.326.116l-2.481 1.48c-.152.087-.583.367-.944.093a.907.907 0 01-.222-.32c-.058-.128-.099-.21-.169-.227a.434.434 0 00-.227.04l-3.075 1.165a3.65 3.65 0 01-1.224.262zm43.098-1.107a.733.733 0 01-.391-.099.54.54 0 01-.25-.472.378.378 0 01.204-.338.155.155 0 01.112-.008.156.156 0 01.086.072.151.151 0 01-.064.198.074.074 0 00-.038.036.077.077 0 00-.009.051.252.252 0 00.105.21.822.822 0 00.582 0 30.297 30.297 0 003.268-.815c.536-.164 1.165-.169 1.334.32a.924.924 0 01.035.18.43.43 0 00.053.175c.052.07.198.076.32.076a15.963 15.963 0 004.59-.81.153.153 0 01.113.008.151.151 0 01.074.085.146.146 0 01-.094.187 16.305 16.305 0 01-4.7.821.64.64 0 01-.583-.192.582.582 0 01-.105-.309.457.457 0 000-.128c-.128-.384-.885-.163-.973-.134-1.081.332-2.18.606-3.291.821-.123.034-.25.056-.378.065zM123.703 68.68a2.702 2.702 0 01-1.678-.519 1.796 1.796 0 01-.501-.617c-.155.12-.331.21-.518.268a3.217 3.217 0 01-2.593-.553.62.62 0 00-.314-.134.613.613 0 00-.344.21l-.408.384a1.307 1.307 0 01-1.759.043 1.318 1.318 0 01-.367-.52l-.186-.473a10.807 10.807 0 01-5.639.472 6.16 6.16 0 01-2.225.74.15.15 0 01-.122-.04.165.165 0 01-.047-.117c.034-.39-.041-.78-.216-1.13-.758.34-1.604.43-2.417.256l-.163-.035a1.96 1.96 0 00-.536-.082c-.278.035-.544.13-.781.28l-.279.157a5.243 5.243 0 01-1.748.717 1.868 1.868 0 01-1.899-.746 1.794 1.794 0 01-1.281.402.909.909 0 01-.688-.664.582.582 0 01.193-.64.151.151 0 01.204 0 .157.157 0 01-.03.209.32.32 0 00-.087.338.623.623 0 00.454.448c.444.006.874-.154 1.206-.448a.152.152 0 01.123 0 .17.17 0 01.093.087 1.544 1.544 0 001.666.728 5.134 5.134 0 001.631-.687l.279-.157a2.07 2.07 0 01.909-.315c.209.001.417.03.618.087l.151.035c.797.17 1.629.065 2.359-.297a.156.156 0 01.192.058c.215.379.327.806.327 1.241a5.831 5.831 0 001.992-.704.145.145 0 01.099 0c1.899.36 3.861.187 5.668-.502a.152.152 0 01.192.088l.239.582a1.017 1.017 0 001.648.373l.414-.39a.844.844 0 01.536-.285.894.894 0 01.472.174 2.995 2.995 0 002.33.53 1.52 1.52 0 00.489-.273 1.892 1.892 0 01-.099-.583 1.41 1.41 0 01.513-1.165.16.16 0 01.116-.03.152.152 0 01.054.023.134.134 0 01.039.042 1.288 1.288 0 01.105 1.165c-.088.23-.22.44-.39.618.107.226.264.426.46.582a3.043 3.043 0 002.551.314c.444-.12.88-.269 1.305-.442a9.536 9.536 0 013.495-.74 14.216 14.216 0 001.719-.198l.67-.151c.972-.234 1.974-.466 2.86 0 .017.008.033.02.045.035a.126.126 0 01.028.05.139.139 0 01.007.057.153.153 0 01-.016.056.145.145 0 01-.087.07.146.146 0 01-.111-.012c-.787-.414-1.748-.192-2.656.029l-.682.151c-.578.1-1.162.168-1.748.204-.697.035-1.391.129-2.073.28a12.76 12.76 0 00-1.305.443 12.49 12.49 0 01-1.34.454c-.365.1-.74.157-1.118.169zm-1.829-2.808a1.164 1.164 0 00-.274.792 1.42 1.42 0 00.041.35 1.57 1.57 0 00.221-.396c.091-.24.095-.504.012-.746zm23.34 2.301c-.171 0-.342-.012-.512-.035a.157.157 0 01-.099-.058.133.133 0 01-.013-.056.13.13 0 01.013-.055 1.7 1.7 0 00-.047-.786 8.269 8.269 0 01-4.875.466.137.137 0 01-.065-.03.137.137 0 01-.04-.058.132.132 0 01-.017-.067c0-.023.005-.046.017-.067l.442-.646a.143.143 0 01.147-.063.138.138 0 01.051.022.149.149 0 01.064.093.185.185 0 010 .058.148.148 0 01-.023.053l-.32.466a7.974 7.974 0 004.625-.554.134.134 0 01.117 0 .147.147 0 01.081.076c.118.298.162.62.128.938 1.293.122 2.528-.542 3.717-1.165.343-.186.693-.379 1.042-.548a.889.889 0 01.624-.116c.218.09.394.261.489.478.026.05.055.099.087.145.461.693 1.521.676 2.33.542.255-.055.517-.067.775-.035.189.047.369.122.536.221l.175.088c.967.466 2.225.308 3.85-.478.775-.379 1.666-.74 2.359-.262a.13.13 0 01.047.039.141.141 0 01.029.116.132.132 0 01-.023.056.142.142 0 01-.162.057.149.149 0 01-.054-.03c-.582-.39-1.369-.057-2.073.286-1.707.827-3.047.985-4.078.478l-.181-.093a2 2 0 00-.454-.193 1.75 1.75 0 00-.641.035c-1.31.216-2.213 0-2.65-.664l-.099-.157c-.093-.157-.181-.309-.315-.35a.628.628 0 00-.413.1 23.55 23.55 0 00-1.031.541c-1.16.583-2.313 1.212-3.56 1.212zM96.365 79.951h-.14a.88.88 0 01-.635-.838c.011-.337.096-.668.25-.967a.145.145 0 01.268.005.152.152 0 010 .111c-.135.26-.213.546-.227.839a.582.582 0 00.402.582.792.792 0 00.449-.087 4.253 4.253 0 001.578-1.118.146.146 0 01.157-.047c.245.082.28.326.315.524.005.11.037.216.093.309.082.087.25.093.513 0a21.423 21.423 0 002.639-1.037c.262-.139.566-.178.856-.11a.46.46 0 01.268.256c.034.097.05.2.046.303a.392.392 0 00.041.215c.053.058.175.064.379 0l2.33-.635c.47-.18.981-.22 1.474-.116a1.174 1.174 0 01.699.623.822.822 0 01.052.524 2.585 2.585 0 002.33-.25.148.148 0 01.164 0c.016.01.029.024.04.04a.147.147 0 01.02.11.147.147 0 01-.061.094 2.866 2.866 0 01-2.708.216.12.12 0 01-.049-.031.12.12 0 01-.027-.05.119.119 0 01-.013-.056c0-.02.004-.038.013-.055a.504.504 0 000-.425.885.885 0 00-.519-.46 2.444 2.444 0 00-1.31.116l-2.33.64c-.117 0-.484.135-.682-.11a.589.589 0 01-.105-.39.564.564 0 000-.192.202.202 0 00-.105-.105.926.926 0 00-.629.11c-.868.406-1.761.757-2.673 1.049-.14.04-.583.18-.816-.1a.838.838 0 01-.169-.454.931.931 0 00-.052-.233 4.51 4.51 0 01-1.596 1.101c-.168.07-.349.104-.53.1zm20.768 1.183a.636.636 0 01-.693-.437 1.688 1.688 0 01.285-1.299 3.74 3.74 0 01-1.357.256 1.488 1.488 0 01-1.352-.635.873.873 0 01.093-.926.588.588 0 01.641-.25.152.152 0 01.105.18.145.145 0 01-.181.105.319.319 0 00-.332.146.58.58 0 00-.075.582 1.3 1.3 0 001.107.49h.034a3.306 3.306 0 001.719-.49 2.34 2.34 0 01.582-.437.146.146 0 01.187.047.152.152 0 010 .192c-.18.161-.375.304-.583.425a1.871 1.871 0 00-.582 1.503c.064.198.262.274.582.222a9.395 9.395 0 002.913-1.783l.641-.507a.154.154 0 01.174 0 .134.134 0 01.053.163l-.309.95a7.426 7.426 0 003.915-1.485.144.144 0 01.203.029.14.14 0 01.028.108.144.144 0 01-.057.096 2.296 2.296 0 00-.804 1.234l3.659-.85a.65.65 0 01.541.052.636.636 0 01.204.408.918.918 0 000 .105c.175.647 1.165.67 1.602.647a5.311 5.311 0 002.173-.431 13.44 13.44 0 011.462-.495.366.366 0 01.338.116c.122.157.047.396-.035.647-.082.25-.134.425-.064.489s.146.105.734-.088l3.14-1.846a2.044 2.044 0 011.112-.385 1.956 1.956 0 011.282.84l.058.075c.234.358.565.64.955.816a.766.766 0 00.682-.146.407.407 0 00.163-.361.14.14 0 01.093-.157.158.158 0 01.175.064c.248.393.609.702 1.037.885.297-.052.437-.373.582-.746a1.505 1.505 0 01.769-.943 1.35 1.35 0 01.833.058c3.787.996 7.905.582 11.534.157a.146.146 0 01.163.128.153.153 0 01-.128.163c-3.658.397-7.806.845-11.65-.163a1.165 1.165 0 00-.664-.058c-.298.1-.443.431-.583.787-.14.355-.384.873-.868.926a.093.093 0 01-.07 0 2.596 2.596 0 01-1.013-.74.734.734 0 01-.198.245 1.043 1.043 0 01-.956.204 2.507 2.507 0 01-1.095-.915l-.058-.07a1.654 1.654 0 00-1.066-.734 1.744 1.744 0 00-.955.344l-3.163 1.864c-.583.186-.898.192-1.066.029-.169-.163-.088-.507 0-.787.034-.116.104-.332.075-.384h-.064c-.475.134-.942.296-1.398.484a5.686 5.686 0 01-2.26.448c-1.043.052-1.748-.262-1.899-.862a1.016 1.016 0 01-.029-.122.432.432 0 00-.093-.233c-.064-.047-.187 0-.297 0l-3.886.897a.143.143 0 01-.134-.035.125.125 0 01-.038-.059.128.128 0 01-.003-.07c.048-.304.153-.596.309-.862a7.718 7.718 0 01-3.442.997.146.146 0 01-.123-.059.142.142 0 010-.134l.227-.693-.262.21a9.62 9.62 0 01-2.994 1.829 1.392 1.392 0 01-.285.035z" fill="#263238"/></svg>