<svg width="168" height="205" fill="none" xmlns="http://www.w3.org/2000/svg"><path d="M28.813 35.83c0-6.9 5.597-12.497 12.496-12.497h106.269c5.86 0 10.696 4.595 10.996 10.448l7.843 154.073c.234 4.58-3.373 8.451-7.96 8.531l-121.801 2.217c-4.31.08-7.843-3.395-7.843-7.704V35.829z" fill="#D5E1FB"/><path d="M32.851 160.77a.294.294 0 01-.292-.293v-3.329a.293.293 0 01.585 0v3.329a.29.29 0 01-.293.293z" fill="url(#paint0_linear_529_4284)"/><path d="M37.52 25.711a3.633 3.633 0 014.119-3.622c14.508 1.969 64.412 8.056 105.669 4.888a3.356 3.356 0 013.614 3.168l8.224 154.754a3.863 3.863 0 01-3.629 4.06c-17.355 1.025-88.82 4.997-114.31 2.327a3.058 3.058 0 01-2.736-3.029L37.52 25.711z" fill="#407BFF"/><path d="M39.225 29.589a3.495 3.495 0 013.965-3.483c13.967 1.895 61.991 7.748 101.697 4.705a3.23 3.23 0 013.475 3.043l7.916 148.931a3.711 3.711 0 01-3.49 3.907c-16.703.987-85.476 4.806-110 2.238a2.939 2.939 0 01-2.634-2.911l-.93-156.43z" fill="#fff"/><path d="M52.153 41.068l1.485 31.928a2.033 2.033 0 001.968 1.939c5.912.168 24.341.614 34.745.073a2.263 2.263 0 002.144-2.195c.197-5.985.629-23.42-.732-30.7a2.546 2.546 0 00-2.429-2.077l-34.95-1.222a2.153 2.153 0 00-2.231 2.254z" fill="url(#paint1_linear_529_4284)"/><path d="M139.714 43.848c.621 0 1.112-.483 1.097-1.068-.015-.585-.541-1.083-1.156-1.09l-38.564-.688c-.622-.014-.959.461-.754 1.046l.264.74c.205.585.885 1.06 1.5 1.06h37.613z" fill="url(#paint2_linear_529_4284)"/><path d="M101.091 46.95c-.622-.014-.959.461-.754 1.047l.264.739c.205.585.885 1.06 1.5 1.06h37.613c.621 0 1.112-.482 1.097-1.068-.015-.592-.541-1.082-1.156-1.09l-38.564-.688z" fill="url(#paint3_linear_529_4284)"/><path d="M101.091 52.986c-.622-.015-.959.46-.754 1.046l.264.739c.205.585.885 1.06 1.5 1.06h37.613c.621 0 1.112-.482 1.097-1.068-.015-.585-.541-1.082-1.156-1.09l-38.564-.687z" fill="url(#paint4_linear_529_4284)"/><path d="M101.091 59.864c-.622-.015-.959.46-.754 1.046l.264.739c.205.585.885 1.06 1.5 1.06h37.613c.621 0 1.112-.482 1.097-1.068-.015-.585-.541-1.082-1.156-1.09l-38.564-.687z" fill="url(#paint5_linear_529_4284)"/><path d="M101.091 66.646c-.622-.015-.959.46-.754 1.046l.264.739c.205.585.885 1.06 1.5 1.06h37.613c.621 0 1.112-.482 1.097-1.067-.015-.593-.541-1.083-1.156-1.09l-38.564-.688z" fill="url(#paint6_linear_529_4284)"/><path d="M143.438 84.958c.622 0 1.097-.483 1.061-1.068-.037-.592-.578-1.075-1.2-1.083l-90.027-.71c-.622-.007-.812.389-.425.871l.878 1.105c.388.483 1.208.885 1.83.885h87.883z" fill="url(#paint7_linear_529_4284)"/><path d="M53.272 88.053c-.622-.007-.812.388-.425.87l.878 1.105c.388.483 1.208.885 1.83.885h87.883c.622 0 1.097-.482 1.061-1.068-.037-.592-.578-1.075-1.2-1.082l-90.027-.71z" fill="url(#paint8_linear_529_4284)"/><path opacity=".6" d="M52.986 97.989c2.159-.169 6.205-.242 8.429-.271.944-.015 1.77.63 1.99 1.544.431 1.778 1.024 4.872.944 8.15a1.796 1.796 0 01-1.808 1.756l-8.208-.088a1.961 1.961 0 01-1.94-1.785l-.724-7.726a1.44 1.44 0 011.317-1.58z" fill="#fff"/><path d="M68.058 101.157c-.622-.03-1.054.453-.959 1.068l.234 1.558c.095.615.673 1.112 1.295 1.112h20.178a1.11 1.11 0 001.113-1.127l-.008-.57a1.21 1.21 0 00-1.141-1.178l-20.712-.863z" fill="url(#paint9_linear_529_4284)"/><path d="M97.726 97.989c2.158-.169 6.204-.242 8.428-.271a2.015 2.015 0 011.99 1.544c.432 1.778 1.024 4.872.944 8.15a1.796 1.796 0 01-1.807 1.756l-8.216-.088a1.961 1.961 0 01-1.94-1.785l-.724-7.726a1.46 1.46 0 011.325-1.58z" fill="url(#paint10_linear_529_4284)"/><path d="M112.798 101.157c-.622-.03-1.054.453-.959 1.068l.234 1.558c.096.615.674 1.112 1.295 1.112h20.179a1.11 1.11 0 001.112-1.127l-.008-.57a1.21 1.21 0 00-1.141-1.178l-20.712-.863z" fill="url(#paint11_linear_529_4284)"/><path d="M64.575 128.644h-.023l-7.58-.073c-1.082-.007-1.975-.754-2.077-1.734l-.666-6.358a1.4 1.4 0 01.33-1.039 1.662 1.662 0 011.155-.57 187.47 187.47 0 002.488-.198c2.005-.168 4.5-.38 5.904-.402 1.017-.008 1.88.6 2.122 1.485.395 1.456.358 4.221.285 7.162-.022.959-.892 1.727-1.939 1.727zm-8.824-9.196c-.3.021-.578.153-.754.365a.811.811 0 00-.19.608l.666 6.357c.073.681.717 1.208 1.507 1.215l7.58.073h.014c.732 0 1.34-.519 1.361-1.156.073-2.897.11-5.611-.263-7.002-.168-.621-.812-1.053-1.551-1.053-1.383.015-3.863.227-5.86.395-.966.08-1.866.154-2.51.198z" fill="#fff"/><path d="M71.225 124.422c.22.834.973 1.412 1.836 1.405l70.12-.6a1.429 1.429 0 001.412-1.456 1.42 1.42 0 00-1.42-1.39l-70.119-.322a1.883 1.883 0 00-1.83 2.363z" fill="url(#paint12_linear_529_4284)"/><path d="M56.893 121.101a1.16 1.16 0 011.602.439l1.492 2.677a.373.373 0 00.666-.029l3.71-8.253c.183-.409.797-.27.79.176-.037 2.524-.71 7.323-4.741 11.34 0 0-2.224-.863-4.017-4.792a1.226 1.226 0 01.498-1.558z" fill="#E2EBFF"/><path d="M64.575 144.886h-.023l-7.58-.073c-1.082-.007-1.975-.754-2.077-1.734l-.666-6.358a1.4 1.4 0 01.33-1.039 1.662 1.662 0 011.155-.57c.637-.044 1.537-.117 2.488-.198 2.005-.168 4.5-.38 5.904-.402h.03c.995 0 1.85.607 2.092 1.485.395 1.463.358 4.221.285 7.163-.022.958-.892 1.726-1.939 1.726zm-8.824-9.196a1.08 1.08 0 00-.754.365.811.811 0 00-.19.608l.666 6.358c.073.68.717 1.207 1.507 1.214l7.58.073h.014c.732 0 1.34-.519 1.361-1.156.073-2.897.11-5.611-.263-7.001-.168-.622-.82-1.069-1.551-1.054-1.383.015-3.863.227-5.86.395-.966.081-1.866.154-2.51.198z" fill="#fff"/><path d="M71.225 140.664c.22.834.973 1.412 1.836 1.405l70.12-.6a1.429 1.429 0 001.412-1.456 1.42 1.42 0 00-1.42-1.39l-70.119-.322a1.883 1.883 0 00-1.83 2.363z" fill="url(#paint13_linear_529_4284)"/><path d="M56.893 137.343a1.16 1.16 0 011.602.439l1.492 2.677a.373.373 0 00.666-.029l3.71-8.253c.183-.409.797-.27.79.176-.037 2.524-.71 7.324-4.741 11.34 0 0-2.224-.863-4.017-4.792a1.227 1.227 0 01.498-1.558z" fill="#E2EBFF"/><path d="M64.575 161.128h-.023l-7.58-.073c-1.082-.007-1.975-.753-2.077-1.734l-.666-6.358c-.036-.373.08-.739.33-1.038.278-.33.702-.542 1.155-.571.637-.044 1.537-.117 2.488-.198 2.005-.168 4.5-.38 5.904-.402h.03c.995 0 1.85.607 2.092 1.485.395 1.463.358 4.222.285 7.163-.022.958-.892 1.726-1.939 1.726zm-8.824-9.196c-.3.022-.578.153-.754.366a.808.808 0 00-.19.607l.666 6.358c.073.68.717 1.207 1.507 1.214l7.58.073h.014c.732 0 1.34-.519 1.361-1.156.073-2.897.11-5.611-.263-7.001-.168-.622-.82-1.068-1.551-1.054-1.383.015-3.863.227-5.86.395-.966.081-1.866.154-2.51.198z" fill="#fff"/><path d="M71.225 156.906c.22.834.973 1.412 1.836 1.405l70.12-.6a1.428 1.428 0 001.412-1.456 1.42 1.42 0 00-1.42-1.39l-70.119-.322a1.883 1.883 0 00-1.83 2.363z" fill="url(#paint14_linear_529_4284)"/><path d="M56.893 153.585a1.16 1.16 0 011.602.439l1.492 2.678c.147.27.542.248.666-.03l3.71-8.252c.183-.41.797-.271.79.175-.037 2.524-.71 7.324-4.741 11.34 0 0-2.224-.863-4.017-4.792a1.224 1.224 0 01.498-1.558z" fill="#E2EBFF"/><path d="M64.575 177.371h-.023l-7.58-.074c-1.082-.007-1.975-.753-2.077-1.734l-.666-6.357a1.4 1.4 0 01.33-1.039c.278-.33.702-.542 1.155-.571.637-.044 1.537-.117 2.488-.198 2.005-.168 4.5-.38 5.904-.402h.03c.995 0 1.85.607 2.092 1.485.395 1.456.358 4.222.285 7.163-.022.958-.892 1.727-1.939 1.727zm-8.824-9.197a1.08 1.08 0 00-.754.366.81.81 0 00-.19.607l.666 6.358c.073.68.717 1.207 1.507 1.214l7.58.074h.014c.732 0 1.34-.52 1.361-1.156.073-2.898.11-5.612-.263-7.002-.168-.622-.82-1.068-1.551-1.054-1.383.015-3.863.227-5.86.395-.966.081-1.866.154-2.51.198z" fill="#fff"/><path d="M71.225 173.148c.22.834.973 1.412 1.836 1.405l70.12-.6a1.427 1.427 0 001.412-1.456 1.42 1.42 0 00-1.42-1.39l-70.119-.322a1.883 1.883 0 00-1.83 2.363z" fill="url(#paint15_linear_529_4284)"/><path d="M56.893 169.827a1.16 1.16 0 011.602.439l1.492 2.678a.373.373 0 00.666-.029l3.71-8.253c.183-.41.797-.271.79.175-.037 2.525-.71 7.324-4.741 11.341 0 0-2.224-.864-4.017-4.793a1.224 1.224 0 01.498-1.558z" fill="#E2EBFF"/><path d="M101.031 2.328C97.19-.342 93.854-.29 91.505.404a4.68 4.68 0 00-3.329 4.924l1.01 11.062 12.057 1.068c.007.008 7.316-9.891-.212-15.13zm-5.304 8.926a3.007 3.007 0 110-6.014 3.007 3.007 0 010 6.014z" fill="#407BFF"/><path d="M90.394 11.737a.293.293 0 01-.293-.263L89.94 9.71a.288.288 0 01.263-.314c.161-.015.3.102.315.263l.16 1.763a.288.288 0 01-.263.315h-.022zm-.315-3.446a.293.293 0 01-.293-.263l-.124-1.34a4.473 4.473 0 013.175-4.696 9.064 9.064 0 014.404-.183c.162.03.257.183.227.344a.293.293 0 01-.344.226 8.468 8.468 0 00-4.126.169A3.895 3.895 0 0090.24 6.63l.124 1.34a.288.288 0 01-.263.314c-.007.007-.015.007-.022.007z" fill="#BDD0FB"/><path d="M72.732 23.538v-5.56a3.4 3.4 0 013.512-3.395l38.338 1.317a3.302 3.302 0 013.182 3.102l.322 5.34-45.354-.804z" fill="#407BFF"/><path d="M87.029 16.683h-1.647a.294.294 0 01-.292-.293c0-.16.132-.292.292-.292h1.647c.16 0 .292.131.292.292a.294.294 0 01-.292.293zM74.81 21.797a.294.294 0 01-.292-.293v-2.246a3.154 3.154 0 013.153-3.153h6.058c.16 0 .292.131.292.292a.294.294 0 01-.292.293H77.67a2.571 2.571 0 00-2.568 2.568v2.246a.294.294 0 01-.293.293z" fill="#BDD0FB"/><path d="M57.112 24.943a3.616 3.616 0 013.607-3.44h67.039a4.953 4.953 0 014.88 4.113l.059.329a4.253 4.253 0 01-4.192 4.982H59.732a2.771 2.771 0 01-2.766-2.897l.146-3.087z" fill="#407BFF"/><path d="M27.718 97.61s-2.392 1.163-2.831 2.494c-.351 1.068-2.993 1.207-3.256 3.315-.132 1.09-.936 1.96-2.027 2.121-2.7.417-6.855 1.815-7.52 6.497-.505 3.578 1.316 4.931 3.226 5.4 1.405.343 2.341 1.712 2.056 3.131-.271 1.361.131 2.934 2.494 4.177 5.283 2.788 10.558-6.606 10.558-6.606l1.083-16.396-3.783-4.134z" fill="#263238"/><path d="M52.586 88.962s-6.797 18.532-18.379 24.327c0 0 3.856 6.292 5.868 6.672 0 0 12.371-15.84 13.637-28.811l-1.127-2.188z" fill="#FFB07B"/><path d="M6.003 200.432l-.344 2.809a1.165 1.165 0 01-1.017 1.017c-.9.103-2.348.205-3.76.059a.992.992 0 01-.835-1.288c.344-1.083.974-2.714 1.888-3.673h3.117a.956.956 0 01.95 1.076z" fill="#263238"/><path d="M30.424 167.509l.527 3.095s-1.763 17.851-2.078 24.992a5.616 5.616 0 00.827 3.183l3.066 4.975-7.785-4.595-.154-.951 1.273-1.756-1.668-19.995a6.2 6.2 0 01.695-3.395l1.61-3.029 3.687-2.524z" fill="#FFB07B"/><path d="M33.279 204.471H30.79a1.47 1.47 0 01-1.185-.585c-.775-1.009-2.378-2.97-3.146-3.021-1.031-.066-.9 3.606-.9 3.606h-.578l-.731-4.565a2.706 2.706 0 011.419-2.824s.234 1.749 1.514 2.517c1.28.775 5.21 3.541 5.21 3.541s.483-.066 1.01.029c.782.139.672 1.302-.125 1.302z" fill="#263238"/><path d="M19.757 168.979S9.433 188.565 7.795 193.035c-1.64 4.471-2.217 8.202-2.24 8.553-.036.549-.724 1.083-2.611 1.083-.973 0-1.456-.395-1.69-.768a1.108 1.108 0 01-.044-1.068c.6-1.208 2.495-5.071 3.197-6.819.841-2.093 2.641-11.567 3.629-14.867.988-3.292 2.107-6.87 6.409-10.162 0-.008 2.956-2.897 5.312-.008z" fill="#FFB07B"/><path d="M26.276 136.89c2.663-11.281-4.083-17.668-4.083-17.668 4.258-4.083 12.014-5.949 12.014-5.949s7.404 5.414 6.526 9.643c-.512 2.481-5.202 14.867-5.202 14.867s-4.339 2.063-9.255-.893z" fill="#407BFF"/><path d="M20.372 142.48c1.083-3.263 5.904-5.589 5.904-5.589 4.917 2.955 9.248.9 9.248.9s.973 3.716.3 7.169c-.673 3.454-4.88 25.644-4.88 25.644-6.636 1.346-16.835-1.353-16.835-1.353 4.23-7.5 5.18-23.508 6.263-26.771z" fill="#263238"/><path d="M29.37 105.825l-2.165 9.724c-.205.856.57.717 1.441.556 1.42-.271 3.249-.82 3.856-1.925.059-.109.095-.241.11-.365l.929-6.746a1.209 1.209 0 00-.71-1.273l-1.792-.798a1.218 1.218 0 00-1.668.827z" fill="#FFB07B"/><path d="M31.91 96.564s2.56 1.082 4.309 4.784c1.741 3.703.439 5.415-1.193 5.649-1.638.234-4.082.197-6.665-2.195-2.597-2.385.212-9.519 3.549-8.238z" fill="#FFB07B"/><path d="M30.096 102.833s-1.932-5.421 2.875-5.487l1.134.79s1.763-3.007-1.134-4.44c-2.897-1.435-6.284-.25-7.514 3.65-1.229 3.9-1.441 6.512.608 8.377 2.048 1.866 2.897-.249 2.897-.249s-1.12-1.748-.659-2.677c.454-.937 1.5.19 1.5.19l.293-.154z" fill="#263238"/><path d="M29.554 103.433s-.98-2.794-2.283-1.682c-1.302 1.112 1.061 2.582 1.99 3.058l.293-1.376z" fill="#FFB07B"/><path d="M53.244 92.335c.103.329-1.097.834-1.807-.52-.022-.644-.417-3.416-.029-3.943 2.056-2.802 4.229-2.985 4.229-2.985.402.731.9 1.346 1.127 2.231.175.673.065 1.383-.271 1.998a22.577 22.577 0 01-1.244 2.026c-.827 1.178-2.005 1.193-2.005 1.193z" fill="url(#paint16_linear_529_4284)"/><path d="M21.002 122.229s19.805 24.18 34.598-3.351c0 0 .286-.703.11-1.72-.088-.512.249-2.333.439-3.263a.51.51 0 00-.454-.607.726.726 0 00-.621.263l-2.7 3.439a1.44 1.44 0 00.768 1.712c.41.198.541.717.263 1.076-11.252 14.749-30.07-1.434-30.42-1.244-1.23.673-2.642 1.419-1.983 3.695z" fill="#FFB07B"/><path d="M48.591 106.733c.03-.388.425-.725 1.098-.995-.732-.403-1.134-.834-1.098-1.259.103-1.28 4.156-1.997 9.05-1.602 4.895.395 8.78 1.749 8.67 3.029-.03.388-.424.724-1.097.995.731.402 1.134.834 1.097 1.258-.03.388-.424.725-1.097.995.731.403 1.134.835 1.097 1.259-.03.388-.424.724-1.097.995.731.402 1.134.834 1.097 1.258-.044.564-.863 1.025-2.187 1.317.014.417.007.878-.037 1.383-.19 2.356-2.839 4.207-6.35 4.207-3.505 0-6.541-2.517-6.578-4.887-.007-.578.015-1.091.066-1.544-1.675-.563-2.7-1.244-2.648-1.91.029-.387.424-.724 1.097-.995-.732-.402-1.134-.834-1.097-1.258.029-.388.424-.724 1.097-.995-.717-.403-1.12-.834-1.083-1.251z" fill="#3652CD"/><path d="M59.901 114.48c1.456 0 2.78-.109 3.885-.314.066-.015.102-.073.095-.139-.014-.066-.073-.103-.139-.095-1.72.329-4.017.402-6.467.204-2.005-.16-3.878-.482-5.422-.936-.066-.015-.124.015-.146.08-.015.066.014.125.08.147 1.559.453 3.446.783 5.473.944.9.073 1.792.109 2.641.109zm-.029-2.245c1.888 0 3.578-.176 4.763-.519.066-.015.095-.081.08-.147-.014-.066-.08-.095-.146-.08-1.697.483-4.426.629-7.302.402-2.846-.227-5.502-.805-7.104-1.544a.113.113 0 00-.153.059c-.03.058 0 .132.058.154 1.624.746 4.31 1.331 7.185 1.565.892.073 1.778.11 2.619.11zm.03-2.247c2.04 0 3.819-.212 5.026-.607.059-.022.095-.088.073-.147-.022-.058-.088-.095-.146-.073-1.668.549-4.507.732-7.58.483-2.846-.227-5.502-.805-7.104-1.544a.113.113 0 00-.154.059.113.113 0 00.059.154c1.624.746 4.31 1.331 7.184 1.565.9.073 1.793.11 2.642.11zm-.016-2.253c1.616 0 3.087-.132 4.228-.388a.115.115 0 00.088-.139.116.116 0 00-.139-.088c-1.72.381-4.192.483-6.79.271-2.823-.227-5.465-.797-7.067-1.529a.113.113 0 00-.154.059.112.112 0 00.059.153c1.624.739 4.295 1.317 7.148 1.551.893.073 1.778.11 2.627.11z" fill="#91B3FA"/><path d="M69.596 95.378a16.473 16.473 0 012.963-5.788c2.912-3.672 7.668-11.135 8.253-21.327.849-14.822-12.291-22.241-24.29-21.239-11.998 1.01-23.829 9.936-22.534 23.727.797 8.487 5.546 14.918 9.08 18.613 2.246 2.348 3.848 5.223 4.711 8.355 1.061 3.834 3.585 8.604 9.592 8.896 7.762.381 10.989-6.855 12.225-11.237z" fill="#78A1FE"/><path d="M55.382 103.667l-4.2-27.297c-.088-.563-.366-.944-.622-.849-.256.096-.395.63-.307 1.2 0 .015.007.037.007.051l4.778 27.049c.036.205.139.329.234.285.095-.051.139-.241.11-.439zm4.36.212l4.2-27.297c.088-.563.366-.944.622-.849.256.095.395.63.307 1.2 0 .015-.007.037-.007.051l-4.778 27.049c-.036.205-.139.329-.234.285-.095-.044-.146-.241-.11-.439z" fill="#fff"/><path opacity=".79" d="M51.21 74.021a.449.449 0 01.549-.146l2.334 1.09.812-2.312a.497.497 0 01.285-.285c.271-.11.593-.015.717.22l.008.007 1.924 3.504 1.785-4.99v-.007a.579.579 0 01.27-.307c.3-.161.696-.088.886.175l2.685 3.703c.11.153.073.35-.095.468a.453.453 0 01-.57-.059l-2.364-2.641-2.129 4.748a.387.387 0 01-.19.183.441.441 0 01-.556-.146l-2.056-3.3-.776 1.668-.007.015c-.007.015-.015.022-.022.037a.448.448 0 01-.549.146l-2.773-1.295c-.197-.088-.27-.3-.168-.476zM42.973 86.07a.75.75 0 00.6-1.2 31.142 31.142 0 01-1.932-2.933.753.753 0 00-1.024-.278.753.753 0 00-.278 1.024c.6 1.04 1.28 2.078 2.026 3.08a.736.736 0 00.608.308zm-3.453-5.925a.716.716 0 00.3-.066.748.748 0 00.387-.987c-4.397-10.126-.614-18.613-.57-18.693a.744.744 0 00-.374-.995.744.744 0 00-.995.373c-.168.373-4.097 9.182.564 19.922a.743.743 0 00.687.446z" fill="#fff"/><path d="M144.191 198.324s.417 2.232.629 4.441a1.53 1.53 0 01-1.441 1.668c-2.948.154-9.248.447-11.508.373a.498.498 0 01-.447-.673c.103-.263.308-.483.564-.607l10.367-4.887 1.836-.315z" fill="#263238"/><path d="M144.498 197.007l-.292 2.678s-1.815.863-3.073-.081l.724-2.985 2.641.388z" fill="#FFB07B"/><path d="M143.782 146.729c.147.695 1.068 34.848-2.436 50.183a.52.52 0 00.307.6c.564.227 1.661.541 2.978.578a.888.888 0 00.878-.651c1.009-3.563 5.838-21.401 6.328-38.404.549-19-.007-.643-.007-.643l-.541-11.736-7.507.073z" fill="url(#paint17_linear_529_4284)"/><path d="M156.182 199.37s.637 1.12 1.281 4.119a.925.925 0 01-.805 1.12c-.973.102-2.473.241-3.673.248a.928.928 0 01-.929-1.024c.124-1.097.52-2.897 1.785-4.309l2.341-.154z" fill="#263238"/><path d="M156.695 195.932l-.702 4.053s-.725.548-2.181.168l.315-4.353 2.568.132z" fill="#FFB07B"/><path d="M158.238 147.637c3.161 17.991-.22 44.541-1.398 49.743a.813.813 0 01-.651.622c-.548.095-1.448.176-2.334-.073a.744.744 0 01-.541-.68c-.205-4.193-.154-29.961-3.036-40.108a2.33 2.33 0 00-.907-1.266l-5.436-3.79-.476-6.204 14.779 1.756z" fill="url(#paint18_linear_529_4284)"/><path d="M138.886 113.675c8.948-.234 18.847 2.173 18.847 2.173 2.816 15.54.783 33.509.783 33.509-6.907 1.88-14.75-.973-14.75-.973-1.215-6.497-6.76-24.751-6.76-24.751-4.375-.498-7.99-1.727-10.975-3.366 2.239-2.641 3.271-5.992 3.717-7.967 3.175.951 6.38 1.448 9.138 1.375z" fill="#8FB3FF"/><path d="M112.336 100.747c.871-1.068 1.983-.578 1.983-.578 1.368 5.553 8.318 9.994 15.43 12.13-.447 1.976-1.478 5.327-3.717 7.968-11.83-6.504-13.696-19.52-13.696-19.52z" fill="#FFB07B"/><path d="M112.549 101.017c-.088.293.98.732 1.595-.476.014-.57.343-3.028-.008-3.497-1.851-2.473-5.414-5.553-5.414-5.553-.592.593-.095 1.17-.095 1.17l1.734 1.771c-.351.651-.783 1.2-.98 1.99a2.417 2.417 0 00.256 1.77c.307.542.724 1.245 1.119 1.793.746 1.032 1.793 1.032 1.793 1.032z" fill="url(#paint19_linear_529_4284)"/><path d="M111.13 95.588l1.573 1.31.505 1.316-1.376 1.559s-.49-2.612-.849-3.175c-.358-.564-.182-.842.147-1.01z" fill="url(#paint20_linear_529_4284)"/><path d="M154.383 124.539l3.351-8.699s8.413 5.597 9.855 12.789c-1.581.131-4.449.57-7.251 2.019-.651-3.395-5.955-6.109-5.955-6.109z" fill="#8FB3FF"/><path d="M147.154 132.763s9.438 5.216 12.555.658c.651-.944.797-1.88.629-2.773 2.802-1.448 5.67-1.887 7.25-2.019.432 2.166.242 4.477-1.017 6.826-5.45 10.199-20.632-.366-20.632-.366l1.215-2.326zm.733-26.442l2.926 8.209a.294.294 0 01-.131.359c-.776.439-3.556 1.704-6.944-.403a1.402 1.402 0 01-.651-.995l-.987-7.118 5.787-.052z" fill="#FFB07B"/><path d="M149.085 141.008l-5.136-17.947a.538.538 0 00-.447-.381 217.99 217.99 0 00-6.745-.68c-3.754-.315-8.114-.578-10.711-.359a.526.526 0 00-.432.754c1.478 2.992 7.572 15.181 10.623 19.176a.511.511 0 00.425.205l11.925-.11a.514.514 0 00.498-.658z" fill="#3652CD"/><path d="M147.84 136.67s.717-2.942.425-3.988c-.286-1.046-.849-2.385-2.715-2.092-1.865.3-4.068 1.083-4.068 1.083s.11 1.36 1.53.921l-.878.681s.124 1.09 1.324.505l-.82.9s.513.892 1.398.321c.885-.57 1.309 2.02 3.804 1.669z" fill="#FFB07B"/><path d="M137.1 127.363c0 .834-.673 1.507-1.507 1.507a1.505 1.505 0 01-1.507-1.507c0-.834.673-1.507 1.507-1.507a1.5 1.5 0 011.507 1.507zm6.263.995l-1.046-3.549a1.22 1.22 0 00-.914-.856c-3.278-.687-12.255-.826-12.35-.834l.007-.402c.373.007 9.109.146 12.423.841a1.623 1.623 0 011.215 1.134l1.046 3.549-.381.117z" fill="#91B3FA"/><path d="M143.307 97.967c-.102.102-4.309 8.86-4.309 8.86l4.763 2.444 5.151-7.675c.007 0-3.893-5.334-5.605-3.629z" fill="#FFB07B"/><path d="M146.812 101.808a.832.832 0 01-.058.709l-2.378 4.207a.802.802 0 01-.132.176c-.285.278-1.251 1.09-1.997-.015-.637-.944-1.237-1.8-1.88-2.151-.374-.205-.835-.044-1.025.359-.395.826-1.148 2.502-1.624 4.097-.117.402.073.827.439.988.966.417 2.875 1.163 4.565 1.412a.728.728 0 00.717-.322c.732-1.061 2.781-4.017 3.483-4.756.651-.688 1.851-.432 2.392-.263a.717.717 0 00.608-.088c.548-.351 1.507-1.222.629-2.707a.836.836 0 01.234-1.098c.614-.424 1.28-1.229.644-2.531-.644-1.317-1.785-1.434-2.568-1.332a.78.78 0 01-.827-.49.518.518 0 00-.395-.329.782.782 0 01-.6-.922c.139-.746.037-1.712-1.09-2.37-2.056-1.2-3.856.753-4.317 2.407-.461 1.653 1.844 2.817 3.285 3.014 1.076.132 1.661 1.361 1.895 2.005z" fill="#263238"/><path d="M146.029 108.034s.915-2.839 2.085-2.736c1.171.102 2.093 1.339.644 2.729-1.807 1.734-2.729.007-2.729.007z" fill="#FFB07B"/><defs><linearGradient id="paint0_linear_529_4284" x1="14.71" y1="147.29" x2="125.481" y2="217.663" gradientUnits="userSpaceOnUse"><stop stop-color="#A737D5"/><stop offset="1" stop-color="#EF497A"/></linearGradient><linearGradient id="paint1_linear_529_4284" x1="52.154" y1="57.038" x2="92.725" y2="57.038" gradientUnits="userSpaceOnUse"><stop stop-color="#DAE3FE"/><stop offset="1" stop-color="#E9EFFD"/></linearGradient><linearGradient id="paint2_linear_529_4284" x1="100.279" y1="42.422" x2="140.813" y2="42.422" gradientUnits="userSpaceOnUse"><stop stop-color="#DAE3FE"/><stop offset="1" stop-color="#E9EFFD"/></linearGradient><linearGradient id="paint3_linear_529_4284" x1="100.279" y1="48.375" x2="140.813" y2="48.375" gradientUnits="userSpaceOnUse"><stop stop-color="#DAE3FE"/><stop offset="1" stop-color="#E9EFFD"/></linearGradient><linearGradient id="paint4_linear_529_4284" x1="100.279" y1="54.413" x2="140.813" y2="54.413" gradientUnits="userSpaceOnUse"><stop stop-color="#DAE3FE"/><stop offset="1" stop-color="#E9EFFD"/></linearGradient><linearGradient id="paint5_linear_529_4284" x1="100.279" y1="61.287" x2="140.813" y2="61.287" gradientUnits="userSpaceOnUse"><stop stop-color="#DAE3FE"/><stop offset="1" stop-color="#E9EFFD"/></linearGradient><linearGradient id="paint6_linear_529_4284" x1="100.279" y1="68.068" x2="140.813" y2="68.068" gradientUnits="userSpaceOnUse"><stop stop-color="#DAE3FE"/><stop offset="1" stop-color="#E9EFFD"/></linearGradient><linearGradient id="paint7_linear_529_4284" x1="52.648" y1="83.531" x2="144.499" y2="83.531" gradientUnits="userSpaceOnUse"><stop stop-color="#DAE3FE"/><stop offset="1" stop-color="#E9EFFD"/></linearGradient><linearGradient id="paint8_linear_529_4284" x1="52.648" y1="89.483" x2="144.499" y2="89.483" gradientUnits="userSpaceOnUse"><stop stop-color="#DAE3FE"/><stop offset="1" stop-color="#E9EFFD"/></linearGradient><linearGradient id="paint9_linear_529_4284" x1="67.083" y1="103.029" x2="89.918" y2="103.029" gradientUnits="userSpaceOnUse"><stop stop-color="#DAE3FE"/><stop offset="1" stop-color="#E9EFFD"/></linearGradient><linearGradient id="paint10_linear_529_4284" x1="96.401" y1="103.441" x2="109.098" y2="103.441" gradientUnits="userSpaceOnUse"><stop stop-color="#DAE3FE"/><stop offset="1" stop-color="#E9EFFD"/></linearGradient><linearGradient id="paint11_linear_529_4284" x1="111.825" y1="103.029" x2="134.66" y2="103.029" gradientUnits="userSpaceOnUse"><stop stop-color="#DAE3FE"/><stop offset="1" stop-color="#E9EFFD"/></linearGradient><linearGradient id="paint12_linear_529_4284" x1="71.164" y1="123.942" x2="144.59" y2="123.942" gradientUnits="userSpaceOnUse"><stop stop-color="#DAE3FE"/><stop offset="1" stop-color="#E9EFFD"/></linearGradient><linearGradient id="paint13_linear_529_4284" x1="71.164" y1="140.184" x2="144.59" y2="140.184" gradientUnits="userSpaceOnUse"><stop stop-color="#DAE3FE"/><stop offset="1" stop-color="#E9EFFD"/></linearGradient><linearGradient id="paint14_linear_529_4284" x1="71.164" y1="156.426" x2="144.59" y2="156.426" gradientUnits="userSpaceOnUse"><stop stop-color="#DAE3FE"/><stop offset="1" stop-color="#E9EFFD"/></linearGradient><linearGradient id="paint15_linear_529_4284" x1="71.164" y1="172.668" x2="144.59" y2="172.668" gradientUnits="userSpaceOnUse"><stop stop-color="#DAE3FE"/><stop offset="1" stop-color="#E9EFFD"/></linearGradient><linearGradient id="paint16_linear_529_4284" x1="50.068" y1="97.328" x2="41.023" y2="117.906" gradientUnits="userSpaceOnUse"><stop stop-color="#FEBBBA"/><stop offset="1" stop-color="#FF928E"/></linearGradient><linearGradient id="paint17_linear_529_4284" x1="181.043" y1="127.117" x2="156.883" y2="157.006" gradientUnits="userSpaceOnUse"><stop stop-color="#4F52FF"/><stop offset="1" stop-color="#4042E2"/></linearGradient><linearGradient id="paint18_linear_529_4284" x1="184.159" y1="129.637" x2="159.999" y2="159.526" gradientUnits="userSpaceOnUse"><stop stop-color="#4F52FF"/><stop offset="1" stop-color="#4042E2"/></linearGradient><linearGradient id="paint19_linear_529_4284" x1="116.842" y1="103.774" x2="108.124" y2="93.313" gradientUnits="userSpaceOnUse"><stop stop-color="#FEBBBA"/><stop offset="1" stop-color="#FF928E"/></linearGradient><linearGradient id="paint20_linear_529_4284" x1="112.396" y1="98.531" x2="107.479" y2="91.127" gradientUnits="userSpaceOnUse"><stop stop-color="#FEBBBA"/><stop offset="1" stop-color="#FF928E"/></linearGradient></defs></svg>