<svg width="485" height="373" fill="none" xmlns="http://www.w3.org/2000/svg"><mask id="a" style="mask-type:luminance" maskUnits="userSpaceOnUse" x="-1" y="0" width="486" height="373"><path d="M484.896 0H-.004v373h484.9V0z" fill="#fff"/></mask><g mask="url(#a)"><mask id="b" style="mask-type:luminance" maskUnits="userSpaceOnUse" x="-1" y="0" width="486" height="373"><path d="M484.894 0H-.006v373h484.9V0z" fill="#fff"/></mask><g opacity=".35" mask="url(#b)"><mask id="c" style="mask-type:luminance" maskUnits="userSpaceOnUse" x="95" y="48" width="312" height="288"><path d="M406.348 48.64H95.49V335.7h310.858V48.64z" fill="#fff"/></mask><g mask="url(#c)"><path d="M406.271 208.731L203.284 325.927c-49.982 28.796-111.825-9.922-107.648-67.438 1.79-24.842 3.805-43.492 5.819-44.686 2.537-1.492 5.073-2.088 7.236-1.492 1.343.373 2.537 1.194 3.507 2.537 2.461 3.357 6.639 3.357 10.891.895 4.178-2.462 8.43-7.236 10.817-13.428l14.249-36.554c3.581-9.25 9.922-16.487 16.188-20.142 6.341-3.655 12.607-3.73 16.263 1.343l3.058 4.252c2.462 3.357 6.64 3.357 10.892.895s8.43-7.236 10.817-13.428l3.954-10.145c4.028-9.997 10.444-17.308 16.934-21.038 5.446-3.133 10.891-3.73 14.771-.82a8.855 8.855 0 012.163 2.238l8.952 12.458c3.059 4.178 8.281 4.178 13.503 1.119 5.222-3.059 10.518-9.027 13.502-16.71l8.505-21.858c1.417-3.58 3.879-6.416 6.341-7.833 2.461-1.418 4.923-1.418 6.341.522 1.417 2.014 3.879 1.94 6.341.522 2.461-1.417 4.923-4.252 6.341-7.907 3.282-8.505 9.026-15.07 14.845-18.426 5.744-3.357 11.563-3.357 14.92 1.268l21.932 30.586c2.238 3.058 6.043 3.058 9.922.82 3.954-2.312 7.908-6.863 10.071-12.756 2.238-6.043 6.043-10.444 9.922-12.608 5.819-3.357 11.563-1.715 11.563 6.49l.075 144.128z" fill="#B1E3F8"/></g></g></g><mask id="d" style="mask-type:luminance" maskUnits="userSpaceOnUse" x="-1" y="0" width="486" height="373"><path d="M484.896 0H-.004v373h484.9V0z" fill="#fff"/></mask><g mask="url(#d)"><path d="M342.486 324.808l-77.509-45.058 115.107-66.245 77.51 45.058-115.108 66.245z" fill="#fff"/></g><mask id="e" style="mask-type:luminance" maskUnits="userSpaceOnUse" x="-1" y="0" width="486" height="373"><path d="M484.896 0H-.004v373h484.9V0z" fill="#fff"/></mask><g mask="url(#e)"><path d="M338.98 330.926l-77.509-45.059-.075-29.914 77.51 45.058.074 29.915z" fill="#fff"/></g><mask id="f" style="mask-type:luminance" maskUnits="userSpaceOnUse" x="-1" y="0" width="486" height="373"><path d="M484.896 0H-.004v373h484.9V0z" fill="#fff"/></mask><g mask="url(#f)"><path d="M276.837 332.791l-77.509-45.059 65.499-37.822 77.584 45.059-65.574 37.822z" fill="#fff"/></g><mask id="g" style="mask-type:luminance" maskUnits="userSpaceOnUse" x="-1" y="0" width="486" height="373"><path d="M484.896 0H-.004v373h484.9V0z" fill="#fff"/></mask><g mask="url(#g)"><path d="M273.332 338.908l-77.509-45.133-.075-30.139 77.509 45.059.075 30.213z" fill="#fff"/></g><mask id="h" style="mask-type:luminance" maskUnits="userSpaceOnUse" x="-1" y="0" width="486" height="373"><path d="M484.896 0H-.004v373h484.9V0z" fill="#fff"/></mask><g mask="url(#h)"><path d="M207.308 342.712l-77.509-45.058 69.452-40.135 77.51 45.133-69.453 40.06z" fill="#fff"/></g><mask id="i" style="mask-type:luminance" maskUnits="userSpaceOnUse" x="-1" y="0" width="486" height="373"><path d="M484.896 0H-.004v373h484.9V0z" fill="#fff"/></mask><g mask="url(#i)"><mask id="j" style="mask-type:luminance" maskUnits="userSpaceOnUse" x="-1" y="0" width="486" height="373"><path d="M484.894 0H-.006v373h484.9V0z" fill="#fff"/></mask><g mask="url(#j)"><path d="M153.973 347.935l-77.584-45.059c13.651 7.908 32.525 6.863 53.413-5.222l77.584 45.059c-20.888 12.01-39.762 13.129-53.413 5.222z" fill="#fff"/></g></g><mask id="k" style="mask-type:luminance" maskUnits="userSpaceOnUse" x="-1" y="0" width="486" height="373"><path d="M484.896 0H-.004v373h484.9V0z" fill="#fff"/></mask><g mask="url(#k)"><mask id="l" style="mask-type:luminance" maskUnits="userSpaceOnUse" x="76" y="297" width="132" height="57"><path d="M76.387 302.876l77.584 45.059c13.651 7.907 32.525 6.863 53.413-5.222L129.8 297.654c-20.888 12.011-39.762 13.13-53.413 5.222z" fill="#fff"/></mask><g mask="url(#l)"><path d="M153.971 347.935l-77.584-45.059.447.224 77.51 45.059c-.15-.075-.299-.15-.373-.224z" fill="#fff"/></g><mask id="m" style="mask-type:luminance" maskUnits="userSpaceOnUse" x="76" y="297" width="132" height="57"><path d="M76.387 302.876l77.584 45.059c13.651 7.907 32.525 6.863 53.413-5.222L129.8 297.654c-20.888 12.011-39.762 13.13-53.413 5.222z" fill="#fff"/></mask><g mask="url(#m)"><path d="M154.345 348.158L76.835 303.1c1.195.671 2.463 1.268 3.806 1.865l77.509 45.058c-1.343-.596-2.611-1.193-3.805-1.865z" fill="#fff"/></g><mask id="n" style="mask-type:luminance" maskUnits="userSpaceOnUse" x="76" y="297" width="132" height="57"><path d="M76.387 302.876l77.584 45.059c13.651 7.907 32.525 6.863 53.413-5.222L129.8 297.654c-20.888 12.011-39.762 13.13-53.413 5.222z" fill="#fff"/></mask><g mask="url(#n)"><path d="M158.148 350.023L80.564 304.89c1.269.522 2.612.97 3.954 1.418l77.584 45.058a35.283 35.283 0 01-3.954-1.343z" fill="#fff"/></g><mask id="o" style="mask-type:luminance" maskUnits="userSpaceOnUse" x="76" y="297" width="132" height="57"><path d="M76.387 302.876l77.584 45.059c13.651 7.907 32.525 6.863 53.413-5.222L129.8 297.654c-20.888 12.011-39.762 13.13-53.413 5.222z" fill="#fff"/></mask><g mask="url(#o)"><path d="M162.105 351.366l-77.51-45.058c1.344.373 2.76.746 4.253.969l77.509 45.059c-1.492-.224-2.909-.522-4.252-.97z" fill="#fff"/></g><mask id="p" style="mask-type:luminance" maskUnits="userSpaceOnUse" x="76" y="297" width="132" height="57"><path d="M76.387 302.876l77.584 45.059c13.651 7.907 32.525 6.863 53.413-5.222L129.8 297.654c-20.888 12.011-39.762 13.13-53.413 5.222z" fill="#fff"/></mask><g mask="url(#p)"><path d="M166.353 352.336l-77.584-45.059c1.492.224 2.984.448 4.551.523l77.509 45.133c-1.492-.15-3.058-.299-4.476-.597z" fill="#fff"/></g><mask id="q" style="mask-type:luminance" maskUnits="userSpaceOnUse" x="76" y="297" width="132" height="57"><path d="M76.387 302.876l77.584 45.059c13.651 7.907 32.525 6.863 53.413-5.222L129.8 297.654c-20.888 12.011-39.762 13.13-53.413 5.222z" fill="#fff"/></mask><g mask="url(#q)"><path d="M170.83 352.932l-77.51-45.058c1.642.075 3.283.149 4.999.075l77.583 45.058c-1.79 0-3.431 0-5.072-.075z" fill="#fff"/></g><mask id="r" style="mask-type:luminance" maskUnits="userSpaceOnUse" x="76" y="297" width="132" height="57"><path d="M76.387 302.876l77.584 45.059c13.651 7.907 32.525 6.863 53.413-5.222L129.8 297.654c-20.888 12.011-39.762 13.13-53.413 5.222z" fill="#fff"/></mask><g mask="url(#r)"><path d="M175.832 352.933l-77.51-45.059c1.791-.074 3.73-.298 5.595-.597l77.51 45.059c-1.865.298-3.73.522-5.595.597z" fill="#fff"/></g><mask id="s" style="mask-type:luminance" maskUnits="userSpaceOnUse" x="76" y="297" width="132" height="57"><path d="M76.387 302.876l77.584 45.059c13.651 7.907 32.525 6.863 53.413-5.222L129.8 297.654c-20.888 12.011-39.762 13.13-53.413 5.222z" fill="#fff"/></mask><g mask="url(#s)"><path d="M181.421 352.411l-77.509-45.059c2.164-.298 4.327-.82 6.565-1.417l77.509 45.058c-2.163.597-4.401 1.045-6.565 1.418z" fill="#fff"/></g><mask id="t" style="mask-type:luminance" maskUnits="userSpaceOnUse" x="76" y="297" width="132" height="57"><path d="M76.387 302.876l77.584 45.059c13.651 7.907 32.525 6.863 53.413-5.222L129.8 297.654c-20.888 12.011-39.762 13.13-53.413 5.222z" fill="#fff"/></mask><g mask="url(#t)"><path d="M188.06 350.993l-77.509-45.058c2.909-.746 5.819-1.79 8.803-3.059l77.509 45.059c-2.984 1.268-5.968 2.238-8.803 3.058z" fill="#fff"/></g><mask id="u" style="mask-type:luminance" maskUnits="userSpaceOnUse" x="76" y="297" width="132" height="57"><path d="M76.387 302.876l77.584 45.059c13.651 7.907 32.525 6.863 53.413-5.222L129.8 297.654c-20.888 12.011-39.762 13.13-53.413 5.222z" fill="#fff"/></mask><g mask="url(#u)"><path d="M196.869 347.935l-77.584-45.059a80.083 80.083 0 0010.444-5.222l77.51 45.059c-3.432 2.088-6.938 3.804-10.37 5.222z" fill="#fff"/></g></g><mask id="v" style="mask-type:luminance" maskUnits="userSpaceOnUse" x="-1" y="0" width="486" height="373"><path d="M484.896 0H-.004v373h484.9V0z" fill="#fff"/></mask><g mask="url(#v)"><mask id="w" style="mask-type:luminance" maskUnits="userSpaceOnUse" x="-1" y="0" width="486" height="373"><path d="M484.894 0H-.006v373h484.9V0z" fill="#fff"/></mask><g mask="url(#w)"><path d="M151.435 352.187l-77.509-45.059c-14.1-8.206-22.902-25.587-22.977-50.355l77.51 45.059c.149 24.767 8.877 42.149 22.976 50.355z" fill="#fff"/></g></g><mask id="x" style="mask-type:luminance" maskUnits="userSpaceOnUse" x="-1" y="0" width="486" height="373"><path d="M484.896 0H-.004v373h484.9V0z" fill="#fff"/></mask><g mask="url(#x)"><mask id="y" style="mask-type:luminance" maskUnits="userSpaceOnUse" x="50" y="256" width="102" height="97"><path d="M73.922 307.129l77.584 45.058c-14.099-8.206-22.902-25.588-22.977-50.355l-77.584-45.058c.075 24.693 8.878 42.149 22.977 50.355z" fill="#fff"/></mask><g mask="url(#y)"><path d="M151.431 352.187l-77.509-45.058c-14.1-8.206-22.902-25.588-22.977-50.355l77.51 45.058c.149 24.767 8.877 42.149 22.976 50.355z" fill="#fff"/></g></g><mask id="z" style="mask-type:luminance" maskUnits="userSpaceOnUse" x="-1" y="0" width="486" height="373"><path d="M484.896 0H-.004v373h484.9V0z" fill="#fff"/></mask><g mask="url(#z)"><mask id="A" style="mask-type:luminance" maskUnits="userSpaceOnUse" x="-1" y="0" width="486" height="373"><path d="M484.894 0H-.006v373h484.9V0z" fill="#fff"/></mask><g mask="url(#A)"><path d="M131.962 275.796l.074 23.947c.149 47.52 33.943 66.842 75.272 42.895l69.452-40.135.075 30.213 65.573-37.822.075 29.84 115.108-66.245v4.029l-118.614 68.333-.075-29.84-65.573 37.822-.075-30.213-65.946 38.046c-43.343 24.991-78.703 4.849-78.853-44.909l-.074-23.946 3.581-2.015z" fill="#457EEF"/></g><mask id="B" style="mask-type:luminance" maskUnits="userSpaceOnUse" x="-1" y="0" width="486" height="373"><path d="M484.894 0H-.006v373h484.9V0z" fill="#fff"/></mask><g mask="url(#B)"><path d="M128.53 301.832l-77.584-45.059-.075-24.021 77.584 45.133.075 23.947z" fill="#fff"/></g><mask id="C" style="mask-type:luminance" maskUnits="userSpaceOnUse" x="-1" y="0" width="486" height="373"><path d="M484.894 0H-.006v373h484.9V0z" fill="#fff"/></mask><g mask="url(#C)"><path d="M128.455 277.885l-77.584-45.133 3.506-2.014 77.584 45.058-3.506 2.089z" fill="#457EEF"/></g></g><mask id="D" style="mask-type:luminance" maskUnits="userSpaceOnUse" x="-1" y="0" width="486" height="373"><path d="M484.896 0H-.004v373h484.9V0z" fill="#fff"/></mask><g mask="url(#D)"><path d="M83.398 151.885l3.507-2.014 78.33 145.694-3.507 2.089-78.33-145.769z" fill="#457EEF"/></g><mask id="E" style="mask-type:luminance" maskUnits="userSpaceOnUse" x="-1" y="0" width="486" height="373"><path d="M484.896 0H-.004v373h484.9V0z" fill="#fff"/></mask><g mask="url(#E)"><path d="M83.401 151.886l78.33 145.768L4.475 206.791 83.4 151.886z" fill="#fff"/></g><mask id="F" style="mask-type:luminance" maskUnits="userSpaceOnUse" x="-1" y="0" width="486" height="373"><path d="M484.896 0H-.004v373h484.9V0z" fill="#fff"/></mask><g mask="url(#F)"><mask id="G" style="mask-type:luminance" maskUnits="userSpaceOnUse" x="-1" y="0" width="486" height="373"><path d="M484.894 0H-.006v373h484.9V0z" fill="#fff"/></mask><g opacity=".8" mask="url(#G)"><mask id="H" style="mask-type:luminance" maskUnits="userSpaceOnUse" x="347" y="238" width="82" height="48"><path d="M428.578 238.124h-81.09v46.998h81.09v-46.998z" fill="#fff"/></mask><g opacity=".35" mask="url(#H)"><mask id="I" style="mask-type:luminance" maskUnits="userSpaceOnUse" x="347" y="238" width="82" height="48"><path d="M428.586 238.123h-81.09v46.998h81.09v-46.998z" fill="#fff"/></mask><g mask="url(#I)"><path d="M359.434 244.986c-15.889 9.176-15.964 24.021-.223 33.197 15.815 9.176 41.477 9.176 57.367 0s15.964-24.021.149-33.197c-15.74-9.176-41.403-9.176-57.293 0z" fill="#263238"/></g></g><mask id="J" style="mask-type:luminance" maskUnits="userSpaceOnUse" x="347" y="238" width="82" height="48"><path d="M428.578 238.124h-81.09v46.998h81.09v-46.998z" fill="#fff"/></mask><g opacity=".35" mask="url(#J)"><mask id="K" style="mask-type:luminance" maskUnits="userSpaceOnUse" x="355" y="243" width="66" height="38"><path d="M420.066 243.047h-64.082v37.077h64.082v-37.077z" fill="#fff"/></mask><g mask="url(#K)"><path d="M365.386 248.493c-12.533 7.236-12.608 19.023-.149 26.259 12.458 7.236 32.749 7.236 45.282 0 12.533-7.236 12.607-19.023.149-26.259-12.458-7.236-32.675-7.236-45.282 0z" fill="#263238"/></g></g><mask id="L" style="mask-type:luminance" maskUnits="userSpaceOnUse" x="347" y="238" width="82" height="48"><path d="M428.578 238.124h-81.09v46.998h81.09v-46.998z" fill="#fff"/></mask><g opacity=".35" mask="url(#L)"><mask id="M" style="mask-type:luminance" maskUnits="userSpaceOnUse" x="363" y="247" width="50" height="29"><path d="M412.161 247.672h-48.266v27.975h48.266v-27.975z" fill="#fff"/></mask><g mask="url(#M)"><path d="M370.984 251.701c-9.474 5.446-9.474 14.323-.074 19.769 9.399 5.446 24.692 5.446 34.092 0 9.474-5.446 9.474-14.323.074-19.769-9.325-5.446-24.618-5.446-34.092 0z" fill="#263238"/></g></g><mask id="N" style="mask-type:luminance" maskUnits="userSpaceOnUse" x="347" y="238" width="82" height="48"><path d="M428.578 238.124h-81.09v46.998h81.09v-46.998z" fill="#fff"/></mask><g opacity=".35" mask="url(#N)"><mask id="O" style="mask-type:luminance" maskUnits="userSpaceOnUse" x="371" y="251" width="34" height="21"><path d="M404.846 251.85h-33.645v19.471h33.645V251.85z" fill="#fff"/></mask><g mask="url(#O)"><path d="M376.129 254.759c-6.565 3.805-6.639 9.997-.075 13.801 6.565 3.805 17.158 3.805 23.798 0 6.565-3.804 6.639-9.996.074-13.801-6.564-3.804-17.158-3.804-23.797 0z" fill="#263238"/></g></g></g><mask id="P" style="mask-type:luminance" maskUnits="userSpaceOnUse" x="-1" y="0" width="486" height="373"><path d="M484.894 0H-.006v373h484.9V0z" fill="#fff"/></mask><g opacity=".8" mask="url(#P)"><mask id="Q" style="mask-type:luminance" maskUnits="userSpaceOnUse" x="199" y="283" width="58" height="34"><path d="M256.919 283.48h-57.591v33.346h57.591V283.48z" fill="#fff"/></mask><g opacity=".35" mask="url(#Q)"><mask id="R" style="mask-type:luminance" maskUnits="userSpaceOnUse" x="199" y="283" width="58" height="34"><path d="M256.91 283.48h-57.592v33.347h57.592V283.48z" fill="#fff"/></mask><g mask="url(#R)"><path d="M207.823 288.329c-11.264 6.49-11.339 17.083-.149 23.574 11.19 6.49 29.467 6.49 40.732 0 11.264-6.491 11.339-17.084.149-23.574-11.265-6.49-29.467-6.49-40.732 0z" fill="#263238"/></g></g><mask id="S" style="mask-type:luminance" maskUnits="userSpaceOnUse" x="199" y="283" width="58" height="34"><path d="M256.919 283.48h-57.591v33.346h57.591V283.48z" fill="#fff"/></mask><g opacity=".35" mask="url(#S)"><mask id="T" style="mask-type:luminance" maskUnits="userSpaceOnUse" x="205" y="286" width="46" height="28"><path d="M250.879 286.987h-45.506v26.334h45.506v-26.334z" fill="#fff"/></mask><g mask="url(#T)"><path d="M212.087 290.792c-8.952 5.147-8.952 13.502-.075 18.65 8.877 5.147 23.275 5.147 32.153 0 8.877-5.148 8.952-13.503.074-18.65-8.803-5.148-23.275-5.148-32.152 0z" fill="#263238"/></g></g><mask id="U" style="mask-type:luminance" maskUnits="userSpaceOnUse" x="199" y="283" width="58" height="34"><path d="M256.919 283.48h-57.591v33.346h57.591V283.48z" fill="#fff"/></mask><g opacity=".35" mask="url(#U)"><mask id="V" style="mask-type:luminance" maskUnits="userSpaceOnUse" x="210" y="290" width="36" height="21"><path d="M245.208 290.193h-34.241v19.844h34.241v-19.844z" fill="#fff"/></mask><g mask="url(#V)"><path d="M216.035 293.103c-6.714 3.879-6.714 10.145-.075 14.025 6.64 3.879 17.531 3.879 24.245 0 6.714-3.88 6.714-10.146.075-14.025-6.714-3.879-17.531-3.879-24.245 0z" fill="#263238"/></g></g><mask id="W" style="mask-type:luminance" maskUnits="userSpaceOnUse" x="199" y="283" width="58" height="34"><path d="M256.919 283.48h-57.591v33.346h57.591V283.48z" fill="#fff"/></mask><g opacity=".35" mask="url(#W)"><mask id="X" style="mask-type:luminance" maskUnits="userSpaceOnUse" x="216" y="293" width="25" height="15"><path d="M240.052 293.253H216.18v13.801h23.872v-13.801z" fill="#fff"/></mask><g mask="url(#X)"><path d="M219.687 295.267c-4.7 2.686-4.7 7.087-.075 9.773s12.234 2.686 16.86 0c4.699-2.686 4.699-7.087.074-9.773-4.625-2.76-12.16-2.76-16.859 0z" fill="#263238"/></g></g></g></g><mask id="Y" style="mask-type:luminance" maskUnits="userSpaceOnUse" x="-1" y="0" width="486" height="373"><path d="M484.896 0H-.004v373h484.9V0z" fill="#fff"/></mask><g mask="url(#Y)"><mask id="Z" style="mask-type:luminance" maskUnits="userSpaceOnUse" x="333" y="48" width="131" height="245"><path d="M333.523 48.788v196.049l65.499 47.445 32.973-18.948-25.214-24.469 12.159-12.607 14.92 8.579h29.691V48.788H333.523z" fill="#fff"/></mask><g mask="url(#Z)"><path d="M358.669 140.322s-2.163 1.045-4.401 2.984c-.895.821-1.865 1.791-2.611 2.835-.821 1.119-1.417 2.462-1.79 3.879-1.343 6.267-.448 10.892 3.357 6.117l2.685-3.804v.074c0 .523-.298 4.924 1.045 5.67 1.417.746 3.655-7.087 3.655-7.087s3.581-1.343 3.805-4.774l-5.745-5.894z" fill="#EBB376"/></g><mask id="aa" style="mask-type:luminance" maskUnits="userSpaceOnUse" x="333" y="48" width="131" height="245"><path d="M333.523 48.788v196.049l65.499 47.445 32.973-18.948-25.214-24.469 12.159-12.607 14.92 8.579h29.691V48.788H333.523z" fill="#fff"/></mask><g mask="url(#aa)"><path d="M400.889 92.13c-.746 5.82-14.547 32.004-17.68 35.734-3.133 3.73-17.307 20.814-17.307 20.814s-5.595-6.864-9.773-8.654l14.995-20.813s9.921-26.782 13.427-30.512c3.581-3.804 16.338 3.432 16.338 3.432z" fill="#3B464C"/></g><mask id="ab" style="mask-type:luminance" maskUnits="userSpaceOnUse" x="333" y="48" width="131" height="245"><path d="M333.523 48.788v196.049l65.499 47.445 32.973-18.948-25.214-24.469 12.159-12.607 14.92 8.579h29.691V48.788H333.523z" fill="#fff"/></mask><g mask="url(#ab)"><path d="M441.023 233.424l-5.222-6.192 3.581 8.653-7.236 10.146-9.773 3.208c-3.953 1.566 4.626-14.323 4.626-14.323l-2.238-9.176 9.175-6.49c2.089 2.611 8.281 12.159 8.281 12.159l-1.194 2.015z" fill="#263238"/></g><mask id="ac" style="mask-type:luminance" maskUnits="userSpaceOnUse" x="333" y="48" width="131" height="245"><path d="M333.523 48.788v196.049l65.499 47.445 32.973-18.948-25.214-24.469 12.159-12.607 14.92 8.579h29.691V48.788H333.523z" fill="#fff"/></mask><g mask="url(#ac)"><path d="M433.863 219.324c-2.014 6.49-8.877 8.355-8.877 8.355s-8.878-7.087-17.531-14.845c-5.745-5.148-11.34-10.668-14.025-14.473-.522-.746-1.045-1.641-1.641-2.685-3.954-7.61-9.102-27.453-12.16-38.27l-1.492-9.549 20.366 1.044h.223l12.459 43.045c.969.373 2.312 1.342 3.804 2.909 7.236 7.087 18.874 24.469 18.874 24.469z" fill="#457EEF"/></g><mask id="ad" style="mask-type:luminance" maskUnits="userSpaceOnUse" x="333" y="48" width="131" height="245"><path d="M333.523 48.788v196.049l65.499 47.445 32.973-18.948-25.214-24.469 12.159-12.607 14.92 8.579h29.691V48.788H333.523z" fill="#fff"/></mask><g opacity=".2" mask="url(#ad)"><mask id="ae" style="mask-type:luminance" maskUnits="userSpaceOnUse" x="378" y="147" width="56" height="81"><path d="M433.861 147.857h-55.652v79.822h55.652v-79.822z" fill="#fff"/></mask><g mask="url(#ae)"><path d="M433.861 219.324c-2.014 6.49-8.877 8.355-8.877 8.355s-8.878-7.087-17.531-14.845c-5.745-5.148-11.34-10.668-14.025-14.473-.522-.746-1.045-1.641-1.641-2.685-3.954-7.61-9.102-27.453-12.16-38.27l-1.492-9.549 20.366 1.044h.223l12.459 43.045c.969.373 2.312 1.342 3.804 2.909 7.236 7.087 18.874 24.469 18.874 24.469z" fill="#263238"/></g></g><mask id="af" style="mask-type:luminance" maskUnits="userSpaceOnUse" x="333" y="48" width="131" height="245"><path d="M333.523 48.788v196.049l65.499 47.445 32.973-18.948-25.214-24.469 12.159-12.607 14.92 8.579h29.691V48.788H333.523z" fill="#fff"/></mask><g mask="url(#af)"><path d="M404.995 266.172l-1.865 1.194-1.79-8.131-.895 9.548s-11.787 8.58-16.189 8.057c-4.326-.447 5.372-14.845 5.372-14.845l2.312-9.325 12.533.746c.746 3.282.522 12.756.522 12.756z" fill="#263238"/></g><mask id="ag" style="mask-type:luminance" maskUnits="userSpaceOnUse" x="333" y="48" width="131" height="245"><path d="M333.523 48.788v196.049l65.499 47.445 32.973-18.948-25.214-24.469 12.159-12.607 14.92 8.579h29.691V48.788H333.523z" fill="#fff"/></mask><g mask="url(#ag)"><path d="M407.456 212.833c-.298.597-.597 1.119-.821 1.567.299 1.044 1.045 3.655 1.343 7.385.373 4.775-2.909 31.556-2.909 31.556s-6.789 1.119-13.727-.597l-.746-43.342c.224-4.551.672-9.25 1.194-13.726 1.641-13.503 4.327-27.453 4.401-29.318l-16.486-8.952-1.492-9.549c.895.075 10.145.671 20.366 1.044h.223c9.176.373 17.904.448 18.949-.223 0 0 .522-.299.597-.373 3.506 16.337.596 34.465-3.283 46.475-2.685 8.281-5.744 14.622-7.609 18.053z" fill="#457EEF"/></g><mask id="ah" style="mask-type:luminance" maskUnits="userSpaceOnUse" x="333" y="48" width="131" height="245"><path d="M333.523 48.788v196.049l65.499 47.445 32.973-18.948-25.214-24.469 12.159-12.607 14.92 8.579h29.691V48.788H333.523z" fill="#fff"/></mask><g mask="url(#ah)"><path d="M454.004 73.928c-1.343 1.94-2.76 5.82-4.998 6.416-2.313.597-4.7.82-6.864 1.641-3.357 1.268-6.042 3.805-8.802 6.043-2.761 2.238-5.968 4.327-9.549 4.476-4.625.149-8.654-2.91-13.204-3.656-5.297-.82-10.892 1.79-16.039.373-4.327-1.119-7.61-4.923-8.952-9.175-1.418-4.253-1.119-8.878-.15-13.205.746-3.357 1.94-6.714 3.954-9.474 2.014-2.76 4.998-4.998 8.43-5.52 3.208-.522 6.341.149 9.25 2.238 2.835-.299 4.551 1.193 6.192 3.133 1.716 1.94 3.059 4.327 5.371 5.446 3.134 1.641 6.938.373 10.295-.672 3.357-1.044 7.46-1.715 10.071.597 2.238 2.014 2.76 5.67 5.446 7.013 2.984 1.417 6.117-3.954 8.877-2.015 1.865 1.343 2.015 4.327.672 6.341z" fill="#263238"/></g><mask id="ai" style="mask-type:luminance" maskUnits="userSpaceOnUse" x="333" y="48" width="131" height="245"><path d="M333.523 48.788v196.049l65.499 47.445 32.973-18.948-25.214-24.469 12.159-12.607 14.92 8.579h29.691V48.788H333.523z" fill="#fff"/></mask><g mask="url(#ai)"><path d="M375.971 111.826c.224 3.73 3.879 6.937 3.879 6.937s-1.268 7.386-1.716 29.02c0 0 16.785 13.801 21.783 11.339.746-.373 1.492-.746 2.313-1.194 5.968-3.207 13.279-7.907 15.442-9.325.299-.149.448-.298.597-.373.075 0 .075-.074.075-.074-.075-.224-.075-.448-.224-.821v-.149c-1.343-6.266-7.982-17.382-7.982-17.382l10.071-37.971c-4.849-3.283-19.098-8.952-19.098-8.952s.895-.299-8.281-.672c-9.25-.223-17.008 25.887-16.859 29.617z" fill="#263238"/></g><mask id="aj" style="mask-type:luminance" maskUnits="userSpaceOnUse" x="333" y="48" width="131" height="245"><path d="M333.523 48.788v196.049l65.499 47.445 32.973-18.948-25.214-24.469 12.159-12.607 14.92 8.579h29.691V48.788H333.523z" fill="#fff"/></mask><g mask="url(#aj)"><path d="M407.455 85.715l1.268.522-19.619 32.004 1.939-30.064 16.412-2.462z" fill="#fff"/></g><mask id="ak" style="mask-type:luminance" maskUnits="userSpaceOnUse" x="333" y="48" width="131" height="245"><path d="M333.523 48.788v196.049l65.499 47.445 32.973-18.948-25.214-24.469 12.159-12.607 14.92 8.579h29.691V48.788H333.523z" fill="#fff"/></mask><g opacity=".35" mask="url(#ak)"><mask id="al" style="mask-type:luminance" maskUnits="userSpaceOnUse" x="379" y="119" width="20" height="13"><path d="M398.804 119.212h-19.023v11.862h19.023v-11.862z" fill="#fff"/></mask><g mask="url(#al)"><path d="M398.875 131.073l-19.023-10.518s2.984-2.462 8.355-.672c5.371 1.791 10.668 11.19 10.668 11.19z" fill="#263238"/></g></g><mask id="am" style="mask-type:luminance" maskUnits="userSpaceOnUse" x="333" y="48" width="131" height="245"><path d="M333.523 48.788v196.049l65.499 47.445 32.973-18.948-25.214-24.469 12.159-12.607 14.92 8.579h29.691V48.788H333.523z" fill="#fff"/></mask><g opacity=".35" mask="url(#am)"><mask id="an" style="mask-type:luminance" maskUnits="userSpaceOnUse" x="389" y="86" width="22" height="33"><path d="M410.302 86.61h-21.187v31.63h21.187V86.61z" fill="#fff"/></mask><g mask="url(#an)"><path d="M410.225 86.983l-2.014 17.083-8.43 2.611 1.119 7.162-11.787 4.401 12.533-20.59 7.758-11.04.821.373z" fill="#263238"/></g></g><mask id="ao" style="mask-type:luminance" maskUnits="userSpaceOnUse" x="333" y="48" width="131" height="245"><path d="M333.523 48.788v196.049l65.499 47.445 32.973-18.948-25.214-24.469 12.159-12.607 14.92 8.579h29.691V48.788H333.523z" fill="#fff"/></mask><g opacity=".35" mask="url(#ao)"><mask id="ap" style="mask-type:luminance" maskUnits="userSpaceOnUse" x="384" y="82" width="9" height="37"><path d="M392.24 82.358h-7.31v35.882h7.31V82.358z" fill="#fff"/></mask><g mask="url(#ap)"><path d="M391.047 88.177l-1.94 30.063-4.177-14.397 3.58-1.865-2.536-7.61 6.266-12.01-1.193 5.819z" fill="#263238"/></g></g><mask id="aq" style="mask-type:luminance" maskUnits="userSpaceOnUse" x="333" y="48" width="131" height="245"><path d="M333.523 48.788v196.049l65.499 47.445 32.973-18.948-25.214-24.469 12.159-12.607 14.92 8.579h29.691V48.788H333.523z" fill="#fff"/></mask><g mask="url(#aq)"><path d="M406.188 70.497l1.268 15.218-11.712 7.162-1.418-4.924.075-5.147c.224 0 1.641.373 1.939.373 5.446 0 9.848-5.67 9.848-11.116v-1.566z" fill="#EBB376"/></g><mask id="ar" style="mask-type:luminance" maskUnits="userSpaceOnUse" x="333" y="48" width="131" height="245"><path d="M333.523 48.788v196.049l65.499 47.445 32.973-18.948-25.214-24.469 12.159-12.607 14.92 8.579h29.691V48.788H333.523z" fill="#fff"/></mask><g opacity=".7" mask="url(#ar)"><mask id="as" style="mask-type:luminance" maskUnits="userSpaceOnUse" x="394" y="77" width="12" height="11"><path d="M405.063 77.808H394.32v10.145h10.743V77.808z" fill="#fff"/></mask><g mask="url(#as)"><path d="M394.396 82.806s1.045.373 1.94.373c3.805.298 7.162-2.238 8.803-5.446-1.567 7.161-8.057 9.549-10.743 10.145 0 .075-.074-3.58 0-5.072z" fill="#263238"/></g></g><mask id="at" style="mask-type:luminance" maskUnits="userSpaceOnUse" x="333" y="48" width="131" height="245"><path d="M333.523 48.788v196.049l65.499 47.445 32.973-18.948-25.214-24.469 12.159-12.607 14.92 8.579h29.691V48.788H333.523z" fill="#fff"/></mask><g mask="url(#at)"><path d="M407.305 84l2.089 2.61c-.821 2.537-4.924 7.983-7.759 11.041 0 0-1.417-5.52-5.819-4.774l11.713-7.162-.224-1.716z" fill="#D1DBDB"/></g><mask id="au" style="mask-type:luminance" maskUnits="userSpaceOnUse" x="333" y="48" width="131" height="245"><path d="M333.523 48.788v196.049l65.499 47.445 32.973-18.948-25.214-24.469 12.159-12.607 14.92 8.579h29.691V48.788H333.523z" fill="#fff"/></mask><g mask="url(#au)"><path d="M394.4 82.806l-.82-.298-1.343-.15s-2.76 6.341-1.865 11.563c0 0 3.208-1.79 5.371-1.119l-1.417-4.923.074-5.073z" fill="#D1DBDB"/></g><mask id="av" style="mask-type:luminance" maskUnits="userSpaceOnUse" x="333" y="48" width="131" height="245"><path d="M333.523 48.788v196.049l65.499 47.445 32.973-18.948-25.214-24.469 12.159-12.607 14.92 8.579h29.691V48.788H333.523z" fill="#fff"/></mask><g mask="url(#av)"><path d="M434.089 155.168s.895 2.238 1.119 5.222c.075 1.194.075 2.537-.149 3.88-.224 1.417-.671 2.76-1.417 4.028-3.357 5.446-7.237 8.131-6.64 2.089l.746-4.625c-.373.447-3.208 3.73-4.7 3.357-1.566-.448 2.313-7.61 2.313-7.61s-1.641-3.431.597-6.117l8.131-.224z" fill="#EBB376"/></g><mask id="aw" style="mask-type:luminance" maskUnits="userSpaceOnUse" x="333" y="48" width="131" height="245"><path d="M333.523 48.788v196.049l65.499 47.445 32.973-18.948-25.214-24.469 12.159-12.607 14.92 8.579h29.691V48.788H333.523z" fill="#fff"/></mask><g mask="url(#aw)"><path d="M420.211 92.056c3.655 4.55 13.055 32.675 13.577 37.449.522 4.775 3.058 26.856 3.058 26.856s-8.877-.671-12.98 1.045l-4.7-25.215-10.369-20.366 11.414-19.769z" fill="#263238"/></g><mask id="ax" style="mask-type:luminance" maskUnits="userSpaceOnUse" x="333" y="48" width="131" height="245"><path d="M333.523 48.788v196.049l65.499 47.445 32.973-18.948-25.214-24.469 12.159-12.607 14.92 8.579h29.691V48.788H333.523z" fill="#fff"/></mask><g mask="url(#ax)"><path d="M387.539 65.051v6.789c0 2.238.522 5.595 1.567 7.236a8.777 8.777 0 004.252 3.805c.298.149 1.865.746 2.909.746 4.103 0 7.684-2.387 9.4-5.82.447-.894.746-3.132.97-4.102.82-.299 1.492-.895 2.014-1.567 1.268-1.865.97-4.7-.522-6.415-.746-.82-1.791-1.194-2.835-.82-.746.297-1.268.82-1.641 1.491-1.418-2.76-1.865-5.744-1.865-5.744-1.269 1.716-8.952 7.087-14.249 4.401z" fill="#EBB376"/></g></g><mask id="ay" style="mask-type:luminance" maskUnits="userSpaceOnUse" x="-1" y="0" width="486" height="373"><path d="M484.896 0H-.004v373h484.9V0z" fill="#fff"/></mask><g mask="url(#ay)"><mask id="az" style="mask-type:luminance" maskUnits="userSpaceOnUse" x="264" y="81" width="125" height="238"><path d="M264.977 81.986v167.925l77.434 45.058v23.052h46.551V81.986H264.977z" fill="#fff"/></mask><g mask="url(#az)"><path d="M288.552 181.801s-2.686-.299-5.968.223c-1.343.224-2.835.597-4.178 1.194-1.492.597-2.834 1.492-4.028 2.686-5.073 5.222-6.938 10.145-.448 7.833l4.849-2.089v.074c-.373.523-3.207 4.551-2.387 6.043.895 1.567 7.759-4.625 7.759-4.625s5.744-.522 7.982-3.73l-3.581-7.609z" fill="#FFB07B"/></g><mask id="aA" style="mask-type:luminance" maskUnits="userSpaceOnUse" x="264" y="81" width="125" height="238"><path d="M264.977 81.986v167.925l77.434 45.058v23.052h46.551V81.986H264.977z" fill="#fff"/></mask><g mask="url(#aA)"><path d="M322.717 138.085c-1.791 5.819-5.073 32.003-8.952 35.211-3.88 3.283-21.411 18.426-21.411 18.426s-4.625-8.056-8.579-10.593l19.023-18.948 4.476-28.796 15.443 4.7z" fill="#fff"/></g><mask id="aB" style="mask-type:luminance" maskUnits="userSpaceOnUse" x="264" y="81" width="125" height="238"><path d="M264.977 81.986v167.925l77.434 45.058v23.052h46.551V81.986H264.977z" fill="#fff"/></mask><g mask="url(#aB)"><path d="M313.761 173.296l-11.413 9.848 4.923-49.684 6.49 39.836z" fill="#D1DBDB"/></g><mask id="aC" style="mask-type:luminance" maskUnits="userSpaceOnUse" x="264" y="81" width="125" height="238"><path d="M264.977 81.986v167.925l77.434 45.058v23.052h46.551V81.986H264.977z" fill="#fff"/></mask><g mask="url(#aC)"><path d="M368.076 295.491l-16.86 14.845c-.522.448-1.119.821-1.79.97l-5.372 1.716c-3.058.97-5.968-1.044-6.415-3.954a4.494 4.494 0 01.074-1.716c.224-.895.597-1.715 1.269-2.461l12.458-13.652c3.357.224 10.369 1.343 14.248-3.73 1.94 2.984 2.388 7.982 2.388 7.982z" fill="#263238"/></g><mask id="aD" style="mask-type:luminance" maskUnits="userSpaceOnUse" x="264" y="81" width="125" height="238"><path d="M264.977 81.986v167.925l77.434 45.058v23.052h46.551V81.986H264.977z" fill="#fff"/></mask><g mask="url(#aD)"><path d="M315.258 291.91l-18.949 12.085a5.747 5.747 0 01-1.865.746l-5.52.895c-3.133.522-5.744-2.014-5.744-4.923 0-.597.074-1.119.298-1.716.298-.895.895-1.641 1.641-2.238l13.577-10.668c3.283.746 10.817 1.865 15.443-2.536 1.342 3.357 1.119 8.355 1.119 8.355z" fill="#263238"/></g><mask id="aE" style="mask-type:luminance" maskUnits="userSpaceOnUse" x="264" y="81" width="125" height="238"><path d="M264.977 81.986v167.925l77.434 45.058v23.052h46.551V81.986H264.977z" fill="#fff"/></mask><g mask="url(#aE)"><path d="M308.916 190.753s-11.115 39.762-11.115 46.177v49.833s5.669 4.103 16.039 1.567c0 0 7.907-44.462 3.506-47.744l6.341-14.771s2.611 22.007 4.998 26.483c2.387 4.476 22.679 40.731 22.679 40.731s10.593 1.418 14.621-5.371c0 0-12.085-43.715-18.202-44.237 0 0 8.28-34.54 4.401-44.238l-43.268-8.43z" fill="#263238"/></g><mask id="aF" style="mask-type:luminance" maskUnits="userSpaceOnUse" x="264" y="81" width="125" height="238"><path d="M264.977 81.986v167.925l77.434 45.058v23.052h46.551V81.986H264.977z" fill="#fff"/></mask><g mask="url(#aF)"><path d="M343.751 112.945v-.149c-.224-1.567-1.492-3.059-3.059-3.432-.895-.224-1.939-.074-2.76.299-.522.223-.97.596-1.417.969-1.641-2.461-2.462-4.923-2.238-7.833-5.297.821-10.817-.746-14.995-4.177-.597-.448 1.791-8.58 9.922-9.773 2.686-.373 5.446-.298 8.131.15 2.686.372 5.297 1.342 7.311 3.207 2.835 2.537 4.029 6.64 3.656 10.444-.373 3.73-2.164 7.236-4.551 10.295z" fill="#263238"/></g><mask id="aG" style="mask-type:luminance" maskUnits="userSpaceOnUse" x="264" y="81" width="125" height="238"><path d="M264.977 81.986v167.925l77.434 45.058v23.052h46.551V81.986H264.977z" fill="#fff"/></mask><g mask="url(#aG)"><path d="M352.407 188.514l-.298 10.594c-3.432 3.431-12.533 7.982-13.652 7.982-3.506 0-29.467-16.338-29.467-16.338l2.536-21.037s-6.639-33.943-3.357-40.657c3.208-6.565 10.146-7.311 10.444-7.385.97 1.641 2.313 2.909 4.029 3.655-.299.224-.597.448-.821.672l-.224.223c-2.462 2.388-3.058 5.67-2.909 8.356.074 2.76.895 4.998.895 4.998.149-.672.373-1.268.671-1.716 1.269-2.014 3.283-2.313 3.283-2.313s2.387 1.418 3.431 3.805c.299.597.448 1.194.523 1.94 0 0 .82-.299 2.163-.97 3.506-1.791 10.369-5.968 13.353-12.682 0 0 12.832 5.52 15.219 10.668 2.312 5.147-5.819 50.205-5.819 50.205z" fill="#fff"/></g><mask id="aH" style="mask-type:luminance" maskUnits="userSpaceOnUse" x="264" y="81" width="125" height="238"><path d="M264.977 81.986v167.925l77.434 45.058v23.052h46.551V81.986H264.977z" fill="#fff"/></mask><g mask="url(#aH)"><path d="M343.23 114.288c-.821 1.417-2.164 2.387-3.656 3.058l.522 5.67.224 2.685-16.785 9.698v-9.921c3.805.671 7.535-.896 9.773-3.805.97-1.194 1.641-2.686 1.939-4.252l1.119-5.819v-2.909a8.98 8.98 0 011.194-1.194c.746-.522 1.716-.895 2.686-.821 1.641.075 3.058 1.269 3.58 2.835 0 .075.075.149.075.149.448 1.642.149 3.283-.671 4.626z" fill="#FFB07B"/></g><mask id="aI" style="mask-type:luminance" maskUnits="userSpaceOnUse" x="264" y="81" width="125" height="238"><path d="M264.977 81.986v167.925l77.434 45.058v23.052h46.551V81.986H264.977z" fill="#fff"/></mask><g mask="url(#aI)"><path d="M342.933 127.567c-2.984 6.714-9.847 10.891-13.353 12.682-1.343.671-2.163.97-2.163.97-.075-.672-.224-1.343-.523-1.94-1.044-2.387-3.431-3.805-3.431-3.805l16.785-9.698-.224-2.685c2.909 1.641 2.909 4.476 2.909 4.476z" fill="#D1DBDB"/></g><mask id="aJ" style="mask-type:luminance" maskUnits="userSpaceOnUse" x="264" y="81" width="125" height="238"><path d="M264.977 81.986v167.925l77.434 45.058v23.052h46.551V81.986H264.977z" fill="#fff"/></mask><g mask="url(#aJ)"><path d="M323.535 125.701v9.922s-2.088.298-3.282 2.313c-.298.447-.522 1.044-.671 1.715 0 0-.746-2.163-.896-4.998-.074-2.685.448-5.968 2.91-8.355l.224-.224c.223-.224.522-.447.82-.671.299.074.522.149.895.298z" fill="#D1DBDB"/></g><mask id="aK" style="mask-type:luminance" maskUnits="userSpaceOnUse" x="264" y="81" width="125" height="238"><path d="M264.977 81.986v167.925l77.434 45.058v23.052h46.551V81.986H264.977z" fill="#fff"/></mask><g mask="url(#aK)"><path d="M326.97 139.353l-1.716 5.893-4.028-2.088-.97-5.222c1.268-2.015 3.357-2.313 3.357-2.313s2.238 1.343 3.357 3.73z" fill="#457EEF"/></g><mask id="aL" style="mask-type:luminance" maskUnits="userSpaceOnUse" x="264" y="81" width="125" height="238"><path d="M264.977 81.986v167.925l77.434 45.058v23.052h46.551V81.986H264.977z" fill="#fff"/></mask><g opacity=".7" mask="url(#aL)"><mask id="aM" style="mask-type:luminance" maskUnits="userSpaceOnUse" x="323" y="119" width="12" height="12"><path d="M334.438 119.958h-10.891V130.7h10.891v-10.742z" fill="#fff"/></mask><g mask="url(#aM)"><path d="M334.437 119.958c-2.089 9.772-10.892 10.742-10.892 10.742l-.074-5.073s1.865.224 2.834.075c4.103-.746 6.491-2.462 8.132-5.744z" fill="#263238"/></g></g><mask id="aN" style="mask-type:luminance" maskUnits="userSpaceOnUse" x="264" y="81" width="125" height="238"><path d="M264.977 81.986v167.925l77.434 45.058v23.052h46.551V81.986H264.977z" fill="#fff"/></mask><g mask="url(#aN)"><path d="M336.294 108.842v2.91l-1.119 5.818a9.291 9.291 0 01-1.94 4.253c-2.238 2.909-5.893 4.476-9.772 3.804h-.075a7.73 7.73 0 01-2.611-.895c-.298-.149-.522-.298-.821-.448-1.566-1.044-2.685-2.536-3.282-4.326-.597-1.791-.746-3.805-.373-5.894l2.909-15.517c4.103 3.357 9.698 4.924 14.995 4.178-.149 2.76 1.044 4.998 2.089 6.117z" fill="#FFB07B"/></g><mask id="aO" style="mask-type:luminance" maskUnits="userSpaceOnUse" x="264" y="81" width="125" height="238"><path d="M264.977 81.986v167.925l77.434 45.058v23.052h46.551V81.986H264.977z" fill="#fff"/></mask><g mask="url(#aO)"><path d="M321.153 143.083s-6.267 13.578-4.178 24.768c2.164 11.264 12.981 20.664 12.981 20.664l11.488.82v-8.579s-16.188-8.802-17.382-16.262c-1.193-7.46 1.119-19.322 1.119-19.322l-4.028-2.089z" fill="#457EEF"/></g><mask id="aP" style="mask-type:luminance" maskUnits="userSpaceOnUse" x="264" y="81" width="125" height="238"><path d="M264.977 81.986v167.925l77.434 45.058v23.052h46.551V81.986H264.977z" fill="#fff"/></mask><g mask="url(#aP)"><path d="M372.322 204.106s.97 2.537 1.268 5.894c.075 1.343.075 2.835-.149 4.401-.224 1.567-.746 3.133-1.641 4.551-3.805 6.192-8.206 9.176-7.535 2.312l.821-5.222-.075.075c-.373.448-3.655 4.178-5.296 3.805-1.716-.523 2.611-8.579 2.611-8.579s-1.865-3.88.671-6.864l9.325-.373z" fill="#FFB07B"/></g><mask id="aQ" style="mask-type:luminance" maskUnits="userSpaceOnUse" x="264" y="81" width="125" height="238"><path d="M264.977 81.986v167.925l77.434 45.058v23.052h46.551V81.986H264.977z" fill="#fff"/></mask><g mask="url(#aQ)"><path d="M358.153 138.234c3.804 4.775 12.905 33.645 13.428 38.718.522 4.998 3.058 28.049 3.058 28.049s-9.25-.746-13.577 1.045l-4.849-26.409-10.742-21.335c0 .074 3.73-31.332 12.682-20.068z" fill="#fff"/></g><mask id="aR" style="mask-type:luminance" maskUnits="userSpaceOnUse" x="264" y="81" width="125" height="238"><path d="M264.977 81.986v167.925l77.434 45.058v23.052h46.551V81.986H264.977z" fill="#fff"/></mask><g opacity=".4" mask="url(#aR)"><mask id="aS" style="mask-type:luminance" maskUnits="userSpaceOnUse" x="310" y="197" width="14" height="29"><path d="M323.616 197.989h-13.13v27.751h13.13v-27.751z" fill="#fff"/></mask><g mask="url(#aS)"><path d="M323.616 225.74l-3.432-21.634-9.698-6.117 13.13 27.751z" fill="#263238"/></g></g><mask id="aT" style="mask-type:luminance" maskUnits="userSpaceOnUse" x="264" y="81" width="125" height="238"><path d="M264.977 81.986v167.925l77.434 45.058v23.052h46.551V81.986H264.977z" fill="#fff"/></mask><g mask="url(#aT)"><path d="M354.497 176.281l-9.026-17.904 6.937 30.138 2.089-12.234z" fill="#D1DBDB"/></g></g><mask id="aU" style="mask-type:luminance" maskUnits="userSpaceOnUse" x="-1" y="0" width="486" height="373"><path d="M484.896 0H-.004v373h484.9V0z" fill="#fff"/></mask><g mask="url(#aU)"><mask id="aV" style="mask-type:luminance" maskUnits="userSpaceOnUse" x="99" y="76" width="199" height="236"><path d="M99.596 76.24v235.587h153.899l-1.044-23.275 23.872 13.876h21.186V76.241H99.596z" fill="#fff"/></mask><g mask="url(#aV)"><path d="M237.229 291.761l-19.62 12.532c-.597.373-1.268.672-1.94.746l-5.744.896c-3.282.522-5.968-2.089-5.968-5.073 0-.597.075-1.194.298-1.791.373-.895.896-1.715 1.642-2.312l14.099-11.041c3.357.746 11.265 1.94 16.039-2.611 1.492 3.506 1.194 8.654 1.194 8.654z" fill="#263238"/></g><mask id="aW" style="mask-type:luminance" maskUnits="userSpaceOnUse" x="99" y="76" width="199" height="236"><path d="M99.596 76.24v235.587h153.899l-1.044-23.275 23.872 13.876h21.186V76.241H99.596z" fill="#fff"/></mask><g mask="url(#aW)"><path d="M136.968 108.244s-12.533-9.474-15.89-10.742c-3.357-1.268-8.057-4.924-9.922-4.476-1.79.448 4.327 5.893 4.327 5.893s-1.865 2.238-1.79 5.894c.149 3.655 5.371 5.073 5.371 5.073s4.327 7.609 10.295 5.818l4.327 3.432c.149.075 5.52-5.595 3.282-10.892z" fill="#FFA96E"/></g><mask id="aX" style="mask-type:luminance" maskUnits="userSpaceOnUse" x="99" y="76" width="199" height="236"><path d="M99.596 76.24v235.587h153.899l-1.044-23.275 23.872 13.876h21.186V76.241H99.596z" fill="#fff"/></mask><g mask="url(#aX)"><path d="M211.121 114.063c-12.235-.597-45.283 5.222-45.283 5.222l-29.616-12.682c1.94 6.49-4.103 12.533-4.103 12.533s26.931 19.993 33.272 20.962c2.536.373 29.616-3.207 29.616-3.207l16.114-22.828z" fill="#263238"/></g><mask id="aY" style="mask-type:luminance" maskUnits="userSpaceOnUse" x="99" y="76" width="199" height="236"><path d="M99.596 76.24v235.587h153.899l-1.044-23.275 23.872 13.876h21.186V76.241H99.596z" fill="#fff"/></mask><g mask="url(#aY)"><path d="M279.827 185.306s1.865 2.238 3.357 5.446c.597 1.343 1.119 2.835 1.417 4.476.299 1.641.373 3.432 0 5.147-1.641 7.61-4.923 12.235-6.714 5.073l-1.044-5.52v.074c-.224.597-2.164 5.595-3.954 5.745-1.94.149-.522-9.624-.522-9.624s-3.283-3.282-1.791-7.161l9.251-3.656z" fill="#FFA96E"/></g><mask id="aZ" style="mask-type:luminance" maskUnits="userSpaceOnUse" x="99" y="76" width="199" height="236"><path d="M99.596 76.24v235.587h153.899l-1.044-23.275 23.872 13.876h21.186V76.241H99.596z" fill="#fff"/></mask><g mask="url(#aZ)"><path d="M210.82 191.423s21.038 54.01 24.171 62.664c3.133 8.579 29.243 38.792 29.243 38.792s12.906-1.343 16.71-9.027c0 0-22.529-39.314-26.259-36.554l-8.803-53.413-35.062-2.462z" fill="#3B464C"/></g><mask id="ba" style="mask-type:luminance" maskUnits="userSpaceOnUse" x="99" y="76" width="199" height="236"><path d="M99.596 76.24v235.587h153.899l-1.044-23.275 23.872 13.876h21.186V76.241H99.596z" fill="#fff"/></mask><g mask="url(#ba)"><path d="M280.946 283.853l-5.072 22.678a5.095 5.095 0 01-.896 1.94l-3.431 4.7c-1.045 1.417-2.611 2.089-4.178 2.089-1.939 0-3.804-1.045-4.7-2.984a5.977 5.977 0 01-.447-2.761l2.089-16.635c.074 0 .223 0 .298-.075 1.865-.224 8.728-1.417 13.204-5.222 1.343-1.044 2.387-2.238 3.133-3.73z" fill="#263238"/></g><mask id="bb" style="mask-type:luminance" maskUnits="userSpaceOnUse" x="99" y="76" width="199" height="236"><path d="M99.596 76.24v235.587h153.899l-1.044-23.275 23.872 13.876h21.186V76.241H99.596z" fill="#fff"/></mask><g opacity=".4" mask="url(#bb)"><mask id="bc" style="mask-type:luminance" maskUnits="userSpaceOnUse" x="210" y="191" width="71" height="102"><path d="M280.935 191.422h-70.124v101.456h70.124V191.422z" fill="#fff"/></mask><g mask="url(#bc)"><path d="M280.935 283.852a10.695 10.695 0 01-3.059 3.73c-4.476 3.805-11.339 4.998-13.204 5.222-.149 0-.224 0-.299.075h-.149s-26.11-30.213-29.243-38.792c-3.133-8.579-24.17-62.664-24.17-62.664l35.062 2.462 8.802 53.413c3.656-2.76 25.29 34.764 26.26 36.554 0-.074 0-.074 0 0z" fill="#263238"/></g></g><mask id="bd" style="mask-type:luminance" maskUnits="userSpaceOnUse" x="99" y="76" width="199" height="236"><path d="M99.596 76.24v235.587h153.899l-1.044-23.275 23.872 13.876h21.186V76.241H99.596z" fill="#fff"/></mask><g mask="url(#bd)"><path d="M258.195 187.917s5.744 9.996-.895 19.694c-6.64 9.624-33.048 25.588-33.048 25.588l12.831 52.369s-10.817 6.789-17.382-.223c-1.865-1.94-21.634-50.057-20.216-59.457 1.417-9.399 35.211-36.927 35.211-36.927l23.499-1.044z" fill="#3B464C"/></g><mask id="be" style="mask-type:luminance" maskUnits="userSpaceOnUse" x="99" y="76" width="199" height="236"><path d="M99.596 76.24v235.587h153.899l-1.044-23.275 23.872 13.876h21.186V76.241H99.596z" fill="#fff"/></mask><g mask="url(#be)"><path d="M196.949 114.212s11.116-4.252 20.142-.522c9.027 3.656 28.423 13.279 32.227 18.576 3.805 5.296 17.606 21.037 19.919 25.96 2.387 4.849 13.353 27.155 13.353 27.155s-9.549 2.611-13.353 5.968l-14.473-24.767-18.575-17.531-39.24-34.839z" fill="#263238"/></g><mask id="bf" style="mask-type:luminance" maskUnits="userSpaceOnUse" x="99" y="76" width="199" height="236"><path d="M99.596 76.24v235.587h153.899l-1.044-23.275 23.872 13.876h21.186V76.241H99.596z" fill="#fff"/></mask><g mask="url(#bf)"><path d="M260.804 188.29s-22.753 15.816-25.364 14.846c-.596-.224-6.788-2.313-6.788-2.313l-1.791-.671-7.907-3.059h-.075l-6.639-2.536-3.133-1.194-.821-17.605s-7.535-15.144-13.13-29.094c-3.953-9.922-7.012-19.322-5.595-22.157 3.283-6.714 7.087-10.145 7.386-10.145.97 1.641 2.387 2.984 4.103 3.73l20.813 2.238s19.844 8.28 22.306 13.652c2.461 5.371 6.117 39.015 6.117 39.015l10.518 15.293z" fill="#263238"/></g><mask id="bg" style="mask-type:luminance" maskUnits="userSpaceOnUse" x="99" y="76" width="199" height="236"><path d="M99.596 76.24v235.587h153.899l-1.044-23.275 23.872 13.876h21.186V76.241H99.596z" fill="#fff"/></mask><g mask="url(#bg)"><path d="M209.855 165.687l9.848-20.515-4.7-4.103 8.653-11.414s2.835-8.952-3.58-13.204l-20.59-.448s-4.103 3.655-5.297 14.547l1.269 5.744-.373 8.505 14.77 20.888z" fill="#263238"/></g><mask id="bh" style="mask-type:luminance" maskUnits="userSpaceOnUse" x="99" y="76" width="199" height="236"><path d="M99.596 76.24v235.587h153.899l-1.044-23.275 23.872 13.876h21.186V76.241H99.596z" fill="#fff"/></mask><g mask="url(#bh)"><path d="M197.467 128.461s2.685 19.098 10.593 32.451c0 0 1.94-20.664 5.968-32.451h-16.561z" fill="#fff"/></g><mask id="bi" style="mask-type:luminance" maskUnits="userSpaceOnUse" x="99" y="76" width="199" height="236"><path d="M99.596 76.24v235.587h153.899l-1.044-23.275 23.872 13.876h21.186V76.241H99.596z" fill="#fff"/></mask><g mask="url(#bi)"><path d="M223.131 104.44v-.149c-.373-1.642-1.716-3.059-3.357-3.283-.97-.149-2.014.075-2.835.522-.522.299-.97.672-1.417 1.045-1.791-2.387-2.91-4.85-2.835-7.908-5.371 1.194-11.115-.074-15.591-3.208a11.836 11.836 0 01-1.791-1.492c-1.044-.97-2.014-2.014-2.387-3.431-.373-1.343-.075-2.984 1.044-3.805.746-.597 1.791-.746 2.761-.82 3.282-.373 6.564-.821 9.847-1.194 2.76-.298 5.52-.671 8.28-.448 2.761.224 5.521 1.045 7.684 2.76 3.059 2.462 4.551 6.49 4.476 10.445-.149 3.953-1.716 7.683-3.879 10.966z" fill="#263238"/></g><mask id="bj" style="mask-type:luminance" maskUnits="userSpaceOnUse" x="99" y="76" width="199" height="236"><path d="M99.596 76.24v235.587h153.899l-1.044-23.275 23.872 13.876h21.186V76.241H99.596z" fill="#fff"/></mask><g mask="url(#bj)"><path d="M222.162 106.677c-.895 1.418-2.238 2.462-3.805 3.134l.522 5.818.299 2.761-17.233 9.996V118.24c3.88.672 7.684-.895 9.997-3.879a10.216 10.216 0 001.939-4.401l1.119-5.968v-2.984c.373-.448.746-.895 1.268-1.194.746-.596 1.791-.895 2.761-.82 1.641.074 3.133 1.342 3.73 2.909 0 .075.074.149.074.149.523 1.567.149 3.283-.671 4.625z" fill="#FFA96E"/></g><mask id="bk" style="mask-type:luminance" maskUnits="userSpaceOnUse" x="99" y="76" width="199" height="236"><path d="M99.596 76.24v235.587h153.899l-1.044-23.275 23.872 13.876h21.186V76.241H99.596z" fill="#fff"/></mask><g mask="url(#bk)"><path d="M221.94 120.255c-3.059 6.863-10.071 11.19-13.652 12.98-1.343.672-2.238 1.045-2.238 1.045a6.192 6.192 0 00-.522-2.014c-1.119-2.388-3.507-3.88-3.507-3.88l17.233-9.996-.298-2.76c2.909 1.716 2.984 4.625 2.984 4.625z" fill="#fff"/></g><mask id="bl" style="mask-type:luminance" maskUnits="userSpaceOnUse" x="99" y="76" width="199" height="236"><path d="M99.596 76.24v235.587h153.899l-1.044-23.275 23.872 13.876h21.186V76.241H99.596z" fill="#fff"/></mask><g mask="url(#bl)"><path d="M201.945 118.315v10.146s-2.163.298-3.432 2.387c-.298.447-.522 1.044-.671 1.716 0 0-.821-2.238-.895-5.073-.075-3.133.597-7.013 4.103-9.474.298.074.597.223.895.298z" fill="#fff"/></g><mask id="bm" style="mask-type:luminance" maskUnits="userSpaceOnUse" x="99" y="76" width="199" height="236"><path d="M99.596 76.24v235.587h153.899l-1.044-23.275 23.872 13.876h21.186V76.241H99.596z" fill="#fff"/></mask><g opacity=".7" mask="url(#bm)"><mask id="bn" style="mask-type:luminance" maskUnits="userSpaceOnUse" x="201" y="112" width="13" height="12"><path d="M213.141 112.422h-11.19v11.041h11.19v-11.041z" fill="#fff"/></mask><g mask="url(#bn)"><path d="M213.141 112.422c-2.163 9.997-11.115 11.041-11.115 11.041l-.075-5.147s1.94.298 2.91.074c4.177-.746 6.639-2.611 8.28-5.968z" fill="#263238"/></g></g><mask id="bo" style="mask-type:luminance" maskUnits="userSpaceOnUse" x="99" y="76" width="199" height="236"><path d="M99.596 76.24v235.587h153.899l-1.044-23.275 23.872 13.876h21.186V76.241H99.596z" fill="#fff"/></mask><g mask="url(#bo)"><path d="M215.151 100.784l.224 2.984-.746 6.043a11.135 11.135 0 01-1.641 4.476c-2.089 3.133-5.745 4.998-9.698 4.551h-.075c-.97-.15-1.865-.373-2.686-.746-.298-.15-.596-.299-.82-.448-1.641-.97-2.91-2.462-3.656-4.178-.746-1.79-1.044-3.804-.82-5.968l1.939-16.038c4.476 3.133 10.221 4.4 15.592 3.207-.149 2.835 1.268 4.998 2.387 6.117z" fill="#FFA96E"/></g><mask id="bp" style="mask-type:luminance" maskUnits="userSpaceOnUse" x="99" y="76" width="199" height="236"><path d="M99.596 76.24v235.587h153.899l-1.044-23.275 23.872 13.876h21.186V76.241H99.596z" fill="#fff"/></mask><g mask="url(#bp)"><path d="M209.33 150.692l-1.119 10.743c-2.685-4.103-6.788-16.039-6.788-16.039l-1.269-9.4 4.103 2.163 5.073 12.533z" fill="#457EEF"/></g><mask id="bq" style="mask-type:luminance" maskUnits="userSpaceOnUse" x="99" y="76" width="199" height="236"><path d="M99.596 76.24v235.587h153.899l-1.044-23.275 23.872 13.876h21.186V76.241H99.596z" fill="#fff"/></mask><g mask="url(#bq)"><path d="M205.524 132.34l-1.268 5.819-4.103-2.163-1.567-5.148c1.268-2.089 3.432-2.387 3.432-2.387s2.387 1.417 3.506 3.879z" fill="#457EEF"/></g><mask id="br" style="mask-type:luminance" maskUnits="userSpaceOnUse" x="99" y="76" width="199" height="236"><path d="M99.596 76.24v235.587h153.899l-1.044-23.275 23.872 13.876h21.186V76.241H99.596z" fill="#fff"/></mask><g opacity=".2" mask="url(#br)"><mask id="bs" style="mask-type:luminance" maskUnits="userSpaceOnUse" x="231" y="144" width="20" height="29"><path d="M250.363 144.648h-19.097v28.199h19.097v-28.199z" fill="#fff"/></mask><g mask="url(#bs)"><path d="M248.946 161.06l-17.68-16.412 19.097 28.199-1.417-11.787z" fill="#263238"/></g></g></g></svg>