<svg width="202" height="173" fill="none" xmlns="http://www.w3.org/2000/svg"><path d="M96.687 109.202c.174 1.131-.608 2.131-1.695 2.305l-76.487 11.827c-1.131.174-2.131-.609-2.305-1.696L.024 16.713c-.174-1.13.609-2.13 1.696-2.304L78.207 2.625c1.13-.174 2.13.609 2.305 1.696l16.175 104.881z" fill="#407BFF"/><path d="M92.037 101.157c.174 1.131-.609 2.131-1.696 2.305l-69.79 10.784c-1.131.174-2.131-.609-2.305-1.696L3.809 18.844c-.174-1.13.61-2.131 1.696-2.305l69.747-10.74a2.021 2.021 0 012.305 1.695l14.48 93.663z" fill="#D8E5FE"/><path d="M50.812 3.582l-6.088.956C44.29 1.625 41.55-.375 38.637.06c-2.914.435-4.914 3.175-4.48 6.088l-6.087.957a4.076 4.076 0 00-3.392 4.652l.044.348a4.076 4.076 0 004.653 3.392l22.741-3.522a4.076 4.076 0 003.392-4.653l-.043-.348a4.053 4.053 0 00-4.653-3.391zM39.81 7.669c-1.348.217-2.566-.696-2.783-2.044-.218-1.348.695-2.565 2.043-2.783 1.348-.217 2.566.696 2.783 2.044.218 1.304-.695 2.566-2.043 2.783z" fill="#407BFF"/><g opacity=".5"><path d="M38.155 26.323c.174 1-.522 1.957-1.522 2.087l-19.959 3.088a1.797 1.797 0 01-2.087-1.522c-.174-1 .522-1.957 1.522-2.087L36.068 24.8c1-.173 1.957.479 2.087 1.522z" fill="url(#paint0_linear_529_3695)"/><path d="M29.896 39.194c.174 1-.521 1.957-1.522 2.087L16.59 43.108a1.797 1.797 0 01-2.087-1.522c-.174-1 .522-1.957 1.522-2.087l11.784-1.827c.957-.174 1.913.522 2.087 1.522z" fill="url(#paint1_linear_529_3695)"/><path d="M54.381 35.411c.174 1-.522 1.957-1.522 2.088l-19.741 3.044c-1 .174-1.957-.522-2.087-1.522-.174-1 .521-1.957 1.522-2.088l19.74-3.043c1.001-.13 1.914.521 2.088 1.521z" fill="url(#paint2_linear_529_3695)"/><path d="M53.508 49.544c.174 1-.521 1.957-1.522 2.087l-33.308 5.174a1.796 1.796 0 01-2.087-1.522 1.797 1.797 0 011.522-2.087l33.308-5.13c1-.218 1.913.478 2.087 1.478z" fill="url(#paint3_linear_529_3695)"/><path d="M41.335 59.153c.174 1-.522 1.957-1.522 2.087l-19.959 3.088c-1 .173-1.957-.522-2.087-1.522-.174-1 .522-1.957 1.522-2.087l19.959-3.088c1-.174 1.913.522 2.087 1.522z" fill="url(#paint4_linear_529_3695)"/><path d="M59.465 56.37c.174 1-.521 1.957-1.521 2.087L46.42 60.24a1.797 1.797 0 01-2.087-1.522c-.174-1 .522-1.957 1.522-2.087l11.523-1.783c1-.174 1.914.522 2.087 1.522z" fill="url(#paint5_linear_529_3695)"/><path d="M47.857 69.589c.174 1-.522 1.956-1.522 2.087l-24.786 3.826a1.796 1.796 0 01-2.087-1.522 1.797 1.797 0 011.522-2.087l24.742-3.826c1.044-.174 1.957.522 2.13 1.522z" fill="url(#paint6_linear_529_3695)"/><path d="M61.204 67.502c.174 1-.522 1.957-1.522 2.087l-8.218 1.26c-1 .175-1.957-.52-2.088-1.521-.174-1 .522-1.957 1.522-2.087l8.218-1.261c.957-.174 1.914.522 2.088 1.522z" fill="url(#paint7_linear_529_3695)"/><path d="M54.77 76.242c.174 1-.521 1.957-1.522 2.087l-30.525 4.696a1.797 1.797 0 01-2.087-1.522 1.797 1.797 0 011.522-2.087l30.525-4.696c1-.174 1.913.522 2.087 1.522z" fill="url(#paint8_linear_529_3695)"/><path d="M42.725 89.505c.174 1-.522 1.956-1.522 2.087L24.42 94.2c-1 .174-1.957-.522-2.088-1.522-.174-1 .522-1.957 1.522-2.087l16.741-2.566c1.044-.217 2 .479 2.131 1.479z" fill="url(#paint9_linear_529_3695)"/><path d="M64.944 86.07c.174 1-.522 1.956-1.522 2.086l-17.48 2.696c-1 .174-1.957-.522-2.087-1.522a1.797 1.797 0 011.522-2.087l17.48-2.696c1-.174 1.957.522 2.087 1.522z" fill="url(#paint10_linear_529_3695)"/><path d="M38.987 97.81c.174 1-.522 1.956-1.522 2.087l-11.828 1.826a1.797 1.797 0 01-2.087-1.522c-.174-1 .522-1.957 1.522-2.087L36.9 96.287c1-.174 1.913.522 2.087 1.522z" fill="url(#paint11_linear_529_3695)"/></g><path d="M68.117 26.758c.653-.087 1.305.348 1.392 1l1.043 6.783c.087.652-.347 1.305-1 1.392l-6.783 1.043c-.652.087-1.304-.348-1.392-1l-1.043-6.783c-.087-.652.348-1.305 1-1.392l6.783-1.043zm-.13-.826l-6.783 1.043a2.013 2.013 0 00-1.696 2.305l1.043 6.783a2.013 2.013 0 002.305 1.696l6.783-1.044a2.013 2.013 0 001.696-2.304l-1.043-6.784c-.13-1.087-1.174-1.87-2.305-1.695z" fill="url(#paint12_linear_529_3695)"/><path d="M71.073 45.803c.652-.087 1.304.348 1.391 1l1.044 6.784c.087.652-.348 1.304-1 1.391l-6.784 1.044c-.652.087-1.304-.348-1.391-1l-1.044-6.784c-.087-.652.348-1.304 1-1.391l6.784-1.044zm-.131-.783l-6.783 1.044a2.013 2.013 0 00-1.696 2.305l1.043 6.783a2.013 2.013 0 002.305 1.696l6.783-1.044A2.013 2.013 0 0074.29 53.5l-1.043-6.784c-.13-1.13-1.174-1.87-2.305-1.696z" fill="url(#paint13_linear_529_3695)"/><path d="M74.031 64.892c.653-.087 1.305.348 1.392 1l1.043 6.784c.088.652-.347 1.304-1 1.391l-6.783 1.044c-.652.087-1.305-.348-1.391-1l-1.044-6.784c-.087-.652.348-1.304 1-1.391l6.783-1.044zm-.13-.826l-6.783 1.044a2.013 2.013 0 00-1.696 2.304l1.043 6.784a2.013 2.013 0 002.305 1.696l6.783-1.044a2.013 2.013 0 001.696-2.304l-1.043-6.784c-.174-1.087-1.218-1.87-2.305-1.696z" fill="url(#paint14_linear_529_3695)"/><path d="M76.945 83.981c.653-.087 1.305.348 1.392 1l1.044 6.784c.087.652-.348 1.304-1 1.391L71.596 94.2c-.652.087-1.304-.348-1.391-1l-1.044-6.784c-.087-.652.348-1.304 1-1.391l6.783-1.044zm-.13-.826L70.032 84.2a2.013 2.013 0 00-1.696 2.304l1.043 6.784a2.013 2.013 0 002.305 1.695l6.784-1.043a2.013 2.013 0 001.695-2.305l-1.043-6.783c-.13-1.087-1.174-1.87-2.305-1.696z" fill="url(#paint15_linear_529_3695)"/><path d="M66.032 34.02c-.305.043-.566 0-.827-.174l-6.957-4.653c-.522-.348-.696-1.087-.304-1.609.348-.522 1.087-.696 1.609-.304l5.957 4 7.044-11.61c.348-.565 1.044-.74 1.609-.391.565.348.74 1.043.391 1.609L66.858 33.54c-.174.261-.435.479-.74.522 0-.044-.043-.044-.086-.044zm3.043 19.61c-.305.044-.566 0-.827-.173l-6.957-4.653c-.522-.348-.696-1.087-.304-1.609.348-.522 1.087-.695 1.609-.304l5.957 4 7.044-11.61c.348-.565 1.044-.739 1.609-.391s.74 1.044.391 1.609l-7.696 12.654c-.174.26-.435.478-.74.521-.043-.043-.043-.043-.086-.043zm3.045 19.611c-.305.044-.566 0-.827-.174l-6.957-4.652c-.522-.348-.696-1.088-.304-1.61.347-.521 1.087-.695 1.609-.304l5.957 4 7.044-11.61c.348-.564 1.044-.738 1.609-.39.565.347.74 1.043.391 1.608l-7.696 12.654c-.174.26-.435.478-.74.522-.043-.044-.087-.044-.087-.044zm2.996 19.612c-.305.043-.566 0-.827-.174l-6.957-4.653c-.522-.348-.696-1.087-.304-1.609.348-.522 1.087-.696 1.609-.304l5.957 4 7.044-11.61c.348-.565 1.044-.74 1.609-.391.565.348.74 1.043.391 1.609l-7.696 12.653c-.174.261-.435.479-.74.522-.043-.043-.043-.043-.086-.043z" fill="#6986D9"/><path d="M101.73 128.204c.044 1.261-.957 2.261-2.174 2.305L39.2 131.9c-1.217.043-2.261-.957-2.304-2.174l-1.87-81.966c-.044-1.261.956-2.261 2.174-2.305l60.355-1.391c1.26-.044 2.26.956 2.304 2.174l1.87 81.966z" fill="#fff"/><path d="M47.246 55.021a4.084 4.084 0 014.174 4 4.084 4.084 0 01-4 4.175 4.084 4.084 0 01-4.175-4c-.043-2.262 1.783-4.131 4-4.175zm0-.913c-2.74.043-4.957 2.348-4.87 5.088.043 2.739 2.348 4.957 5.087 4.87 2.74-.044 4.957-2.349 4.87-5.088-.043-2.74-2.348-4.957-5.087-4.87zm.477 20.437a4.084 4.084 0 014.174 4 4.084 4.084 0 01-4 4.174 4.084 4.084 0 01-4.175-4 4.084 4.084 0 014-4.174zm-.044-.913c-2.74.043-4.957 2.348-4.87 5.087.044 2.74 2.348 4.957 5.088 4.87 2.74-.043 4.957-2.348 4.87-5.087-.044-2.74-2.305-4.914-5.088-4.87zm.436 18.611a4.084 4.084 0 014.174 4 4.084 4.084 0 01-4 4.175 4.084 4.084 0 01-4.175-4 4.084 4.084 0 014-4.175zm0-.913c-2.74.043-4.957 2.348-4.87 5.087.043 2.74 2.348 4.957 5.087 4.87 2.74-.043 4.957-2.348 4.87-5.087-.043-2.74-2.348-4.957-5.087-4.87zm.392 18.567a4.083 4.083 0 014.175 4 4.083 4.083 0 01-4 4.174 4.083 4.083 0 01-4.175-4c-.044-2.218 1.74-4.087 4-4.174zm0-.87c-2.74.043-4.957 2.348-4.87 5.087.044 2.74 2.348 4.958 5.088 4.871 2.74-.044 4.957-2.349 4.87-5.088a4.937 4.937 0 00-5.088-4.87z" fill="#fff"/><path d="M58.117 55.934l34.482-.782c.13 0 .217-.087.217-.218 0-.13-.087-.217-.217-.217l-34.482.782c-.13 0-.218.087-.218.218-.043.13.087.217.218.217z" fill="url(#paint16_linear_529_3695)"/><path d="M58.157 59.066l32.22-.74c.131 0 .218-.087.218-.217s-.087-.217-.217-.217l-32.221.739c-.13 0-.217.087-.217.217s.086.218.217.218z" fill="url(#paint17_linear_529_3695)"/><path d="M58.249 62.196l15.393-.348c.13 0 .217-.087.217-.218 0-.13-.087-.217-.217-.217l-15.393.348c-.13 0-.218.087-.218.217s.087.218.218.218z" fill="url(#paint18_linear_529_3695)"/><path d="M75.466 61.37c-.131 0-.218.087-.218.217s.087.218.218.218l9.348-.218c.13 0 .218-.087.218-.217s-.087-.218-.218-.218l-9.348.218z" fill="url(#paint19_linear_529_3695)"/><path d="M58.55 75.459l26.611-.61c.13 0 .218-.086.218-.217 0-.13-.087-.217-.218-.217l-26.612.609c-.13 0-.217.087-.217.217s.087.218.217.218z" fill="url(#paint20_linear_529_3695)"/><path d="M58.592 78.589l21.916-.478c.13 0 .217-.087.217-.218 0-.13-.087-.217-.217-.217l-21.916.478c-.13 0-.217.087-.217.218 0 .13.13.217.217.217z" fill="url(#paint21_linear_529_3695)"/><path d="M58.682 81.763l15.393-.348c.13 0 .218-.087.218-.217s-.087-.217-.218-.217l-15.393.347c-.13 0-.217.087-.217.218 0 .087.087.217.217.217z" fill="url(#paint22_linear_529_3695)"/><path d="M91.468 80.763c0-.13-.088-.217-.218-.217l-15.306.348c-.13 0-.217.087-.217.217s.087.218.217.218l15.306-.348c.13 0 .218-.087.218-.218z" fill="url(#paint23_linear_529_3695)"/><path d="M82.117 77.85c0 .13.087.217.218.217l12.523-.304c.13 0 .217-.087.217-.218 0-.13-.087-.217-.217-.217l-12.523.304c-.13 0-.218.087-.218.218z" fill="url(#paint24_linear_529_3695)"/><path d="M58.944 93.156l23.003-.522c.13 0 .217-.087.217-.217s-.087-.218-.217-.218l-23.003.522c-.13 0-.217.087-.217.217s.087.218.217.218z" fill="url(#paint25_linear_529_3695)"/><path d="M59.029 96.286l32.22-.739c.131 0 .218-.087.218-.217s-.087-.218-.217-.218l-32.221.74c-.13 0-.218.087-.218.217-.043.13.087.217.218.217z" fill="url(#paint26_linear_529_3695)"/><path d="M59.073 99.418l15.393-.348c.13 0 .217-.087.217-.218 0-.13-.087-.217-.217-.217l-15.393.348c-.13 0-.218.087-.218.217s.087.218.218.218z" fill="url(#paint27_linear_529_3695)"/><path d="M84.075 92.59l9.392-.217c.13 0 .218-.087.218-.217s-.087-.218-.218-.218l-9.392.218c-.13 0-.218.087-.218.217s.087.218.218.218z" fill="url(#paint28_linear_529_3695)"/><path d="M59.333 110.854l14.784-.348c.13 0 .217-.087.217-.217 0-.131-.087-.218-.217-.218l-14.784.348c-.13 0-.218.087-.218.218 0 .13.087.217.218.217z" fill="url(#paint29_linear_529_3695)"/><path d="M59.42 113.985l22.612-.522c.13 0 .217-.087.217-.217 0-.131-.087-.218-.217-.218l-22.611.522c-.13 0-.218.087-.218.218 0 .13.087.217.217.217z" fill="url(#paint30_linear_529_3695)"/><path d="M72.77 116.376l-13.306.304c-.13 0-.218.087-.218.218 0 .13.087.217.218.217l13.305-.304c.13 0 .218-.087.218-.218 0-.13-.087-.217-.218-.217z" fill="url(#paint31_linear_529_3695)"/><path d="M92.031 115.941l-15.306.348c-.13 0-.217.087-.217.218 0 .13.087.217.217.217l15.306-.348c.13 0 .218-.087.218-.217 0-.131-.087-.218-.218-.218z" fill="url(#paint32_linear_529_3695)"/><path d="M95.554 109.549l-19.003.435c-.13 0-.217.087-.217.217 0 .131.087.217.217.217l19.003-.434c.13 0 .217-.087.217-.218.043-.087-.087-.217-.217-.217z" fill="url(#paint33_linear_529_3695)"/><path d="M95.644 112.724l-12.48.304c-.13 0-.217.087-.217.217 0 .131.087.218.218.218l12.48-.305c.13 0 .217-.087.217-.217s-.087-.217-.218-.217z" fill="url(#paint34_linear_529_3695)"/><path d="M47.851 81.286a1.07 1.07 0 01-.695-.26l-5.349-4.697c-.391-.348-.435-1-.087-1.391.348-.392 1-.435 1.392-.087l4.566 4.044 7.218-9.001c.347-.435.956-.479 1.391-.174.435.348.478.956.174 1.391l-7.87 9.827a.908.908 0 01-.696.348h-.044z" fill="url(#paint35_linear_529_3695)"/><path d="M47.375 60.675c-.261 0-.478-.087-.696-.261l-5.348-4.696c-.392-.348-.435-1-.087-1.392.348-.391 1-.434 1.391-.087l4.566 4.044 7.218-9c.348-.436.957-.479 1.392-.175.434.348.478.957.173 1.392l-7.87 9.827a.907.907 0 01-.696.348h-.043z" fill="url(#paint36_linear_529_3695)"/><path d="M48.242 98.766a1.07 1.07 0 01-.696-.261l-5.348-4.696c-.392-.348-.435-1-.087-1.392.348-.391 1-.435 1.391-.087l4.566 4.044 7.218-9c.348-.436.957-.48 1.392-.175.435.348.478.957.174 1.392l-7.87 9.827a.908.908 0 01-.697.348h-.043z" fill="url(#paint37_linear_529_3695)"/><path d="M48.635 115.812c-.261 0-.479-.087-.696-.261l-5.349-4.696c-.39-.348-.434-1.001-.087-1.392.348-.391 1-.435 1.392-.087l4.566 4.044 7.218-9.001c.348-.435.956-.478 1.391-.174.435.348.479.957.174 1.392l-7.87 9.827a.91.91 0 01-.696.348h-.043z" fill="url(#paint38_linear_529_3695)"/><path d="M132.774 164.687c-.783.913-2.131 1.044-3.044.305L79.029 122.9c-.913-.783-1.044-2.131-.305-3.044l59.485-71.66c.783-.913 2.131-1.044 3.044-.305l50.702 42.092c.913.783 1.043 2.13.304 3.044l-59.485 71.66z" fill="#fff"/><path d="M141.686 153.512a2.197 2.197 0 01-2.956.826l-57.224-32.656a2.198 2.198 0 01-.827-2.957l46.136-80.879a2.198 2.198 0 012.957-.826l57.224 32.656a2.197 2.197 0 01.826 2.957l-46.136 80.879z" fill="#D8E5FE"/><path d="M126.858 48.24l49.832 28.438a.229.229 0 00.304-.087.228.228 0 00-.087-.305l-49.832-28.438a.229.229 0 00-.304.087c-.044.13 0 .261.087.305z" fill="url(#paint39_linear_529_3695)"/><path d="M124.639 52.153l31.569 18.002a.229.229 0 00.304-.087.228.228 0 00-.087-.305l-31.568-18.002a.23.23 0 00-.305.087c-.043.087 0 .218.087.305z" fill="url(#paint40_linear_529_3695)"/><path d="M157.992 70.677a.229.229 0 00-.304.087.23.23 0 00.087.305l15.524 8.87a.229.229 0 00.304-.087.23.23 0 00-.087-.304l-15.524-8.87z" fill="url(#paint41_linear_529_3695)"/><path d="M122.425 56.067L166.474 81.2a.229.229 0 00.304-.087.228.228 0 00-.087-.304l-44.048-25.134a.23.23 0 00-.305.087c-.087.087-.043.218.087.305z" fill="url(#paint42_linear_529_3695)"/><path d="M120.163 59.98l36.482 20.828a.229.229 0 00.304-.087.228.228 0 00-.087-.304L120.38 59.589a.229.229 0 00-.304.087c-.044.086 0 .217.087.304z" fill="url(#paint43_linear_529_3695)"/><path d="M117.944 63.894l45.179 25.786a.229.229 0 00.304-.088.228.228 0 00-.087-.304l-45.179-25.785a.229.229 0 00-.304.087c-.044.086 0 .217.087.304z" fill="url(#paint44_linear_529_3695)"/><path d="M115.728 67.807l37.787 21.568a.229.229 0 00.304-.087.228.228 0 00-.087-.305l-37.787-21.567a.229.229 0 00-.304.087c-.087.087-.044.217.087.304z" fill="url(#paint45_linear_529_3695)"/><path d="M113.465 71.72l41.788 23.829a.229.229 0 00.304-.087.228.228 0 00-.087-.304l-41.787-23.83a.23.23 0 00-.305.088c-.043.087 0 .217.087.304z" fill="url(#paint46_linear_529_3695)"/><path d="M111.251 75.634l33.96 19.394a.229.229 0 00.304-.087.228.228 0 00-.087-.305l-33.96-19.393a.229.229 0 00-.304.087c-.044.087 0 .217.087.304z" fill="url(#paint47_linear_529_3695)"/><path d="M147.817 95.984a.23.23 0 00-.305.087.23.23 0 00.087.304l8.001 4.566a.229.229 0 00.305-.087.23.23 0 00-.087-.304l-8.001-4.566z" fill="url(#paint48_linear_529_3695)"/><path d="M109.031 79.504l47.657 27.177a.229.229 0 00.305-.087.23.23 0 00-.087-.304l-47.658-27.177a.229.229 0 00-.304.087c-.087.13-.044.26.087.304z" fill="url(#paint49_linear_529_3695)"/><path d="M156.861 111.508L107.03 83.07a.23.23 0 00-.305.087.23.23 0 00.087.304l49.832 28.438a.228.228 0 00.304-.087c.044-.13 0-.261-.087-.304z" fill="url(#paint50_linear_529_3695)"/><path d="M104.553 87.33l31.569 18.003a.23.23 0 00.304-.087.228.228 0 00-.087-.304l-31.568-17.959a.23.23 0 00-.305.087c-.043.087 0 .217.087.26z" fill="url(#paint51_linear_529_3695)"/><path d="M153.426 114.726l-15.523-8.871a.23.23 0 00-.305.087.23.23 0 00.087.304l15.524 8.871a.228.228 0 00.304-.087.228.228 0 00-.087-.304z" fill="url(#paint52_linear_529_3695)"/><path d="M102.332 91.245l44.005 25.133a.23.23 0 00.304-.087.229.229 0 00-.087-.305l-44.048-25.133a.23.23 0 00-.305.087c0 .13 0 .261.131.305z" fill="url(#paint53_linear_529_3695)"/><path d="M100.075 95.158l36.482 20.828a.229.229 0 00.305-.087.23.23 0 00-.087-.304l-36.483-20.829a.23.23 0 00-.304.087c-.044.13 0 .261.087.305z" fill="url(#paint54_linear_529_3695)"/><path d="M97.854 99.072l45.179 25.785a.228.228 0 00.304-.087.228.228 0 00-.086-.304L98.071 98.68a.23.23 0 00-.304.087c-.043.13 0 .261.087.305z" fill="url(#paint55_linear_529_3695)"/><path d="M95.638 102.985l37.787 21.567a.229.229 0 00.305-.087.23.23 0 00-.087-.304l-37.787-21.568a.23.23 0 00-.305.087c-.043.131-.043.261.087.305z" fill="url(#paint56_linear_529_3695)"/><path d="M93.376 106.899l41.787 23.829a.23.23 0 00.304-.087.229.229 0 00-.087-.305l-41.787-23.829a.23.23 0 00-.305.087c-.043.131 0 .261.088.305z" fill="url(#paint57_linear_529_3695)"/><path d="M91.163 110.812l33.96 19.393a.228.228 0 00.304-.087.228.228 0 00-.087-.304l-33.96-19.393a.228.228 0 00-.304.087c-.044.13 0 .26.087.304z" fill="url(#paint58_linear_529_3695)"/><path d="M127.729 131.162a.229.229 0 00-.305.087.23.23 0 00.087.304l8.001 4.566a.23.23 0 00.305-.087.23.23 0 00-.087-.305l-8.001-4.565z" fill="url(#paint59_linear_529_3695)"/><path d="M136.773 141.555l-47.657-27.177a.228.228 0 00-.305.087.229.229 0 00.087.304l47.658 27.177a.23.23 0 00.304-.087c.087-.13.044-.261-.087-.304z" fill="url(#paint60_linear_529_3695)"/><path d="M142.602 85.243c-.479 1.261-1.914 1.913-3.175 1.435l-28.003-10.653c-1.261-.479-1.913-1.913-1.435-3.175l11.48-30.177c.478-1.26 1.913-1.913 3.174-1.435l28.003 10.654c1.261.478 1.913 1.913 1.435 3.174l-11.479 30.177z" fill="#8FB3FF"/><path d="M142.165 40.368c-1.652-.913-3.913-.956-5.305.696l1.392.783c.869-.783 2.174-.696 3.174-.13 1.218.695 1.609 2.217.957 3.434l-4.783 8.436c-.609 1.087-1.827 1.87-3.131 1.13-1.218-.695-1.609-2.217-.957-3.434l2.131-3.74c.217-.391.087-.826-.305-1.044-.391-.217-.826-.087-1.043.305l-2.131 3.74c-1.13 1.956-.435 4.435 1.522 5.565 1.87 1.044 4.087.348 5.261-1.696l4.784-8.435c1.043-2 .391-4.48-1.566-5.61z" fill="#407BFF"/><path d="M121.993 113.029H57.551v-7.74a2.339 2.339 0 00-2.348-2.349H21.59a2.339 2.339 0 00-2.348 2.349v64.833a2.338 2.338 0 002.348 2.348h100.447a2.338 2.338 0 002.348-2.348v-54.745c0-1.305-1.087-2.348-2.392-2.348z" fill="#3652CD"/><path d="M137.648 110.507c-.914-1.305 6.522-10.306 8.696-11.828l49.528-33.96c2.174-1.522 7.653 6.435 5.435 7.957l-49.527 33.961c-2.175 1.522-13.219 5.218-14.132 3.87z" fill="#fff"/><path d="M146.211 98.81c.174 1.348.913 2.913 2 4.479 1.044 1.565 2.261 2.826 3.435 3.478a.337.337 0 01.174-.087l44.397-30.481c.087-1.522-.435-3.262-1.479-4.827-1.087-1.565-2.522-2.653-3.957-3.13l-44.396 30.48c-.087 0-.131.044-.174.088zm50.965-29.134c1.043 1.522 1.565 3.174 1.652 4.74l2.479-1.696c2.174-1.522-3.262-9.436-5.436-7.958l-2.478 1.696c1.391.609 2.739 1.696 3.783 3.218z" fill="#407BFF"/><path d="M138.605 107.854c-.783 1.305-1.218 2.305-.957 2.696.261.392 1.348.348 2.827.087 0-.565-.131-1.174-.479-1.695a2.43 2.43 0 00-1.391-1.088z" fill="#8199FD"/><path d="M194.738 71.372c-1.087-1.565-2.522-2.653-3.957-3.13l-44.396 30.48c-.044.044-.087.088-.174.131.174 1.348.913 2.914 2 4.479" fill="#3652CD"/><defs><linearGradient id="paint0_linear_529_3695" x1="-2.086" y1="32.512" x2="68.7" y2="21.596" gradientUnits="userSpaceOnUse"><stop stop-color="#6986D9"/><stop offset="1" stop-color="#8FB3FF"/></linearGradient><linearGradient id="paint1_linear_529_3695" x1="-.332" y1="43.868" x2="70.462" y2="32.952" gradientUnits="userSpaceOnUse"><stop stop-color="#6986D9"/><stop offset="1" stop-color="#8FB3FF"/></linearGradient><linearGradient id="paint2_linear_529_3695" x1="-.328" y1="43.868" x2="70.465" y2="32.952" gradientUnits="userSpaceOnUse"><stop stop-color="#6986D9"/><stop offset="1" stop-color="#8FB3FF"/></linearGradient><linearGradient id="paint3_linear_529_3695" x1="1.778" y1="57.54" x2="72.57" y2="46.624" gradientUnits="userSpaceOnUse"><stop stop-color="#6986D9"/><stop offset="1" stop-color="#8FB3FF"/></linearGradient><linearGradient id="paint4_linear_529_3695" x1="2.943" y1="65.083" x2="73.729" y2="54.168" gradientUnits="userSpaceOnUse"><stop stop-color="#6986D9"/><stop offset="1" stop-color="#8FB3FF"/></linearGradient><linearGradient id="paint5_linear_529_3695" x1="2.941" y1="65.082" x2="73.734" y2="54.165" gradientUnits="userSpaceOnUse"><stop stop-color="#6986D9"/><stop offset="1" stop-color="#8FB3FF"/></linearGradient><linearGradient id="paint6_linear_529_3695" x1="4.663" y1="76.238" x2="75.456" y2="65.322" gradientUnits="userSpaceOnUse"><stop stop-color="#6986D9"/><stop offset="1" stop-color="#8FB3FF"/></linearGradient><linearGradient id="paint7_linear_529_3695" x1="4.66" y1="76.238" x2="75.453" y2="65.321" gradientUnits="userSpaceOnUse"><stop stop-color="#6986D9"/><stop offset="1" stop-color="#8FB3FF"/></linearGradient><linearGradient id="paint8_linear_529_3695" x1="5.826" y1="83.781" x2="76.619" y2="72.865" gradientUnits="userSpaceOnUse"><stop stop-color="#6986D9"/><stop offset="1" stop-color="#8FB3FF"/></linearGradient><linearGradient id="paint9_linear_529_3695" x1="7.546" y1="94.937" x2="78.34" y2="84.021" gradientUnits="userSpaceOnUse"><stop stop-color="#6986D9"/><stop offset="1" stop-color="#8FB3FF"/></linearGradient><linearGradient id="paint10_linear_529_3695" x1="7.545" y1="94.936" x2="78.339" y2="84.019" gradientUnits="userSpaceOnUse"><stop stop-color="#6986D9"/><stop offset="1" stop-color="#8FB3FF"/></linearGradient><linearGradient id="paint11_linear_529_3695" x1="8.711" y1="102.48" x2="79.505" y2="91.563" gradientUnits="userSpaceOnUse"><stop stop-color="#6986D9"/><stop offset="1" stop-color="#8FB3FF"/></linearGradient><linearGradient id="paint12_linear_529_3695" x1="73.253" y1="82.468" x2="64.485" y2="25.607" gradientUnits="userSpaceOnUse"><stop stop-color="#6986D9"/><stop offset="1" stop-color="#8FB3FF"/></linearGradient><linearGradient id="paint13_linear_529_3695" x1="73.252" y1="82.468" x2="64.484" y2="25.606" gradientUnits="userSpaceOnUse"><stop stop-color="#6986D9"/><stop offset="1" stop-color="#8FB3FF"/></linearGradient><linearGradient id="paint14_linear_529_3695" x1="73.254" y1="82.466" x2="64.487" y2="25.608" gradientUnits="userSpaceOnUse"><stop stop-color="#6986D9"/><stop offset="1" stop-color="#8FB3FF"/></linearGradient><linearGradient id="paint15_linear_529_3695" x1="73.256" y1="82.466" x2="64.488" y2="25.605" gradientUnits="userSpaceOnUse"><stop stop-color="#6986D9"/><stop offset="1" stop-color="#8FB3FF"/></linearGradient><linearGradient id="paint16_linear_529_3695" x1="104.725" y1="50.753" x2="22.767" y2="63.479" gradientUnits="userSpaceOnUse"><stop stop-color="#6986D9"/><stop offset="1" stop-color="#8FB3FF"/></linearGradient><linearGradient id="paint17_linear_529_3695" x1="105.178" y1="53.681" x2="23.218" y2="66.407" gradientUnits="userSpaceOnUse"><stop stop-color="#6986D9"/><stop offset="1" stop-color="#8FB3FF"/></linearGradient><linearGradient id="paint18_linear_529_3695" x1="105.49" y1="55.665" x2="23.531" y2="68.392" gradientUnits="userSpaceOnUse"><stop stop-color="#6986D9"/><stop offset="1" stop-color="#8FB3FF"/></linearGradient><linearGradient id="paint19_linear_529_3695" x1="105.774" y1="57.508" x2="23.814" y2="70.235" gradientUnits="userSpaceOnUse"><stop stop-color="#6986D9"/><stop offset="1" stop-color="#8FB3FF"/></linearGradient><linearGradient id="paint20_linear_529_3695" x1="107.617" y1="69.387" x2="25.66" y2="82.113" gradientUnits="userSpaceOnUse"><stop stop-color="#6986D9"/><stop offset="1" stop-color="#8FB3FF"/></linearGradient><linearGradient id="paint21_linear_529_3695" x1="108.047" y1="72.158" x2="26.088" y2="84.885" gradientUnits="userSpaceOnUse"><stop stop-color="#6986D9"/><stop offset="1" stop-color="#8FB3FF"/></linearGradient><linearGradient id="paint22_linear_529_3695" x1="108.465" y1="74.809" x2="26.502" y2="87.537" gradientUnits="userSpaceOnUse"><stop stop-color="#6986D9"/><stop offset="1" stop-color="#8FB3FF"/></linearGradient><linearGradient id="paint23_linear_529_3695" x1="108.806" y1="77.037" x2="26.849" y2="89.764" gradientUnits="userSpaceOnUse"><stop stop-color="#6986D9"/><stop offset="1" stop-color="#8FB3FF"/></linearGradient><linearGradient id="paint24_linear_529_3695" x1="108.429" y1="74.62" x2="26.475" y2="87.345" gradientUnits="userSpaceOnUse"><stop stop-color="#6986D9"/><stop offset="1" stop-color="#8FB3FF"/></linearGradient><linearGradient id="paint25_linear_529_3695" x1="110.276" y1="86.483" x2="28.317" y2="99.21" gradientUnits="userSpaceOnUse"><stop stop-color="#6986D9"/><stop offset="1" stop-color="#8FB3FF"/></linearGradient><linearGradient id="paint26_linear_529_3695" x1="110.845" y1="90.155" x2="28.885" y2="102.882" gradientUnits="userSpaceOnUse"><stop stop-color="#6986D9"/><stop offset="1" stop-color="#8FB3FF"/></linearGradient><linearGradient id="paint27_linear_529_3695" x1="111.154" y1="92.141" x2="29.194" y2="104.868" gradientUnits="userSpaceOnUse"><stop stop-color="#6986D9"/><stop offset="1" stop-color="#8FB3FF"/></linearGradient><linearGradient id="paint28_linear_529_3695" x1="110.642" y1="88.854" x2="28.681" y2="101.581" gradientUnits="userSpaceOnUse"><stop stop-color="#6986D9"/><stop offset="1" stop-color="#8FB3FF"/></linearGradient><linearGradient id="paint29_linear_529_3695" x1="112.882" y1="103.285" x2="30.924" y2="116.011" gradientUnits="userSpaceOnUse"><stop stop-color="#6986D9"/><stop offset="1" stop-color="#8FB3FF"/></linearGradient><linearGradient id="paint30_linear_529_3695" x1="113.44" y1="106.866" x2="31.481" y2="119.592" gradientUnits="userSpaceOnUse"><stop stop-color="#6986D9"/><stop offset="1" stop-color="#8FB3FF"/></linearGradient><linearGradient id="paint31_linear_529_3695" x1="113.825" y1="109.337" x2="31.863" y2="122.064" gradientUnits="userSpaceOnUse"><stop stop-color="#6986D9"/><stop offset="1" stop-color="#8FB3FF"/></linearGradient><linearGradient id="paint32_linear_529_3695" x1="114.189" y1="111.699" x2="32.229" y2="124.426" gradientUnits="userSpaceOnUse"><stop stop-color="#6986D9"/><stop offset="1" stop-color="#8FB3FF"/></linearGradient><linearGradient id="paint33_linear_529_3695" x1="113.271" y1="105.787" x2="31.311" y2="118.514" gradientUnits="userSpaceOnUse"><stop stop-color="#6986D9"/><stop offset="1" stop-color="#8FB3FF"/></linearGradient><linearGradient id="paint34_linear_529_3695" x1="113.818" y1="109.286" x2="31.86" y2="122.012" gradientUnits="userSpaceOnUse"><stop stop-color="#6986D9"/><stop offset="1" stop-color="#8FB3FF"/></linearGradient><linearGradient id="paint35_linear_529_3695" x1="41.464" y1="75.633" x2="56.798" y2="75.285" gradientUnits="userSpaceOnUse"><stop stop-color="#6986D9"/><stop offset="1" stop-color="#8FB3FF"/></linearGradient><linearGradient id="paint36_linear_529_3695" x1="40.997" y1="55.019" x2="56.331" y2="54.671" gradientUnits="userSpaceOnUse"><stop stop-color="#6986D9"/><stop offset="1" stop-color="#8FB3FF"/></linearGradient><linearGradient id="paint37_linear_529_3695" x1="41.86" y1="93.095" x2="57.194" y2="92.746" gradientUnits="userSpaceOnUse"><stop stop-color="#6986D9"/><stop offset="1" stop-color="#8FB3FF"/></linearGradient><linearGradient id="paint38_linear_529_3695" x1="42.249" y1="110.159" x2="57.583" y2="109.811" gradientUnits="userSpaceOnUse"><stop stop-color="#6986D9"/><stop offset="1" stop-color="#8FB3FF"/></linearGradient><linearGradient id="paint39_linear_529_3695" x1="153.062" y1="48.379" x2="145.136" y2="143.364" gradientUnits="userSpaceOnUse"><stop stop-color="#8FB3FF"/><stop offset="1" stop-color="#6986D9"/></linearGradient><linearGradient id="paint40_linear_529_3695" x1="141.653" y1="47.427" x2="133.728" y2="142.409" gradientUnits="userSpaceOnUse"><stop stop-color="#8FB3FF"/><stop offset="1" stop-color="#6986D9"/></linearGradient><linearGradient id="paint41_linear_529_3695" x1="167.799" y1="49.61" x2="159.874" y2="144.589" gradientUnits="userSpaceOnUse"><stop stop-color="#8FB3FF"/><stop offset="1" stop-color="#6986D9"/></linearGradient><linearGradient id="paint42_linear_529_3695" x1="146.256" y1="47.811" x2="138.33" y2="142.794" gradientUnits="userSpaceOnUse"><stop stop-color="#8FB3FF"/><stop offset="1" stop-color="#6986D9"/></linearGradient><linearGradient id="paint43_linear_529_3695" x1="140.432" y1="47.325" x2="132.507" y2="142.307" gradientUnits="userSpaceOnUse"><stop stop-color="#8FB3FF"/><stop offset="1" stop-color="#6986D9"/></linearGradient><linearGradient id="paint44_linear_529_3695" x1="143.055" y1="47.543" x2="135.129" y2="142.528" gradientUnits="userSpaceOnUse"><stop stop-color="#8FB3FF"/><stop offset="1" stop-color="#6986D9"/></linearGradient><linearGradient id="paint45_linear_529_3695" x1="137.324" y1="47.066" x2="129.399" y2="142.047" gradientUnits="userSpaceOnUse"><stop stop-color="#8FB3FF"/><stop offset="1" stop-color="#6986D9"/></linearGradient><linearGradient id="paint46_linear_529_3695" x1="137.513" y1="47.08" x2="129.588" y2="142.064" gradientUnits="userSpaceOnUse"><stop stop-color="#8FB3FF"/><stop offset="1" stop-color="#6986D9"/></linearGradient><linearGradient id="paint47_linear_529_3695" x1="131.557" y1="46.584" x2="123.632" y2="141.567" gradientUnits="userSpaceOnUse"><stop stop-color="#8FB3FF"/><stop offset="1" stop-color="#6986D9"/></linearGradient><linearGradient id="paint48_linear_529_3695" x1="155.861" y1="48.617" x2="147.936" y2="143.59" gradientUnits="userSpaceOnUse"><stop stop-color="#8FB3FF"/><stop offset="1" stop-color="#6986D9"/></linearGradient><linearGradient id="paint49_linear_529_3695" x1="136.776" y1="47.019" x2="128.851" y2="142.003" gradientUnits="userSpaceOnUse"><stop stop-color="#8FB3FF"/><stop offset="1" stop-color="#6986D9"/></linearGradient><linearGradient id="paint50_linear_529_3695" x1="136.032" y1="46.957" x2="128.107" y2="141.941" gradientUnits="userSpaceOnUse"><stop stop-color="#8FB3FF"/><stop offset="1" stop-color="#6986D9"/></linearGradient><linearGradient id="paint51_linear_529_3695" x1="124.626" y1="46.004" x2="116.701" y2="140.988" gradientUnits="userSpaceOnUse"><stop stop-color="#8FB3FF"/><stop offset="1" stop-color="#6986D9"/></linearGradient><linearGradient id="paint52_linear_529_3695" x1="150.769" y1="48.183" x2="142.844" y2="143.172" gradientUnits="userSpaceOnUse"><stop stop-color="#8FB3FF"/><stop offset="1" stop-color="#6986D9"/></linearGradient><linearGradient id="paint53_linear_529_3695" x1="129.222" y1="46.389" x2="121.297" y2="141.37" gradientUnits="userSpaceOnUse"><stop stop-color="#8FB3FF"/><stop offset="1" stop-color="#6986D9"/></linearGradient><linearGradient id="paint54_linear_529_3695" x1="123.404" y1="45.9" x2="115.478" y2="140.885" gradientUnits="userSpaceOnUse"><stop stop-color="#8FB3FF"/><stop offset="1" stop-color="#6986D9"/></linearGradient><linearGradient id="paint55_linear_529_3695" x1="126.024" y1="46.12" x2="118.099" y2="141.104" gradientUnits="userSpaceOnUse"><stop stop-color="#8FB3FF"/><stop offset="1" stop-color="#6986D9"/></linearGradient><linearGradient id="paint56_linear_529_3695" x1="120.294" y1="45.643" x2="112.369" y2="140.625" gradientUnits="userSpaceOnUse"><stop stop-color="#8FB3FF"/><stop offset="1" stop-color="#6986D9"/></linearGradient><linearGradient id="paint57_linear_529_3695" x1="120.483" y1="45.657" x2="112.558" y2="140.642" gradientUnits="userSpaceOnUse"><stop stop-color="#8FB3FF"/><stop offset="1" stop-color="#6986D9"/></linearGradient><linearGradient id="paint58_linear_529_3695" x1="114.529" y1="45.161" x2="106.604" y2="140.144" gradientUnits="userSpaceOnUse"><stop stop-color="#8FB3FF"/><stop offset="1" stop-color="#6986D9"/></linearGradient><linearGradient id="paint59_linear_529_3695" x1="138.834" y1="47.182" x2="130.908" y2="142.172" gradientUnits="userSpaceOnUse"><stop stop-color="#8FB3FF"/><stop offset="1" stop-color="#6986D9"/></linearGradient><linearGradient id="paint60_linear_529_3695" x1="119.747" y1="45.593" x2="111.822" y2="140.58" gradientUnits="userSpaceOnUse"><stop stop-color="#8FB3FF"/><stop offset="1" stop-color="#6986D9"/></linearGradient></defs></svg>