<svg width="56" height="80" fill="none" xmlns="http://www.w3.org/2000/svg"><g clip-path="url(#clip0_1_173)"><path d="M2.993 29.03l1.99 1.447.431.369c.216.261.479.538.263.907-.263.431-.695.585-1.188.585.756.108 1.496 0 2.144-.215.972-.323 2.098-.908 2.422-1.985.154-.754-.324-1.339-.864-1.877l-1.774-1.6-.864-.8c-.432-.538-1.018-.97-1.188-1.6-.216-.754.108-1.4.756-1.877.91-.861 2.098-1.23 3.378-1.015 1.404.154 2.468 1.292 3.486 3.215H9.317v33.093c.154 1.4.54 2.738 1.234 3.969 1.403 2.738 4.195 4.384 7.033 4.877l2.145.43c1.558.37 3.115.754 4.565 1.493 1.45.692 2.792 2.246 3.378 3.692.587-1.4 1.82-2.83 3.27-3.585 1.45-.754 3.008-1.184 4.566-1.553l2.684-.539a10.997 10.997 0 003.378-1.338c2.684-1.662 4.088-4.385 4.458-7.277V24.584H43.56c.756-1.492 1.296-2.2 2.098-2.677 1.08-.692 2.838-.8 3.918-.108.54.324 1.08.754 1.45 1.293.262.538.215 1.23-.155 1.707-.802 1.016-1.82 1.924-2.745 2.739-.648.646-1.558 1.23-1.666 2.139-.046.646.324 1.184.802 1.6 1.08.8 2.36 1.184 3.764 1.015-.263 0-.479-.046-.695-.154-.216-.154-.478-.323-.54-.646 0-.477.433-.8.756-1.077l1.713-1.23c.694-.478 1.45-1.185 1.773-1.924.54-1.23-.215-2.354-1.08-3.261-1.187-1.123-2.421-2.031-3.81-2.739-.971-.477-1.99-.97-3.053-1.23-1.558-.37-3.224 0-4.504.753-1.188.646-2.036 1.77-3.054 3.8H17.06c-.648-1.292-1.08-1.985-1.666-2.63-1.666-1.708-3.98-2.508-6.34-1.816a19.14 19.14 0 00-3.979 1.877c-1.342.97-3.116 2.092-3.656 3.754-.416 1.384.54 2.446 1.574 3.261z" fill="#EC2427"/><path d="M54.049 50.184l-1.712.108-.047-.693-.154-1.984-.046-1.77c0-4.123.478-8.03 3.008-11.138L51.55 32.4c-.108-.046-.216 0-.262 0-.478.431-.864.97-1.188 1.493-2.144 3.538-2.036 8.2-1.774 12.538l.262 2.739c.216 2.246 0 5.03-.431 6.692-.047.215-.324.8-.324.8h1.234a26.23 26.23 0 01-3.81 8.03l1.018.862c-1.928 1.6-4.35 2.677-6.664 3.262-.108.8-.154 1.4-.154 1.769l-6.34.477c-1.928.154-3.763.861-5.321 1.923.046.046-.91-.585-1.558-.861-1.496-.754-3.224-1.124-5.044-1.185l-3.44-.262-1.604-.154c0-.43-.108-1.015-.216-1.769l-.324-.046c-2.206-.538-4.504-1.492-6.386-3l1.08-1.015a25.734 25.734 0 01-3.81-8.031h1.234c-.432-1.923-.91-4.923-.756-7.015l.262-2.939c.155-1.6.216-3.261.155-4.877-.108-3.215-.587-6.261-2.53-8.723-.216-.215-.432-.646-.756-.646l-1.296.8-2.344 1.492c.262.262.478.539.694.862 2.638 4.077 2.576 9.538 2.036 14.508v.153l-1.712-.046c.108 4.385.694 8.57 2.36 12.262v.154l-.37.215-1.45.8.586.908c1.928 3.123 5.106 5.907 8.376 7.138l.154.046.694 2.57 3.054.369 2.206.154 1.342 4.923c3.378.646 6.71-.262 9.347-2.139.047-.046.54.216.802.431 2.422 1.554 5.476 2.308 8.53 1.708 0 0 1.234-4.6 1.342-4.923l3.594-.262 1.666-.215.756-2.677c.586-.216 1.188-.539 1.712-.8 2.838-1.493 5.43-4.385 7.034-7.123l.154-.323-1.666-.908c1.65-3.785 2.237-7.97 2.345-12.354z" fill="#EC2427"/><path d="M18.51 24.477c-.108 0-.216-.108-.262-.215a.58.58 0 01.046-.477l.216-.154-.154-.539-.587-.477.216-.753-.108-.323a.249.249 0 01-.262-.047c-.108-.107-.154-.323-.108-.477l.046-.046c-.37-.323-.755-.584-1.08-1.015-.215-.154-.323-.539-.647-.585-.216-.107-.324-.323-.324-.584v-.154c-.324-.539-.54-1.123-.756-1.662l-.324-.261c-.046-.216 0-.477.154-.646h.047c-.586-2.939.54-5.785 3.054-7.493 1.296-.861 2.684-1.446 4.195-1.707.047-.047.108-.154.155-.154.108 0 .216 0 .324.046l.262-.046c.046-.108.108-.216.216-.262.154-.046.324-.046.432.046l.108.154c.216-.046.478 0 .648-.108.108-.046.216 0 .323.047.047.046.108.153.047.215 0 0 0 .046-.047.046.695.8 1.127 1.708 1.404 2.739l.108-2.831-.046-.323h.37c-.324-.97-.108-2.093.694-2.739.154-.323.262-.692.37-1.123-.046 0-.046-.046-.108-.107-.432.107-.802.215-1.187.323V.862c.323.153.694.261 1.08.369.046 0 .046-.046.107-.108A3.858 3.858 0 0026.808 0h1.882a5.14 5.14 0 00-.324 1.123l.047.046c.37-.046.802-.215 1.126-.323v1.877a5.17 5.17 0 00-1.126-.323l-.031.062c.046.369.154.753.324 1.123h-.047c.756.646.972 1.661.756 2.569l-.046.215h.432v.216l.154 2.63c.216-.538.432-1.077.756-1.553.154-.262.37-.539.586-.8-.046-.108-.154-.216-.046-.324.108-.107.216-.153.37-.107l.154.154.478.046a.486.486 0 01.324-.323c.108 0 .216 0 .324.107.108.108.154.216.154.323l.216.047c.047-.108.155-.108.216-.154.047 0 .155 0 .216.046l.108.215c2.746.539 5.646 2.139 6.818 4.923a6.697 6.697 0 01.37 4.123c.154.047.154.262.216.37v.261l-.324.262a14.79 14.79 0 01-.755 1.661c.107.154.046.477-.047.646a1.21 1.21 0 01-.54.323 16.8 16.8 0 01-1.403 1.554c.046.154 0 .37-.108.477-.047.046-.108.046-.216.046l-.108.431.154.646-.432.37-.216.692c.108.046.216.215.216.37 0 .153-.108.322-.262.368H18.51v.062z" fill="#B56D37"/><path d="M13.944 28.86l4.412 6.37-.556.43 7.466 8.493-11.276.246-.91.677.91.923 11.6.307-12.016 15.077v.847l.771-.231 13.343-15.077 13.265 15.077.802.23v-.846l-11.985-15 5.861.077v-.923l5.908-.4-5.908-.261v-.908l-5.475.108 7.404-8.385-.54-.461 4.319-6.37-5.4 5.57-.523-.431-7.728 9.692L19.96 34l-.679.307-5.337-5.446z" fill="#CFCFCE"/><path d="M37.79 77.014a6.825 6.825 0 01-2.468.323 9.873 9.873 0 01-3.008-.646c-1.604-.585-2.9-1.293-4.133-2.031-2.36-1.338-4.566-2.63-8.7-2.523a28.013 28.013 0 01-4.674-.262c-1.295-.153-2.576-.43-3.871-.692l-.262-.97c1.403.324 2.745.586 4.133.755a25.46 25.46 0 004.612.261c4.242-.107 6.494 1.185 8.854 2.523 1.234.693 2.468 1.447 4.088 1.985.972.37 1.99.585 2.9.646.971.108 1.82 0 2.791-.323l-.262.954z" fill="#FFCB0B"/><path d="M37.235 79.2a8.722 8.722 0 01-4.396.107c-1.774-.37-3.44-1.231-5.044-2.308-3.332-2.246-7.188-2.462-11.06-2.738-1.665-.108-3.377-.216-5.043-.477l-.263-.97c1.713.324 3.548.431 5.322.539 3.918.262 7.836.538 11.168 2.785 1.604 1.076 3.27 1.923 4.997 2.246 1.45.369 3.039.323 4.597-.154l-.278.97zm6.664-5.51c-1.666.262-3.44.37-5.152.54-2.252.153-4.458.26-6.556.8l-1.234-.54c2.468-.8 5.106-.969 7.728-1.122 1.82-.108 3.656-.216 5.368-.539l-.154.862zm.694-2.568c-1.296.261-2.638.538-3.98.692-1.558.215-3.054.323-4.673.261-3.116 0-5.106.647-6.88 1.554l-.864-.477c1.99-1.123 4.134-1.984 7.728-1.877a26.924 26.924 0 004.612-.261 54.36 54.36 0 004.242-.8l-.185.908z" fill="#FFCB0B"/><path d="M27.148 77.275c-1.45.908-2.947 1.6-4.505 1.985-1.45.323-2.9.323-4.35-.108l-.261-.907c1.557.477 3.054.477 4.565.154 1.296-.262 2.576-.8 3.81-1.554l.74.43zM24.618 76a22.9 22.9 0 01-1.558.645c-1.018.37-1.99.585-3.008.646-.756.108-1.558 0-2.36-.261l-.262-.97c.91.324 1.774.431 2.684.37a8.966 8.966 0 002.9-.646c.154-.046.262-.108.432-.154l1.172.37zm-2.838-.433c-.155.046-.325.046-.479.108-.478-.154-.91-.262-1.403-.262-.479 0-1.018.047-1.497.216-.154-.046-.323-.046-.478-.108a6.698 6.698 0 012.036-.323c.525-.015 1.173.2 1.82.37zm-9.903-5.723l4.01-.707.154.861-1.187.216-2.977-.37zm-6.371-8.091c.91 1.6 2.144 3.154 3.594 4.338 1.496 1.185 5.692 2.739 5.692 2.739s-1.712.37-1.882.37c-1.882-.755-3.702-1.77-5.106-2.94-1.342-1.123-2.421-2.46-3.162-4.015l.864-.492zM3.193 63.03c.91 1.492 1.882 2.892 3.054 4.122a12.05 12.05 0 004.242 2.893l.37 1.292a21.243 21.243 0 01-4.998-3.323c-1.403-1.292-2.637-2.785-3.594-4.554l.926-.43z" fill="#FFCB0B"/><path d="M6.586 62.768l3.44 2.03-.694.647-.694-.431-2.052-2.246zm-.17-6.169c-.108-.37-.154-.754-.262-1.185l-.262-2.677L7.234 56.6h-.818z" fill="#FFCB0B"/><path d="M5.46 50.337c-.108 2.57.108 4.984.756 7.23.586 2.14 1.45 4.124 2.746 6l-1.774-1.122c-.864-1.493-1.496-3.108-1.99-4.77-.648-2.307-.864-4.769-.756-7.338H5.46zm-2.745-.107c-.108 2.677.154 5.2.802 7.6.37 1.4.863 2.738 1.45 3.969l-.864.477a22.292 22.292 0 01-1.604-4.492c-.587-2.416-.802-4.985-.695-7.6l.91.046zm1.233-17.723c3.81 4.77 3.44 10.277 3.008 15.846-.216 1.923-.37 3.908-.324 5.83l-.864-3.368c.047-.8.108-1.6.155-2.416.37-5.415.755-10.877-2.792-15.523l.817-.37z" fill="#FFCB0B"/><path d="M1.48 34.06c3.548 4.708 3.224 9.477 2.839 14.57-.047.538-.047 1.015-.108 1.554l-.91-.046c0-.431.046-.862.046-1.293.324-5.03.648-9.754-2.746-14.292l.88-.492zm5.368-2.738c.37-.215.587-.477.694-.754.155-.477-.107-1.077-.694-1.769-.432-.477-.91-.861-1.45-1.23-.586-.431-1.126-.862-1.604-1.4-.478-.54-.586-1.124-.54-1.708 0-.477.756-1.339.155-.8-.54.538-1.774 2.461-.694 3.692.478.584 1.126.97 1.712 1.338.432.262.863.539 1.342.908.324.262.586.538.755.862.216.338.324.6.324.861zm-2.406-8.57c-.216.37-.37.755-.432 1.186-.046.43.108.969.54 1.553.478.585 1.126 1.077 1.712 1.554.432.323.91.692 1.296 1.077.586.539.864 1.123.91 1.708 0 .261 0 .538-.108.754-.108.215-.216.43-.432.646a2.686 2.686 0 01-2.098.861c-.324 0 0-.107.216-.369.155-.215-.108-.477-.216-.692-.154-.262-.37-.477-.648-.693-.37-.369-.802-.646-1.234-.907-.647-.37-1.233-.754-1.773-1.4-1.497-1.77.37-3.754 1.403-4.662l.864-.615zm10.89 1.723c-.756-1.6-1.928-2.938-3.116-3.369-.802-.323-1.665-.37-2.637-.261.324.046.586.154.91.323.864.43 1.99 1.769 2.946 3.369h-1.08c-.756-1.23-1.712-2.57-2.36-2.938-.756-.431-2.468-.539-2.468-.585 2.36-.8 4.134-.8 5.584-.215 1.342.584 2.576 2.138 3.332 3.692h-1.11v-.016zm22.181 51.093c-.154.047-.37.047-.54.108a5.326 5.326 0 00-1.296-.154c-.432 0-.802.108-1.234.216-.154 0-.37-.046-.54-.108.587-.154 1.188-.37 1.774-.37.648.031 1.25.14 1.836.308zm2.036-6.384l3.794.661-2.93.415-.972-.215.108-.861zm11.337-6.954c-.756 1.554-1.882 2.938-3.223 4.077-1.342 1.184-3.116 2.138-4.936 2.892l-1.99-.323c2.144-.538 4.195-1.554 5.692-2.739 1.496-1.184 2.683-2.738 3.655-4.384l.802.477zm2.36 1.277a17.03 17.03 0 01-3.656 4.6c-1.45 1.338-3.115 2.415-4.997 3.323l.432-1.293c1.712-.646 3.054-1.661 4.242-2.892 1.187-1.23 2.205-2.677 3.054-4.185l.925.447z" fill="#FFCB0B"/><path d="M46.259 65.49l-.756-.584 3.116-1.877-2.36 2.462zm2.097-8.891l1.296-3.37-.586 3.37h-.71z" fill="#FFCB0B"/><path d="M47.878 62.706l.478-.323-1.233.8-.479.323a19.06 19.06 0 002.638-5.83c.648-2.308.864-4.77.756-7.34h.972c.108 2.632-.108 5.093-.756 7.447a20.615 20.615 0 01-1.882 4.6m5.306-12.153c.108 2.676-.108 5.246-.694 7.707-.37 1.492-.91 2.939-1.604 4.385l-.864-.477a24.17 24.17 0 001.45-3.908c.648-2.415.91-4.907.756-7.63l.956-.078zm-1.45-17.4c-3.486 4.6-3.115 10.016-2.745 15.43.046.97.108 1.816.154 2.678l-.864 3.323a57.438 57.438 0 00-.2-6.092c-.432-5.523-.926-10.985 2.884-15.708l.771.37zm-.925 15.63c.108.586.154 1.124.154 1.709l-.154-1.708z" fill="#FFCB0B"/><path d="M51.195 50.183c-.047-.538-.047-1.123-.108-1.662-.324-5.092-.648-9.8 2.745-14.569l.91.539c-3.27 4.492-3.007 9.215-2.683 14.246.046.477.015.984.077 1.415l-.941.03zm.925-26.399c.864 1.015 1.774 2.461.694 3.692-.478.585-1.126.97-1.712 1.338a13.81 13.81 0 00-1.342.908c-.324.262-.586.539-.756.862-.154.261-.262.538-.262.8-.37-.216-.586-.477-.694-.754-.154-.477.108-1.077.694-1.77.432-.476.91-.86 1.45-1.23.586-.43 1.126-.862 1.604-1.4.478-.539.586-1.123.54-1.708-.062-.215-.108-.477-.216-.738zm-2.746 7.969c0-.262.108-.477.216-.692.155-.262.37-.477.648-.693a9.435 9.435 0 011.296-.907c.648-.37 1.234-.754 1.774-1.4 1.496-1.77-.432-3.693-1.342-4.662-.216-.323-1.018-.585-1.018-.585.216.37.432.754.478 1.231.046.431-.108.97-.54 1.554-.478.585-1.126 1.077-1.712 1.554-.432.323-.91.692-1.296 1.077-.586.538-.864 1.123-.91 1.707 0 .262 0 .539.108.754.108.216.216.431.432.646.432.477 1.188.8 2.098.862-.016-.015-.232-.384-.232-.446zm-7.465-7.277c.971-1.554 2.036-2.83 2.9-3.262a4.68 4.68 0 01.91-.323c-.972-.107-1.82-.046-2.638.262-1.126.43-2.314 1.769-3.054 3.323H38.9c.756-1.492 1.928-3.046 3.27-3.585 1.404-.584 3.224-.646 5.584.216 0 0-1.774.154-2.468.584-.648.37-1.604 1.6-2.314 2.831l-1.064-.046zm-4.289-2.892l-.045.262-1.234.43.863.97.108-.108c-.046.154-.046.323-.108.477l-2.144-.323-1.99-.262-2.097-.154c-1.234-.107-2.468-.107-3.764-.107l-2.098.046a49.04 49.04 0 00-6.447.754 3.32 3.32 0 01-.155-.431c.263-.323.54-.585.803-.908a8.91 8.91 0 00-1.234-.43l-.108-.262c4.72-1.554 10.627-1.923 15.671-.908 1.404.262 2.684.57 3.98.954zm-9.239 13.061l-.108-1.923-.046-2.57h3.332c-.91-.322-1.774-.969-2.422-1.815h-.91l-.046-.215a.986.986 0 00-.216-.323c-.154-.108-.478-.154-.648-.046a.592.592 0 00-.324.538h-3.162v1.816h3.054v2.784l-.046 1.877c-.046.754-.108 1.554-.262 2.246-.108.539-.432 1.016-.262 1.6.154.908 1.295 1.4 1.99.97.54-.37.647-.97.585-1.554-.293-1.077-.447-2.262-.509-3.385zm0 26.185l-.108-1.924-.046-2.57h3.332c-.91-.322-1.774-.968-2.422-1.814h-.91a.67.67 0 00-.108-.324c-.154-.261-.586-.369-.864-.215a.592.592 0 00-.323.539h-3.116v1.815h3.054v1.6l-.047 2.461c-.046 1.016-.108 2.031-.323 3-.155.539-.432 1.123-.155 1.708.324.862 1.296 1.123 1.928.692.479-.369.587-.969.54-1.553a24.315 24.315 0 01-.432-3.416z" fill="#FFCB0B"/><path d="M40.953 16.122s-.047-.262-.109-.37c.047-.322.108-.692.108-1.076 0 .046-.046-.8-.046-1.123 0-.108-.046-.37-.108-.477-.046-.323-.324-.97-.432-1.293-.216-.477-.802-1.338-1.126-1.769-.431-.538-1.187-1.077-1.604-1.4-.54-.37-1.404-.754-1.82-.97-.648-.26-1.296-.43-1.928-.584.108.262.262.585.324.8.108.431.216 1.339.262 1.77 0 .43 0 1.292-.046 1.707a78.825 78.825 0 01-.216 1.77c-.046.261-.154.861-.216 1.123-.046.369-.324 1.446-.324 1.446.216.153-.54-.108-.478-.693.046-.538.37-2.138.37-2.138.216-1.877.586-4.23-.324-5.892l-.262-.108-.108.154c-.108.107-.324.107-.432.046-.108-.046-.154-.154-.216-.323l-.37-.046c1.126 2.138.478 5.03.108 7.338-.046.477-.154 1.77-.154 1.985 0 .369.37.646.694.861 0 .262 0 .585.262.754a1.12 1.12 0 01.262-.43c.262-.216.648-.262 1.018-.155.262.108.262.37.262.647 0 .43-.37.8-.694 1.077-.37.215-.91.43-1.403.215-.479-.108-.587-.585-.91-.908-.324.431-.695.693-1.188.8-.54.046-.972-.107-1.296-.538-.37-.43-.648-1.016-.37-1.554.154-.262.478-.37.802-.43.262 0 .478.153.648.368.154.262.262.585.154.908.108 0 .154 0 .262-.046a.563.563 0 00.263-.477c.046-.154-.155-.477.108-.43.215 0 .478-.216.54-.431.107-.216.046-.539-.047-.754-.154-.262-.432-.37-.756-.37-.154-.107.155-.215.155-.369.046-.107 0-.261-.047-.369a.43.43 0 00-.324-.215c-.154.43-.54.969-1.018 1.015-.262.046-.478-.046-.694-.215-.216-.17-.262-.431-.154-.693.216-.477.694-.646 1.126-.692-.216-.215-.432-.37-.756-.37l-.108-.215c0-.046.046-.107.046-.154v-.476l.155-2.416.324-2.784c.046-.216.108-.37.108-.539.154-.323.216-.692.216-1.077 0-.8-.37-1.492-.864-1.877v-.046c-.108-.323-.216-.584-.262-.908.138-.076.23-.215.262-.261.015-.03.015-.03 0 0 .324.046.648.108.91.261v-1.63c-.262.107-.91.323-.91.323a.805.805 0 00-.324-.354c0-.015 0-.015.015-.03.047-.324.154-.647.262-.909H27.04c.108.324.216.585.262.908a.753.753 0 00-.37.385c-.324-.046-.586-.154-.864-.262V2.63c.263-.108.587-.154.91-.216.047.046.217.154.325.216-.047.323-.155.584-.263.861v.046c-.54.323-.91 1.077-.91 1.923 0 .37.108.754.216 1.077 0 .154.047.262.108.477.324 1.877.54 3.754.648 5.723 0 .046.046.108.046.154-.046.046-.108.154-.108.215-.262.047-.54.154-.756.431.432.046.803.216 1.08.585a.78.78 0 010 .692c-.154.262-.478.43-.864.37-.478-.108-.802-.585-.971-1.016-.108 0-.216.046-.263.154-.108.108-.154.37-.046.538 0 .108.262.154.154.262-.324 0-.647.154-.802.477a.918.918 0 000 .754c.108.261.37.323.648.369 0 .215-.046.538.046.754a.501.501 0 00.432.215 1.063 1.063 0 010-.538c.047-.262.324-.585.587-.693.215-.107.478 0 .694.108.323.215.431.585.37.97-.154.584-.648 1.291-1.296 1.4-.694.153-1.296-.262-1.666-.755l-.54.754c-.324.262-.756.37-1.187.262-.479-.154-1.018-.477-1.234-.97-.047-.261-.155-.692.108-.907.216-.154.586-.108.802 0 .262.108.478.323.54.584h.046c.216-.153.216-.43.216-.692l.046-.046c.154-.108.324-.215.478-.37.154-.153.324-.368.324-.538 0-.323-.216-1.446-.37-2.2-.432-2.246-.91-5.138.216-7.23-.108 0-.262 0-.432.046 0 .154-.046.261-.154.323-.108.107-.324.107-.432.046-.108-.046-.154-.154-.216-.262-.046 0-.154 0-.216.047 0 0-.432 1.076-.54 1.661-.262 2.2.154 4.277.54 6.323 0 0 .262.646-.432 1.123-.216-.154-1.774-7.661-.262-9.215-.694.154-1.496.37-1.99.584-.478.216-1.404.647-1.82.97a17.397 17.397 0 00-1.604 1.4c-.37.384-.91 1.184-1.126 1.769-.155.477-.478 1.446-.54 1.985-.046.261-.046.753-.046 1.015 0 .323.046.8.108 1.184v.154s.046.108-.108.154c-.047.154-.108.262-.108.477l.324.262c.216.538.432 1.123.755 1.6.047-.046.155-.046.263-.046.216 0 .37.107.478.323.108.215.046.538-.046.753.262.37.586.693.91 1.016.262.154.54.215.863.154.648-.216 1.342-.37 1.99-.585 4.72-1.292 10.628-1.338 15.363-.046l1.99.477c.324.046.694.046.972-.108.694-.646.972-1.123.972-1.123-.108-.215-.108-.538.046-.754a.589.589 0 01.586-.154c.262-.538.54-1.077.756-1.661L41 16.46c.061-.077.061-.23-.047-.338zm-20.624 3.584c-.323.154-.586.37-.971.262-.324-.046-.648-.262-.864-.585l-.046.047c-.108.369-.216.8-.648.969-.324.107-.54-.046-.756-.262-.154-.215-.37-.369-.216-.646 0-.108.108-.215.216-.261a.513.513 0 01.37 0c.108.046.216.215.262.323a.672.672 0 000-.754c-.046-.046-.154-.108-.107-.154a.99.99 0 00.323-.215c.047 0 .047-.047.047-.047v-.092c.046-.154.154-.37.262-.585v.108c.108.262.432.37.694.37.108.046 0 .215 0 .322 0 .108.046.216.154.216l.216.046c-.154-.37 0-.8.262-1.123.216-.154.432-.262.648-.154.478.262.478.8.586 1.23.108.4-.108.77-.431.985zm.37-2.353c-.215-.047-.37-.262-.431-.477-.047-.262.046-.477.262-.646.108-.108.262-.108.432-.047.154.047.262.154.37.262.108.215.108.477-.046.646-.154.262-.37.37-.586.262zm7.142-.8a.95.95 0 01-.647-.262c-.155-.215-.216-.538-.108-.754.108-.261.37-.43.647-.477a.95.95 0 01.648.262c.154.215.216.538.108.754-.108.261-.37.415-.648.477zm6.448.153c.046-.215.216-.369.432-.43.216-.062.432.046.54.261.108.108.108.323.046.431-.046.154-.154.323-.262.37-.216.045-.432.045-.54-.047-.216-.154-.278-.37-.216-.585zm4.242 3.154c-.216.216-.432.37-.756.262-.432-.154-.54-.585-.648-.97l-.046-.046c-.216.323-.54.539-.864.585-.37.108-.648-.108-.972-.261-.324-.216-.54-.585-.478-1.016.108-.43.108-.97.586-1.23.216-.108.432 0 .648.153.262.323.432.754.262 1.123l.216-.046c.108 0 .155-.108.155-.215 0-.108-.108-.262 0-.323.262 0 .586-.108.694-.37V17.4c.108.215.216.43.262.584v.093s0 .046.046.046c.108.108.216.154.324.215.046.046-.046.108-.108.154a.672.672 0 000 .754c.046-.108.154-.262.262-.323a.513.513 0 01.37 0c.108.046.216.154.216.261.201.308-.015.477-.17.677z" fill="#FFCB0B"/><path d="M24.294 17.814c.238 0 .431-.207.431-.462s-.193-.461-.431-.461c-.24 0-.432.206-.432.461s.193.462.432.462zm7.018 0c.239 0 .432-.207.432-.462s-.193-.461-.432-.461c-.238 0-.432.206-.432.461s.194.462.432.462z" fill="#FFCB0B"/></g><defs><clipPath id="clip0_1_173"><path fill="#fff" d="M0 0h55.529v80H0z"/></clipPath></defs></svg>