<svg width="96" height="112" fill="none" xmlns="http://www.w3.org/2000/svg"><path d="M47.467 111.888c23.27 0 42.133-1.953 42.133-4.364 0-2.41-18.864-4.364-42.133-4.364-23.27 0-42.134 1.954-42.134 4.364 0 2.411 18.864 4.364 42.134 4.364z" fill="#F5F5F5"/><path d="M79.445 67.416a3.135 3.135 0 00-.09 3.979l.09.116v.633H59.2v-5.478h20.245v.75z" fill="#407BFF"/><path opacity=".1" d="M79.446 67.416a3.134 3.134 0 00-.091 3.979l.09.116v.633H70.57v-5.478h8.876v.75z" fill="#000"/><path opacity=".9" d="M79.355 71.395l.09.116H71.53v-4.094h7.915a3.134 3.134 0 00-.09 3.978z" fill="#fff"/><path d="M69.856 69.557a1.095 1.095 0 01-.672 1.009A1.083 1.083 0 0168 70.329a1.093 1.093 0 01.77-1.864 1.094 1.094 0 011.087 1.092z" fill="#fff"/><path d="M69.61 69.556a.858.858 0 01-.527.79.849.849 0 01-1.16-.623.859.859 0 01.361-.878.849.849 0 011.076.107c.16.16.25.378.25.605z" fill="#263238"/><path d="M64.47 67.886h-4.723v3.024h4.723v-3.024zm2.254 0h-2.033v3.024h2.033v-3.024z" fill="#fff"/><path d="M71.53 71.002v-.364a1.086 1.086 0 00.934-1.081 1.095 1.095 0 00-.934-1.081v-.364c.351.043.674.214.909.48a1.46 1.46 0 01-.91 2.41z" fill="#263238"/><path d="M78.782 68.61H71.53v.182h7.252v-.182zm0 .215H71.53v.182h7.252v-.182zm0 .211H71.53v.182h7.252v-.182zm0 .215H71.53v.182h7.252v-.182zm0 .215H71.53v.182h7.252v-.182zm0 .214H71.53v.182h7.252v-.182zm0 .215H71.53v.182h7.252v-.182zm0 .211H71.53v.182h7.252v-.182zm0 .215H71.53v.182h7.252v-.182z" fill="#fff"/><path d="M55.639 71.686h28.914v2.533a1.724 1.724 0 01-1.723 1.723H57.362a1.724 1.724 0 01-1.723-1.723v-2.537.004z" fill="#407BFF"/><path opacity=".3" d="M55.639 71.686h28.914v2.533a1.724 1.724 0 01-1.723 1.723H57.362a1.724 1.724 0 01-1.723-1.723v-2.537.004z" fill="#fff"/><path d="M80.516 75.599H59.675a.74.74 0 00-.74.686l-2.26 30.391a.574.574 0 00.14.421.573.573 0 00.397.199.58.58 0 00.62-.536l2.201-29.642a.386.386 0 01.386-.363h19.346a.386.386 0 01.385.363l2.197 29.642a.58.58 0 001.157-.084l-2.259-30.391a.74.74 0 00-.729-.686z" fill="#263238"/><path d="M70.096 107.297a.58.58 0 01-.579-.578V76.263h1.157v30.456a.58.58 0 01-.578.578zm-5.61-31.035a.578.578 0 00.579-.578v-2.83a.578.578 0 10-1.157 0v2.83a.578.578 0 00.578.578zm11.219 0a.579.579 0 00.578-.578v-2.83a.578.578 0 10-1.156 0v2.83a.578.578 0 00.578.578z" fill="#263238"/><path d="M77.845 62.083a3.134 3.134 0 00-.09 3.978l.09.117v.633H57.6v-5.478h20.245v.75z" fill="#407BFF"/><path opacity=".1" d="M77.846 62.083a3.134 3.134 0 00-.091 3.978l.09.117v.633H68.97v-5.478h8.876v.75z" fill="#000"/><path opacity=".9" d="M77.755 66.061l.09.117H69.93v-4.095h7.915a3.134 3.134 0 00-.09 3.978z" fill="#fff"/><path d="M68.255 64.223a1.096 1.096 0 01-.67 1.01 1.083 1.083 0 01-1.186-.238 1.094 1.094 0 01.77-1.864c.288 0 .564.115.768.32.204.205.319.483.319.772z" fill="#fff"/><path d="M68.01 64.223a.858.858 0 01-.527.79.849.849 0 01-1.16-.623.858.858 0 01.361-.878.849.849 0 011.076.106c.16.16.25.378.25.605z" fill="#263238"/><path d="M62.87 62.553h-4.723v3.024h4.723v-3.024zm2.254 0h-2.033v3.024h2.033v-3.024z" fill="#fff"/><path d="M69.93 65.668v-.364a1.086 1.086 0 00.934-1.08 1.095 1.095 0 00-.934-1.082v-.364c.35.044.674.215.908.48a1.46 1.46 0 01-.908 2.41z" fill="#263238"/><path d="M77.182 63.277H69.93v.182h7.252v-.182zm0 .215H69.93v.181h7.252v-.181zm0 .211H69.93v.182h7.252v-.182zm0 .214H69.93v.183h7.252v-.182zm0 .215H69.93v.182h7.252v-.182zm0 .215H69.93v.182h7.252v-.182zm0 .215H69.93v.182h7.252v-.182zm0 .211H69.93v.182h7.252v-.182zm0 .214H69.93v.183h7.252v-.183z" fill="#fff"/><path d="M35.88 57.144l3.374 49.247-2.76.697s-5.309-17.075-5.52-26.678c-.213-9.603.022-11.631-3.016-17.055l7.923-6.211zm-9.641.666l-3.801 49.278-2.888-.019s-3.084-17.638-1.893-27.16c1.191-9.522 2.807-11.404.547-17.26l8.035-4.838z" fill="#FFB573"/><path d="M22.214 106.51l-3.003.066a.276.276 0 00-.27.223l-.578 2.838a.458.458 0 00.192.477.46.46 0 00.166.07.42.42 0 00.1 0c1.253-.046 2.364-.135 3.921-.158 1.843-.035 1.38.193 3.543.185 1.303 0 1.515-1.492.96-1.542-2.533-.274-3.277-1.033-4.271-1.928a1.128 1.128 0 00-.76-.231zm17.075-.432l-2.965.501a.276.276 0 00-.235.259l-.158 2.891a.468.468 0 00.436.494h.088c1.234-.228 2.313-.475 3.855-.729 1.816-.297 1.392 0 3.532-.328 1.287-.196 1.28-1.696.725-1.677-2.549.097-3.393-.543-4.503-1.28a1.162 1.162 0 00-.775-.131z" fill="#263238"/><path opacity=".2" d="M26.239 57.81l-1.427 18.506a96.05 96.05 0 01-6.457-1.068c.66-3.878 1.199-6.11.902-8.632a14.217 14.217 0 00-.578-4.24l7.56-4.565zm4.653 18.722c-.139-6.403-.358-8.566-2.934-13.165l7.923-6.211 1.303 18.99c-2.083.302-4.188.43-6.292.386z" fill="#000"/><path d="M34.963 41.557s2.032 16.963 2.599 32.982c0 0-5.536 1.58-20.11-.679.38-2.093.485-4.226.313-6.346-.424-5.802-2.136-12.101-.312-18.165 2.02-6.7 4.179-8.582 4.179-8.582l12.653-.567.678 1.357z" fill="#263238"/><path d="M30.522 18.761l-10.56.278a1.156 1.156 0 00-1.079 1.522c1.095 3.37 3.381 12.033 1.623 21.447H35.3l.223-13.879s1.157-2.937-3.624-8.72a1.747 1.747 0 00-1.376-.648z" fill="#407BFF"/><path opacity=".9" d="M30.522 18.761l-10.56.278a1.156 1.156 0 00-1.079 1.522c1.095 3.37 3.381 12.033 1.623 21.447H35.3l.223-13.879s1.157-2.937-3.624-8.72a1.747 1.747 0 00-1.376-.648z" fill="#fff"/><path d="M44.108 29.07l2.938-1.114.975-2.228a.742.742 0 01.12-.19l2.46-2.956a.417.417 0 01.539-.081.41.41 0 01.1.594l-1.31 1.68.493 2.314a1.252 1.252 0 01-.282 1.08l-.223.254a1.266 1.266 0 01-.367.289l-1.653.852-2.826 1.41-.964-1.904z" fill="#FFB573"/><path d="M31.694 18.761s4.24 1.365 6.076 10.687a1.014 1.014 0 001.287.771l6.466-2.028.848 2.367s-6.465 4.592-9.488 3.921c-3.022-.67-5.189-15.718-5.189-15.718z" fill="#407BFF"/><path opacity=".1" d="M36.976 26.287c.208 1.119.272 2.26.189 3.396a34.429 34.429 0 00-.081 4.835 1.654 1.654 0 01-.2-.031c-3.023-.671-5.19-15.726-5.19-15.726s3.246 1.045 5.282 7.526z" fill="#000"/><path d="M20.16 9.856c.269-.941 0-1.905.693-2.776a2.876 2.876 0 00.57-1.654c.178-3.084 3.968-4.056 6.744-4.071 3.064 0 1.854 1.245 4.44 1.854 2.588.61 1.18 3.801.479 4.711-.702.91-.058 2.483 1.376 4.912 0 0 1.542 2.856-6.488 1.577 0 0-9.854 2.49-7.815-4.553z" fill="#263238"/><path d="M23.868 12.42c.524 1.823 1.176 5.196 0 6.553a21.366 21.366 0 005.012 2.406c1.927-1.881.794-2.614.794-2.614-2.113-.331-2.236-2.143-2.017-3.616l-3.79-2.73z" fill="#FFB573"/><path opacity=".2" d="M25.206 14.397a3.726 3.726 0 010-1.014l2.444 1.762a6.783 6.783 0 00-.077.894c-.887-.092-2.202-.752-2.367-1.642z" fill="#000"/><path d="M22.881 9.146c.837 3.007 1.126 4.299 2.995 5.532 2.815 1.859 6.323.178 6.404-3.018.073-2.876-1.303-7.325-4.542-7.888a4.24 4.24 0 00-4.857 5.374z" fill="#FFB573"/><path d="M22.673 11.71c.29.529.778.921 1.357 1.091.77.216 1.156-.466.948-1.195-.189-.655-.817-1.542-1.592-1.457a1.033 1.033 0 00-.713 1.561z" fill="#FFB573"/><path d="M24.21 3.063c-.527.933.85 2.633 3.675 2.42 2.132-.154 4.842 2.094 4.588-.385-.216-2.244-5.594-3.238-8.262-2.035z" fill="#263238"/><path d="M25.768 3.718c1.496 1.107.544 3.185-.15 4.125-.694.94-1.781 1.824-.91 3.185.872 1.36 1.219 3.06-1.5 2.436-2.717-.624-2.37-3.065-1.619-5.162.752-2.097 2.402-5.899 4.18-4.584z" fill="#263238"/><path d="M29.828 9c.34.52.752.989 1.222 1.395a1.092 1.092 0 01-.848.359L29.828 9z" fill="#ED893E"/><path d="M26.285 8.024a.112.112 0 01-.062 0 .127.127 0 01-.046-.17 1.442 1.442 0 011.107-.743.131.131 0 01.13.12.127.127 0 01-.115.126 1.222 1.222 0 00-.914.625.123.123 0 01-.1.042zm5.266-1.075a.189.189 0 01-.061 0 1.207 1.207 0 00-1.095-.054.124.124 0 01-.17-.046.13.13 0 01.05-.17 1.457 1.457 0 011.334.058.125.125 0 01.064.07.123.123 0 01-.006.095.131.131 0 01-.116.07v-.023zm-3.577 2.016c.054.247.227.416.385.386.158-.031.25-.263.193-.513-.058-.25-.227-.42-.386-.386-.158.035-.227.262-.192.513zm2.822-.597c.05.246.223.42.385.385.162-.035.25-.262.2-.513-.05-.25-.227-.416-.385-.385-.158.03-.258.262-.2.513z" fill="#263238"/><path d="M30.924 7.885l.558-.296s-.208.527-.558.296zm-2.803.594l.558-.297s-.208.528-.558.297z" fill="#263238"/><path d="M23.756 18.318a.983.983 0 01.821.34c.956 1.113 3.57 4.791 3.57 11.711 0 5.521-.32 10.737-.543 13.702a2.106 2.106 0 01-2.641 1.881l-6.076-1.615s2.398-6.034 1.843-12.441c-.386-4.46-1.658-9.087-2.394-11.485a1.391 1.391 0 011.233-1.8l4.187-.293zm5.614-.031a.266.266 0 00-.19.455c1.088 1.076 3.47 4.287 3.856 12.082.331 6.7.62 11.42.77 13.88a1.335 1.335 0 001.878 1.129l.51-.228s-.772-3.639-.556-11.6c.216-7.961 1.426-8.343-1.816-12.722a99.37 99.37 0 00-1.565-1.994 2.698 2.698 0 00-2.09-1.002h-.798z" fill="#407BFF"/><path d="M23.66 18.943l6.754-.178c.463 1.816 1.188 5.471.2 7.657 0-.008-3.693-4.106-6.954-7.48z" fill="#FFB573"/><path d="M26.378 40.2l-4.688-.732-.193.385a.82.82 0 00.625 1.157l3.084.432a.814.814 0 00.879-.525l.293-.717z" fill="#407BFF"/><path opacity=".2" d="M26.378 40.2l-4.688-.732-.193.385a.82.82 0 00.625 1.157l3.084.432a.814.814 0 00.879-.525l.293-.717z" fill="#000"/><path d="M35.977 40.2h-1.183l.096.79a1.06 1.06 0 001.222.918l.432-.07-.567-1.638z" fill="#407BFF"/><path opacity=".2" d="M35.977 40.2h-1.183l.096.79a1.06 1.06 0 001.222.918l.432-.07-.567-1.638z" fill="#000"/><path d="M17.51 38.396l1.11 2.486 2.314 1.639a.876.876 0 01.34.944.886.886 0 01-.463.567l-1.245.61a.88.88 0 01-1.122-.302l-.864-1.295a1.903 1.903 0 01-.281-.698l-.112-.64-1.542-2.52 1.866-.791z" fill="#FFB573"/><path opacity=".1" d="M19.712 21.564l1.095.509s1.207 3.173-.386 7.394a61.896 61.896 0 00-1.569-7.217l.86-.686z" fill="#000"/><path d="M26.347 22.593c-1.928-.617-3.138.158-3.138.158-.771-2.313-.251-3.38-.12-4.383l.667-.046a.983.983 0 01.821.339c.956 1.114 3.57 4.792 3.57 11.712 0 1.754-.03 3.47-.085 5.108-.952-7.54-3.388-10.359-3.388-10.359a3.362 3.362 0 011.673-2.529zm3.023-4.306h.616c1.103.64 2.606 1.758 3.057 3.277a1.118 1.118 0 00-1.349.282 4.915 4.915 0 012.024 1.927 62.838 62.838 0 01-.563 9.253c-.038-.71-.077-1.438-.112-2.202-.385-7.795-2.775-11.006-3.855-12.082a.266.266 0 01.181-.455z" fill="#407BFF"/><path opacity=".2" d="M26.347 22.593c-1.928-.617-3.138.158-3.138.158-.771-2.313-.251-3.38-.12-4.383l.667-.046a.983.983 0 01.821.339c.956 1.114 3.57 4.792 3.57 11.712 0 1.754-.03 3.47-.085 5.108-.952-7.54-3.388-10.359-3.388-10.359a3.362 3.362 0 011.673-2.529zm3.023-4.306h.616c1.103.64 2.606 1.758 3.057 3.277a1.118 1.118 0 00-1.349.282 4.915 4.915 0 012.024 1.927 62.838 62.838 0 01-.563 9.253c-.038-.71-.077-1.438-.112-2.202-.385-7.795-2.775-11.006-3.855-12.082a.266.266 0 01.181-.455z" fill="#000"/><path d="M18.825 18.896s-1.426.07-3.967 5.66c-2.54 5.59-3.558 9.465 1.3 15.914l2.116-1.002S16.1 34.329 16.21 31.73c.112-2.598 2.526-5.185 3.736-6.835.837-1.14 1.831-3.076-1.122-5.998z" fill="#407BFF"/><path opacity=".4" d="M28.055 54.202c-.84 12.684-.043 18.444.543 20.819a82.84 82.84 0 01-2.98-.185c.282-7.352 1.747-17.102 2.313-20.634h.124z" fill="#000"/><path d="M29.466 12.15c.129 0 .258-.012.385-.035a.064.064 0 00.044-.027.064.064 0 00.01-.05.074.074 0 00-.077-.054 1.851 1.851 0 01-1.622-.464.069.069 0 00-.076.01.07.07 0 00-.006.1c.363.34.844.526 1.342.52z" fill="#263238"/></svg>