<svg width="179" height="210" fill="none" xmlns="http://www.w3.org/2000/svg"><path d="M89 209.79c43.63 0 79-3.663 79-8.182 0-4.52-35.37-8.183-79-8.183s-79 3.663-79 8.183c0 4.519 35.37 8.182 79 8.182z" fill="#F5F5F5"/><path d="M148.96 126.406a5.879 5.879 0 00-.17 7.459l.17.219v1.187H111V125h37.96v1.406z" fill="#407BFF"/><path opacity=".1" d="M148.961 126.406a5.873 5.873 0 00-1.419 3.699 5.876 5.876 0 001.249 3.76l.17.219v1.187h-16.643V125h16.643v1.406z" fill="#000"/><path opacity=".9" d="M148.79 133.866l.17.218h-14.841v-7.678h14.841a5.879 5.879 0 00-.17 7.46z" fill="#fff"/><path d="M130.979 130.418a2.042 2.042 0 01-2.436 2.009 2.052 2.052 0 01-.735-3.711 2.03 2.03 0 012.574.255c.382.384.597.904.597 1.447z" fill="#fff"/><path d="M130.517 130.418a1.603 1.603 0 01-.985 1.482 1.594 1.594 0 01-2.178-1.169 1.608 1.608 0 01.679-1.646 1.595 1.595 0 012.017.199c.299.301.467.709.467 1.134z" fill="#263238"/><path d="M120.881 127.286h-8.854v5.671h8.854v-5.671zm4.227 0h-3.813v5.671h3.813v-5.671z" fill="#fff"/><path d="M134.119 133.128v-.683c.486-.069.93-.313 1.252-.685a2.051 2.051 0 00-1.252-3.369v-.682a2.71 2.71 0 011.703.901 2.734 2.734 0 01-1.703 4.518z" fill="#263238"/><path d="M147.717 128.645h-13.598v.341h13.598v-.341zm0 .402h-13.598v.341h13.598v-.341zm0 .395h-13.598v.342h13.598v-.342zm0 .404h-13.598v.341h13.598v-.341zm0 .402h-13.598v.341h13.598v-.341zm0 .402h-13.598v.342h13.598v-.342zm0 .404h-13.598v.341h13.598v-.341zm0 .395h-13.598v.341h13.598v-.341zm0 .403h-13.598v.341h13.598v-.341z" fill="#fff"/><path d="M104.323 134.411h54.214v4.749a3.237 3.237 0 01-1.995 2.985 3.237 3.237 0 01-1.236.246h-47.752a3.238 3.238 0 01-2.285-.947 3.223 3.223 0 01-.946-2.284v-4.757.008z" fill="#407BFF"/><path opacity=".3" d="M104.323 134.411h54.214v4.749a3.237 3.237 0 01-1.995 2.985 3.237 3.237 0 01-1.236.246h-47.752a3.238 3.238 0 01-2.285-.947 3.223 3.223 0 01-.946-2.284v-4.757.008z" fill="#fff"/><path d="M150.968 141.748h-39.077a1.385 1.385 0 00-1.388 1.287l-4.236 56.982a1.097 1.097 0 00.26.791 1.085 1.085 0 001.534.111c.218-.189.352-.455.375-.742l4.127-55.581a.72.72 0 01.723-.679h36.273a.72.72 0 01.723.679l4.12 55.581a1.092 1.092 0 001.164 1.004 1.085 1.085 0 001.005-1.164l-4.236-56.982a1.391 1.391 0 00-1.367-1.287z" fill="#263238"/><path d="M131.43 201.181a1.085 1.085 0 01-1.085-1.084v-57.106h2.169v57.106a1.085 1.085 0 01-1.084 1.084zm-10.518-58.19a1.083 1.083 0 001.084-1.084v-5.306a1.086 1.086 0 00-1.084-1.084 1.086 1.086 0 00-1.084 1.084v5.306a1.084 1.084 0 001.084 1.084zm21.035 0a1.085 1.085 0 001.085-1.084v-5.306a1.087 1.087 0 00-1.085-1.084 1.084 1.084 0 00-1.084 1.084v5.306c0 .287.114.563.318.766.203.204.479.318.766.318z" fill="#263238"/><path d="M145.96 116.406a5.879 5.879 0 00-.17 7.459l.17.219v1.187H108V115h37.96v1.406z" fill="#407BFF"/><path opacity=".1" d="M145.961 116.406a5.873 5.873 0 00-1.419 3.699 5.876 5.876 0 001.249 3.76l.17.219v1.187h-16.643V115h16.643v1.406z" fill="#000"/><path opacity=".9" d="M145.79 123.866l.17.218h-14.841v-7.678h14.841a5.879 5.879 0 00-.17 7.46z" fill="#fff"/><path d="M127.979 120.418a2.042 2.042 0 01-2.436 2.009 2.052 2.052 0 01-.735-3.711 2.03 2.03 0 012.574.255c.382.384.597.904.597 1.447z" fill="#fff"/><path d="M127.517 120.418a1.603 1.603 0 01-.985 1.482 1.594 1.594 0 01-2.178-1.169 1.608 1.608 0 01.679-1.646 1.595 1.595 0 012.017.199c.299.301.467.709.467 1.134z" fill="#263238"/><path d="M117.881 117.286h-8.854v5.671h8.854v-5.671zm4.227 0h-3.813v5.671h3.813v-5.671z" fill="#fff"/><path d="M131.119 123.128v-.683c.486-.069.93-.313 1.252-.685a2.051 2.051 0 00-1.252-3.369v-.682a2.71 2.71 0 011.703.901 2.734 2.734 0 01-1.703 4.518z" fill="#263238"/><path d="M144.717 118.645h-13.598v.341h13.598v-.341zm0 .402h-13.598v.341h13.598v-.341zm0 .395h-13.598v.342h13.598v-.342zm0 .404h-13.598v.341h13.598v-.341zm0 .402h-13.598v.341h13.598v-.341zm0 .402h-13.598v.342h13.598v-.342zm0 .404h-13.598v.341h13.598v-.341zm0 .395h-13.598v.341h13.598v-.341zm0 .403h-13.598v.341h13.598v-.341z" fill="#fff"/><path d="M67.277 107.145l6.325 92.337-5.176 1.309s-9.954-32.016-10.351-50.022c-.398-18.006.043-21.809-5.653-31.979l14.855-11.645zm-18.079 1.251l-7.127 92.395-5.414-.036s-5.783-33.071-3.55-50.925c2.234-17.855 5.263-21.382 1.027-32.363l15.064-9.071z" fill="#FFB573"/><path d="M41.651 199.707l-5.63.122a.522.522 0 00-.507.42l-1.084 5.32a.866.866 0 00.672 1.026.843.843 0 00.188 0c2.35-.086 4.431-.253 7.352-.296 3.455-.065 2.588.361 6.643.347 2.443 0 2.84-2.797 1.8-2.891-4.75-.514-6.145-1.938-8.01-3.615a2.11 2.11 0 00-1.424-.433zm32.016-.81l-5.559.94a.51.51 0 00-.44.484l-.297 5.421a.877.877 0 00.817.926h.166c2.313-.427 4.337-.889 7.228-1.367 3.405-.556 2.61 0 6.622-.614 2.414-.369 2.4-3.181 1.359-3.144-4.778.18-6.361-1.02-8.443-2.4a2.17 2.17 0 00-1.453-.246z" fill="#263238"/><path opacity=".2" d="M49.198 108.396l-2.674 34.697c-3.615-.463-7.663-1.121-12.108-2.003 1.236-7.272 2.248-11.457 1.691-16.184a26.669 26.669 0 00-1.084-7.952l14.175-8.558zm8.725 35.101c-.26-12.007-.672-16.062-5.5-24.686l14.854-11.645 2.443 35.608a71.844 71.844 0 01-11.797.723z" fill="#000"/><path d="M65.556 77.92s3.81 31.805 4.872 61.84c0 0-10.38 2.964-37.704-1.272.711-3.924.908-7.924.586-11.899-.795-10.879-4.005-22.69-.586-34.06 3.788-12.564 7.836-16.091 7.836-16.091l23.724-1.063 1.272 2.544z" fill="#263238"/><path d="M57.23 35.177l-19.8.52a2.17 2.17 0 00-2.024 2.856c2.053 6.318 6.34 22.56 3.043 40.212h27.736l.42-26.023s2.168-5.508-6.795-16.35a3.275 3.275 0 00-2.58-1.215z" fill="#407BFF"/><path opacity=".9" d="M57.23 35.177l-19.8.52a2.17 2.17 0 00-2.024 2.856c2.053 6.318 6.34 22.56 3.043 40.212h27.736l.42-26.023s2.168-5.508-6.795-16.35a3.275 3.275 0 00-2.58-1.215z" fill="#fff"/><path d="M82.703 54.507l5.508-2.09 1.829-4.178c.056-.128.131-.248.224-.354l4.611-5.544a.781.781 0 011.012-.152.765.765 0 01.188 1.113l-2.457 3.152.925 4.337a2.35 2.35 0 01-.528 2.024l-.419.477a2.372 2.372 0 01-.687.542l-3.1 1.598-5.3 2.645-1.806-3.57z" fill="#FFB573"/><path d="M59.427 35.177s7.951 2.559 11.392 20.037a1.9 1.9 0 002.414 1.446l12.122-3.802 1.59 4.438s-12.122 8.61-17.789 7.352c-5.667-1.258-9.73-29.471-9.73-29.471z" fill="#407BFF"/><path opacity=".1" d="M69.33 49.287a24.9 24.9 0 01.354 6.368 64.548 64.548 0 00-.152 9.065 3.16 3.16 0 01-.376-.058c-5.667-1.258-9.73-29.485-9.73-29.485s6.087 1.959 9.904 14.11z" fill="#000"/><path d="M37.799 18.479c.506-1.764 0-3.57 1.3-5.204a5.392 5.392 0 001.07-3.102c.333-5.782 7.439-7.604 12.643-7.633 5.747 0 3.477 2.335 8.328 3.477 4.85 1.142 2.212 7.127.896 8.833-1.316 1.706-.108 4.656 2.58 9.21 0 0 2.892 5.356-12.165 2.956 0 0-18.476 4.67-14.652-8.537z" fill="#263238"/><path d="M44.753 23.286c.983 3.42 2.204 9.744 0 12.289a40.066 40.066 0 009.397 4.51c3.614-3.527 1.489-4.9 1.489-4.9-3.962-.622-4.193-4.02-3.78-6.781l-7.106-5.118z" fill="#FFB573"/><path opacity=".2" d="M47.26 26.994a6.98 6.98 0 010-1.901l4.584 3.303a12.696 12.696 0 00-.145 1.677c-1.662-.173-4.127-1.41-4.438-3.08z" fill="#000"/><path d="M42.902 17.15c1.569 5.638 2.11 8.06 5.617 10.372 5.276 3.485 11.855.333 12.006-5.66.138-5.392-2.443-13.734-8.515-14.79a7.951 7.951 0 00-9.108 10.077z" fill="#FFB573"/><path d="M42.512 21.956A4.28 4.28 0 0045.056 24c1.446.405 2.169-.874 1.778-2.24-.354-1.23-1.532-2.892-2.985-2.733a1.937 1.937 0 00-1.605 2.212c.045.253.135.496.268.716z" fill="#FFB573"/><path d="M45.396 5.742c-.99 1.75 1.59 4.938 6.889 4.54 3.997-.29 9.079 3.925 8.602-.723-.405-4.207-10.489-6.072-15.491-3.817z" fill="#263238"/><path d="M48.316 6.971c2.805 2.075 1.02 5.971-.282 7.735-1.3 1.764-3.34 3.419-1.706 5.97 1.634 2.552 2.285 5.74-2.812 4.57-5.096-1.172-4.445-5.748-3.035-9.68 1.41-3.932 4.503-11.06 7.835-8.595z" fill="#263238"/><path d="M55.928 16.874a12.57 12.57 0 002.291 2.617 2.045 2.045 0 01-1.59.672l-.701-3.289z" fill="#ED893E"/><path d="M49.285 15.045a.208.208 0 01-.116 0 .238.238 0 01-.086-.318 2.705 2.705 0 012.074-1.395.246.246 0 01.246.224.239.239 0 01-.217.239 2.292 2.292 0 00-1.713 1.17.232.232 0 01-.188.08zm9.875-2.015a.356.356 0 01-.116 0 2.263 2.263 0 00-2.053-.102.233.233 0 01-.319-.087.246.246 0 01.095-.318 2.733 2.733 0 012.5.109.23.23 0 01.132.222.23.23 0 01-.023.088.247.247 0 01-.217.13v-.043zm-6.709 3.78c.101.462.426.78.723.723.296-.058.47-.492.361-.962-.108-.47-.426-.788-.723-.723-.296.065-.426.492-.361.962zm5.291-1.121c.094.463.42.788.723.723.304-.065.47-.492.376-.961-.094-.47-.426-.781-.723-.723-.296.057-.484.491-.376.961z" fill="#263238"/><path d="M57.98 14.785l1.049-.556s-.39.99-1.048.556zm-5.254 1.113l1.048-.556s-.39.99-1.048.556z" fill="#263238"/><path d="M44.543 34.345a1.843 1.843 0 011.54.636c1.792 2.09 6.693 8.986 6.693 21.96 0 10.352-.6 20.132-1.019 25.691a3.949 3.949 0 01-4.951 3.528l-11.393-3.03s4.497-11.312 3.456-23.326c-.723-8.363-3.109-17.037-4.49-21.534a2.61 2.61 0 012.314-3.375l7.85-.55zm10.525-.057a.498.498 0 00-.354.853c2.038 2.017 6.505 8.038 7.228 22.654.622 12.564 1.164 21.411 1.446 26.023a2.5 2.5 0 003.52 2.118l.954-.426s-1.445-6.824-1.04-21.751c.404-14.927 2.674-15.643-3.405-23.854-.593-.796-1.894-2.436-2.935-3.738a5.06 5.06 0 00-3.918-1.879h-1.496z" fill="#407BFF"/><path d="M44.362 35.517l12.665-.332c.867 3.404 2.226 10.257.376 14.355 0-.014-6.925-7.698-13.04-14.023z" fill="#FFB573"/><path d="M49.458 75.375l-8.79-1.373-.361.723a1.54 1.54 0 001.171 2.168l5.783.81a1.525 1.525 0 001.648-.983l.55-1.345z" fill="#407BFF"/><path opacity=".2" d="M49.458 75.375l-8.79-1.373-.361.723a1.54 1.54 0 001.171 2.168l5.783.81a1.525 1.525 0 001.648-.983l.55-1.345z" fill="#000"/><path d="M67.457 75.375h-2.219l.181 1.482a1.988 1.988 0 002.291 1.72l.81-.13-1.063-3.072z" fill="#407BFF"/><path opacity=".2" d="M67.457 75.375h-2.219l.181 1.482a1.988 1.988 0 002.291 1.72l.81-.13-1.063-3.072z" fill="#000"/><path d="M32.833 71.992l2.081 4.663 4.338 3.072a1.64 1.64 0 01.636 1.77 1.663 1.663 0 01-.868 1.063l-2.335 1.142a1.648 1.648 0 01-2.103-.563l-1.62-2.43a3.565 3.565 0 01-.527-1.308l-.21-1.2-2.89-4.727 3.498-1.482z" fill="#FFB573"/><path opacity=".1" d="M36.96 40.433l2.053.954s2.263 5.949-.723 13.864a116.098 116.098 0 00-2.942-13.532l1.612-1.286z" fill="#000"/><path d="M49.4 42.362c-3.614-1.156-5.883.297-5.883.297-1.446-4.337-.47-6.34-.225-8.22l1.251-.086a1.843 1.843 0 011.54.636c1.792 2.09 6.693 8.985 6.693 21.96 0 3.29-.058 6.506-.159 9.579-1.785-14.14-6.354-19.424-6.354-19.424a6.303 6.303 0 013.138-4.742zm5.668-8.074h1.156c2.068 1.2 4.887 3.296 5.733 6.144a2.096 2.096 0 00-2.53.528 9.217 9.217 0 013.795 3.614 117.86 117.86 0 01-1.056 17.349 458.33 458.33 0 01-.21-4.128c-.722-14.616-5.204-20.637-7.228-22.654a.5.5 0 01.34-.853z" fill="#407BFF"/><path opacity=".2" d="M49.4 42.362c-3.614-1.156-5.883.297-5.883.297-1.446-4.337-.47-6.34-.225-8.22l1.251-.086a1.843 1.843 0 011.54.636c1.792 2.09 6.693 8.985 6.693 21.96 0 3.29-.058 6.506-.159 9.579-1.785-14.14-6.354-19.424-6.354-19.424a6.303 6.303 0 013.138-4.742zm5.668-8.074h1.156c2.068 1.2 4.887 3.296 5.733 6.144a2.096 2.096 0 00-2.53.528 9.217 9.217 0 013.795 3.614 117.86 117.86 0 01-1.056 17.349 458.33 458.33 0 01-.21-4.128c-.722-14.616-5.204-20.637-7.228-22.654a.5.5 0 01.34-.853z" fill="#000"/><path d="M35.298 35.43s-2.675.13-7.439 10.611c-4.763 10.482-6.672 17.746 2.436 29.84L34.264 74s-4.077-9.635-3.867-14.507c.21-4.873 4.734-9.723 7.004-12.817 1.569-2.14 3.434-5.768-2.103-11.247z" fill="#407BFF"/><path opacity=".4" d="M52.603 101.629c-1.576 23.782-.08 34.581 1.019 39.034-1.713-.072-3.57-.188-5.588-.347.528-13.785 3.275-32.066 4.337-38.687h.232z" fill="#000"/><path d="M55.248 22.78c.243 0 .485-.022.723-.065a.122.122 0 00.101-.096.122.122 0 000-.049.137.137 0 00-.144-.1 3.47 3.47 0 01-3-.84.131.131 0 00-.184-.01.132.132 0 00-.037.14.13.13 0 00.026.044 3.615 3.615 0 002.516.976z" fill="#263238"/></svg>