<svg width="93" height="210" fill="none" xmlns="http://www.w3.org/2000/svg"><path d="M40.125 188.777l-1.974 14.494-4.718.238-1.528-13.972 8.22-.76z" fill="#263238"/><path d="M29.416 209.999h10.553s.23-.443-.033-1.625a7.37 7.37 0 00-.16-.607l-.01-.033a55.175 55.175 0 01-.332-1.163c-.484-1.768-1.052-4.079-1.052-4.079s-1.756-3.764-3.81-2.824c-1.803.824-1.375 3.183-1.375 3.183s-.177 1.385-1.543 2.606c-.845.755-1.685 1.339-2.09 2.277a2.925 2.925 0 00-.19.64c-.085.452-.08.983.042 1.625z" fill="#263238"/><path opacity=".3" d="M39.936 208.374c.263 1.181.033 1.625.033 1.625H29.416c-.122-.642-.127-1.173-.043-1.625h10.563z" fill="#fff"/><path d="M33.622 203.443c.593-.463 1.372-.403 1.906.118.144.14.364-.08.22-.221-.666-.65-1.618-.686-2.346-.118-.159.123.063.342.22.22v.001zm-.299.988c.594-.464 1.373-.403 1.907.118.143.141.364-.08.22-.22-.666-.651-1.618-.687-2.347-.119-.158.123.064.342.22.221zm-.299.906c.594-.463 1.373-.403 1.907.118.143.141.364-.08.22-.22-.667-.651-1.618-.687-2.347-.119-.158.124.064.343.22.221z" fill="#407BFF"/><path d="M59.934 187.87l1.973 14.493 4.718.239 1.528-13.972-8.22-.76z" fill="#263238"/><path d="M70.643 209.092H60.089s-.23-.444.033-1.626a7.37 7.37 0 01.16-.607c.005-.011.007-.022.01-.033.099-.326.212-.729.333-1.163.483-1.768 1.052-4.08 1.052-4.08s1.755-3.763 3.81-2.823c1.803.824 1.375 3.183 1.375 3.183s.176 1.385 1.543 2.606c.845.755 1.685 1.338 2.09 2.277a2.918 2.918 0 01.19.64c.084.453.08.983-.042 1.626z" fill="#263238"/><path opacity=".3" d="M60.12 207.468c-.262 1.181-.032 1.625-.032 1.625h10.554c.121-.643.126-1.173.043-1.625H60.12z" fill="#fff"/><path d="M66.436 202.537c-.593-.464-1.372-.403-1.906.118-.144.14-.364-.08-.22-.221.666-.65 1.617-.687 2.346-.118.158.123-.063.342-.22.221zm.298.986c-.593-.463-1.372-.403-1.906.118-.144.14-.364-.08-.22-.22.666-.651 1.618-.687 2.346-.119.159.123-.063.342-.22.22v.001zm.299.908c-.593-.464-1.372-.403-1.906.118-.143.141-.364-.08-.22-.22.666-.651 1.618-.687 2.346-.119.158.124-.063.342-.22.221z" fill="#407BFF"/><path d="M28.698 126.078l-.001.001s.46 57.09 1.818 72.763l11.002.547c.415-11.416 3.345-51.661 3.345-51.661.585-5.006 1.225-23.614 2-31.324 1.6 9.245 3.611 28.585 4.15 31.161.896 4.282 6.759 53.323 6.759 53.323l11.803-1.205s-2.1-47.282-2.35-55.236c-1.147-36.475-2.06-51.825-2.06-51.825l-13.426 2.321-21.949-1.31s-1.852 20.488-1.09 32.445z" fill="#263238"/><path opacity=".3" d="M28.698 126.078l-.001.001s.46 57.09 1.818 72.763l11.002.547c.415-11.416 3.345-51.661 3.345-51.661.585-5.006 1.225-23.614 2-31.324 1.6 9.245 3.611 28.585 4.15 31.161.896 4.282 6.759 53.323 6.759 53.323l11.803-1.205s-2.1-47.282-2.35-55.236c-1.147-36.475-2.06-51.825-2.06-51.825l-13.426 2.321-21.949-1.31s-1.852 20.488-1.09 32.445z" fill="#fff"/><path opacity=".3" d="M52.734 159.93s5.447.518 10.571-.637c5.125-1.154 4.46-1.241 4.46-1.241l-.109-2.572-15.369 1.697.447 2.753zm-23.611-1.878s9.298 2.677 14.886 1.638l.152-2.15-15.077-1.672.039 2.184z" fill="#000"/><path d="M12.796 8.532s1.564-4.199 1.046-5.014c-.518-.816-1.272-1.159-1.272-1.159S12.413.337 11.364.037c-.89-.255-1.078.882-1.078.882S8.6.066 8.326 1.3c0 0-1.33-.547-1.803.85 0 0-1.247.344-1.268 1.396-.022 1.052.923 5.031 2.105 6.742.358.519.691.694 1.343.709 0 0 .108 9.106-.143 9.292l5.71-4.236-1.474-7.52z" fill="#FFBDA7"/><path d="M12.415 2.407c-.69-.179-1.4-.263-2.09-.442-.254-.066-.83-.296-1.073-.196-.399.163-.505.418-.407.838.182.778 1.396 1.483 2.194 1.5-.424.452-.964 1.319-1.114 1.92-.15.601-.047 1.29.376 1.742" fill="#FFBDA7"/><path d="M10.3 7.904a.134.134 0 01-.098-.043c-.426-.454-.583-1.17-.409-1.867.138-.553.579-1.294.973-1.779-.835-.144-1.878-.834-2.052-1.578-.116-.494.039-.81.486-.994.217-.088.563.006.959.131l.2.06c.341.088.696.154 1.037.219.346.065.704.132 1.053.223a.136.136 0 01-.068.262c-.34-.088-.693-.154-1.034-.218-.347-.066-.705-.133-1.056-.223a5.343 5.343 0 01-.213-.064c-.237-.074-.632-.198-.776-.139-.326.135-.412.313-.326.682.164.7 1.302 1.38 2.065 1.397a.135.135 0 01.122.083c.02.049.01.106-.026.145-.406.433-.938 1.282-1.082 1.859-.152.609-.02 1.228.344 1.617a.135.135 0 01-.099.228z" fill="#F19B7D"/><path d="M5.664 4.554c.045.23.092.463.206.666.114.204.308.377.54.405.369.044.684-.288.817-.637a1.772 1.772 0 00-.115-1.49c.12.377.321.738.635.978.313.24.75.339 1.114.187.364-.151.025-1.439-.095-1.815" fill="#FFBDA7"/><path d="M6.476 5.765a.705.705 0 01-.083-.005c-.253-.03-.493-.207-.641-.473-.126-.225-.177-.481-.221-.706a.135.135 0 11.265-.052c.043.215.087.438.192.626.106.19.27.316.437.337.293.029.56-.251.676-.551.12-.316.135-.666.05-.991a2.59 2.59 0 01-.168-.41.136.136 0 01.074-.165.136.136 0 01.172.057c.076.132.134.272.175.418.115.215.258.392.424.519.297.227.682.294.98.17.16-.067.077-.868-.17-1.65a.136.136 0 01.257-.081c.094.293.532 1.768.018 1.981-.386.162-.876.08-1.249-.205a1.651 1.651 0 01-.19-.17 1.859 1.859 0 01-.121.623c-.138.361-.466.728-.877.728z" fill="#F19B7D"/><path d="M14.143 11.042c-.32.616 3.303 21.176 3.303 21.176l11.428 9.798 4.893.058c2.557 1.4-4.437 21.557-5.252 21.557-.816 0-20.957-20.003-24.054-24.22C2.005 36.067 0 14.52 0 14.52l14.143-3.477z" fill="#263238"/><path opacity=".3" d="M28.03 63.315l.21-3.384-1.11-10.422-2.321 10.894 3.22 2.912z" fill="#000"/><path d="M35.984 8.953l.292-.811 18.46-1.925L69.303 20.1l-.293.81L35.984 8.953z" fill="#407BFF"/><path d="M35.984 8.953S50.94 21.362 51.073 21.278c.131-.083 17.937-.367 17.937-.367L54.522 6.968 35.984 8.953z" fill="#407BFF"/><path opacity=".4" d="M35.984 8.953S50.94 21.362 51.073 21.278c.131-.083 17.937-.367 17.937-.367L54.522 6.968 35.984 8.953z" fill="#000"/><path d="M38.892 14.97l-.387-.123c.196-.618.385-1.37.585-2.167.588-2.346 1.255-5.005 2.488-5.636a.651.651 0 01.587-.003.695.695 0 01.378.488l-.398.08a.29.29 0 00-.156-.203.25.25 0 00-.226 0c-1.07.547-1.74 3.223-2.28 5.373-.2.802-.39 1.56-.59 2.19v.001z" fill="#263238"/><path d="M39.079 15.43a.493.493 0 11-.876-.454.493.493 0 01.876.453z" fill="#263238"/><path d="M38.528 15.237c-.576.264-.885.89-1.108 1.484-.224.593-.428 1.234-.914 1.642-.14.12-.309.22-.39.386-.083.166-.019.42.165.444a3.27 3.27 0 00.887-.958 8.332 8.332 0 01-.67 1.646c.232.164.805.369 1.08.445.273.076.258.009.464-.188.114-.11.182-.258.243-.404a8.142 8.142 0 00.49-4.548" fill="#263238"/><path opacity=".3" d="M62.644 21.075l-1.613-3.289-1.206 3.325 2.819-.036z" fill="#000"/><path d="M51.78 43.998s-3.58 2.308-4.447 2.405c-1.166.13-6.141-4.63-6.141-4.63 3.024-.97 3.103-5.242 3.068-7.36l9.993-4.72s0 .007-.008.028c-.324.715-4.154 5.742-3.722 9.598l1.257 4.68v-.001z" fill="#FFBDA7"/><path d="M48.797 37.352c-1.235 1.086-3.255 1.522-4.968 1.332.044-.15.097-.378.135-.527.06-.234.11-.62.157-.87.055-.305.067-.62.093-.94.002-.128.02-.107.023-.235l.003-.264 5.408-1.072c.38.363.145 1.692-.851 2.575z" fill="#000" opacity=".2"/><path d="M56.957 25.498c1.976-5.397-2.172-11.159-8.112-10.585-6.029.582-9.21 8.52-9.504 13.812-.325 5.88 5.704 10.422 11.142 7.424 3.616-1.994 4.498-5.254 6.474-10.65z" fill="#FFBDA7"/><path d="M49.158 25.33c-.127.573-.534.966-.908.879-.374-.088-.574-.623-.445-1.197.127-.573.534-.966.908-.879.374.088.574.623.445 1.196zm-5.702-.757c-.128.573-.534.966-.908.879-.374-.088-.574-.623-.446-1.196.128-.573.534-.967.908-.88.374.088.574.623.446 1.197z" fill="#263238"/><path d="M44.95 24.063s-2.448 2.441-3.288 3.471c.636.899 2.083.874 2.083.874l1.205-4.346z" fill="#F19B7D"/><path d="M50.645 22.96a.276.276 0 01-.26-.097c-.763-.929-1.7-.865-1.798-.857a.278.278 0 01-.305-.244.272.272 0 01.242-.301c.053-.006 1.316-.123 2.284 1.057a.273.273 0 01-.163.443zm-8.958-1.247a.276.276 0 01-.031-.485c1.284-.803 2.427-.266 2.481-.249.137.065.197.23.133.368a.27.27 0 01-.36.133c-.047-.024-.933-.427-1.964.218a.27.27 0 01-.258.015z" fill="#263238"/><path d="M47.745 30.174c.412-1.48-3.966.362-3.966.362s.222 1.741 1.812 1.81c1.923.084 2.154-2.172 2.154-2.172z" fill="#fff"/><path d="M54.105 28.106s2.77-9.37.08-10.83c-2.69-1.46-4.162 1.003-6.04.342-1.878-.661-1.31-2.02-1.31-2.02-1.382.344-2.978 2.263-4.402 3.669 0 0 2.35-4.032 4.911-4.772 4.985-1.44 10.13.435 11.672 3.642 1.514 3.15-.346 7.945-.346 7.945-1.69 3.578-2.776 5.533-5.13 7.327l.565-5.303z" fill="#263238"/><path d="M57.973 29.747c-.797 1.39-2.163 2.277-3.442 2.591-1.922.474-2.145-1.565-1.573-3.357.516-1.613 1.443-3.511 3.355-3.188 1.883.32 2.571 2.364 1.66 3.954z" fill="#FFBDA7"/><path opacity=".2" d="M53.97 29.128a.135.135 0 01-.128-.18c.177-.51.485-.968.892-1.323.274-.24.711-.528 1.238-.539.518-.005.993.28 1.16.71a.135.135 0 11-.251.098c-.123-.314-.492-.538-.882-.538h-.021c-.445.01-.825.262-1.067.473a2.826 2.826 0 00-.813 1.206.135.135 0 01-.127.091v.002z" fill="#000"/><path d="M56.094 19.718c.071-1.214-.238-2.505-1.096-3.366-.405-.408-.91-.7-1.425-.955-1.368-.678-.243-.782-1.704-1.228l-1.452-.192c-1.164.003-3.436.328-4.553.653-1.773.516-3.717 2.814-3.945 2.963-.261.172-1.127.03-1.434.087-.983.18.19 1.579 1.56 1.713 1.534.15 2.168-.483 3.176-1.192-.777.913-2.097 1.138-1.37 1.517 1.847.35 4.106 1.034 6.351-.194-.123.308-.25.627-.239.958.01.332.194.682.51.78.256.079.532-.02.767-.15.825-.454 1.381-1.267 1.906-2.05.58 1.444.511 5.971 1.306 7.309 2.994-1.844 1.572-5.44 1.643-6.654z" fill="#263238"/><path d="M41.918 17.593c-.121.15 1.54-5.254 1.54-5.254s.422-3.601 8.982-1.579c0 0 9.647 2.864 8.497 7.81l-1.402 4.68s-11.537-13.105-17.617-5.657z" fill="#407BFF"/><path opacity=".2" d="M41.918 17.593c-.121.15 1.54-5.254 1.54-5.254s.422-3.601 8.982-1.579c0 0 9.647 2.864 8.497 7.81l-1.402 4.68s-11.537-13.105-17.617-5.657z" fill="#000"/><path d="M60.003 21.689s-5.291-7.215-12.937-7.601c0 0-3.977-.215-4.824 2.281l-.324 1.226s1.519-3.02 6.278-2.061c4.76.96 11.34 7.716 11.34 7.716l.467-1.561zM39.3 42.715l1.423-.356 2.422-3.24 3.84 2.777 3.511-2.081 1.58 2.259 3.28.277-8.302 15.884-7.754-15.52z" fill="#407BFF"/><path opacity=".8" d="M39.3 42.715l1.423-.356 2.422-3.24 3.84 2.777 3.511-2.081 1.58 2.259 3.28.277-8.302 15.884-7.754-15.52z" fill="#fff"/><path opacity=".2" d="M40.723 42.36l3.766 3.271 2.496-3.513 2.34 3.043 2.75-3.087s-2.695 3.814-2.777 3.783c-.083-.032-2.313-3.323-2.313-3.323l-2.523 3.845-3.739-4.02z" fill="#000"/><path d="M45.094 44.779l1.006 1.809h1.898l.924-1.951-1.448-1.884-.958.036-1.422 1.99zm1.006 1.809l-1.006 4.988 2.778 4.274 1.756-4.268-1.63-4.994H46.1z" fill="#407BFF"/><path d="M33.123 42.074l6.367.308 8.383 13.468 5.694-13.841 13.062 2.871-1.904 27.92 9.166 80.443s-12.744 5.72-25.37 4.684c-12.626-1.036-26.2-2.944-26.2-2.944L28.24 59.93l4.882-17.857z" fill="#263238"/><path d="M26.818 46.588c.406 3.322 1.15 10.007 1.513 13.333l-.092-.081c8.23-.043 25.838-.449 33.648-.252.378-3.46 1.207-10.427 1.627-13.883-.35 3.47-1.062 10.44-1.448 13.903-8.267.354-25.416.295-33.825.414h-.083l-.009-.082c-.345-3.324-1.026-10.023-1.331-13.352zM38.23 60.116a10.94 10.94 0 010 3.474 10.94 10.94 0 010-3.474zm2.72-.123a1270.23 1270.23 0 011.354 36.762 1269.886 1269.886 0 01-1.354-36.762z" fill="#000"/><path d="M50.862 59.526c.177 8.815.178 18.512 0 27.326a699.601 699.601 0 010-27.326zm2.718-.123c.512 5.548.883 11.665 1.04 17.234a279.44 279.44 0 01-1.04-17.234z" fill="#000"/><path d="M45.954 153.64c-2.447-6.067-3.646-21.247-3.65-28.018 1.497 6.964 5.803 22.203 10.407 27.719-2.183.65-4.526.753-6.757.299z" fill="#000" opacity=".3"/><path d="M83.857 60.085s-.174-4.465.572-5.076c.745-.61 1.565-.7 1.565-.7s.78-1.865 1.866-1.823c.922.036.746 1.172.746 1.172s1.864-.28 1.738.972c0 0 1.429-.103 1.443 1.367 0 0 1.074.715.766 1.718-.308 1.002-2.442 4.477-4.095 5.729-.5.379-.871.44-1.493.252 0 0-2.429 7.397-4 7.397l-1.644-8.007 2.536-3.002z" fill="#FFBDA7"/><path d="M87.065 50.663a5.709 5.709 0 003.012-1.993c.26-.335.494-.758.38-1.167-.089-.321-.372-.549-.66-.718a4.17 4.17 0 00-1.422-.521c-.421-.07-.896-.062-1.222.215-.345.294-.415.792-.462 1.244l-.201 1.948c-.016.154-.031.313.02.459.05.145.188.273.342.26.255-.022.33-.356.346-.612.038-.586.142-1.188.47-1.675.329-.486.929-.827 1.501-.699.157.035.33.139.33.3 0 .108-.08.197-.155.275l-2.485 2.57" fill="#407BFF"/><path d="M83.787 38.95l7.656 23.412-2.471.841-7.52-23.587s.632-.818 2.335-.667z" fill="#407BFF"/><path opacity=".8" d="M83.787 38.95l7.656 23.412-2.471.841-7.52-23.587s.632-.818 2.335-.667z" fill="#fff"/><path d="M87.619 50.667s-.641 1.694-2.274 1.159l-.61-1.912s2.047-.103 2.222-1.27l.661 2.023z" fill="#407BFF"/><path d="M85.565 50.608a5.71 5.71 0 00-3.468-1.002c-.424.018-.896.114-1.134.467-.186.276-.176.64-.118.968.087.501.267.985.527 1.422.22.367.534.723.955.791.448.073.873-.197 1.247-.455l1.612-1.11c.127-.087.258-.179.336-.312.078-.133.085-.32-.024-.43-.183-.18-.484-.02-.69.133-.47.35-.995.663-1.578.728-.583.066-1.231-.171-1.504-.69-.076-.143-.11-.342.013-.446.082-.07.203-.067.31-.06 1.188.075 2.377.15 3.565.227" fill="#407BFF"/><path d="M86.125 54.402c.71.046 1.408.189 2.117.235.262.017.88-.021 1.078.149.326.28.348.553.124.92-.415.68-1.785.97-2.545.737.26.56.503 1.55.457 2.166-.045.616-.357 1.237-.899 1.532" fill="#FFBDA7"/><path d="M86.457 60.277a.136.136 0 01-.12-.07.136.136 0 01.055-.184c.466-.254.784-.8.83-1.424.043-.59-.196-1.561-.446-2.098a.135.135 0 01.163-.187c.726.223 2.017-.066 2.39-.678.197-.322.171-.517-.097-.747-.118-.1-.53-.106-.777-.11a4.792 4.792 0 01-.222-.006c-.359-.023-.72-.072-1.067-.118a15.82 15.82 0 00-1.05-.116.134.134 0 01-.125-.144c.005-.074.057-.13.144-.126.359.023.72.071 1.067.118.344.045.7.093 1.05.116.055.004.126.004.208.006.414.006.77.022.949.175.367.315.415.663.15 1.094-.395.65-1.593.979-2.434.855.222.58.408 1.42.367 1.987-.052.715-.424 1.343-.97 1.642a.132.132 0 01-.065.016v-.001z" fill="#F19B7D"/><path d="M91.85 58.545c-.113.203-.23.41-.402.567-.172.157-.41.26-.637.214-.364-.073-.559-.487-.577-.858a1.767 1.767 0 01.573-1.375c-.23.32-.534.599-.905.728-.372.13-.816.087-1.114-.17-.298-.257.425-1.371.655-1.69" fill="#FFBDA7"/><path d="M90.921 59.473a.686.686 0 01-.137-.014c-.442-.09-.665-.573-.685-.984-.01-.213.018-.426.08-.629a1.542 1.542 0 01-.233.103c-.44.154-.931.078-1.246-.196-.41-.353.381-1.522.633-1.872a.136.136 0 01.22.159c-.478.662-.807 1.395-.677 1.508.245.211.63.267.98.145.198-.069.389-.19.565-.36.084-.124.183-.239.296-.34a.136.136 0 01.2.18 2.71 2.71 0 01-.287.335 1.614 1.614 0 00-.26.954c.014.32.18.673.467.732.164.035.36-.034.52-.181.157-.146.268-.343.375-.534a.136.136 0 01.236.133c-.112.2-.239.426-.429.6a.932.932 0 01-.618.261z" fill="#F19B7D"/><path d="M66.383 44.797s.978.021 1.878.847c.9.825 10.047 20.565 10.047 20.565l4.315-5.374L90.98 80.77s-6.073 6.83-12.821 7.43c-6.748.6-13.641-15.88-13.641-15.88l-2.54-12.72 4.407-14.803z" fill="#263238"/><path d="M78.26 66.267c-1.229 3.892-1.723 8.043-1.292 12.108-.802-4.018-.287-8.338 1.291-12.108z" fill="#000"/><path opacity=".3" d="M63.087 59.932c.092.449 1.638 12.868 1.638 12.868s-.183-12.511-.818-16.373l-.82 3.504v.001z" fill="#000"/><path d="M32.449 42.074s-3.663 62.537 1.878 79.326c0 0 .307-3.465 7.325-5.27 3.097-.796 5.21.274 5.21.274s-7.8-22.217-8.63-35.641c-.693-11.207.354-38.689.354-38.689s-2.393-1.619-6.137 0z" fill="#407BFF"/><path opacity=".3" d="M45.944 113.682c.012.039-2.33-1.093-6.68.343-4.346 1.436-5.778 4.157-5.78 4.16.253 1.201.533 2.28.842 3.215 0 0 .308-3.464 7.325-5.269 3.097-.797 5.21.273 5.21.273s-.353-1.007-.916-2.718l-.001-.003v-.001z" fill="#fff"/><path d="M33.176 80.894a62.324 62.324 0 006.259 30.075c-5.114-11.218-4.03-20.632-6.26-30.075z" fill="#000" opacity=".3"/><path d="M55.343 42.139s-3.256 62.816 4.063 73.454c0 0-.235-2.341 5.765-1.667 6.215.698 5.404-.954 6.022-2.18.731-1.451-8.268-25.314-9.343-37.706-1.1-12.682-.796-30.515-.796-30.515s-.741-1.811-5.711-1.386z" fill="#407BFF"/><path opacity=".3" d="M71.194 111.746c.116-.231-.014-1.028-.318-2.255-3.917 3.007-2.71.51-9.78 1.198-1.502.147-2.613.426-3.437.779.502 1.751 1.081 3.156 1.748 4.126 0 0-.235-2.341 5.765-1.668 6.214.698 5.404-.953 6.022-2.18z" fill="#fff"/><path opacity=".3" d="M59.166 80.234l6.31 12.429s-5.757-13.907-6.883-20.045c-1.127-6.139-2.003-9.385-2.003-9.385l.935 11.22a15.64 15.64 0 001.64 5.781z" fill="#000"/><path d="M67.98 16.758a.203.203 0 01-.141-.057l-6.655-6.364a.203.203 0 11.28-.294l6.655 6.365a.203.203 0 01-.14.35zm-7.394-7.074a.204.204 0 01-.14-.056l-.899-.863a.204.204 0 01-.005-.287.202.202 0 01.286-.006l.898.863a.204.204 0 01-.14.349z" fill="#407BFF"/><path opacity=".3" d="M53.947 120.935s11.932 22.077 12.605 22.794c.672.717 4.684 4.478 4.684 4.478s-13.427-23.711-17.29-27.272z" fill="#000"/></svg>