<svg width="158" height="210" fill="none" xmlns="http://www.w3.org/2000/svg"><path d="M64.119 105.829s5.377-35.576 6.538-44.233c1.16-8.657 0-13.08-3.27-15.916-3.268-2.837-18.493-6.605-28.683-6.957-7.968-.278-12.103 1.284-18.886 19.203l11.261 4.896s-9.006 29.544-7.919 41.013l40.959 1.994z" fill="#407BFF"/><path opacity=".3" d="M33.171 63.746l1.839.744 2.852-7.365-3.024 10.398-2.517-1.111.85-2.666z" fill="#000"/><path d="M67.396 45.656s6.39 2.78 8.867 9.066c1.217 3.09 3.693 8.633 6.112 14.069l-18.853 2.812 3.874-25.939v-.008z" fill="#407BFF"/><path d="M80.798 69.06s7.6 13.35 5.344 19.212H72.471l-.54-5.878 2.436-1.423-4.977-10.496 11.4-1.422.008.008z" fill="#FFBDA7"/><path opacity=".3" d="M74.367 80.98s3.98-1.006 6.897.326c0 0-2.427-3.417-7.322-1.218l.425.891zm-2.321-20.674s.793 4.259-.147 7.12c-.94 2.861-2.51 3.057-2.51 3.057l2.649-10.177h.008z" fill="#000"/><path d="M31.332 15.344c.997-.441 2.1-.613 3.08-1.08 2.11-1.013 3.343-3.236 4.218-5.403.874-2.174 1.577-4.496 3.138-6.237A8.002 8.002 0 0147.676 0a7.983 7.983 0 015.884 2.673L48.6 20.551a11.155 11.155 0 01-5.181 4.619c-.907.392-1.937.662-2.869.351-.94-.31-1.667-1.381-1.3-2.297-.776 1.21-2.516 1.676-3.791 1.022-1.275-.662-1.904-2.354-1.373-3.687-1.03-.024-2.092-.049-3.032-.474-.94-.417-1.74-1.332-1.7-2.362.05-1.087.99-1.946 1.986-2.387l-.008.008zm38.965-8.118c4.127 4.038 2.582 8.453 1.904 11.723-1.422 4.324-1.986 7.414-3.988 11.493L61.34 2.297c2.64 1.063 4.47.858 8.965 4.93h-.008z" fill="#263238"/><path d="M64.356 3.695c-4.2-3.008-9.186-1.332-12.152-.065a13.464 13.464 0 00-6.505 8.91c-.662 3.532-1.471 7.815.327 10.055a5.826 5.826 0 004.118 2.24L70.64 12a20.768 20.768 0 00-6.284-8.297v-.008z" fill="#263238"/><path d="M55.35 48.467c-2.82-.196-2.566-.286-4.225-1.357-8.05-5.142-4.51-7.782-4.51-7.782 2.467-1.995 1.887-4.66 1.96-9.123.009-.13-.26-2.379-.228-2.51.114-.58.743 2.011 1.177 1.61a2.904 2.904 0 014.11 0l4.52 2.265v.213c-.434 2.37-.842 4.194-1.104 5.649 0 .18-.065.36-.09.53 0 .18-.049.369-.081.54-.262 2.003 2.206 3.9 2.157 6.655.735.63-.89 3.319-3.702 3.319l.016-.009z" fill="#FFBDA7"/><path opacity=".2" d="M58.154 31.546a1.005 1.005 0 000 .22c-.433 2.371-.842 4.194-1.104 5.65-.04.171-.073.351-.09.53a4.355 4.355 0 00-.032.565c-2.395-1.16-4.462-2.616-6.13-4.52-1.258-1.431-2.001-3.246-2.181-5.15.114-.573.531.89.94.473a2.922 2.922 0 014.118-.049l4.479 2.29v-.009z" fill="#000"/><path d="M48.38 14.19c-1.349 8.2-2.1 11.633.94 16.792 4.592 7.758 14.701 7.823 18.46.229 3.326-6.843 5.01-19.08-1.977-24.271-6.996-5.191-16.067-.965-17.423 7.25z" fill="#FFBDA7"/><path d="M43.19 20.379c.499 1.92 1.757 3.384 3.073 4.136 1.986 1.128 4.037-2.003 3.906-4.34-.122-2.11-1.871-3.965-4.061-4.12-2.158-.156-3.481 2.133-2.918 4.324z" fill="#FFBDA7"/><path opacity=".2" d="M47.816 21.4a.21.21 0 00.204-.163 3.28 3.28 0 00-.466-2.436 3.283 3.283 0 00-2.044-1.398.207.207 0 00-.245.155.209.209 0 00.155.246 2.874 2.874 0 011.79 1.218c.41.621.557 1.398.41 2.125a.206.206 0 00.155.245h.04v.009z" fill="#000"/><path d="M58.095 19.578c-.196.867.074 1.692.597 1.848.531.155 1.112-.417 1.308-1.276.196-.866-.074-1.692-.597-1.847-.531-.155-1.111.417-1.308 1.275zm7.96 2.175c-.188.842.082 1.643.613 1.806.523.156 1.104-.392 1.292-1.234.188-.842-.082-1.643-.613-1.806-.523-.156-1.104.392-1.292 1.234zm-8.817-5.616a.35.35 0 00.31-.017c1.561-.809 2.844-.016 2.86 0a.382.382 0 00.54-.139.454.454 0 00-.155-.58c-.066-.04-1.684-1.038-3.62-.033-.197.098-.27.352-.164.564.05.098.13.172.229.213v-.008zm12.61 2.313c.09 0 .171-.05.237-.123.122-.163.098-.417-.057-.572-1.553-1.545-3.139-1.136-3.212-1.12-.188.05-.294.27-.229.49.066.221.262.352.458.303.065-.016 1.3-.31 2.533.915.082.082.18.115.27.115v-.008z" fill="#263238"/><path d="M63.996 20.764s.425 3.368 1.324 5.648c.155.401-.13.834-.556.875-1.095.09-2.174-.564-2.174-.564l1.397-5.951.009-.008z" fill="#F0997A"/><path d="M59.093 18.246l1.97.074s-1.398 1.103-1.97-.074zm8.057 2.239l1.97.074s-1.398 1.104-1.97-.074z" fill="#263238"/><path d="M50.57 16.587s5.663-4.455 6.668-8.984c0 0 17.742 1.013 13.5 15.131 0 0 5.59-13.366-7.665-17.96C49.818.18 43.664 17.461 48.673 24.827c.033-.057-1.618-5.445 1.896-8.24z" fill="#263238"/><path d="M46.442 15.81c1.259-5.46 4.283-9.245 8.442-10.202 5.63-1.291 12.275.197 12.275.197.065 1.634 3.252 6.597 3.342 8.256-1.528-.352-6.015-3.703-7.388-4.43l.924 1.21s-2.444-.426-3.629-1.987c-2.68 6.678-11.653 6.948-13.966 6.948v.008z" fill="#263238"/><path d="M56.217 2.379s-3.988.335-6.22 2.967c0-.024 2.15-3.605 6.22-2.967z" fill="#407BFF"/><path d="M59.632 29.044c.09 0 .172-.04.237-.106a.31.31 0 00-.04-.433l-.327-.27c-.842-.695-1.717-1.414-2.207-2.387a.3.3 0 00-.409-.13.3.3 0 00-.13.408c.555 1.079 1.52 1.872 2.361 2.575l.32.27c.056.049.13.073.195.073zm-.637 13.113s4.675 7.61-3.76 7.357c-8.433-.253-10.958-8.28-11.334-10.504l2.631-.907s1.52 6.54 7.225 7.84c5.704 1.299 4.364-4.554 4.364-4.554l.874.768z" fill="#263238"/><path d="M22.163 58.907s-4.732 13.562-5.246 17.306c-.205 1.455-1.684 5.1 2.844 8.313 3.971 2.812 32.557 3.744 32.557 3.744l.834-7.316-23.495-6.164 3.514-11.052-11-4.84-.008.009z" fill="#FFBDA7"/><path d="M51.632 80.668s4.315-3.392 4.495-3.45c.18-.056 5.426-.31 6.162.311.735.622 1.234 3.45 1.234 3.45s1.97.736 2.345 1.725c.376.99-.368 1.847-.368 1.847s.433 1.047-.245 1.913l-.678.867s.678.801.065 1.414c-.613.613-14.44-.466-14.44-.466l1.447-7.61h-.017z" fill="#FFBDA7"/><path opacity=".3" d="M63.523 80.979l-6.007-1.006s2.705-.416 4.143 0c1.439.417 1.864 1.006 1.864 1.006z" fill="#000"/><path d="M56.486 72.134l3.155 8.248c.645-.13 1.405.31 1.814.253l-3.481-9.123a.82.82 0 00-1.07-.441.821.821 0 00-.442 1.07h.024v-.007z" fill="#263238"/><path opacity=".3" d="M29.657 74.807s-5.148.237-5.9 3.245c0 0 .016-4.815 6.284-4.447l-.384 1.21v-.008z" fill="#000"/><path d="M71.931 82.401s-9.692-.703-11.972 1.161c-2.28 1.864-4.38 5.036-4.38 5.036l17.374-.319-1.022-5.877z" fill="#FFBDA7"/><path opacity=".3" d="M66.48 82.287s.655 2.706-.506 4.627c-.376.621.441 1.242.172 1.488l-2.616.049 2.084-6.164h.867z" fill="#000"/><path d="M107.333 197.91l-1.095-6.426-13.026.94 3.563 9.328 7.731.261 2.827-4.103z" fill="#FFBDA7"/><path d="M108.649 196.831h-3.424c-.776 0-1.487.392-1.945 1.014-1.978 2.697-3.457 1.676-5.606-.859-1.365-.155-1.733 1.406-1.847 1.832l-2.558 9.311a1.474 1.474 0 001.43 1.871h27.123c4.315 0 5.206-4.348 3.433-4.749-7.993-1.766-13.648-4.12-16.124-6.442-.457-.408.016-.711-.482-1.97v-.008z" fill="#407BFF"/><path d="M107.971 201.957a.2.2 0 00.171-.098 3.946 3.946 0 012.763-1.782.201.201 0 00.171-.229c-.016-.114-.114-.18-.229-.172a4.362 4.362 0 00-3.056 1.971c-.057.098-.033.22.065.278a.185.185 0 00.107.032h.008zm2.272 1.193c.065 0 .13-.033.171-.098a3.946 3.946 0 012.762-1.782.203.203 0 00-.057-.401 4.362 4.362 0 00-3.056 1.971c-.057.098-.033.22.065.277a.178.178 0 00.106.033h.009zm2.648 1.349c.065 0 .13-.033.171-.098a3.943 3.943 0 012.762-1.782.202.202 0 10-.057-.401 4.36 4.36 0 00-3.056 1.97c-.057.098-.033.221.065.278a.179.179 0 00.107.033h.008z" fill="#fff"/><path d="M103.917 177.979l2.82-5.877-11.18-6.769-2.476 9.679 6.154 4.676 4.682-1.709z" fill="#FFBDA7"/><path d="M105.609 177.857l-2.795-1.978c-.629-.45-1.447-.54-2.182-.295-3.17 1.063-3.792-.629-4.078-3.94-1.021-.915-2.23.147-2.558.425l-7.47 6.123a1.468 1.468 0 00-.228 2.06c.09.115.196.213.31.294 3.392 2.404 5.002 3.54 9.219 6.532l12.912 9.147c3.522 2.494 6.766-.539 5.549-1.896-5.5-6.066-8.761-11.257-9.431-14.576-.139-.596.425-.572.744-1.888l.008-.008z" fill="#407BFF"/><path d="M105.674 181.838a.204.204 0 00.18-.106.208.208 0 00-.09-.278 4.33 4.33 0 00-3.628-.156.208.208 0 00-.115.27.199.199 0 00.27.107 3.91 3.91 0 013.285.147.221.221 0 00.098.024v-.008zm1.161 2.289c.073 0 .147-.04.18-.106a.208.208 0 00-.09-.278 4.367 4.367 0 00-3.629-.163.208.208 0 00-.114.27.208.208 0 00.27.114 3.916 3.916 0 013.285.147.223.223 0 00.098.025v-.009zm1.381 2.632a.204.204 0 00.18-.106.208.208 0 00-.09-.278 4.33 4.33 0 00-3.628-.156.21.21 0 00-.115.27.198.198 0 00.27.106 3.914 3.914 0 013.285.148.224.224 0 00.098.024v-.008z" fill="#fff"/><path d="M63.825 103.124s41.31-5.64 53.789 6.098c0 0 9.668 6.132 5.949 26.789-2.435 12.753-9.651 29.2-17.39 39.623l-10.844-9.221s6.006-25.456 6.382-38.495l-15.004-.891-21.517-14.714-2.256-6.099.891-3.09z" fill="#263238"/><path opacity=".3" d="M100.117 127.828s1.095-3.891.057-8.632c-1.046-4.742-3.775-9.385-18.559-11.273-14.775-1.897 16.925 19.905 16.925 19.905h1.577z" fill="#000"/><path d="M23.217 102.674s-1.144 11.772 2.59 20.388c3.736 8.616 16.934 11.772 25.833 11.199 8.9-.572 20.381-1.308 25.26.066 0 0 6.317 35.829 17.227 61.956l13.206-1.145s-7.175-50.568-8.327-62.315c-1.153-11.747-.572-13.497-7.748-19.235-7.175-5.739-43.925-13.497-68.04-10.914z" fill="#263238"/><path opacity=".3" d="M100.117 142.272l4.275 31.849s.122-16.823-.18-21.924c-.368-6.148-4.095-9.925-4.095-9.925z" fill="#000"/><path d="M87.23 208.373a1.23 1.23 0 001.201-1.48l-14.465-68.447a1.232 1.232 0 00-1.201-.972h-49.05c-.604 0-1.119.441-1.209 1.03l-10.86 68.446a1.229 1.229 0 102.427.385l10.689-67.409h47.006l14.26 67.474c.123.58.63.973 1.202.973z" fill="#263238"/><path opacity=".5" d="M87.23 208.373a1.23 1.23 0 001.201-1.48l-14.465-68.447a1.232 1.232 0 00-1.201-.972h-49.05c-.604 0-1.119.441-1.209 1.03l-10.86 68.446a1.229 1.229 0 102.427.385l10.689-67.409h47.006l14.26 67.474c.123.58.63.973 1.202.973z" fill="#fff"/><path d="M22.49 138.7h51.436a2.575 2.575 0 000-5.15H22.49a2.574 2.574 0 000 5.15z" fill="#407BFF"/><path d="M3.784 94.14h35.222v15.433H3.784V94.14z" fill="#263238"/><path opacity=".4" d="M3.784 94.14h35.222v15.433H3.784V94.14z" fill="#fff"/><path d="M41.425 92.514h110.512v17.06H41.425v-17.06z" fill="#263238"/><path opacity=".4" d="M41.425 92.514h110.512v17.06H41.425v-17.06z" fill="#fff"/><path d="M37.33 91.205h4.095v115.942H37.33V91.205z" fill="#263238"/><path opacity=".5" d="M37.33 91.205h4.095v115.942H37.33V91.205z" fill="#fff"/><path d="M1.316 91.205H5.41v115.942H1.316V91.205z" fill="#263238"/><path opacity=".5" d="M1.316 91.205H5.41v115.942H1.316V91.205z" fill="#fff"/><path d="M149.886 91.205h4.094v115.942h-4.094V91.205z" fill="#263238"/><path opacity=".5" d="M149.886 91.205h4.094v115.942h-4.094V91.205z" fill="#fff"/><path d="M0 88.27h158v5.862H0V88.27z" fill="#263238"/><path opacity=".5" d="M0 88.27h158v5.862H0V88.27z" fill="#fff"/><path d="M50.561 86.897h45.396v1.554H50.561v-1.553z" fill="#407BFF"/><path opacity=".5" d="M50.561 86.897h45.396v1.554H50.561v-1.553z" fill="#fff"/></svg>