<svg width="74" height="210" fill="none" xmlns="http://www.w3.org/2000/svg"><path d="M2.877 203.587l6.193.608 4.574-15.677-9.417-1.025-1.35 16.094z" fill="#FFBDA7"/><path d="M9.96 201.465H7.756a1.555 1.555 0 00-1.258.65c-1.273 1.747-2.234 1.089-3.62-.551-.883-.099-1.117.912-1.187 1.181l-1.655 6.01a.946.946 0 00.65 1.167.86.86 0 00.262.077h17.519c2.785 0 3.365-2.828 2.22-3.068-5.161-1.139-8.816-2.659-10.407-4.158-.297-.304.007-.495-.318-1.308z" fill="#263238"/><path d="M14.761 203.17a.897.897 0 00.375-.707.397.397 0 00-.184-.389c-.707-.488-3.457.799-3.76.954a.123.123 0 00-.078.071.127.127 0 00.008.093.13.13 0 00.07.063 9.705 9.705 0 002.063.268 2.495 2.495 0 001.506-.353zm0-.898a.149.149 0 01.07.162.712.712 0 01-.275.531c-.629.466-2.12.261-2.955.113 1.167-.502 2.778-1.075 3.181-.806h-.02z" fill="#407BFF"/><path d="M11.283 203.276c.827-.347 2.566-1.712 2.474-2.433 0-.155-.12-.332-.502-.382-1.513-.176-2.163 2.546-2.163 2.659a.12.12 0 000 .127c.014.007.03.011.046.011a.105.105 0 00.046-.011l.099.029zm1.923-2.595c.283 0 .283.134.283.169.077.439-1.18 1.57-2.086 2.044.191-.63.742-2.221 1.704-2.221l.099.008z" fill="#407BFF"/><path d="M9.622 204.556a.145.145 0 01-.092 0 .17.17 0 01-.057-.241 2.837 2.837 0 012-1.294.188.188 0 01.129.036.186.186 0 01.07.113.183.183 0 01-.149.205 2.467 2.467 0 00-1.753 1.124.172.172 0 01-.067.046.172.172 0 01-.081.011zm1.371 1.032a.16.16 0 01-.091 0 .178.178 0 01-.057-.241 2.837 2.837 0 012-1.294.184.184 0 01.199.156.176.176 0 01-.149.198 2.51 2.51 0 00-1.753 1.124.17.17 0 01-.149.057zm1.711.877a.145.145 0 01-.092 0 .17.17 0 01-.057-.241 2.837 2.837 0 012.001-1.294.184.184 0 01.198.156.176.176 0 01-.148.198 2.495 2.495 0 00-1.754 1.124.172.172 0 01-.067.046.172.172 0 01-.081.011z" fill="#407BFF"/><path opacity=".3" d="M11.226 196.806l-.565 1.923-7.282-1.117.134-1.577 7.713.771z" fill="#000"/><path d="M38.911 203.587l6.193.608 4.574-15.677-9.416-1.025-1.35 16.094z" fill="#FFBDA7"/><path d="M45.995 201.465h-2.206a1.554 1.554 0 00-1.259.65c-1.272 1.747-2.234 1.089-3.62-.551-.883-.099-1.116.912-1.187 1.181l-1.654 6.01a.946.946 0 00.65 1.167c.09.042.185.068.283.077h17.511c2.786 0 3.366-2.828 2.22-3.068-5.16-1.139-8.816-2.659-10.406-4.158-.311-.304-.007-.495-.332-1.308z" fill="#263238"/><path d="M50.795 203.17a.898.898 0 00.374-.707.398.398 0 00-.183-.389c-.707-.488-3.45.799-3.761.954a.137.137 0 00-.047.027.122.122 0 00-.031.044.127.127 0 00.078.156 9.771 9.771 0 002.071.268 2.473 2.473 0 001.499-.353zm0-.898a.15.15 0 01.062.069.15.15 0 01.008.093.712.712 0 01-.275.531c-.63.466-2.121.261-2.955.113 1.166-.502 2.8-1.075 3.181-.806h-.021z" fill="#407BFF"/><path d="M47.317 203.276c.827-.347 2.566-1.712 2.474-2.433 0-.155-.12-.332-.495-.382-1.52-.176-2.17 2.546-2.17 2.659a.12.12 0 00.035.127c.015.007.03.011.046.011a.105.105 0 00.046-.011l.064.029zm1.923-2.595c.282 0 .282.134.282.169.078.439-1.18 1.57-2.085 2.044.19-.63.707-2.221 1.704-2.221l.099.008z" fill="#407BFF"/><path d="M45.655 204.556a.145.145 0 01-.092 0 .17.17 0 01-.056-.241 2.837 2.837 0 012-1.294.188.188 0 01.128.036.186.186 0 01.07.113.183.183 0 01-.148.205 2.466 2.466 0 00-1.753 1.124.173.173 0 01-.068.046.172.172 0 01-.08.011zm1.371 1.032a.16.16 0 01-.091 0 .177.177 0 01-.057-.241 2.837 2.837 0 012-1.294.18.18 0 01.07.005.166.166 0 01.062.032.173.173 0 01.067.119.176.176 0 01-.149.198 2.508 2.508 0 00-1.753 1.124.155.155 0 01-.148.057zm1.711.877a.145.145 0 01-.091 0 .171.171 0 01-.057-.241 2.837 2.837 0 012-1.294.184.184 0 01.199.156.176.176 0 01-.149.198 2.494 2.494 0 00-1.753 1.124.172.172 0 01-.068.046.172.172 0 01-.08.011z" fill="#407BFF"/><path opacity=".3" d="M47.26 196.806l-.565 1.923-7.282-1.117.127-1.577 7.72.771z" fill="#000"/><path d="M52.145 85.467s5.126 22.627 7.572 42.425c.75 6.018.89 14.064-.431 19.983l-9.898 49.171-12.45-1.244c1.959-21.213 4.68-47.376 5.465-58.491-2.736-13.039-8.568-28.828-14.308-44.547l24.05-7.297z" fill="#407BFF"/><path d="M11.255 141.243c.275-1.231.707-3.72 1.28-7.001h-.05c.403-4.348 1.152-24.5 2.524-37.355 1.06-8.189 3.153-13.725 5.252-16.44l.304-.382c.347-.431.559-.707.559-.707.403.106.799.198 1.195.283l.445.099a63.162 63.162 0 0027.96-.806c1.372 3.387 2.397 10.606 3.394 18.073-1.556 1.711-8.385 3.924-16.218 5.395l-2.234 10.104c-1.174 6.265-2.686 12.41-3.966 17.939l-1.336 6.06c-.085.403-.163.792-.24 1.181-.708 3.486-16.854 59.615-16.854 59.615l-10.534-.615s4.708-38.834 8.519-55.443z" fill="#407BFF"/><path opacity=".2" d="M35.524 113.453c-.042.205 4.822-17.486 4.822-17.486s4.1 15.796-2.121 25.674l-2.7-8.188z" fill="#000"/><path d="M25.055 33.63s2.474 1.902 5.655 4.645a11.874 11.874 0 002.17 1.478c2.122 1.11 3.995 1.747 4.511.743a3.6 3.6 0 00.262-.708c.438-1.69.261-4.058-1.103-5.14-1.534-1.223-2.277-2.27-2-3.924.181-.975.478-1.924.883-2.829l-1.21-1.414-6.32-6.364c.156 4.214.482 11.2-2.848 13.513z" fill="#FFBDA7"/><path opacity=".2" d="M34.5 31.105c-1.74-1.032-3.649-2.828-3.415-4.872.075-.75.239-1.488.488-2.199l3.534 4.681c-.286.773-.49 1.574-.608 2.39z" fill="#000"/><path d="M26.115 13.224c.594 6.498.707 9.255 4.058 12.657 5.04 5.126 12.803 3.4 14.139-3.04 1.202-5.792 0-15.444-6.363-18.18a8.355 8.355 0 00-11.834 8.563z" fill="#FFBDA7"/><path d="M34.174 15.274c0 .608.41 1.103.834 1.117.425.014.75-.481.707-1.09-.042-.607-.41-1.11-.834-1.116-.424-.007-.707.48-.707 1.089zm6.759-.092c0 .586.41 1.074.834 1.081.424.007.75-.46.707-1.053-.042-.594-.41-1.075-.834-1.082-.424-.007-.735.46-.707 1.054zM33.17 12.94a.281.281 0 00.234-.07 2.369 2.369 0 012.12-.601.282.282 0 00.368-.212.34.34 0 00-.233-.403 2.95 2.95 0 00-2.715.707.333.333 0 000 .46.325.325 0 00.226.12zm9.848-.318a.303.303 0 00.312-.473 3.387 3.387 0 00-2.482-1.64.296.296 0 00-.311.31.347.347 0 00.318.333 2.686 2.686 0 011.951 1.315.36.36 0 00.212.155z" fill="#263238"/><path d="M28.879 17.296s2.008-3.026 1.18-8.93a1.86 1.86 0 011.464-2.122c2.828-.544 6.553-4.08 11.127 2.942 0 0-2.184-8.415-14.945-5.028-11.36 3.02-3.584 12.65-2.417 13.64 1.166.99 3.59-.502 3.59-.502z" fill="#263238"/><path d="M24.142 18.52a5.232 5.232 0 003.16 2.453c1.718.431 2.61-2.333 2.023-4.059a3.458 3.458 0 00-3.896-2.234c-1.647.332-2.163 2.284-1.287 3.84z" fill="#FFBDA7"/><path d="M39.3 21.524a18.61 18.61 0 00-1.167 2.397l-.46-.106c-2.064-.48-2.827-1.414-3.124-2.248a3.006 3.006 0 01.184-2.008c.947.912 2.828 1.513 3.86 1.788.431.128.707.177.707.177z" fill="#263238"/><path d="M38.593 21.347l-.36.707c-1.945-.46-3.253-1.046-3.726-1.781a2.72 2.72 0 01.226-.708c.947.934 2.842 1.506 3.86 1.782z" fill="#fff"/><path d="M37.71 23.815c-2.065-.48-2.828-1.414-3.126-2.249a6.725 6.725 0 012.192.99c.436.31.763.751.933 1.259z" fill="#DC5753"/><path d="M39.194 14.998a22.026 22.026 0 002.156 3.953.494.494 0 01-.233.763 3.195 3.195 0 01-1.74 0l-.183-4.716z" fill="#F0997A"/><path d="M34.782 14.17l1.492-.353s-.813 1.118-1.492.354zm6.709-.035l1.492-.354s-.813 1.124-1.492.354z" fill="#263238"/><path d="M43.782 11.943s3.938-4.66 1.315-8.485c-.99-1.414-2.828-1.661-4.398-2.361C37.01-.53 34.02-.863 29.31 3.755c-4.899 4.801-5.783 6.413-.381 12.332 0 0-.58-.77 1.413-2.531 1.994-1.761 4.242-3.33 3.132-5.035a2.877 2.877 0 011.782 2.22l2.92-.799a5.558 5.558 0 00-.898-2.255 5.183 5.183 0 012 2.199l2.531.473s-.374-2.319-1.088-3.146c0-.007 2.318 2.369 3.06 4.73z" fill="#263238"/><path opacity=".2" d="M28.002 18.506a.177.177 0 01-.19-.128 2.404 2.404 0 00-.708-1.513 2.37 2.37 0 00-1.548-.65.184.184 0 01-.155-.253.169.169 0 01.17-.101 2.722 2.722 0 012.615 2.489.177.177 0 01-.155.19l-.029-.034z" fill="#000"/><path d="M51.198 49.667l2.064 7.34c.707 2.453 1.358 4.9 2.072 7.311a83.4 83.4 0 001.095 3.535c.184.573.368 1.146.559 1.67l.283.706.12.269c.02.038.037.078.05.12-.064 0 .127.375.402.665.321.336.669.646 1.04.926.791.658 1.767 1.344 2.658 2.008l-.75 3.6a12.404 12.404 0 01-3.937-.474 9.464 9.464 0 01-2.036-.849 6.894 6.894 0 01-2.213-1.867 5.72 5.72 0 01-.431-.707l-.312-.573c-.176-.346-.332-.707-.473-1.018-.297-.664-.552-1.287-.841-1.923a101.061 101.061 0 01-1.35-3.726c-.842-2.475-1.676-4.95-2.376-7.46s-1.414-4.95-2.121-7.467l6.497-2.086z" fill="#FFBDA7"/><path d="M46.193 37.611a31.736 31.736 0 017.14 13.294l-12.23 2.927s-3.394-8.924-1.98-12.19c1.414-3.409 3.613-6.682 7.07-4.03z" fill="#263238"/><path d="M46.97 43.416a13.528 13.528 0 011.343 3.246 29.23 29.23 0 01.785 5.154l-2.354.672c.156-3.146.156-5.925.226-9.072z" fill="#000" opacity=".3"/><path d="M16.232 52.778l-3.874-13.187c2.446-3.656 14.563-6.463 14.563-6.463l6.207 2.178 1.754-1.747s3.06.707 5.655 1.542c3.535 1.138 5.401 2.057 6.236 4.002 0 0 1.463 4.313.586 13.194-.24 2.447 0 15.146.707 19.34l4.129 13.073c-14.585 11.363-34.995.757-34.995.757.658-2.008 2.828-8.167 3.14-10.126-.213-2.503.084-6.363-.976-10.733-.142-.849-2.779-11.01-3.132-11.83z" fill="#263238"/><path opacity=".3" d="M17.455 56.406s5.592-7.071 4.637-9.977l-5.747 5.388 1.11 4.589z" fill="#000"/><path d="M14.082 38.276c-3.06 1.025-6.115 10.712-6.115 10.712l9 5.94s5.274-7.828 4.32-11.872c-.814-3.416-3.316-6.096-7.204-4.78z" fill="#263238"/><path d="M16.387 54.546s-5.542 11.914-5.436 12.381c.346 1.704 18.098.552 18.098.552l.424 4.766a65.505 65.505 0 01-16.33 2.75c-8.549.17-12.443-4.313-10.38-9.652C4.977 59.686 9 49.667 9 49.667l7.388 4.879z" fill="#FFBDA7"/><path opacity=".3" d="M10.95 66.927a5.436 5.436 0 00-3.534.707s.176-.785 1.626-1.323a6.704 6.704 0 012.213-.247l-.305.863z" fill="#000"/><path d="M27.62 66.615s5.727 1.358 6.271 2.49c.545 1.13-1.244 1.06-1.244 1.06s1.959.191 1.994 1.032c0 1.012-1.831.94-1.831.94s1.59.22 1.57.97c-.022.75-2.122.848-2.122.848s1.096.368.785.884c-.311.516-4.8.707-6.136-.078-1.336-.785-1.414-6.59-1.18-7.856.232-1.265.346-1.944 1.9-3.882v3.592h-.006z" fill="#FFBDA7"/><path opacity=".2" d="M32.647 70.264l-3.4-.495a.099.099 0 01-.068-.14.084.084 0 01.054-.042.085.085 0 01.035-.002l3.4.488a.1.1 0 01.071.106.092.092 0 01-.092.085zm.064 1.967l-3.308-.213c-.043 0-.078-.05-.078-.099a.092.092 0 01.092-.092l3.301.213a.092.092 0 01.078.1.085.085 0 01-.085.091zm-.58 1.817l-2.46-.085a.092.092 0 01-.085-.1.1.1 0 01.092-.091l2.46.084a.099.099 0 01.078.1.085.085 0 01-.085.092z" fill="#000"/><path d="M60.53 66.99a11.674 11.674 0 0110.15-10.606l-1.117 1.867 2.121-1.266-9.777 12.303-1.379-2.298z" fill="#407BFF"/><path opacity=".8" d="M60.53 66.99a11.674 11.674 0 0110.15-10.606l-1.117 1.867 2.121-1.266-9.777 12.303-1.379-2.298z" fill="#fff"/><path d="M45.189 56.915l3.365-.106 16.111 5.465L49.982 84.71l-14.45-3.606a1.548 1.548 0 01-1.082-1.909c.035-.121.085-.237.148-.346l5.833-10.557a.708.708 0 000-.707l-.792-1.414a.955.955 0 010-.934l3.916-7.262a1.987 1.987 0 011.634-1.06z" fill="#407BFF"/><path d="M64.665 62.274l9.176-5.89-15.086 22.415-8.773 5.91 14.683-22.435z" fill="#407BFF"/><path opacity=".2" d="M64.665 62.274l9.176-5.89-15.086 22.415-8.773 5.91 14.683-22.435z" fill="#000"/><path d="M62.862 72.704s-3.534-.94-4.347-.325c-.813.615.29 1.194.29 1.194s-1.23-.558-1.591.036c-.446.707.707 1.308.707 1.308s-1.025-.403-1.322.141c-.297.545.905 1.35.905 1.35s-.792-.12-.82.354c-.029.474 2.502 2.214 3.626 2.122 1.124-.092 3.535-4.193 3.931-5.176.396-.983.34-1.754-.382-2.433l-.975 1.457-.022-.028z" fill="#FFBDA7"/><path opacity=".2" d="M58.77 73.638l2.19.841a.085.085 0 00.093-.057.07.07 0 000-.091l-2.192-.835a.065.065 0 00-.054.005.064.064 0 00-.03.045.057.057 0 00-.008.091zm-.849 1.378l2.03 1.004s.063 0 .084-.042a.064.064 0 000-.092l-2.029-1.004s-.063 0-.085.042a.063.063 0 000 .092zm-.417 1.499l1.477.799a.078.078 0 00.092-.042.062.062 0 00.02-.046.063.063 0 00-.02-.046l-1.484-.82s-.07 0-.092.035c-.021.035.007.106.007.12z" fill="#000"/><path d="M26.66 53.846h8.447v-4.172H26.66v4.172z" fill="#407BFF"/><path d="M32.16 51.76a.97.97 0 10.596-.897.96.96 0 00-.596.897zm-4.355.346h3.344V51.4h-3.344v.707z" fill="#fff"/><path d="M37.186 34.118l-2.687-2.609-1.371 3.79-5.981-4.766-3.026 3.323 8.187 7.142 6.461 2.418 1.174-5.07-2.757-4.228z" fill="#263238"/><path opacity=".3" d="M37.186 34.118c.19.29 0 4.695 0 4.695l-4.058-3.04-1.499 3.316-7.218-4.95 7.388 6.435 1.329-3.91 4.524 3.91-.466-6.456z" fill="#000"/><path d="M26.56 22.048a1.244 1.244 0 100-2.49 1.244 1.244 0 000 2.49z" fill="#407BFF"/></svg>