<svg width="50" height="112" fill="none" xmlns="http://www.w3.org/2000/svg"><path d="M21.452 100.682l-1.055 7.729-2.523.128-.817-7.452 4.395-.405z" fill="#263238"/><path d="M15.726 112h5.643s.122-.237-.018-.867a3.83 3.83 0 00-.086-.323l-.005-.018a30.368 30.368 0 01-.178-.62c-.258-.944-.562-2.176-.562-2.176s-.939-2.007-2.037-1.506c-.964.439-.735 1.698-.735 1.698s-.095.738-.825 1.389c-.452.403-.9.714-1.117 1.215a1.55 1.55 0 00-.102.341 2.34 2.34 0 00.022.867z" fill="#263238"/><path opacity=".3" d="M21.35 111.133c.141.63.019.867.019.867h-5.643a2.34 2.34 0 01-.023-.867h5.648z" fill="#fff"/><path d="M17.975 108.503a.76.76 0 011.02.063c.076.075.194-.042.117-.117a.93.93 0 00-1.255-.064c-.084.066.034.183.118.118zm-.16.527a.76.76 0 011.02.063c.076.075.194-.043.117-.117a.93.93 0 00-1.254-.064c-.085.066.034.183.117.118zm-.159.483a.76.76 0 011.019.063c.076.075.194-.042.117-.117a.93.93 0 00-1.254-.064c-.085.066.034.183.118.118z" fill="#407BFF"/><path d="M32.042 100.198l1.055 7.729 2.522.128.817-7.452-4.394-.405z" fill="#263238"/><path d="M37.768 111.516h-5.643s-.123-.236.018-.866c.021-.099.05-.206.086-.324l.005-.018c.053-.174.113-.389.178-.62.258-.943.562-2.176.562-2.176s.939-2.007 2.037-1.506c.964.44.735 1.698.735 1.698s.095.738.825 1.39c.452.402.901.713 1.117 1.214a1.564 1.564 0 01.102.342 2.33 2.33 0 01-.022.866z" fill="#263238"/><path opacity=".3" d="M32.142 110.65c-.14.63-.017.866-.017.866h5.642c.065-.342.068-.625.023-.866h-5.648z" fill="#fff"/><path d="M35.519 108.02a.76.76 0 00-1.02.063c-.076.075-.194-.043-.117-.118.356-.347.864-.366 1.254-.063.085.065-.034.183-.117.118zm.159.526a.76.76 0 00-1.02.063c-.076.075-.194-.043-.117-.118.356-.347.865-.366 1.255-.063.084.066-.035.183-.118.118zm.16.484a.76.76 0 00-1.02.063c-.076.075-.194-.043-.117-.117a.93.93 0 011.254-.064c.085.066-.034.183-.117.118z" fill="#407BFF"/><path d="M15.343 67.242s.246 30.448.971 38.807l5.882.292c.222-6.089 1.788-27.552 1.788-27.552.313-2.67.655-12.595 1.07-16.707.855 4.93 1.93 15.246 2.218 16.62.48 2.283 3.614 28.438 3.614 28.438l6.31-.642s-1.122-25.217-1.256-29.46c-.614-19.453-1.101-27.64-1.101-27.64l-7.179 1.239-11.734-.699s-.99 10.927-.583 17.304z" fill="#263238"/><path opacity=".3" d="M15.343 67.242s.246 30.448.971 38.807l5.882.292c.222-6.089 1.788-27.552 1.788-27.552.313-2.67.655-12.595 1.07-16.707.855 4.93 1.93 15.246 2.218 16.62.48 2.283 3.614 28.438 3.614 28.438l6.31-.642s-1.122-25.217-1.256-29.46c-.614-19.453-1.101-27.64-1.101-27.64l-7.179 1.239-11.734-.699s-.99 10.927-.583 17.304z" fill="#fff"/><path opacity=".3" d="M28.193 85.296s2.912.276 5.652-.34c2.74-.615 2.383-.661 2.383-.661l-.057-1.372-8.217.905.239 1.468zM15.57 84.294s4.97 1.428 7.958.874l.081-1.147-8.06-.891.02 1.165z" fill="#000"/><path d="M6.84 4.55s.837-2.239.56-2.674c-.277-.435-.68-.618-.68-.618S6.636.18 6.076.02c-.476-.136-.577.47-.577.47S4.597.035 4.451.693c0 0-.71-.292-.964.453 0 0-.667.183-.678.745-.011.56.494 2.683 1.126 3.596.191.276.37.37.718.378 0 0 .057 4.856-.077 4.955L7.63 8.561l-.788-4.01z" fill="#FFBDA7"/><path d="M6.637 1.283c-.368-.095-.748-.14-1.117-.235-.136-.035-.444-.158-.574-.105-.213.087-.27.223-.217.447.097.415.746.791 1.173.8-.227.241-.516.703-.596 1.024-.08.32-.025.688.201.93" fill="#FFBDA7"/><path d="M5.507 4.216a.072.072 0 01-.053-.023c-.228-.242-.311-.624-.218-.996.073-.295.309-.69.52-.948-.447-.078-1.004-.445-1.097-.842-.062-.264.02-.432.26-.53.116-.048.3.003.512.07.042.012.079.024.107.031.183.048.372.083.555.117.185.035.376.07.563.119a.072.072 0 01-.037.14c-.181-.047-.37-.082-.553-.116-.185-.035-.377-.071-.564-.12-.03-.007-.07-.02-.114-.033-.127-.04-.338-.106-.415-.074-.174.072-.22.167-.174.363.088.374.696.736 1.104.745a.072.072 0 01.051.122c-.217.23-.501.684-.578.991-.082.325-.011.655.183.863a.072.072 0 01-.053.122l.001-.001z" fill="#F19B7D"/><path d="M3.028 2.43c.024.122.05.247.11.355.061.109.165.201.289.216.197.024.366-.154.437-.34a.943.943 0 00-.062-.794c.064.2.172.393.34.521.167.128.4.181.595.1.195-.08.014-.767-.05-.968" fill="#FFBDA7"/><path d="M3.462 3.075a.473.473 0 01-.387-.255 1.262 1.262 0 01-.118-.377.072.072 0 01.142-.028c.022.116.046.235.102.335.057.102.144.168.234.18.156.015.3-.135.361-.295a.867.867 0 00.027-.528 1.378 1.378 0 01-.09-.219.072.072 0 01.132-.057c.04.07.071.145.093.223a.837.837 0 00.227.276.544.544 0 00.524.091c.086-.035.041-.463-.091-.88a.072.072 0 11.138-.043c.05.156.284.943.009 1.057-.206.086-.468.042-.668-.11a.884.884 0 01-.101-.09.99.99 0 01-.065.332c-.074.193-.25.388-.47.388z" fill="#F19B7D"/><path d="M7.561 5.89c-.171.328 1.766 11.293 1.766 11.293l6.11 5.226 2.616.031c1.366.746-2.372 11.497-2.808 11.497-.436 0-11.204-10.668-12.86-12.917C1.072 19.236 0 7.744 0 7.744l7.561-1.855z" fill="#263238"/><path opacity=".3" d="M14.985 33.768l.113-1.805-.594-5.558-1.24 5.81 1.721 1.553z" fill="#000"/><path d="M19.238 4.775l.156-.432 9.87-1.027 7.787 7.404-.157.433-17.656-6.378z" fill="#407BFF"/><path d="M19.238 4.775s7.997 6.618 8.067 6.573c.07-.044 9.59-.196 9.59-.196l-7.746-7.436-9.911 1.059z" fill="#407BFF"/><path opacity=".4" d="M19.238 4.775s7.997 6.618 8.067 6.573c.07-.044 9.59-.196 9.59-.196l-7.746-7.436-9.911 1.059z" fill="#000"/><path d="M20.793 7.984l-.207-.066c.105-.33.206-.73.312-1.155.315-1.252.671-2.67 1.33-3.006a.349.349 0 01.315-.002.37.37 0 01.202.26l-.213.043a.154.154 0 00-.084-.108.134.134 0 00-.12 0c-.572.291-.931 1.719-1.22 2.865-.107.428-.208.832-.315 1.169z" fill="#263238"/><path d="M20.892 8.23a.264.264 0 11-.468-.244.264.264 0 01.468.243z" fill="#263238"/><path d="M20.598 8.127c-.308.14-.473.474-.592.79-.12.317-.23.659-.489.876-.075.064-.165.118-.209.206-.044.089-.01.225.089.237.19-.136.352-.311.474-.511a4.47 4.47 0 01-.358.878c.124.088.43.197.577.237.146.041.138.005.248-.1a.615.615 0 00.13-.215 4.33 4.33 0 00.262-2.426" fill="#263238"/><path opacity=".3" d="M33.491 11.24l-.862-1.754-.645 1.774 1.507-.02z" fill="#000"/><path d="M27.683 23.466s-1.914 1.23-2.378 1.282c-.623.07-3.283-2.469-3.283-2.469 1.617-.518 1.66-2.796 1.64-3.926l5.343-2.517s0 .004-.004.015c-.174.381-2.221 3.063-1.99 5.12l.672 2.495z" fill="#FFBDA7"/><path d="M26.088 19.921c-.66.58-1.74.812-2.656.71.024-.079.052-.2.072-.28.033-.125.06-.33.084-.464.03-.163.036-.33.05-.501.001-.069.01-.057.012-.126l.002-.14 2.891-.572c.203.193.078.902-.455 1.373z" fill="#000" opacity=".2"/><path d="M30.45 13.6c1.057-2.88-1.16-5.952-4.336-5.647-3.223.311-4.925 4.545-5.081 7.367-.174 3.136 3.05 5.559 5.957 3.96 1.932-1.064 2.404-2.802 3.46-5.68z" fill="#FFBDA7"/><path d="M26.281 13.51c-.068.305-.285.514-.485.468-.2-.046-.307-.332-.238-.638.068-.306.285-.515.485-.469.2.047.307.332.238.638zm-3.048-.405c-.069.306-.286.516-.486.47-.2-.048-.307-.333-.238-.639.068-.305.285-.515.485-.469.2.047.307.333.239.638z" fill="#263238"/><path d="M24.031 12.834s-1.308 1.302-1.757 1.851c.34.48 1.113.466 1.113.466l.644-2.317z" fill="#F19B7D"/><path d="M27.076 12.246a.147.147 0 01-.139-.052c-.408-.496-.909-.462-.961-.457a.149.149 0 01-.163-.13.145.145 0 01.13-.161c.028-.003.703-.066 1.22.564a.145.145 0 01-.087.236zm-4.789-.666a.147.147 0 01-.017-.259c.687-.428 1.298-.142 1.327-.132a.148.148 0 01.07.196.145.145 0 01-.192.07c-.025-.012-.498-.227-1.05.117a.145.145 0 01-.138.008z" fill="#263238"/><path d="M25.526 16.093c.22-.79-2.12.193-2.12.193s.118.929.968.966c1.028.044 1.152-1.16 1.152-1.16z" fill="#fff"/><path d="M28.926 14.99s1.48-4.997.042-5.776c-1.438-.778-2.224.535-3.229.183-1.004-.353-.7-1.078-.7-1.078-.739.183-1.592 1.207-2.353 1.957 0 0 1.256-2.15 2.625-2.545 2.665-.768 5.416.232 6.24 1.942.81 1.68-.185 4.238-.185 4.238-.904 1.908-1.484 2.95-2.742 3.907l.302-2.828z" fill="#263238"/><path d="M30.994 15.865a2.987 2.987 0 01-1.84 1.382c-1.028.253-1.147-.834-.841-1.79.275-.86.771-1.873 1.793-1.7 1.007.17 1.375 1.26.888 2.108z" fill="#FFBDA7"/><path opacity=".2" d="M28.854 15.535a.072.072 0 01-.068-.096c.094-.272.259-.516.476-.706.147-.127.38-.28.662-.287.277-.003.53.15.62.379a.072.072 0 01-.04.093.073.073 0 01-.094-.04c-.066-.168-.263-.288-.471-.288h-.012c-.238.005-.441.14-.57.252a1.507 1.507 0 00-.435.644.072.072 0 01-.068.048z" fill="#000"/><path d="M29.99 10.516c.037-.647-.128-1.336-.587-1.795-.216-.217-.486-.373-.762-.51-.731-.361-.13-.417-.91-.654l-.777-.103c-.622.002-1.837.175-2.434.349-.948.275-1.987 1.5-2.109 1.58-.14.092-.603.016-.767.046-.525.096.102.842.834.914.82.08 1.16-.258 1.698-.636-.415.487-1.121.607-.732.81.987.186 2.195.55 3.395-.104-.066.164-.133.334-.127.51.005.178.103.364.272.416.137.043.285-.01.41-.079.441-.243.739-.676 1.02-1.094.309.77.272 3.185.697 3.898 1.601-.983.84-2.9.879-3.548z" fill="#263238"/><path d="M22.41 9.383c-.064.08.823-2.802.823-2.802s.227-1.92 4.803-.842c0 0 5.157 1.527 4.543 4.165l-.75 2.496s-6.168-6.99-9.418-3.017z" fill="#407BFF"/><path opacity=".2" d="M22.41 9.383c-.064.08.823-2.802.823-2.802s.227-1.92 4.803-.842c0 0 5.157 1.527 4.543 4.165l-.75 2.496s-6.168-6.99-9.418-3.017z" fill="#000"/><path d="M32.08 11.568s-2.83-3.849-6.917-4.055c0 0-2.127-.114-2.58 1.217l-.172.654s.811-1.611 3.356-1.1c2.544.513 6.062 4.116 6.062 4.116l.25-.832zM21.01 22.782l.761-.19 1.296-1.728 2.053 1.48 1.877-1.11.844 1.206 1.754.148-4.439 8.47-4.145-8.276z" fill="#407BFF"/><path opacity=".8" d="M21.01 22.782l.761-.19 1.296-1.728 2.053 1.48 1.877-1.11.844 1.206 1.754.148-4.439 8.47-4.145-8.276z" fill="#fff"/><path opacity=".2" d="M21.771 22.592l2.014 1.745 1.334-1.874 1.251 1.623 1.47-1.646s-1.44 2.034-1.484 2.017c-.045-.017-1.237-1.773-1.237-1.773l-1.349 2.051-1.998-2.143z" fill="#000"/><path d="M24.108 23.882l.538.965h1.015l.494-1.04-.774-1.005-.512.02-.76 1.06zm.538.965l-.538 2.66 1.486 2.28.938-2.276-.871-2.664h-1.015z" fill="#407BFF"/><path d="M17.708 22.44l3.405.164 4.481 7.183 3.044-7.383 6.984 1.532-1.018 14.89 4.9 42.903s-6.813 3.05-13.563 2.498c-6.75-.553-14.007-1.57-14.007-1.57l3.164-50.694 2.61-9.524z" fill="#263238"/><path d="M14.338 24.847c.216 1.772.615 5.337.808 7.111l-.049-.043c4.4-.023 13.814-.24 17.99-.134.201-1.846.645-5.562.869-7.405-.187 1.85-.568 5.568-.774 7.415-4.42.189-13.588.157-18.083.221h-.045l-.005-.044a789.622 789.622 0 01-.711-7.12zm6.102 7.215c.098.617.1 1.236 0 1.852a5.796 5.796 0 010-1.852zm1.453-.066c.328 6.321.586 13.279.724 19.607a675.6 675.6 0 01-.724-19.607z" fill="#000"/><path d="M27.192 31.748c.096 4.7.096 9.872 0 14.573-.096-4.7-.095-9.872 0-14.573zm1.453-.067c.274 2.959.473 6.222.557 9.192a148.593 148.593 0 01-.557-9.192z" fill="#000"/><path d="M24.568 81.941c-1.308-3.236-1.949-11.332-1.951-14.943.8 3.715 3.102 11.842 5.563 14.784a7.505 7.505 0 01-3.612.16z" fill="#000" opacity=".3"/><path d="M44.832 32.046s-.093-2.382.306-2.707c.398-.326.837-.374.837-.374s.416-.994.997-.972c.493.02.399.625.399.625s.996-.15.93.519c0 0 .763-.055.77.729 0 0 .575.381.41.916-.165.535-1.306 2.387-2.19 3.055-.267.202-.465.235-.797.134 0 0-1.299 3.946-2.139 3.946l-.879-4.27 1.356-1.602z" fill="#FFBDA7"/><path d="M46.547 27.02a3.053 3.053 0 001.61-1.063c.14-.178.265-.404.204-.622-.048-.172-.2-.293-.353-.383a2.235 2.235 0 00-.76-.278c-.226-.038-.48-.033-.654.114-.184.157-.222.423-.247.664l-.108 1.039a.566.566 0 00.011.245c.027.077.1.145.183.138.136-.011.176-.19.185-.326.02-.312.076-.634.252-.893.175-.26.496-.441.802-.373.084.019.177.074.177.16 0 .058-.043.105-.083.147l-1.329 1.37" fill="#407BFF"/><path d="M44.794 20.773l4.094 12.487-1.322.449-4.02-12.58s.338-.437 1.249-.356z" fill="#407BFF"/><path opacity=".8" d="M44.794 20.773l4.094 12.487-1.322.449-4.02-12.58s.338-.437 1.249-.356z" fill="#fff"/><path d="M46.843 27.023s-.343.903-1.216.617l-.326-1.02s1.095-.054 1.188-.676l.354 1.079z" fill="#407BFF"/><path d="M45.745 26.992a3.059 3.059 0 00-1.854-.535c-.227.01-.48.061-.606.249-.1.148-.094.341-.063.516.046.268.142.526.282.759.117.195.285.385.51.422.24.039.467-.105.666-.243l.862-.592a.567.567 0 00.18-.167c.042-.07.046-.17-.013-.229-.097-.096-.258-.01-.368.071-.252.187-.533.354-.844.389-.312.034-.658-.092-.804-.369-.04-.076-.059-.182.007-.238.044-.037.108-.035.165-.032l1.906.121" fill="#407BFF"/><path d="M46.045 29.014c.379.025.752.1 1.131.125.14.01.47-.011.577.08.174.149.186.295.066.49-.222.363-.954.518-1.36.394.138.298.268.826.244 1.155-.025.329-.191.66-.481.817" fill="#FFBDA7"/><path d="M46.222 32.147a.073.073 0 01-.064-.037.072.072 0 01.03-.098c.248-.136.418-.427.443-.76.023-.314-.105-.832-.238-1.118a.072.072 0 01.01-.079c.02-.021.049-.03.076-.021.389.119 1.079-.035 1.279-.362.104-.172.091-.276-.052-.398-.063-.054-.284-.057-.416-.059a2.63 2.63 0 01-.119-.003 8.407 8.407 0 01-.57-.063c-.184-.024-.374-.05-.561-.062a.072.072 0 01-.067-.077c.002-.04.03-.069.077-.067.192.012.384.038.57.063.184.024.374.05.561.062.03.002.068.002.112.003.221.003.412.012.507.093.197.168.222.354.08.584-.211.347-.852.522-1.301.456.119.31.218.757.196 1.06-.028.38-.226.716-.518.875a.07.07 0 01-.035.009z" fill="#F19B7D"/><path d="M49.106 31.224a1.184 1.184 0 01-.216.302c-.092.084-.218.14-.34.115-.195-.04-.299-.26-.308-.458a.941.941 0 01.306-.733c-.123.17-.286.319-.484.388-.199.069-.437.046-.596-.09-.159-.138.227-.732.35-.902" fill="#FFBDA7"/><path d="M48.609 31.718a.367.367 0 01-.074-.007c-.236-.048-.355-.306-.366-.525a.993.993 0 01.043-.335.82.82 0 01-.125.055.687.687 0 01-.666-.105c-.22-.188.204-.812.339-.998a.072.072 0 01.118.085c-.256.353-.432.744-.362.804.13.112.336.142.524.077a.847.847 0 00.301-.191.99.99 0 01.159-.183.072.072 0 01.107.096c-.049.067-.1.127-.154.18a.86.86 0 00-.139.508c.008.17.096.36.25.39.087.02.192-.017.277-.096a1.13 1.13 0 00.201-.285.072.072 0 11.126.07c-.06.107-.127.228-.229.321a.5.5 0 01-.33.14z" fill="#F19B7D"/><path d="M35.49 23.892s.523.011 1.004.451 5.371 10.969 5.371 10.969l2.307-2.866 4.468 10.631s-3.247 3.643-6.855 3.964c-3.607.32-7.293-8.47-7.293-8.47l-1.358-6.784 2.356-7.895z" fill="#263238"/><path d="M41.84 35.342c-.657 2.076-.922 4.29-.691 6.458-.43-2.143-.153-4.447.69-6.458z" fill="#000"/><path opacity=".3" d="M33.728 31.964c.05.24.876 6.863.876 6.863s-.098-6.672-.438-8.732l-.438 1.869z" fill="#000"/><path d="M17.348 22.44s-1.958 33.352 1.004 42.306c0 0 .164-1.847 3.916-2.81 1.656-.425 2.785.146 2.785.146s-4.17-11.849-4.613-19.009c-.37-5.976.19-20.634.19-20.634s-1.28-.863-3.282 0z" fill="#407BFF"/><path opacity=".3" d="M24.563 60.63c.006.021-1.246-.583-3.571.183-2.324.766-3.09 2.217-3.091 2.22.136.64.285 1.215.45 1.714 0 0 .165-1.848 3.916-2.81 1.656-.426 2.786.145 2.786.145s-.189-.537-.49-1.45v-.001z" fill="#fff"/><path d="M17.737 43.143a33.17 33.17 0 003.346 16.04c-2.734-5.983-2.155-11.004-3.346-16.04z" fill="#000" opacity=".3"/><path d="M29.587 22.474s-1.74 33.502 2.173 39.176c0 0-.126-1.249 3.082-.89 3.322.373 2.889-.508 3.22-1.162.39-.774-4.42-13.5-4.995-20.11-.588-6.764-.426-16.274-.426-16.274s-.396-.967-3.053-.74z" fill="#407BFF"/><path opacity=".3" d="M38.062 59.598c.062-.123-.008-.548-.17-1.203-2.094 1.604-1.449.273-5.229.64-.803.078-1.396.227-1.837.415.268.933.578 1.683.935 2.2 0 0-.126-1.248 3.082-.889 3.322.372 2.888-.509 3.219-1.163z" fill="#fff"/><path opacity=".3" d="M31.632 42.791l3.373 6.63s-3.078-7.418-3.68-10.691c-.602-3.275-1.07-5.006-1.07-5.006l.5 5.984a8.325 8.325 0 00.876 3.083z" fill="#000"/><path d="M36.343 8.937a.108.108 0 01-.075-.03L32.71 5.513a.108.108 0 11.15-.156l3.558 3.394a.108.108 0 01-.075.186zM32.39 5.165a.11.11 0 01-.074-.03l-.48-.46a.108.108 0 01.15-.157l.48.46a.108.108 0 01-.075.187z" fill="#407BFF"/><path opacity=".3" d="M28.841 64.499s6.38 11.774 6.74 12.157c.358.382 2.503 2.388 2.503 2.388s-7.178-12.646-9.243-14.545z" fill="#000"/></svg>