<svg width="45" height="42" fill="none" xmlns="http://www.w3.org/2000/svg"><path d="M37.084 34.854a20.871 20.871 0 004.024-21.174 20.828 20.828 0 00-6.556-9.057 20.745 20.745 0 00-21.334-2.742 20.795 20.795 0 00-8.623 7.107 20.867 20.867 0 00-1.438 21.507l-2.235 5.84 6.595-.09.24.24a20.768 20.768 0 0015 5.26 20.778 20.778 0 0014.327-6.89zm7.334-18.349a.24.24 0 01-.25-.22 20.476 20.476 0 00-3.514-9.281 20.42 20.42 0 00-7.462-6.53.26.26 0 01-.11-.34.25.25 0 01.33-.11 20.97 20.97 0 017.62 6.705 21.027 21.027 0 013.586 9.506.231.231 0 01-.125.246.227.227 0 01-.095.024h.02zm.13 6.18h-.06a.26.26 0 01-.19-.31 7.266 7.266 0 00.08-3 .249.249 0 01.21-.29.249.249 0 01.29.2 7.767 7.767 0 01-.09 3.18.26.26 0 01-.24.22z" fill="#407BFF"/><path d="M21.188 29.835l-9.53-7.11 2.475-3.34 6.386 4.77 8.782-10.49 3.173 2.67-11.286 13.5z" fill="#fff"/></svg>