<svg width="40" height="44" fill="none" xmlns="http://www.w3.org/2000/svg"><path d="M6.198 8.954C13.79 1.156 26.262.997 34.052 8.6c7.79 7.602 7.949 20.086.355 27.884-5.863 6.02-14.625 7.467-21.903 4.325l-5.365 2.495-.341-6.248c-.08-.075-.166-.139-.245-.216-7.79-7.602-7.948-20.086-.354-27.884h-.001z" fill="#407BFF"/><path d="M32.867 4.467a.25.25 0 01-.152-.052C27.737.557 20.692-.565 14.76 1.56a.253.253 0 01-.318-.151.25.25 0 01.15-.32C20.678-1.091 27.91.06 33.02 4.019a.25.25 0 01-.153.448zm-23.506-.47a.251.251 0 01-.194-.092.25.25 0 01.037-.352 7.39 7.39 0 012.678-1.38c.134-.04.27.041.307.173a.251.251 0 01-.175.308A6.908 6.908 0 009.52 3.942a.245.245 0 01-.157.056z" fill="#407BFF"/><path d="M19.936 32.207c-.74 0-1.359-.24-1.856-.718a2.338 2.338 0 01-.744-1.75c0-.686.243-1.26.73-1.721.488-.461 1.112-.691 1.87-.691s1.381.23 1.869.69c.487.462.731 1.036.731 1.723s-.248 1.27-.745 1.749c-.497.479-1.114.718-1.855.718zm1.68-6.806h-3.36l-.84-12.393h5.038L21.615 25.4z" fill="#fff"/></svg>