<svg width="40" height="112" fill="none" xmlns="http://www.w3.org/2000/svg"><path d="M1.534 108.579l3.303.325 2.44-8.361-5.022-.547-.72 8.583z" fill="#FFBDA7"/><path d="M5.313 107.448H4.136a.839.839 0 00-.671.347c-.679.932-1.191.581-1.93-.294-.472-.053-.596.487-.634.63l-.882 3.205a.506.506 0 00.347.623.453.453 0 00.14.041h9.342c1.486 0 1.795-1.508 1.184-1.637-2.752-.607-4.701-1.418-5.55-2.217-.158-.162.004-.264-.17-.698z" fill="#263238"/><path d="M7.873 108.357a.473.473 0 00.2-.377.211.211 0 00-.099-.207c-.377-.261-1.843.426-2.005.509a.076.076 0 00-.025.014.083.083 0 00-.017.023.068.068 0 00.004.05.065.065 0 00.038.033c.36.087.73.136 1.1.144.282.024.563-.042.804-.189zm0-.479a.085.085 0 01.033.037.08.08 0 01.004.05.379.379 0 01-.147.283c-.335.249-1.13.139-1.576.06.622-.268 1.482-.573 1.697-.43h-.011z" fill="#407BFF"/><path d="M6.018 108.414c.44-.185 1.368-.913 1.32-1.298 0-.082-.065-.177-.269-.203-.806-.094-1.153 1.357-1.153 1.418a.064.064 0 000 .068.068.068 0 00.024.005.068.068 0 00.025-.005l.053.015zm1.025-1.384c.15 0 .15.071.15.09.042.234-.629.837-1.111 1.09.101-.336.396-1.184.908-1.184l.053.004z" fill="#407BFF"/><path d="M5.132 109.096a.069.069 0 01-.05 0 .09.09 0 01-.03-.128 1.504 1.504 0 011.068-.69.103.103 0 01.068.019c.02.015.032.036.037.06a.1.1 0 01-.018.071.101.101 0 01-.061.039 1.31 1.31 0 00-.935.599.09.09 0 01-.08.03zm.731.551a.082.082 0 01-.049 0 .094.094 0 01-.03-.128 1.504 1.504 0 011.067-.69.098.098 0 01.106.082.095.095 0 01-.08.106 1.342 1.342 0 00-.935.6.1.1 0 01-.036.025.088.088 0 01-.043.005zm.912.467a.069.069 0 01-.049 0 .09.09 0 01-.03-.128 1.504 1.504 0 011.067-.69.097.097 0 01.07.021.099.099 0 01.036.062.095.095 0 01-.08.106 1.327 1.327 0 00-.934.599.103.103 0 01-.037.025.088.088 0 01-.043.005z" fill="#407BFF"/><path opacity=".3" d="M5.987 104.963l-.301 1.026-3.884-.596.072-.841 4.113.411z" fill="#000"/><path d="M20.753 108.579l3.302.325 2.44-8.361-5.022-.547-.72 8.583z" fill="#FFBDA7"/><path d="M24.53 107.448h-1.176a.838.838 0 00-.671.347c-.679.932-1.192.581-1.93-.294-.472-.053-.596.487-.634.63l-.882 3.205a.506.506 0 00.347.623.464.464 0 00.15.041h9.34c1.485 0 1.794-1.508 1.184-1.637-2.753-.607-4.702-1.418-5.55-2.217-.166-.162-.004-.264-.178-.698z" fill="#263238"/><path d="M27.09 108.357a.472.472 0 00.2-.377.211.211 0 00-.098-.207c-.377-.261-1.84.426-2.005.509a.076.076 0 00-.025.014.085.085 0 00-.017.023.068.068 0 00.005.05.065.065 0 00.037.033 5.14 5.14 0 001.104.144c.28.024.56-.043.8-.189zm0-.479a.085.085 0 01.034.037.08.08 0 01.004.05.38.38 0 01-.147.283c-.335.249-1.13.139-1.576.06.622-.268 1.493-.573 1.697-.43h-.011z" fill="#407BFF"/><path d="M25.236 108.414c.44-.185 1.368-.913 1.32-1.298 0-.082-.065-.177-.265-.203-.81-.094-1.157 1.357-1.157 1.418a.065.065 0 00.019.068.067.067 0 00.024.005.068.068 0 00.025-.005l.034.015zm1.025-1.384c.151 0 .151.071.151.09.041.234-.63.837-1.112 1.09.101-.336.377-1.184.908-1.184l.053.004z" fill="#407BFF"/><path d="M24.35 109.096a.069.069 0 01-.05 0 .087.087 0 01-.042-.057.092.092 0 01.012-.071 1.503 1.503 0 011.067-.69.103.103 0 01.069.019.1.1 0 01.037.06.1.1 0 01-.018.071.101.101 0 01-.061.039 1.31 1.31 0 00-.935.599.09.09 0 01-.08.03zm.73.551a.082.082 0 01-.048 0 .094.094 0 01-.03-.128 1.503 1.503 0 011.067-.691.115.115 0 01.037.003.085.085 0 01.033.017.094.094 0 01.035.063.095.095 0 01-.08.106 1.343 1.343 0 00-.934.6.096.096 0 01-.035.026.093.093 0 01-.044.004zm.913.467a.069.069 0 01-.049 0 .087.087 0 01-.042-.057.092.092 0 01.012-.071 1.503 1.503 0 011.067-.69.097.097 0 01.07.021.099.099 0 01.036.062.096.096 0 01-.08.106 1.327 1.327 0 00-.934.599.102.102 0 01-.037.025.088.088 0 01-.043.005z" fill="#407BFF"/><path opacity=".3" d="M25.206 104.963l-.302 1.026-3.884-.596.068-.841 4.117.411z" fill="#000"/><path d="M27.81 45.582s2.735 12.068 4.04 22.628c.4 3.21.475 7.501-.23 10.658l-5.28 26.222-6.64-.664c1.045-11.313 2.497-25.266 2.915-31.195-1.459-6.954-4.57-15.375-7.631-23.758l12.827-3.892z" fill="#407BFF"/><path d="M6.002 75.33c.147-.657.377-1.984.683-3.734h-.027c.215-2.32.615-13.067 1.346-19.923.566-4.367 1.682-7.32 2.802-8.768l.162-.204c.185-.23.298-.377.298-.377.215.056.426.105.637.15l.238.054a33.69 33.69 0 0014.912-.43c.731 1.806 1.278 5.656 1.81 9.639-.83.912-4.472 2.093-8.65 2.877l-1.191 5.39c-.626 3.34-1.433 6.617-2.115 9.567l-.713 3.231c-.045.215-.087.423-.128.63-.377 1.86-8.99 31.795-8.99 31.795l-5.617-.328s2.511-20.711 4.543-29.57z" fill="#407BFF"/><path opacity=".2" d="M18.946 60.508c-.022.11 2.572-9.326 2.572-9.326s2.186 8.425-1.131 13.694l-1.44-4.368z" fill="#000"/><path d="M13.362 17.936s1.32 1.014 3.017 2.477c.355.305.743.57 1.157.788 1.131.593 2.13.932 2.406.396.06-.12.106-.246.14-.377.233-.9.139-2.164-.589-2.741-.818-.653-1.214-1.21-1.067-2.093.097-.52.256-1.026.471-1.509l-.644-.754-3.371-3.394c.083 2.248.256 5.974-1.52 7.207z" fill="#FFBDA7"/><path opacity=".2" d="M18.4 16.59c-.928-.551-1.946-1.509-1.822-2.599.04-.4.128-.793.26-1.173l1.886 2.497c-.153.412-.261.84-.324 1.275z" fill="#000"/><path d="M13.928 7.052c.317 3.466.377 4.937 2.164 6.75 2.689 2.735 6.828 1.815 7.541-1.62.641-3.09 0-8.237-3.393-9.697a4.456 4.456 0 00-6.312 4.567z" fill="#FFBDA7"/><path d="M18.226 8.146c0 .325.219.589.445.596.226.008.4-.256.377-.58-.022-.325-.218-.593-.445-.597-.226-.003-.377.257-.377.581zm3.604-.049c0 .313.22.573.446.577.226.004.4-.245.377-.562-.023-.317-.219-.573-.445-.577-.226-.004-.392.245-.377.562zm-4.14-1.195a.15.15 0 00.125-.038 1.263 1.263 0 011.131-.32.15.15 0 00.196-.114.181.181 0 00-.124-.215 1.572 1.572 0 00-1.448.377.177.177 0 000 .245.173.173 0 00.12.065zm5.253-.17a.162.162 0 00.166-.253 1.807 1.807 0 00-1.324-.875.158.158 0 00-.165.166.185.185 0 00.17.177 1.433 1.433 0 011.04.702c.026.04.066.07.113.083z" fill="#263238"/><path d="M15.402 9.225s1.07-1.614.63-4.763a.992.992 0 01.78-1.132c1.508-.29 3.495-2.176 5.935 1.57 0 0-1.165-4.488-7.97-2.682-6.06 1.61-1.912 6.747-1.29 7.274.622.528 1.915-.267 1.915-.267z" fill="#263238"/><path d="M12.876 9.877a2.79 2.79 0 001.685 1.309c.917.23 1.392-1.245 1.079-2.165a1.845 1.845 0 00-2.078-1.192c-.878.177-1.153 1.218-.686 2.048z" fill="#FFBDA7"/><path d="M20.96 11.48c-.238.41-.446.838-.623 1.278l-.245-.057c-1.1-.256-1.508-.754-1.666-1.199a1.603 1.603 0 01.098-1.07c.505.486 1.508.806 2.059.953.23.068.377.095.377.095z" fill="#263238"/><path d="M20.583 11.386l-.192.377c-1.037-.245-1.735-.558-1.987-.95.022-.131.063-.258.12-.378.505.498 1.516.804 2.059.95z" fill="#fff"/><path d="M20.111 12.702c-1.1-.257-1.508-.755-1.666-1.2.418.105.814.284 1.169.528.232.166.407.4.497.672z" fill="#DC5753"/><path d="M20.903 8c.31.74.696 1.446 1.15 2.107a.265.265 0 01-.124.408 1.703 1.703 0 01-.928 0l-.098-2.516z" fill="#F0997A"/><path d="M18.55 7.558l.796-.189s-.433.596-.796.189zm3.578-.019l.796-.189s-.433.6-.796.189z" fill="#263238"/><path d="M23.35 6.37s2.1-2.485.701-4.526c-.527-.754-1.508-.886-2.345-1.26-1.968-.867-3.563-1.044-6.074 1.419-2.613 2.56-3.084 3.42-.204 6.577 0 0-.309-.411.755-1.35 1.063-.94 2.262-1.777 1.67-2.685a1.535 1.535 0 01.95 1.184l1.557-.426a2.966 2.966 0 00-.479-1.203c.463.278.834.686 1.067 1.172l1.35.253s-.2-1.237-.58-1.678c0-.004 1.236 1.263 1.632 2.523z" fill="#263238"/><path opacity=".2" d="M14.934 9.87a.094.094 0 01-.101-.068 1.282 1.282 0 00-.377-.807 1.267 1.267 0 00-.826-.347.098.098 0 01-.083-.135.09.09 0 01.09-.054 1.451 1.451 0 011.396 1.328.094.094 0 01-.083.101l-.015-.019z" fill="#000"/><path d="M27.306 26.488l1.1 3.915c.378 1.309.725 2.613 1.105 3.9.189.644.377 1.278.585 1.885.098.305.196.61.298.89l.15.377.064.143a.32.32 0 01.027.065c-.034 0 .068.2.215.354.17.18.356.345.554.494.422.35.943.716 1.418 1.071l-.4 1.92a6.614 6.614 0 01-2.1-.253 5.045 5.045 0 01-1.086-.453 3.677 3.677 0 01-1.18-.995 3.047 3.047 0 01-.23-.377l-.166-.306c-.094-.185-.177-.377-.253-.543-.158-.354-.294-.686-.448-1.026a54.897 54.897 0 01-.72-1.987c-.45-1.32-.894-2.64-1.267-3.979-.374-1.338-.754-2.64-1.131-3.982l3.465-1.113z" fill="#FFBDA7"/><path d="M24.636 20.06a16.926 16.926 0 013.808 7.089l-6.523 1.561s-1.81-4.76-1.055-6.501c.754-1.818 1.926-3.564 3.77-2.15z" fill="#263238"/><path d="M25.051 23.155c.313.544.554 1.126.716 1.731.221.902.361 1.822.419 2.75l-1.256.358c.083-1.678.083-3.16.121-4.839z" fill="#000" opacity=".3"/><path d="M8.657 28.148l-2.066-7.033c1.304-1.95 7.767-3.447 7.767-3.447l3.31 1.162.935-.932s1.633.377 3.017.822c1.885.608 2.88 1.098 3.325 2.135 0 0 .78 2.3.313 7.037-.128 1.305 0 8.078.377 10.314l2.202 6.973c-7.778 6.06-18.663.403-18.663.403.35-1.07 1.508-4.355 1.674-5.4-.114-1.335.045-3.394-.52-5.725-.076-.452-1.482-5.871-1.671-6.309z" fill="#263238"/><path opacity=".3" d="M9.31 30.083s2.981-3.771 2.473-5.321l-3.066 2.873.592 2.448z" fill="#000"/><path d="M7.51 20.414c-1.632.547-3.26 5.713-3.26 5.713l4.799 3.168s2.813-4.175 2.304-6.332c-.434-1.821-1.769-3.25-3.842-2.55z" fill="#263238"/><path d="M8.74 29.09s-2.956 6.355-2.9 6.604c.185.909 9.653.294 9.653.294l.226 2.542a34.929 34.929 0 01-8.71 1.467c-4.558.09-6.636-2.3-5.535-5.148 1.18-3.017 3.326-8.36 3.326-8.36l3.94 2.602z" fill="#FFBDA7"/><path opacity=".3" d="M5.84 35.695a2.899 2.899 0 00-1.885.377s.094-.419.867-.706a3.589 3.589 0 011.18-.132l-.162.46z" fill="#000"/><path d="M14.731 35.528s3.054.724 3.344 1.328c.29.603-.663.565-.663.565s1.044.102 1.063.551c0 .54-.976.502-.976.502s.848.117.837.516c-.012.4-1.131.453-1.131.453s.584.196.418.471c-.166.276-2.56.377-3.273-.041-.712-.419-.754-3.515-.63-4.19.125-.675.185-1.037 1.015-2.07v1.915h-.004z" fill="#FFBDA7"/><path opacity=".2" d="M17.412 37.474l-1.814-.263a.053.053 0 01-.041-.057.044.044 0 01.017-.033.046.046 0 01.036-.009l1.813.26a.053.053 0 01.038.057.049.049 0 01-.05.045zm.034 1.049l-1.765-.113c-.022 0-.041-.027-.041-.053a.049.049 0 01.049-.05l1.76.114a.049.049 0 01.042.053c0 .006 0 .012-.002.018a.046.046 0 01-.043.031zm-.309.969l-1.313-.045a.048.048 0 01-.043-.034.053.053 0 01.013-.053.053.053 0 01.034-.015l1.312.045a.053.053 0 01.042.053.045.045 0 01-.012.035.045.045 0 01-.033.014z" fill="#000"/><path d="M32.282 35.728a6.227 6.227 0 015.415-5.657l-.596.996 1.131-.675-5.214 6.562-.736-1.226z" fill="#407BFF"/><path opacity=".8" d="M32.282 35.728a6.227 6.227 0 015.415-5.657l-.596.996 1.131-.675-5.214 6.562-.736-1.226z" fill="#fff"/><path d="M24.1 30.354l1.795-.056 8.593 2.915-7.831 11.966-7.707-1.924a.826.826 0 01-.577-1.018.805.805 0 01.08-.185l3.11-5.63a.378.378 0 000-.377l-.422-.754a.508.508 0 010-.498l2.089-3.873a1.06 1.06 0 01.87-.566z" fill="#407BFF"/><path d="M34.488 33.213l4.894-3.142-8.046 11.955-4.679 3.153 7.831-11.966z" fill="#407BFF"/><path opacity=".2" d="M34.488 33.213l4.894-3.142-8.046 11.955-4.679 3.153 7.831-11.966z" fill="#000"/><path d="M33.527 38.775s-1.886-.501-2.32-.173c-.433.328.155.637.155.637s-.656-.298-.848.02c-.238.376.377.697.377.697s-.547-.215-.705.075c-.158.29.483.72.483.72s-.423-.064-.438.19c-.015.252 1.335 1.18 1.934 1.13.6-.049 1.886-2.236 2.097-2.76.211-.524.18-.935-.204-1.297l-.52.776-.011-.015z" fill="#FFBDA7"/><path opacity=".2" d="M31.344 39.273l1.168.45c.01 0 .021-.002.03-.007a.045.045 0 00.02-.024.038.038 0 000-.05l-1.17-.444a.035.035 0 00-.014-.002.035.035 0 00-.025.015.035.035 0 00-.006.013.03.03 0 00-.003.05zm-.453.736l1.082.535s.034 0 .046-.022a.033.033 0 00.01-.025.034.034 0 00-.01-.025l-1.083-.535s-.034 0-.045.023a.034.034 0 00-.007.038.034.034 0 00.007.01zm-.222.799l.788.426c.01.003.02.002.028-.002a.042.042 0 00.02-.02.034.034 0 00.009-.038.033.033 0 00-.008-.011l-.792-.438s-.038 0-.049.019c-.011.019.004.056.004.064z" fill="#000"/><path d="M14.218 28.718h4.506v-2.226h-4.506v2.226z" fill="#407BFF"/><path d="M17.152 27.605a.516.516 0 101.032 0 .516.516 0 00-1.032 0zm-2.322.185h1.783v-.377h-1.784v.377z" fill="#fff"/><path d="M19.832 18.196L18.4 16.805l-.732 2.02-3.19-2.54-1.613 1.772 4.366 3.809 3.446 1.29.626-2.705-1.47-2.255z" fill="#263238"/><path opacity=".3" d="M19.832 18.196c.102.155 0 2.504 0 2.504l-2.164-1.622-.8 1.77-3.849-2.64 3.94 3.431.71-2.085 2.412 2.085-.249-3.443z" fill="#000"/><path d="M14.166 11.759a.664.664 0 100-1.328.664.664 0 000 1.328z" fill="#407BFF"/></svg>