<svg width="74" height="99" fill="none" xmlns="http://www.w3.org/2000/svg"><path d="M30.03 49.723s2.519-16.715 3.062-20.783c.544-4.067 0-6.145-1.53-7.478-1.532-1.332-8.662-3.103-13.435-3.268-3.732-.13-5.669.603-8.845 9.022l5.274 2.3s-4.218 13.881-3.71 19.27l19.184.937z" fill="#407BFF"/><path opacity=".3" d="M15.536 29.95l.861.35 1.336-3.46-1.416 4.885-1.179-.522.398-1.252z" fill="#000"/><path d="M31.565 21.45s2.993 1.306 4.153 4.26c.57 1.452 1.73 4.056 2.863 6.61l-8.83 1.321 1.814-12.187v-.004z" fill="#407BFF"/><path d="M37.842 32.447s3.56 6.272 2.503 9.026h-6.403l-.253-2.762 1.14-.668-2.33-4.932 5.34-.668.003.004z" fill="#FFBDA7"/><path opacity=".3" d="M34.83 38.047s1.864-.473 3.23.153c0 0-1.137-1.605-3.43-.572l.2.419zm-1.087-9.714s.371 2.001-.07 3.346c-.44 1.344-1.175 1.436-1.175 1.436l1.24-4.782h.005z" fill="#000"/><path d="M14.675 7.21c.466-.208.983-.289 1.442-.508.988-.476 1.566-1.52 1.976-2.539.409-1.021.738-2.112 1.47-2.93A3.743 3.743 0 0122.328 0a3.734 3.734 0 012.756 1.256l-2.323 8.4a5.23 5.23 0 01-2.427 2.17c-.425.184-.907.311-1.343.165-.44-.146-.78-.65-.609-1.08-.363.57-1.178.788-1.776.48-.597-.31-.891-1.105-.643-1.731-.482-.012-.98-.023-1.42-.223-.44-.196-.815-.626-.796-1.11.023-.51.463-.914.93-1.122l-.004.004zm18.249-3.815c1.933 1.898 1.21 3.972.892 5.508-.666 2.032-.93 3.484-1.868 5.4L28.728 1.08c1.237.5 2.095.404 4.2 2.316h-.004z" fill="#263238"/><path d="M30.141 1.736c-1.967-1.413-4.302-.626-5.691-.03a6.324 6.324 0 00-3.047 4.186c-.31 1.659-.689 3.672.153 4.724a2.726 2.726 0 001.93 1.052l9.598-6.03a9.756 9.756 0 00-2.943-3.898v-.004z" fill="#263238"/><path d="M25.923 22.772c-1.32-.092-1.201-.134-1.978-.637-3.77-2.416-2.113-3.657-2.113-3.657 1.156-.937.884-2.189.918-4.286.004-.061-.122-1.118-.107-1.18.054-.272.349.946.552.758a1.357 1.357 0 011.925 0l2.116 1.063v.1c-.203 1.114-.394 1.97-.516 2.654 0 .085-.031.17-.043.25 0 .085-.023.173-.038.253-.122.941 1.034 1.832 1.01 3.127.345.296-.417 1.56-1.733 1.56l.007-.005z" fill="#FFBDA7"/><path opacity=".2" d="M27.236 14.822a.461.461 0 000 .104c-.202 1.114-.394 1.97-.516 2.654-.02.08-.035.165-.042.25a2.065 2.065 0 00-.016.264c-1.121-.545-2.09-1.229-2.87-2.124a4.27 4.27 0 01-1.022-2.42c.053-.268.249.42.44.223a1.365 1.365 0 011.929-.023l2.098 1.076v-.004z" fill="#000"/><path d="M22.659 6.668c-.632 3.852-.984 5.465.44 7.889 2.151 3.645 6.886 3.675 8.646.107 1.558-3.214 2.346-8.964-.926-11.403-3.276-2.439-7.525-.453-8.16 3.407z" fill="#FFBDA7"/><path d="M20.228 9.576c.234.902.823 1.59 1.44 1.943.93.53 1.89-.941 1.829-2.04-.058-.99-.877-1.862-1.902-1.935-1.01-.073-1.63 1.002-1.367 2.032z" fill="#FFBDA7"/><path opacity=".2" d="M22.395 10.055c.046 0 .084-.03.095-.077.08-.391 0-.81-.218-1.144a1.537 1.537 0 00-.957-.657.097.097 0 00-.115.073.097.097 0 00.073.115c.34.073.647.28.838.573.192.291.26.656.192.998a.097.097 0 00.072.115h.02v.004z" fill="#000"/><path d="M27.21 9.199c-.093.407.034.795.279.867.249.073.52-.195.612-.599.092-.407-.034-.795-.28-.868-.248-.073-.52.196-.612.6zm3.727 1.021c-.088.396.038.772.287.85.245.072.517-.185.605-.58.088-.396-.038-.773-.287-.85-.245-.073-.517.185-.605.58zm-4.129-2.638c.046.019.1.019.145-.008a1.388 1.388 0 011.34 0 .179.179 0 00.252-.065.213.213 0 00-.072-.273 1.757 1.757 0 00-1.696-.015c-.092.046-.126.165-.076.265a.21.21 0 00.107.1v-.004zm5.906 1.087c.042 0 .08-.023.11-.058.058-.077.046-.196-.026-.269-.727-.726-1.47-.534-1.505-.526-.087.023-.137.127-.107.23.031.104.123.166.215.142.03-.007.608-.145 1.186.43a.177.177 0 00.127.054V8.67z" fill="#263238"/><path d="M29.973 9.755s.199 1.583.62 2.654a.306.306 0 01-.26.411c-.513.043-1.019-.265-1.019-.265l.655-2.796.004-.004z" fill="#F0997A"/><path d="M27.676 8.572l.923.035s-.655.518-.923-.035zm3.774 1.053l.923.035s-.655.518-.923-.035z" fill="#263238"/><path d="M23.684 7.793s2.653-2.093 3.123-4.22c0 0 8.31.476 6.323 7.109 0 0 2.618-6.28-3.59-8.439-6.208-2.158-9.09 5.961-6.744 9.422.015-.027-.758-2.558.888-3.872z" fill="#263238"/><path d="M21.752 7.428c.589-2.566 2.005-4.344 3.953-4.793 2.637-.607 5.75.092 5.75.092.03.768 1.522 3.1 1.565 3.88-.716-.166-2.818-1.74-3.46-2.083l.432.569s-1.144-.2-1.7-.934c-1.255 3.138-5.457 3.265-6.54 3.265v.004z" fill="#263238"/><path d="M26.329 1.118s-1.868.157-2.913 1.394c0-.011 1.007-1.694 2.913-1.394z" fill="#407BFF"/><path d="M27.929 13.647c.042 0 .08-.02.11-.05a.146.146 0 00-.018-.204l-.153-.126c-.395-.327-.804-.665-1.034-1.122a.14.14 0 00-.191-.061.141.141 0 00-.061.192c.26.507.712.88 1.106 1.21l.149.126a.144.144 0 00.092.035zm-.299 6.16s2.19 3.576-1.76 3.457c-3.95-.12-5.133-3.89-5.309-4.936l1.233-.426s.712 3.073 3.383 3.683c2.672.611 2.044-2.139 2.044-2.139l.41.361z" fill="#263238"/><path d="M10.38 27.677s-2.216 6.372-2.457 8.13c-.096.684-.789 2.397 1.332 3.907 1.86 1.321 15.248 1.759 15.248 1.759l.39-3.438L13.89 35.14l1.646-5.192-5.152-2.274-.004.004z" fill="#FFBDA7"/><path d="M24.182 37.9s2.02-1.593 2.105-1.62c.084-.027 2.542-.146 2.886.146.345.292.578 1.62.578 1.62s.922.346 1.098.811c.177.465-.172.868-.172.868s.203.492-.115.899l-.317.407s.317.376.03.665c-.287.288-6.763-.22-6.763-.22l.678-3.575h-.008z" fill="#FFBDA7"/><path opacity=".3" d="M29.751 38.047l-2.813-.472s1.267-.196 1.94 0c.674.195.873.472.873.472z" fill="#000"/><path d="M26.455 33.892l1.478 3.875c.302-.062.658.146.85.119L27.151 33.6a.384.384 0 10-.708.295h.011v-.004z" fill="#263238"/><path opacity=".3" d="M13.89 35.147s-2.411.112-2.763 1.525c0 0 .007-2.262 2.943-2.09l-.18.57v-.005z" fill="#000"/><path d="M33.69 38.715s-4.54-.33-5.608.546c-1.068.875-2.051 2.366-2.051 2.366l8.137-.15-.479-2.762z" fill="#FFBDA7"/><path opacity=".3" d="M31.136 38.662s.307 1.271-.237 2.174c-.176.292.207.584.08.699l-1.225.023.976-2.896h.406z" fill="#000"/><path d="M50.27 92.986l-.513-3.019-6.101.442 1.669 4.382 3.62.123 1.325-1.928z" fill="#FFBDA7"/><path d="M50.886 92.479h-1.604c-.363 0-.696.184-.91.476-.927 1.268-1.62.788-2.626-.403-.64-.073-.812.66-.865.86l-1.198 4.375a.693.693 0 00.67.88h12.703c2.02 0 2.438-2.044 1.608-2.232-3.744-.83-6.392-1.936-7.552-3.026-.214-.193.008-.335-.226-.926v-.004z" fill="#407BFF"/><path d="M50.568 94.887a.091.091 0 00.08-.046c.284-.45.766-.764 1.294-.837a.095.095 0 00.08-.108c-.007-.054-.053-.084-.106-.08a2.042 2.042 0 00-1.432.925c-.027.046-.015.104.03.13a.083.083 0 00.05.016h.004zm1.064.561a.091.091 0 00.08-.046c.284-.45.766-.764 1.294-.838a.095.095 0 00.08-.107.094.094 0 00-.106-.08 2.042 2.042 0 00-1.432.925c-.027.046-.015.104.03.13a.084.084 0 00.05.016h.004zm1.241.634c.03 0 .061-.016.08-.046.283-.45.766-.765 1.294-.838a.095.095 0 00.08-.107.095.095 0 00-.107-.08 2.042 2.042 0 00-1.431.925c-.027.046-.016.103.03.13a.084.084 0 00.05.016h.004z" fill="#fff"/><path d="M48.67 83.622l1.32-2.762-5.235-3.18-1.16 4.548 2.882 2.197 2.193-.803z" fill="#FFBDA7"/><path d="M49.462 83.564l-1.309-.929a1.135 1.135 0 00-1.022-.138c-1.485.5-1.776-.296-1.91-1.852-.478-.43-1.044.07-1.197.2l-3.499 2.877a.691.691 0 00.038 1.106c1.589 1.13 2.343 1.663 4.318 3.069l6.047 4.298c1.65 1.171 3.17-.254 2.599-.891-2.576-2.85-4.103-5.289-4.417-6.848-.065-.28.2-.27.349-.888l.003-.004z" fill="#407BFF"/><path d="M49.493 85.435a.094.094 0 00.084-.05.098.098 0 00-.042-.13 2.023 2.023 0 00-1.7-.073.098.098 0 00-.053.127c.019.05.076.073.126.05a1.829 1.829 0 011.539.069c.015.007.03.011.046.011v-.004zm.543 1.075c.035 0 .07-.019.085-.05a.098.098 0 00-.042-.13 2.038 2.038 0 00-1.7-.077.097.097 0 00.073.18 1.828 1.828 0 011.538.07.114.114 0 00.046.011v-.004zm.647 1.237c.035 0 .07-.02.085-.05a.098.098 0 00-.043-.13 2.023 2.023 0 00-1.699-.074.098.098 0 00-.053.127c.019.05.076.073.126.05a1.829 1.829 0 011.539.07c.015.007.03.01.045.01v-.003z" fill="#fff"/><path d="M29.893 48.452s19.348-2.65 25.192 2.865c0 0 4.528 2.88 2.786 12.586-1.14 5.992-4.52 13.72-8.144 18.617l-5.08-4.333s2.814-11.96 2.99-18.086l-7.027-.419-10.078-6.913-1.056-2.865.417-1.452z" fill="#263238"/><path opacity=".3" d="M46.89 60.059s.513-1.828.027-4.056c-.49-2.228-1.768-4.41-8.692-5.297-6.92-.89 7.926 9.353 7.926 9.353h.74z" fill="#000"/><path d="M10.874 48.24s-.536 5.531 1.213 9.58c1.75 4.048 7.93 5.53 12.099 5.261 4.168-.268 9.545-.614 11.83.031 0 0 2.959 16.834 8.069 29.11l6.185-.538s-3.36-23.76-3.9-29.278c-.54-5.52-.268-6.342-3.629-9.038-3.36-2.696-20.572-6.341-31.867-5.127z" fill="#263238"/><path opacity=".3" d="M46.89 66.846l2.002 14.963s.058-7.904-.084-10.3c-.172-2.889-1.918-4.663-1.918-4.663z" fill="#000"/><path d="M40.854 97.902a.578.578 0 00.563-.695l-6.775-32.16a.578.578 0 00-.562-.456H11.107a.573.573 0 00-.566.484L5.454 97.233c-.05.315.165.61.479.66a.574.574 0 00.658-.48l5.006-31.671h22.016l6.679 31.702a.573.573 0 00.562.457z" fill="#263238"/><path opacity=".5" d="M40.854 97.902a.578.578 0 00.563-.695l-6.775-32.16a.578.578 0 00-.562-.456H11.107a.573.573 0 00-.566.484L5.454 97.233c-.05.315.165.61.479.66a.574.574 0 00.658-.48l5.006-31.671h22.016l6.679 31.702a.573.573 0 00.562.457z" fill="#fff"/><path d="M10.533 65.167h24.09c.666 0 1.206-.541 1.206-1.21 0-.668-.54-1.21-1.206-1.21h-24.09c-.666 0-1.205.542-1.205 1.21 0 .669.54 1.21 1.205 1.21z" fill="#407BFF"/><path d="M1.772 44.23H18.27v7.252H1.772v-7.251z" fill="#263238"/><path opacity=".4" d="M1.772 44.23H18.27v7.252H1.772v-7.251z" fill="#fff"/><path d="M19.402 43.467H71.16v8.015H19.402v-8.015z" fill="#263238"/><path opacity=".4" d="M19.402 43.467H71.16v8.015H19.402v-8.015z" fill="#fff"/><path d="M17.484 42.852H19.4v54.474h-1.917V42.852z" fill="#263238"/><path opacity=".5" d="M17.484 42.852H19.4v54.474h-1.917V42.852z" fill="#fff"/><path d="M.616 42.852h1.918v54.474H.616V42.852z" fill="#263238"/><path opacity=".5" d="M.616 42.852h1.918v54.474H.616V42.852z" fill="#fff"/><path d="M70.2 42.852h1.917v54.474H70.2V42.852z" fill="#263238"/><path opacity=".5" d="M70.2 42.852h1.917v54.474H70.2V42.852z" fill="#fff"/><path d="M0 41.473h74v2.754H0v-2.754z" fill="#263238"/><path opacity=".5" d="M0 41.473h74v2.754H0v-2.754z" fill="#fff"/><path d="M23.68 40.828h21.262v.73H23.68v-.73z" fill="#407BFF"/><path opacity=".5" d="M23.68 40.828h21.262v.73H23.68v-.73z" fill="#fff"/></svg>