<svg width="31" height="30" fill="none" xmlns="http://www.w3.org/2000/svg"><path d="M15.127 29.669a14.862 14.862 0 01-7.387-1.973L.93 29.01l1.316-6.816a14.833 14.833 0 1123.363 3.13 14.81 14.81 0 01-10.482 4.344zm-7.185-3.116l.174.109a13.734 13.734 0 0016.727-2.104A13.735 13.735 0 103.28 21.826l.108.174-1.091 5.652 5.645-1.099z" fill="#407BFF"/><path d="M15.127 29.669a14.862 14.862 0 01-7.387-1.973L.93 29.01l1.316-6.816a14.833 14.833 0 1123.363 3.13 14.81 14.81 0 01-10.482 4.344zm-7.185-3.116l.174.109a13.734 13.734 0 0016.727-2.104A13.735 13.735 0 103.28 21.826l.108.174-1.091 5.652 5.645-1.099z" fill="#fff" opacity=".5"/><path d="M14.231 22.462l-8.01-8.775a1.67 1.67 0 01.21-2.342 1.648 1.648 0 012.342 0l5.87 6.433L28.24 5.28a1.663 1.663 0 012.342 0 1.67 1.67 0 01-.21 2.342l-16.141 14.84z" fill="#407BFF"/></svg>