<svg width="39" height="46" fill="none" xmlns="http://www.w3.org/2000/svg"><path d="M19.87 41.739c10.44 0 18.904-8.466 18.904-18.91S30.311 3.919 19.87 3.919C9.43 3.919.966 12.385.966 22.829s8.464 18.91 18.904 18.91zM33.636 5.87c-.06 0-.12-.02-.17-.07C28.727 1.33 21.579-.53 15.26 1.06a.251.251 0 01-.3-.18c-.03-.13.05-.27.18-.3 6.478-1.64 13.806.27 18.665 4.86.1.09.1.25 0 .35-.05.05-.12.08-.18.08h.01zM9.483 3.03a.26.26 0 01-.21-.11.255.255 0 01.07-.35c.87-.57 1.87-.97 2.89-1.15.14-.03.27.07.29.2.02.14-.07.27-.2.29-.96.17-1.89.54-2.7 1.08a.23.23 0 01-.14.04zm.46 40.65c0 1.15-.93 2.09-2.09 2.09-1.16 0-2.089-.93-2.089-2.09 0-1.16.93-2.09 2.09-2.09 1.16 0 2.089.93 2.089 2.09z" fill="#407BFF"/><path d="M19.9 20.29c1.34 0 2.42 1.09 2.42 2.42 0 1.33-1.09 2.42-2.42 2.42-1.33 0-2.42-1.09-2.42-2.42 0-1.33 1.09-2.42 2.42-2.42zm-8.308 0c1.34 0 2.42 1.09 2.42 2.42 0 1.33-1.09 2.42-2.42 2.42a2.428 2.428 0 01-2.419-2.42c0-1.33 1.09-2.42 2.42-2.42zm16.306 0c1.34 0 2.419 1.09 2.419 2.42 0 1.33-1.09 2.42-2.42 2.42a2.428 2.428 0 01-2.419-2.42c0-1.33 1.09-2.42 2.42-2.42z" fill="#fff"/></svg>