<svg width="361" height="238" fill="none" xmlns="http://www.w3.org/2000/svg"><path d="M360.085 205.489H.45v.216h359.635v-.216zm-265.843 6.905H38.21v.216h56.032v-.216zm229.807 5.466h-27.26v.216h27.26v-.216zm-215.275 1.223h-13.81v.216h13.81v-.216zm68.183-8.631h-31.072v.216h31.072v-.216zm10.933 0h-4.532v.216h4.532v-.216zm79.339 4.388h-31.072v.216h31.072v-.216zm-96.31-41.43H32.028c-2.23 0-4.1-1.871-4.1-4.1V-25.9c0-2.23 1.87-4.1 4.1-4.1h138.891c2.229 0 4.099 1.87 4.099 4.1v195.21c0 2.301-1.798 4.1-4.099 4.1zM32.028-29.784a3.944 3.944 0 00-3.956 3.956v195.21a3.945 3.945 0 003.956 3.956h138.891a3.945 3.945 0 003.956-3.956V-25.9a3.945 3.945 0 00-3.956-3.956H32.028v.072zM326.495 173.41H187.604c-2.23 0-4.1-1.871-4.1-4.1V-25.9c0-2.23 1.87-4.1 4.1-4.1h138.891c2.23 0 4.1 1.87 4.1 4.1v195.21c0 2.301-1.799 4.1-4.1 4.1zM187.604-29.784a3.944 3.944 0 00-3.956 3.956v195.21a3.945 3.945 0 003.956 3.956h138.891a3.945 3.945 0 003.956-3.956V-25.9a3.944 3.944 0 00-3.956-3.956H187.604v.072z" fill="#EBEBEB"/><path d="M180.267 238c77.025 0 139.467-3.639 139.467-8.128 0-4.488-62.442-8.127-139.467-8.127s-139.466 3.639-139.466 8.127c0 4.489 62.441 8.128 139.466 8.128z" fill="#F5F5F5"/><path d="M276.504 127.952H121.07a2.875 2.875 0 01-2.877-3.021l5.25-95.303c.072-1.654 1.511-3.021 3.237-3.021h155.434a2.876 2.876 0 012.878 3.02l-5.251 95.304c-.144 1.654-1.583 3.021-3.237 3.021z" fill="#263238"/><path d="M211.12 42.79h-15.032c-5.035 0-8.919-4.1-8.632-9.063l.144-2.805c.288-4.819 4.46-8.847 9.279-8.847h15.033c5.034 0 8.919 4.1 8.631 9.135l-.144 2.805c-.216 4.82-4.46 8.775-9.279 8.775z" fill="#263238"/><path d="M224.788 226.851h-4.82L206.734 24.233h4.819l13.235 202.618z" fill="#263238"/><path d="M188.683 226.851h4.819l13.234-202.618h-4.819L188.683 226.85z" fill="#263238"/><path d="M275.641 127.952H120.207a2.875 2.875 0 01-2.877-3.021l5.251-95.303c.072-1.654 1.51-3.021 3.236-3.021h155.435a2.875 2.875 0 012.877 3.02l-5.251 95.304c-.072 1.654-1.51 3.021-3.237 3.021z" fill="#457EEF"/><path opacity=".4" d="M122.723 125.075c-1.367 0-2.374-1.079-2.302-2.446l4.963-90.7a2.6 2.6 0 012.589-2.445h150.831c1.367 0 2.374 1.079 2.302 2.445l-4.963 90.7a2.6 2.6 0 01-2.589 2.446H122.723z" fill="#263238"/><path opacity=".1" d="M274.491 77.027h-45.386c-1.151 0-2.014-.935-1.942-2.085l2.302-41.287a.31.31 0 00-.288-.287.31.31 0 00-.288.287l-2.301 41.287c-.072 1.15-1.007 2.085-2.158 2.085h-47.184c-1.151 0-2.014-.935-1.942-2.085l2.301-41.287a.309.309 0 00-.287-.287.31.31 0 00-.288.287l-2.302 41.287c-.072 1.15-1.007 2.085-2.158 2.085h-45.529a.31.31 0 00-.288.288.31.31 0 00.288.288h45.386c1.15 0 2.014.935 1.942 2.086l-2.302 41.286c0 .144.144.287.288.287a.308.308 0 00.287-.287l2.302-41.286c.072-1.151 1.007-2.086 2.158-2.086h47.184c1.151 0 2.014.935 1.942 2.086l-2.302 41.286c0 .144.144.287.288.287s.288-.143.288-.287l2.301-41.286c.072-1.151 1.007-2.086 2.158-2.086h45.386a.31.31 0 00.288-.288c.144-.216 0-.288-.144-.288z" fill="#fff"/><path opacity=".4" d="M200.479 40.848H182.21l-1.007 18.557 18.197.504 1.079-19.06z" fill="#263238"/><path d="M198.466 59.045c-6.114-.287-12.228-.575-18.27-.863 1.007-6.33 1.655-12.587 1.87-18.916 6.114.287 12.3.575 18.414.863-.288 6.33-.935 12.659-2.014 18.916z" fill="#fff"/><path opacity=".4" d="M222.413 53.22l-18.269 1.438.431 18.486 18.27-.936-.432-18.988z" fill="#263238"/><path d="M221.84 71.49c-6.114.143-12.228.359-18.414.503.504-6.33.72-12.66.432-18.917 6.186-.144 12.299-.36 18.485-.504.288 6.258.072 12.587-.503 18.917z" fill="#457EEF"/><path opacity=".4" d="M169.12 86.953l-33.662-1.294-3.02 29.993 33.589 2.014 3.093-30.713z" fill="#263238"/><path d="M164.302 116.371c-11.221-.935-22.514-1.798-33.734-2.733 2.23-10.142 3.812-20.283 4.675-30.497 11.293.935 22.657 1.798 33.95 2.733-.935 10.142-2.518 20.356-4.891 30.497z" fill="#fff"/><g opacity=".3" fill="#263238"><path d="M134.447 45.02c-1.079 0-1.87-.863-1.798-1.87.072-1.079.935-1.87 2.014-1.87 1.078 0 1.87.863 1.798 1.87a2.036 2.036 0 01-2.014 1.87z"/><path opacity=".8" d="M164.225 45.02h-23.376c-1.079 0-1.87-.863-1.798-1.87.072-1.079.935-1.87 2.014-1.87h23.376c1.079 0 1.87.863 1.798 1.87-.072 1.007-1.007 1.87-2.014 1.87z"/><path d="M134.016 53.291c-1.079 0-1.87-.863-1.798-1.87.072-1.078.935-1.87 2.014-1.87 1.079 0 1.87.863 1.798 1.87-.072 1.007-1.007 1.87-2.014 1.87z"/><path opacity=".8" d="M167.893 53.291h-27.477c-1.078 0-1.87-.863-1.798-1.87.072-1.078.935-1.87 2.014-1.87h27.476c1.079 0 1.87.863 1.799 1.87-.072 1.007-1.007 1.87-2.014 1.87z"/><path d="M133.513 61.563c-1.079 0-1.87-.863-1.798-1.87.072-1.08.935-1.87 2.014-1.87 1.079 0 1.87.863 1.798 1.87a2.036 2.036 0 01-2.014 1.87z"/><path opacity=".8" d="M153.294 61.563h-13.378c-1.079 0-1.871-.863-1.799-1.87.072-1.08.935-1.87 2.014-1.87h13.379c1.079 0 1.87.863 1.798 1.87a2.036 2.036 0 01-2.014 1.87zm12.443 8.271h-13.378c-1.079 0-1.87-.863-1.798-1.87.072-1.079.935-1.87 2.014-1.87h13.306c1.079 0 1.87.863 1.798 1.87 0 1.08-.935 1.87-1.942 1.87z"/><path d="M133.082 69.834c-1.078 0-1.87-.863-1.798-1.87.072-1.079.935-1.87 2.014-1.87 1.079 0 1.87.863 1.798 1.87-.071 1.08-.935 1.87-2.014 1.87z"/><path opacity=".8" d="M145.671 69.834h-6.186c-1.079 0-1.87-.863-1.798-1.87.072-1.079.935-1.87 2.014-1.87h6.185c1.079 0 1.87.863 1.799 1.87-.072 1.08-1.007 1.87-2.014 1.87z"/></g><path d="M191.127 94.506h-8.991l-1.295 22.657h9.063l1.223-22.657zm13.74 4.675h-8.991l-1.007 17.982h9.062l.936-17.982zm14.67-12.084h-9.063l-1.654 30.066h9.063l1.654-30.066z" fill="#457EEF"/><path d="M184.151 107.309c-.863 0-1.798 0-2.733-.072-1.583-.072-3.669-.288-5.467-1.079-.288-.144-.431-.504-.288-.791.144-.288.504-.432.792-.288 1.654.719 3.596.935 5.034 1.007 10.861.575 20.356-2.302 29.994-8.92 2.302-1.581 5.682-4.53 7.768-7.551.216-.288.576-.36.791-.144.288.215.36.575.144.79-2.158 3.166-5.61 6.115-8.056 7.84-9.062 6.259-17.981 9.208-27.979 9.208z" fill="#fff"/><path d="M221.55 94.074c-.072 0-.144 0-.216-.072-.288-.144-.432-.431-.288-.791a9.902 9.902 0 00.504-6.258c-2.302 1.51-4.676 2.805-7.265 3.813-.288.143-.647 0-.791-.288-.144-.288 0-.648.288-.791 2.661-1.08 5.25-2.518 7.696-4.172.144-.072.359-.144.503-.072a.867.867 0 01.36.36c.863 2.517.719 5.322-.288 7.84-.072.287-.287.431-.503.431z" fill="#fff"/><path d="M269.24 71.705h-33.661c-.576 0-1.079-.216-1.511-.647-.36-.432-.575-.936-.575-1.511l1.582-28.483c.072-1.15 1.079-2.086 2.23-2.086h33.662c.575 0 1.079.216 1.51.647.36.432.576.935.576 1.51L271.47 69.62c-.072 1.15-1.079 2.086-2.23 2.086zm-31.935-32.152c-.863 0-1.583.72-1.655 1.583l-1.582 28.483c0 .431.144.791.36 1.079.287.288.647.431 1.079.431h33.661c.864 0 1.583-.719 1.655-1.582l1.582-28.483c0-.432-.144-.791-.359-1.079a1.465 1.465 0 00-1.079-.432h-33.662z" fill="#457EEF"/><path d="M272.407 47.178h-37.402a.31.31 0 01-.288-.288.31.31 0 01.288-.288h37.402a.31.31 0 01.288.288.31.31 0 01-.288.288z" fill="#457EEF"/><path d="M242.481 71.705a.31.31 0 01-.288-.288l1.366-24.599a.31.31 0 01.288-.288.31.31 0 01.288.288l-1.367 24.599c0 .144-.072.288-.287.288zm25.681-21.65h-20.283a.31.31 0 01-.288-.288.31.31 0 01.288-.288h20.283a.31.31 0 01.288.288.31.31 0 01-.288.288zm-3.095 3.597h-17.406a.31.31 0 01-.288-.288.31.31 0 01.288-.288h17.406a.31.31 0 01.288.288.31.31 0 01-.288.288zm-7.481 3.668h-10.142c-.143 0-.287-.144-.287-.288s.144-.288.287-.288h10.142a.31.31 0 01.288.288.31.31 0 01-.288.288zm1.872 7.264h-12.371a.31.31 0 01-.288-.288.31.31 0 01.288-.287h12.371a.31.31 0 01.288.287.31.31 0 01-.288.288zm-2.446 3.669h-10.141a.31.31 0 01-.288-.288.31.31 0 01.288-.288h10.141a.31.31 0 01.288.288.31.31 0 01-.288.288zm5.896 0h-3.237c-.143 0-.287-.144-.287-.288s.144-.288.287-.288h3.237a.31.31 0 01.288.288.31.31 0 01-.288.288zm3.311-7.337h-18.988a.31.31 0 01-.288-.288.31.31 0 01.288-.288h18.988a.31.31 0 01.288.288c0 .144-.072.288-.288.288z" fill="#457EEF"/><path d="M248.525 113.135c-4.388 0-7.984-1.295-10.214-3.74-2.373-2.59-3.38-6.618-2.733-11.149.431-2.733 1.295-5.035 2.661-6.905 1.367-1.798 3.381-3.309 5.898-4.46 5.611-2.517 12.156-2.445 17.407.216 2.373 1.223 3.884 2.662 4.387 4.46.072.287-.072.647-.359.72-.288.071-.648-.073-.72-.36-.431-1.44-1.726-2.734-3.812-3.74-4.963-2.518-11.149-2.59-16.399-.217-2.374 1.08-4.172 2.446-5.467 4.1-1.222 1.655-2.086 3.812-2.445 6.33-.576 4.172.287 7.84 2.445 10.213 3.021 3.237 7.912 3.453 10.645 3.309 4.963-.288 9.279-2.014 12.084-4.891 3.309-3.38 4.172-8.415 2.158-11.724-.432-.647-1.223-1.726-2.517-1.87a.538.538 0 01-.504-.648c0-.287.288-.575.647-.503 1.295.144 2.518 1.007 3.381 2.446 2.302 3.74 1.367 9.422-2.302 13.162-3.021 3.093-7.552 4.963-12.875 5.251h-1.366z" fill="#fff"/><path d="M99.206 52.284l-2.086 3.597-2.014 3.668c-1.367 2.445-2.59 4.963-3.812 7.48a84.746 84.746 0 00-1.654 3.74l-.072.216v.072c0 .072-.072.072-.072.072-.072.072-.072.144-.072.216-.072.144 0 .431.072.791.215.72.935 1.726 1.726 2.661.791.935 1.87 1.87 2.805 2.662l-1.654 3.596c-.863-.216-1.583-.504-2.302-.791-.72-.288-1.439-.72-2.23-1.151-1.438-.863-2.877-1.942-4.028-3.74a8.615 8.615 0 01-1.294-3.309c-.072-.647-.144-1.294-.072-1.942.072-.36.072-.647.144-.935l.144-.503.071-.288c.432-1.439.936-2.95 1.51-4.316a83.738 83.738 0 013.67-8.2 104.831 104.831 0 012.085-3.955c.72-1.295 1.439-2.59 2.302-3.884l6.833 4.243z" fill="#FFC3BD"/><path d="M92.227 77.028l3.812-1.008.215 6.114s-2.949.432-4.747-1.366l.72-3.74z" fill="#FFC3BD"/><path d="M101.361 75.014l-.863 5.394-4.244 1.798-.215-6.113 5.322-1.08z" fill="#FFC3BD"/><path d="M116.974 23.514c.072.431.36.72.648.647.287-.072.431-.431.359-.863-.072-.432-.359-.72-.647-.647-.288.072-.432.431-.36.863z" fill="#263238"/><path d="M117.33 24.233s1.438 2.23 2.733 3.165c-.576.863-1.942.79-1.942.79l-.791-3.955z" fill="#ED847E"/><path d="M115.029 21.5c-.072 0-.144 0-.144-.072-.071-.072-.071-.288 0-.36.936-1.007 2.086-.863 2.158-.863.144 0 .216.144.216.288 0 .143-.144.215-.288.215-.072 0-.935-.143-1.654.648-.216.143-.288.143-.288.143z" fill="#263238"/><path d="M105.103 29.412c.791 3.884 1.51 10.932-1.223 13.522 0 0 1.079 3.956 8.271 3.956 7.912 0 3.741-3.956 3.741-3.956-4.316-1.007-4.172-4.244-3.453-7.265l-7.336-6.257z" fill="#FFC3BD"/><path d="M102.371 43.653c-.576-1.079-1.223-2.302.071-2.661 1.439-.432 10.718-1.223 13.451-.432-.863 1.51.575 3.309.575 3.309l-14.097-.216z" fill="#263238"/><path d="M78.921 223.83c.504.144 1.08.144 1.295-.072a.62.62 0 00.144-.575c-.072-.144-.144-.288-.288-.36-.72-.359-2.374.36-2.445.36-.072 0-.072.072-.072.144s0 .072.072.144c.287.072.79.287 1.294.359zm.863-.791c.072 0 .072 0 .144.072l.216.216c.072.216 0 .288-.072.288-.288.215-1.367 0-2.086-.288.504-.216 1.367-.432 1.798-.288z" fill="#457EEF"/><path d="M77.627 223.399c.072 0 .072 0 0 0 .647-.144 1.942-1.079 1.942-1.655 0-.143 0-.287-.288-.431-.216-.072-.36-.072-.576.072-.719.359-1.15 1.798-1.15 1.87 0 .072 0 .072.072.144zm1.51-1.87c.072 0 .072.072 0 0 .216.072.216.144.216.144 0 .359-.863 1.078-1.439 1.366.144-.431.504-1.223.935-1.51h.288zm38.842 3.236c.647 0 1.366-.072 1.582-.431.072-.072.144-.288 0-.576-.072-.143-.216-.215-.431-.287-.864-.216-2.734.791-2.806.863-.072 0-.072.072-.072.144s.072.072.072.072c.36.072 1.007.215 1.655.215zm.791-1.079h.216c.144 0 .215.072.215.144.072.144.072.216 0 .288-.215.36-1.582.36-2.589.216.647-.216 1.582-.648 2.158-.648z" fill="#457EEF"/><path d="M116.395 224.622c.719-.288 1.942-1.439 1.87-2.014 0-.144-.144-.288-.431-.36-.288 0-.504.072-.72.216-.647.575-.791 1.942-.791 2.014 0 .072 0 .072.072.144-.072 0-.072-.072 0 0zm1.223-2.158h.072c.216 0 .216.144.216.144.072.359-.792 1.222-1.439 1.654.072-.432.288-1.295.719-1.654.144-.072.288-.144.432-.144z" fill="#457EEF"/><path d="M110.569 224.478h5.251l.575-12.228h-5.322l-.504 12.228zM71.8 222.032l5.108 1.079 5.178-11.364-5.106-1.151-5.18 11.436z" fill="#FFC3BD"/><path d="M77.412 222.608l-5.827-1.223c-.215-.072-.431.072-.503.288l-2.014 4.387c-.216.432.072 1.007.576 1.079 2.013.432 3.02.504 5.61 1.079 1.582.36 5.107 1.223 7.264 1.654 2.086.432 2.95-1.582 2.086-2.014-3.812-1.726-5.394-3.236-6.401-4.675-.216-.288-.432-.503-.791-.575zm38.409 1.222h-5.754c-.216 0-.432.144-.432.36l-1.079 4.675c-.143.503.288.935.792.935 2.085 0 5.106-.144 7.696-.144 3.093 0 5.682.144 9.278.144 2.158 0 2.805-2.158 1.87-2.374-4.099-.935-7.48-1.007-11.076-3.236-.432-.144-.863-.36-1.295-.36z" fill="#263238"/><path d="M94.46 44.085c-4.963 1.15-9.063 13.81-9.063 13.81l9.926 7.552s3.669-3.453 5.251-9.782c1.726-6.617-1.079-12.731-6.114-11.58z" fill="#457EEF"/><path opacity=".2" d="M94.46 44.085c-4.963 1.15-9.063 13.81-9.063 13.81l9.926 7.552s3.669-3.453 5.251-9.782c1.726-6.617-1.079-12.731-6.114-11.58z" fill="#FAFAFA"/><path opacity=".2" d="M98.703 53.435c-2.662 2.661-3.597 7.48-3.812 11.724l.431.36s3.668-3.453 5.251-9.782c.072-.36.216-.791.288-1.151l-2.158-1.15z" fill="#000"/><path d="M124.022 44.372s5.61 6.33.288 45.674H96.043c-.216-4.316 2.517-25.534-1.655-45.961 0 0 4.82-1.007 9.495-1.223 3.596-.144 8.847-.288 12.011 0 4.244.431 8.128 1.51 8.128 1.51z" fill="#457EEF"/><path opacity=".2" d="M124.022 44.372s5.61 6.33.288 45.674H96.043c-.216-4.316 2.517-25.534-1.655-45.961 0 0 4.82-1.007 9.495-1.223 3.596-.144 8.847-.288 12.011 0 4.244.431 8.128 1.51 8.128 1.51z" fill="#FAFAFA"/><path opacity=".2" d="M126.539 56.384l-.144-.072-6.401 1.511c-.36 4.316 4.099 9.566 6.401 11.94.288-5.538.288-9.926.144-13.379zM116.396 212.25l-.288 6.258h-5.322l.287-6.258h5.323zm-39.416-1.654l5.106 1.151-2.661 5.898-5.179-1.151 2.733-5.898z" fill="#000"/><path d="M102.875 25.456c1.367 5.034 1.87 8.127 5.035 10.213 4.675 3.165 10.573-.503 10.717-5.826.144-4.819-2.086-12.3-7.552-13.306-5.323-1.007-9.566 3.884-8.2 8.919z" fill="#FFC3BD"/><path d="M105.173 33.727c2.157 1.223 9.997-2.877 8.415-9.135 0 0 3.021-3.596 2.661-7.552-.359-3.956-3.093-5.466-5.97-4.603-2.589.719-2.445 2.157-2.445 2.157s-12.084 1.439-9.495 6.33c-4.963 5.323 4.172 11.293 6.834 12.803z" fill="#263238"/><path d="M98.63 21.284s-1.44-2.518-3.525-1.08c1.007 0 2.59.145 3.524 1.08zm17.26-1.654s2.661-5.97-1.438-7.84c1.366 1.942 2.086 5.034 1.438 7.84z" fill="#263238"/><path d="M111.504 25.671c.359 1.295 1.222 2.446 2.157 3.165 1.367 1.007 2.374 0 2.302-1.51-.072-1.367-.935-3.597-2.446-4.029-1.51-.431-2.445.864-2.013 2.374z" fill="#FFC3BD"/><path d="M114.313 90.046s-5.97 40.351-9.279 55.528c-3.596 16.543-22.944 71.351-22.944 71.351l-9.495-2.014s13.523-44.666 16.543-67.827c2.302-17.766 6.905-57.038 6.905-57.038h18.27z" fill="#263238"/><path d="M84.392 213.761c.072 0-1.799 3.452-1.799 3.452l-10.645-2.302.863-3.164 11.58 2.014z" fill="#457EEF"/><path opacity=".3" d="M110.569 104.432c-6.905 1.366-6.185 27.188-5.394 40.494 2.014-9.422 4.891-27.476 6.905-40.351-.432-.143-.935-.215-1.511-.143z" fill="#000"/><path d="M124.379 90.046s.72 39.488.144 55.599c-.575 16.759-6.473 71.64-6.473 71.64h-8.919s-.36-53.874-.719-70.345c-.432-17.91-2.59-56.894-2.59-56.894h18.557z" fill="#263238"/><path opacity=".4" d="M174.082 62.21h-18.27l-1.007 18.558 18.198.503 1.079-19.06z" fill="#263238"/><path d="M164.443 74.15c-6.114-.719-12.156-1.51-18.27-2.23 1.511-6.185 2.59-12.443 3.309-18.629 6.114.72 12.228 1.511 18.341 2.23-.719 6.186-1.87 12.444-3.38 18.63zm-44.669 139.61c.072 0-.503 3.74-.503 3.74H108.41l-.288-3.308 11.652-.432z" fill="#457EEF"/><path d="M126.683 49.191c.791 1.295 1.726 2.662 2.661 4.028.936 1.295 1.871 2.662 2.878 3.956 1.942 2.518 4.027 4.963 6.329 7.05.576.503 1.151 1.006 1.726 1.438l.432.36c-.072 0-.144-.073-.288-.073h-.216c.144.072.648 0 1.151-.287.576-.216 1.223-.576 1.798-.935 2.518-1.583 5.107-3.74 7.625-5.898l3.093 2.517c-1.942 3.093-4.028 5.898-6.905 8.416-.72.647-1.511 1.294-2.446 1.798-.935.575-2.014 1.079-3.596 1.366-.791.072-1.727.072-2.734-.216-.503-.143-1.006-.431-1.366-.647l-.647-.36c-.792-.503-1.583-1.078-2.374-1.654-2.949-2.373-5.467-5.035-7.768-7.768a60.067 60.067 0 01-3.237-4.244c-1.007-1.51-2.014-2.877-2.949-4.531l6.833-4.316z" fill="#FFC3BD"/><path d="M116.254 52.356c-1.654 7.049 11.149 14.026 11.149 14.026l8.343-9.782s-3.812-5.754-8.487-10.286c-5.826-5.538-9.71.648-11.005 6.042z" fill="#457EEF"/><path opacity=".2" d="M116.254 52.356c-1.654 7.049 11.149 14.026 11.149 14.026l8.343-9.782s-3.812-5.754-8.487-10.286c-5.826-5.538-9.71.648-11.005 6.042z" fill="#FAFAFA"/><path d="M149.912 60.196l1.942-6.33 5.179 2.59s-.719 4.603-4.532 5.395l-2.589-1.655z" fill="#FFC3BD"/><path d="M153.942 52.14l4.676 1.295-1.583 3.021-5.179-2.517 2.086-1.798z" fill="#FFC3BD"/></svg>