<svg width="272" height="414" fill="none" xmlns="http://www.w3.org/2000/svg"><path d="M136.072 1.077a12.65 12.65 0 00-7.038 2.14 12.69 12.69 0 00-4.665 5.701 12.731 12.731 0 002.746 13.843 12.635 12.635 0 0013.805 2.754 12.679 12.679 0 005.685-4.678 12.727 12.727 0 00-1.576-16.04 12.648 12.648 0 00-8.957-3.72zm0 11.474a3.672 3.672 0 01-3.397-2.276 3.697 3.697 0 01.797-4.018 3.667 3.667 0 015.657.559 3.693 3.693 0 01-1.65 5.454c-.446.185-.924.28-1.407.28z" fill="#407BFF"/><path opacity=".6" d="M136.072 1.077a12.65 12.65 0 00-7.038 2.14 12.69 12.69 0 00-4.665 5.701 12.731 12.731 0 002.746 13.843 12.635 12.635 0 0013.805 2.754 12.679 12.679 0 005.685-4.678 12.727 12.727 0 00-1.576-16.04 12.648 12.648 0 00-8.957-3.72zm0 11.474a3.672 3.672 0 01-3.397-2.276 3.697 3.697 0 01.797-4.018 3.667 3.667 0 015.657.559 3.693 3.693 0 01-1.65 5.454c-.446.185-.924.28-1.407.28z" fill="#fff"/><path d="M261.413 17.755H10.716c-5.695 0-10.313 4.63-10.313 10.342V402.7c0 5.711 4.618 10.341 10.313 10.341h250.697c5.696 0 10.313-4.63 10.313-10.341V28.097c0-5.712-4.617-10.342-10.313-10.342z" fill="#407BFF"/><path d="M257.366 40.73h-242.6v353.507h242.6V40.73z" fill="#F4F7FF"/><path d="M200.595 14.387H71.549a2.661 2.661 0 00-2.657 2.664v16.596a2.661 2.661 0 002.657 2.665h129.046a2.66 2.66 0 002.657-2.665V17.051a2.66 2.66 0 00-2.657-2.664z" fill="#407BFF"/><path opacity=".4" d="M200.595 14.387H71.549a2.661 2.661 0 00-2.657 2.664v16.596a2.661 2.661 0 002.657 2.665h129.046a2.66 2.66 0 002.657-2.665V17.051a2.66 2.66 0 00-2.657-2.664z" fill="#fff"/><path d="M185.738 56.677h-38.884a4.329 4.329 0 01-3.883-2.264 7.82 7.82 0 00-2.872-3.024 7.788 7.788 0 00-8.026 0 7.82 7.82 0 00-2.872 3.024 4.353 4.353 0 01-3.883 2.264H86.393a4.125 4.125 0 01-2.921-1.213 4.148 4.148 0 01-1.21-2.929V29.27c0-1.098.435-2.152 1.21-2.928a4.125 4.125 0 012.92-1.214h99.346a4.13 4.13 0 012.921 1.213 4.15 4.15 0 011.21 2.93v23.195a4.146 4.146 0 01-2.534 3.89 4.123 4.123 0 01-1.597.321zm-49.666-9.181a10.5 10.5 0 015.442 1.508 10.543 10.543 0 013.88 4.111 1.64 1.64 0 001.46.8h38.884a1.378 1.378 0 001.377-1.38V29.27a1.378 1.378 0 00-1.377-1.38H86.393a1.375 1.375 0 00-1.377 1.38v23.196a1.383 1.383 0 001.377 1.38h38.912a1.625 1.625 0 001.445-.8 10.559 10.559 0 013.895-4.07 10.509 10.509 0 015.427-1.48z" fill="#263238"/><path d="M185.738 56.677h-38.884a4.329 4.329 0 01-3.883-2.264 7.82 7.82 0 00-2.872-3.024 7.788 7.788 0 00-8.026 0 7.82 7.82 0 00-2.872 3.024 4.353 4.353 0 01-3.883 2.264H86.393a4.125 4.125 0 01-2.921-1.213 4.148 4.148 0 01-1.21-2.929V29.27c0-1.098.435-2.152 1.21-2.928a4.125 4.125 0 012.92-1.214h99.346a4.13 4.13 0 012.921 1.213 4.15 4.15 0 011.21 2.93v23.195a4.146 4.146 0 01-2.534 3.89 4.123 4.123 0 01-1.597.321zm-49.666-9.181a10.5 10.5 0 015.442 1.508 10.543 10.543 0 013.88 4.111 1.64 1.64 0 001.46.8h38.884a1.378 1.378 0 001.377-1.38V29.27a1.378 1.378 0 00-1.377-1.38H86.393a1.375 1.375 0 00-1.377 1.38v23.196a1.383 1.383 0 001.377 1.38h38.912a1.625 1.625 0 001.445-.8 10.559 10.559 0 013.895-4.07 10.509 10.509 0 015.427-1.48z" fill="#fff" opacity=".2"/><path d="M179.844 21.083H92.341a1.6 1.6 0 00-1.597 1.601v6.214a1.6 1.6 0 001.597 1.601h87.503a1.6 1.6 0 001.598-1.601v-6.214a1.6 1.6 0 00-1.598-1.601z" fill="#407BFF"/><path opacity=".6" d="M179.803 21.083H92.3a1.6 1.6 0 00-1.598 1.601v6.214a1.6 1.6 0 001.598 1.601h87.503a1.6 1.6 0 001.597-1.601v-6.214a1.6 1.6 0 00-1.597-1.601z" fill="#fff"/><path opacity=".3" d="M158.598 233.803h-24.509v24.577h24.509v-24.577zm-2.864 34.462h-18.781a2.863 2.863 0 01-2.025-.841 2.879 2.879 0 01-.839-2.031 2.878 2.878 0 01.844-2.022 2.858 2.858 0 012.02-.836h18.781c.758 0 1.484.3 2.021.836.536.536.84 1.263.843 2.022a2.865 2.865 0 01-2.864 2.872zm78.871-34.462h-63.036a2.62 2.62 0 00-2.616 2.623v.014a2.62 2.62 0 002.616 2.624h63.036a2.62 2.62 0 002.616-2.624v-.014a2.62 2.62 0 00-2.616-2.623zm-13.769 13.807h-49.267a2.62 2.62 0 00-2.616 2.623v.014a2.62 2.62 0 002.616 2.623h49.267a2.62 2.62 0 002.616-2.623v-.014a2.62 2.62 0 00-2.616-2.623zm13.769 13.806h-63.036a2.62 2.62 0 00-2.616 2.624v.014a2.62 2.62 0 002.616 2.623h63.036a2.62 2.62 0 002.616-2.623v-.014a2.62 2.62 0 00-2.616-2.624zm-35.8 13.807h-27.236a2.62 2.62 0 00-2.616 2.624v.013a2.62 2.62 0 002.616 2.624h27.236a2.62 2.62 0 002.616-2.624v-.013a2.62 2.62 0 00-2.616-2.624zm9.707-198.085H62.944a4.758 4.758 0 01-3.355-1.399 4.784 4.784 0 01-1.396-3.364c0-1.263.5-2.475 1.392-3.368a4.744 4.744 0 013.359-1.395h145.568a4.74 4.74 0 013.359 1.395 4.77 4.77 0 011.392 3.368 4.786 4.786 0 01-1.396 3.364 4.757 4.757 0 01-3.355 1.4zm24.275 28.193h-96.082a2.638 2.638 0 01-1.85-4.492 2.613 2.613 0 011.85-.768h96.082c.694 0 1.359.276 1.85.768.491.492.766 1.16.766 1.855 0 .697-.275 1.366-.765 1.86a2.624 2.624 0 01-1.851.777zm-13.769 13.807h-82.313a2.638 2.638 0 01-1.85-4.492 2.613 2.613 0 011.85-.768h82.313c.694 0 1.359.276 1.85.768a2.63 2.63 0 01.766 1.855c0 .697-.275 1.366-.765 1.86a2.626 2.626 0 01-1.851.777zm13.769 13.807h-96.082a2.638 2.638 0 01-1.85-4.492 2.613 2.613 0 011.85-.768h96.082c.694 0 1.359.276 1.85.768.491.492.766 1.159.766 1.855a2.629 2.629 0 01-2.616 2.637zm-27.538 13.807h-68.544a2.636 2.636 0 01-1.85-4.492 2.614 2.614 0 011.85-.769h68.544c.693 0 1.359.277 1.85.769a2.636 2.636 0 01-1.85 4.492zm-64.289 16.457l1.514 3.065 3.387.497-2.45 2.389.578 3.383-3.029-1.602-3.016 1.602.578-3.383-2.45-2.389 3.373-.497 1.515-3.065zm17.101 0l1.515 3.065 3.373.497-2.451 2.389.579 3.383-3.016-1.602-3.029 1.602.578-3.383-2.451-2.389 3.387-.497 1.515-3.065zm17.088 0l1.514 3.065 3.387.497-2.451 2.389.579 3.383-3.029-1.602-3.03 1.602.579-3.383-2.438-2.389 3.374-.497 1.515-3.065zm17.102 0l1.501 3.065 3.387.497-2.451 2.389.578 3.383-3.015-1.602-3.03 1.602.579-3.383-2.451-2.389 3.387-.497 1.515-3.065zm17.087 0l1.515 3.065 3.373.497-2.437 2.389.579 3.383-3.03-1.602-3.029 1.602.578-3.383-2.437-2.389 3.374-.497 1.514-3.065zm-68.378 17.59l1.514 3.065 3.387.497-2.45 2.389.578 3.383-3.029-1.602-3.016 1.602.578-3.383-2.45-2.389 3.373-.497 1.515-3.065zm17.101 0l1.515 3.065 3.373.497-2.451 2.389.579 3.383-3.016-1.602-3.029 1.602.578-3.383-2.451-2.389 3.387-.497 1.515-3.065zm17.088 0l1.514 3.065 3.387.497-2.451 2.389.579 3.383-3.029-1.602-3.03 1.602.579-3.383-2.438-2.389 3.374-.497 1.515-3.065z" fill="#000"/><path opacity=".1" d="M192.251 180.799l1.501 3.065 3.387.497-2.451 2.389.578 3.383-3.015-1.602-3.03 1.602.579-3.383-2.451-2.389 3.387-.497 1.515-3.065zm17.087 0l1.515 3.065 3.373.497-2.437 2.389.579 3.383-3.03-1.602-3.029 1.602.578-3.383-2.437-2.389 3.374-.497 1.514-3.065z" fill="#000"/><path opacity=".3" d="M140.96 198.389l1.514 3.065 3.387.497-2.45 2.389.578 3.382-3.029-1.601-3.016 1.601.578-3.382-2.45-2.389 3.373-.497 1.515-3.065zm17.101 0l1.515 3.065 3.373.497-2.451 2.389.579 3.382-3.016-1.601-3.029 1.601.578-3.382-2.451-2.389 3.387-.497 1.515-3.065zm17.088 0l1.514 3.065 3.387.497-2.451 2.389.579 3.382-3.029-1.601-3.03 1.601.579-3.382-2.438-2.389 3.374-.497 1.515-3.065zm17.102 0l1.501 3.065 3.387.497-2.451 2.389.578 3.382-3.015-1.601-3.03 1.601.579-3.382-2.451-2.389 3.387-.497 1.515-3.065z" fill="#000"/><path opacity=".1" d="M209.338 198.389l1.515 3.065 3.373.497-2.437 2.389.579 3.382-3.03-1.601-3.029 1.601.578-3.382-2.437-2.389 3.374-.497 1.514-3.065z" fill="#000"/><path opacity=".3" d="M158.598 302.837h-24.509v24.576h24.509v-24.576zm-2.864 34.461h-18.781a2.859 2.859 0 01-2.025-.841 2.875 2.875 0 01-.839-2.03c.004-.76.307-1.487.844-2.022a2.86 2.86 0 012.02-.837h18.781a2.86 2.86 0 012.021.837c.536.535.84 1.262.843 2.022 0 .761-.301 1.492-.838 2.03a2.86 2.86 0 01-2.026.841zm78.871-34.461h-63.036a2.62 2.62 0 00-2.616 2.623v.014a2.62 2.62 0 002.616 2.623h63.036a2.62 2.62 0 002.616-2.623v-.014a2.62 2.62 0 00-2.616-2.623zm-13.769 13.806h-49.267a2.62 2.62 0 00-2.616 2.624v.014a2.62 2.62 0 002.616 2.623h49.267a2.62 2.62 0 002.616-2.623v-.014a2.62 2.62 0 00-2.616-2.624zm13.769 13.807h-63.036a2.62 2.62 0 00-2.616 2.624v.013a2.62 2.62 0 002.616 2.624h63.036a2.62 2.62 0 002.616-2.624v-.013a2.62 2.62 0 00-2.616-2.624zm-35.8 13.807h-27.236a2.62 2.62 0 00-2.616 2.623v.014a2.62 2.62 0 002.616 2.623h27.236a2.62 2.62 0 002.616-2.623v-.014a2.62 2.62 0 00-2.616-2.623z" fill="#000"/><path d="M118.447 100.071H30.076v117.661h88.371V100.071z" fill="#fff"/><path d="M114.316 104.213h-80.11V213.59h80.11V104.213z" fill="#407BFF"/><path opacity=".4" d="M114.316 104.213h-80.11V213.59h80.11V104.213z" fill="#fff"/><path d="M114.316 189.152v24.439h-6.223a32.316 32.316 0 00-5.659-4.322 13.31 13.31 0 00-3.14-1.381c-9.35-2.54 4.131-27.614 4.131-27.614 3.112.995 6.981 4.529 10.891 8.878z" fill="#407BFF"/><path opacity=".6" d="M114.316 189.152v24.439h-6.223a32.316 32.316 0 00-5.659-4.322 13.31 13.31 0 00-3.14-1.381c-9.35-2.54 4.131-27.614 4.131-27.614 3.112.995 6.981 4.529 10.891 8.878z" fill="#fff"/><path opacity=".2" d="M114.317 213.507v.083h-6.224a32.31 32.31 0 00-5.659-4.321l1.845-11.557a26.86 26.86 0 014.75 5.136 35.218 35.218 0 015.288 10.659z" fill="#000"/><path d="M97.16 179.266c-.193.995-.386 2.002-.606 2.997-.22.994-.523 2.361-.812 3.534-3.002 12.109-7.959 22.712-15.064 27.793H56.39c-7.064-3.604-8.413-9.665-8.179-16.016.152-4.294 1.033-8.67 1.377-12.426.11-1.295.11-2.598 0-3.893-.179-1.961-.55-4.322-1.005-6.904-2.107-12.025-6.224-29.38-4.13-38.286 2.492-10.824 10.367-13.806 10.367-13.806s2.672-.18 6.775-.152c3.03 0 6.885.152 10.919.538h.29A79.797 79.797 0 0186.2 125.02l1.005.29a50.48 50.48 0 012.575.842c.55.193 1.087.4 1.624.621a5.525 5.525 0 011.846 1.284c6.237 6.42 7.779 29.961 3.91 51.209z" fill="#263238"/><path d="M89.904 128.113c8.743-4.142 12.516 24.452 9.39 45.093" stroke="#263238" stroke-width=".635" stroke-linecap="round" stroke-linejoin="round"/><path d="M109.69 213.591H46.847a269.928 269.928 0 00-.798-3.549 143.053 143.053 0 00-6.155-20.186 58.528 58.528 0 018.041-3.99c.523-.235 1.06-.455 1.639-.676a92.101 92.101 0 017.545-2.624l.909-.262a91.54 91.54 0 016.884-1.712 95.747 95.747 0 0115.532-1.961 93.96 93.96 0 0111.924.194c1.556.11 3.14.262 4.75.469 2.025.249 4.132.566 6.211.967.234.372 4.062 6.475 5.645 22.602.386 3.175.62 6.737.716 10.728z" fill="#407BFF"/><path d="M57.477 194.868s-7.188-17.755 15.256-19.757c22.444-2.002 26.92 12.025 26.92 12.025l-10.424-3.617-5.508 25.474a41.744 41.744 0 00-19.662-22.602l-6.582 8.477z" fill="#407BFF"/><path opacity=".6" d="M57.477 194.868s-7.188-17.755 15.256-19.757c22.444-2.002 26.92 12.025 26.92 12.025l-10.424-3.617-5.508 25.474a41.744 41.744 0 00-19.662-22.602l-6.582 8.477z" fill="#fff"/><path d="M82.785 197.713a92.603 92.603 0 00-19.511-15.464c5.37-4.556 4.82-11.736 3.745-16.251a25.813 25.813 0 00-1.377-4.142l14.912 3.618a44.035 44.035 0 00-.922 6.323 19.596 19.596 0 00.179 4.695c.785 4.57 3.346 4.763 3.346 4.763 2.437 5.136-.372 16.458-.372 16.458z" fill="#FFBDA7"/><path opacity=".2" d="M79.687 171.783a19.6 19.6 0 00.179 4.695c-5.935-1.105-10.217-6.144-12.847-10.452a25.823 25.823 0 00-1.377-4.142l14.912 3.617a43.9 43.9 0 00-.867 6.282z" fill="#000"/><path d="M74.964 122.576c16.234 0 17.597 7.87 18.533 21.428 1.157 16.955-2.616 28.995-19.015 25.322-22.265-4.956-21.315-46.75.482-46.75z" fill="#FFBDA7"/><path d="M85.016 143.258a28.072 28.072 0 003.8 5.523 3.57 3.57 0 01-3.456 1.491l-.344-7.014z" fill="#F19B7C"/><path d="M76.988 142.209c0 1.091-.537 1.975-1.267 1.988-.73.014-1.377-.842-1.377-1.933 0-1.09.538-1.96 1.254-1.974.716-.014 1.363.787 1.39 1.919z" fill="#263238"/><path d="M75.35 140.29l2.327-.98s-1.129 2.002-2.327.98zm15.036 1.353c0 1.091-.537 1.975-1.267 1.988-.73.014-1.377-.842-1.377-1.933 0-1.09.537-1.96 1.253-1.974.716-.014 1.363.842 1.39 1.919z" fill="#263238"/><path d="M88.747 139.779l2.313-.966s-1.046 2.016-2.313.966z" fill="#263238"/><path d="M76.878 133.069s-3.69-.483-5.7 1.975m15.242-2.5a6.085 6.085 0 015.22 1.091" stroke="#263238" stroke-width=".9" stroke-linecap="round" stroke-linejoin="round"/><path d="M60.85 145.51s6.155-10.798 5.247-19.151c0 0 9.252-9.568 21.714-.11 0 0 5.218 9.002 5.507 15.988 0 0 2.589-23.472-19.965-24.065-22.554-.594-22.5 32.515-10.878 42.401 0 0-5.439-8.312-1.625-15.063z" fill="#263238"/><path d="M62.985 148.284a5.788 5.788 0 00-2.005-3.92 5.76 5.76 0 00-4.178-1.368c-4.13.442-6.03 8.809 4.131 10.839 1.405.29 2.23-1.132 2.052-5.551z" fill="#FFBDA7"/><path d="M83.583 157.397s-5.507 1.242-7.78-3.687" stroke="#263238" stroke-width=".9" stroke-linecap="round" stroke-linejoin="round"/><path d="M66.097 126.359s14.994-6.668 24.922 2.14c0 0 3.897-11.597-9.404-15.56-13.302-3.963-26.823 9.375-26.823 9.375l11.305 4.045zm0 0s-8.757 8.657-7.49 25.902c1.266 17.244-.4 28.151-3.815 38.948s5.508 14.014 5.508 14.014-10.19 2.513-12.282-8.422c-1.377-7.179 1.9-22.726.248-41.241-1.653-18.514 4.943-31.617 17.83-29.201z" fill="#263238"/><path opacity=".2" d="M49.752 213.59h-2.905c-.262-1.187-.523-2.375-.799-3.548l2.19-1.92a45.337 45.337 0 011.514 5.468z" fill="#000"/><path d="M48.251 213.59H34.207v-19.329a35.003 35.003 0 015.672-4.377 12.726 12.726 0 015.125 3.963 12.776 12.776 0 012.517 5.978c.406 2.744.64 5.511.703 8.284.069 1.974.055 3.866.027 5.481z" fill="#407BFF"/><path opacity=".6" d="M48.251 213.59H34.207v-19.329a35.003 35.003 0 015.672-4.377 12.726 12.726 0 015.125 3.963 12.776 12.776 0 012.517 5.978c.406 2.744.64 5.511.703 8.284.069 1.974.055 3.866.027 5.481z" fill="#fff"/><path opacity=".3" d="M118.447 231.442H30.076v117.495h88.371V231.442z" fill="#000"/><path opacity=".3" d="M103.59 249.653H43.322a2.624 2.624 0 01-1.85-.777 2.641 2.641 0 01-.766-1.86c0-.696.276-1.363.766-1.855a2.612 2.612 0 011.85-.768h60.268a2.608 2.608 0 012.43 1.616 2.633 2.633 0 010 2.016 2.64 2.64 0 01-1.423 1.428c-.319.132-.661.2-1.007.2zm.014 9.43H43.322a2.62 2.62 0 00-2.616 2.624v.013a2.62 2.62 0 002.616 2.624h60.282a2.62 2.62 0 002.616-2.624v-.013a2.62 2.62 0 00-2.616-2.624zm-27.552 19.965h-32.73a2.639 2.639 0 01-1.85-4.492 2.613 2.613 0 011.85-.769h32.73a2.607 2.607 0 011.859.764 2.618 2.618 0 01.77 1.86c0 .699-.276 1.37-.77 1.864a2.625 2.625 0 01-1.859.773zm27.538 14.69H43.322a2.614 2.614 0 01-1.85-.768 2.627 2.627 0 01-.766-1.855c0-.697.275-1.366.766-1.86a2.624 2.624 0 011.85-.777h60.268c.698 0 1.367.277 1.86.772a2.642 2.642 0 01.57 2.872 2.615 2.615 0 01-2.43 1.616zm0 14.691H43.322a2.615 2.615 0 01-1.85-.769 2.627 2.627 0 010-3.71 2.612 2.612 0 011.85-.768h60.268a2.61 2.61 0 011.859.763 2.615 2.615 0 01.771 1.86 2.633 2.633 0 01-.771 1.86 2.607 2.607 0 01-1.859.764zm-41.307 14.648h-18.96a2.61 2.61 0 01-1.85-.768 2.627 2.627 0 01-.767-1.855 2.628 2.628 0 011.612-2.436c.318-.133.66-.201 1.005-.201h18.96a2.604 2.604 0 011.864.768 2.622 2.622 0 01.766 1.869 2.626 2.626 0 01-1.625 2.427c-.319.131-.66.198-1.005.196zm27.538 14.746H43.322a2.614 2.614 0 01-1.85-.768 2.628 2.628 0 010-3.71 2.613 2.613 0 011.85-.769h46.5a2.607 2.607 0 011.858.764 2.618 2.618 0 01.771 1.86 2.632 2.632 0 01-.771 1.859 2.613 2.613 0 01-1.859.764z" fill="#fff"/></svg>