<svg width="417" height="228" fill="none" xmlns="http://www.w3.org/2000/svg"><g clip-path="url(#clip0_849_6689)"><path d="M236.288 13.777l-.091-1.088L231.393 0l-1.54 13.505.09.997 6.345-.725z" fill="#AAC5FF"/><path d="M245.351 86.194a3.307 3.307 0 01-2.809 3.626 3.308 3.308 0 01-3.626-2.81l-.272-2.447a3.308 3.308 0 012.81-3.626 3.306 3.306 0 013.625 2.81l.272 2.447z" fill="#7DB4D9"/><path d="M236.208 12.74l-6.387.79 8.626 69.708 6.386-.79-8.625-69.709z" fill="#AAC5FF"/><path d="M236.212 12.674l-3.059.379 8.626 69.709 3.058-.379-8.625-69.709z" fill="#407BFF"/><path d="M233.961 13.038l-1.619.2 8.626 69.71 1.619-.201-8.626-69.71z" fill="#7DB4D9"/><path d="M244.88 82.36l-6.386.79.322 2.608 6.387-.79-.323-2.609z" fill="#7DB4D9"/><path d="M232.39 2.72L231.393 0l-.362 2.9 1.359-.18z" fill="#263238"/><path d="M71.602 175.381c-2.266-2.809-4.532-5.619-7.613-7.432-3.082-1.813-7.16-2.356-10.151-.453-2.085 1.36-3.354 3.625-5.53 4.804-2.356 1.178-5.437.634-7.25-1.269-1.813-1.904-2.085-5.076-.725-7.342 1.994 1.269 4.622-1.359 4.26-3.625-.363-2.357-2.448-3.988-4.532-5.076-2.085-1.087-4.441-1.903-5.982-3.716-1.54-1.813-1.813-4.985.181-6.254.544-.362 1.178-.453 1.632-.815 2.265-1.541.906-5.167-1.27-6.889-2.084-1.722-4.894-2.991-5.71-5.619-.724-2.447.907-5.257 3.354-6.163 2.447-.907 5.257-.091 7.16 1.631.635.634 1.36 1.36 2.266 1.269.635-.091 1.088-.635 1.45-1.088 3.082-4.441 1.45-11.329-3.353-13.867 1.088-2.9 4.35-4.894 7.523-4.441 3.081.453 5.71 3.172 5.982 6.344.181 2.629-.907 5.71.906 7.523.725.725 1.722 1.088 2.628 1.541 3.173 1.631 5.257 4.985 5.348 8.52 4.804-2.719 6.526-9.698 3.535-14.321 4.441-.272 6.435-6.435 4.441-10.423-1.994-3.988-6.163-6.435-9.88-8.882-2.084-1.45-4.35-3.444-4.078-5.982.363-3.263 4.804-4.985 4.804-8.248 0-2.266-2.266-3.807-3.988-5.348-4.532-4.26-5.438-11.873-2.085-17.04.635-1.087 1.904-2.174 3.082-1.63.906.362 1.178 1.54 1.903 2.265 1.541 1.632 4.441.363 5.529-1.54 1.088-1.904 1.088-4.26 1.722-6.345.635-2.085 2.356-4.35 4.532-4.079 2.9.363 3.625 4.26 3.263 7.16-.363 2.901-.454 6.617 2.175 7.977 2.99 1.45 6.073-1.813 7.795-4.623.362 2.9 4.26 3.354 7.16 3.626 2.9.271 6.435 3.081 4.622 5.347m232.21 120.272c5.801-5.438 15.046-6.525 22.025-2.719 3.444 1.904 6.344 4.895 10.242 5.348 3.988.544 8.157-2.175 9.244-6.073 1.088-3.807-.906-8.338-4.531-10.06-.544-.272-1.088-.454-1.45-.816-.997-1.088-.363-2.991.906-3.807 1.269-.816 2.81-.906 4.26-1.178 5.8-1.178 10.514-6.526 11.148-12.417.544-5.892-2.991-12.055-8.52-14.321-.181-5.438 7.614-9.245 6.254-14.592-.544-2.085-2.447-3.626-4.622-4.079-3.263-.725-6.889.816-8.611 3.626-.906 1.541-1.359 3.535-2.809 4.713-3.173 2.447-7.886-1.813-7.342-5.801.544-3.988 3.897-6.798 7.07-9.154.997-.725 2.084-1.541 2.719-2.719 2.356-4.169-2.901-9.245-1.813-13.867 1.45-6.164 11.329-5.801 14.32-11.33 2.266-4.17-.725-9.426-4.622-12.145-3.897-2.72-8.61-4.26-12.055-7.432-.543-.544-1.087-1.179-1.359-1.904-.635-1.812.634-3.716 1.359-5.528 2.085-5.076-.997-11.692-6.344-12.961-5.348-1.27-11.239 3.988-10.151 9.335.362 1.722 1.178 3.716.09 5.076-1.722 2.175-4.985-.09-7.613-1.088-2.9-1.088-6.526 0-8.248 2.538-1.813 2.538-1.541 6.344.453 8.7-4.078 2.267-8.973 2.358-13.323 3.989-4.351 1.631-8.52 6.073-7.07 10.423.635 1.813 2.085 3.263 2.719 5.076 1.269 3.534-1.541 7.885-5.347 8.248-3.716.362-7.251-3.445-6.617-7.16.544-3.354 3.807-6.345 2.629-9.517-.907-2.448-4.26-3.263-6.707-2.357-2.447.906-4.26 3.082-5.982 5.076M129.7 163.054c4.894 6.254 5.166 15.59.725 22.115-2.175 3.263-5.438 5.892-6.254 9.698-.906 3.898 1.45 8.339 5.167 9.789 3.716 1.45 8.429-.181 10.423-3.625.272-.454.544-.997.997-1.36 1.178-.906 2.991-.091 3.625 1.269.725 1.269.635 2.81.816 4.351.725 5.891 5.529 11.057 11.329 12.235 5.801 1.088 12.236-1.903 15.046-7.16 5.438.363 8.52 8.429 13.958 7.523 2.175-.363 3.807-2.175 4.532-4.169 1.087-3.173-.182-6.979-2.901-8.883-1.45-1.087-3.444-1.722-4.441-3.263-2.175-3.353 2.538-7.704 6.435-6.797 3.898.906 6.435 4.532 8.52 7.885.634 1.088 1.36 2.175 2.447 2.9 3.988 2.72 9.426-2.084 14.049-.543 5.982 1.994 4.713 11.782 9.97 15.317 3.897 2.629 9.426.091 12.507-3.444 3.082-3.625 4.985-8.157 8.52-11.33.544-.543 1.269-.997 1.994-1.178 1.904-.453 3.626.997 5.438 1.904 4.804 2.537 11.783.09 13.505-5.167 1.722-5.166-2.991-11.51-8.429-10.967-1.722.182-3.807.816-5.076-.362-2.084-1.904.544-4.985 1.813-7.432 1.36-2.81.544-6.526-1.813-8.52-2.356-1.994-6.163-2.175-8.701-.272-1.903-4.26-1.54-9.154-2.809-13.595-1.269-4.442-5.257-8.973-9.789-7.976-1.903.453-3.444 1.722-5.348 2.175-3.625.906-7.704-2.266-7.704-6.073 0-3.806 4.17-6.888 7.795-5.982 3.263.816 5.982 4.351 9.245 3.445 2.538-.726 3.625-3.898 2.991-6.526-.725-2.538-2.629-4.532-4.532-6.435" fill="#7DB4D9" opacity=".51"/><path d="M341.697 116.196c1.903-5.348 4.804-10.423 8.52-14.683 1.178 1.631 2.356 3.353 3.534 4.985-.543-4.804 1.632-9.517 4.713-13.143 3.173-3.625 7.251-6.344 11.239-8.973 1.36 1.813 2.901 3.445 4.713 4.804 1.994-1.903.091-5.71 1.722-7.976.544-.725 1.36-1.178 2.085-1.54 9.064-4.804 19.034-7.795 29.185-8.974 1.903-.18 4.169-.271 5.619.998 1.994 1.721 1.632 4.803.997 7.341a106.963 106.963 0 01-2.175 7.704c-.997 2.991-2.628 6.344-5.619 7.07-1.36.272-2.719 0-4.079.18-1.36.182-2.81.998-2.991 2.357 2.085.907 4.441 1.179 6.616.544-2.175 3.626-4.713 7.07-7.522 10.333-2.629 3.081-6.254 6.163-10.242 5.529-1.632-.272-3.716-1.088-4.713.271-.907 1.088.09 2.901 1.359 3.354 1.36.453 2.81.091 4.17-.272a122.318 122.318 0 01-13.868 15.227c-1.903 1.813-3.897 3.535-6.435 4.169-2.538.635-5.438.181-7.523 1.813.816.725 1.632 1.45 2.447 2.084-.09 1.632-1.994 2.357-3.625 2.72-6.616 1.359-13.414 2.356-20.121 3.081-.363 0-.816.091-1.088-.09-.634-.363-.725-1.179-.725-1.904a121.107 121.107 0 013.172-26.194" fill="#4180A9"/><path d="M406.865 77.947c-9.698 7.613-19.396 15.227-28.732 23.384-9.154 7.976-17.764 16.586-25.74 25.65-4.623 5.257-9.155 10.695-13.596 16.133-.272.363.272.725.544.363 7.885-9.517 15.771-19.125 24.562-27.916 8.52-8.611 17.674-16.496 27.101-24.2 5.347-4.35 10.876-8.701 16.314-12.961.363-.181-.091-.725-.453-.453z" fill="#fff"/><path d="M388.918 80.03c-1.812 4.895-2.991 9.97-3.625 15.228-.091.453.634.453.634.09a61.652 61.652 0 013.535-15.045c.272-.453-.362-.725-.544-.272zm1.45 22.569c-5.257 1.631-10.785 2.447-16.314 2.628-.453 0-.363.635.09.635 5.62-.182 11.058-1.088 16.496-2.719.453-.091.091-.725-.272-.544zm-28.097-2.445a55.595 55.595 0 00-1.087 17.312c0 .453.725.362.634-.091a54.276 54.276 0 011.088-17.13c.181-.453-.544-.544-.635-.091zm7.976 24.833c-5.529 2.266-11.511 3.263-17.492 2.72-.454 0-.454.634-.091.634 6.072.544 12.236-.453 17.855-2.81.363-.09.091-.725-.272-.544z" fill="#fff"/><path d="M346.863 149.369c3.354-3.354 7.251-6.073 11.601-7.886.272 1.632.544 3.354.907 4.985 1.269-3.716 4.622-6.526 8.248-8.157 3.625-1.632 7.613-2.175 11.601-2.629.363 1.813.906 3.626 1.813 5.257 2.175-.725 2.084-4.26 4.169-5.347.634-.363 1.36-.363 2.175-.453a66.648 66.648 0 0124.925 3.716c1.541.544 3.172 1.269 3.807 2.719.816 1.994-.544 4.169-1.904 5.801-1.359 1.722-2.9 3.353-4.35 4.894-1.813 1.903-4.169 3.807-6.707 3.263-1.088-.272-2.085-.907-3.172-1.269-1.088-.363-2.448-.272-3.082.725 1.178 1.45 2.9 2.447 4.804 2.81-2.901 1.903-6.073 3.625-9.245 5.075-3.082 1.36-6.888 2.357-9.608.453-1.178-.815-2.356-2.084-3.625-1.45-1.088.544-.997 2.176-.181 2.991.816.816 2.084 1.088 3.263 1.269-5.076 2.538-10.333 4.713-15.771 6.435-1.994.635-4.169 1.269-6.254.816-2.084-.363-4.078-1.722-6.254-1.36l1.088 2.448c-.635 1.178-2.357.997-3.626.725a173.405 173.405 0 01-16.133-4.895c-.272-.09-.634-.181-.815-.453-.363-.453-.091-1.087.181-1.631 3.172-6.526 7.16-12.689 11.692-18.399" fill="#4180A9"/><path d="M409.04 144.112c-9.97 2.175-19.94 4.441-29.729 7.16-9.698 2.719-19.124 5.982-28.369 9.97-5.347 2.266-10.604 4.713-15.861 7.16-.363.181-.091.635.272.453 9.245-4.26 18.58-8.61 28.188-12.054 9.426-3.354 19.124-5.982 28.822-8.339a558.297 558.297 0 0116.767-3.806.278.278 0 00-.09-.544z" fill="#fff"/><path d="M394.991 139.217a51.053 51.053 0 00-8.067 10.061c-.181.272.272.634.454.272 2.265-3.626 4.894-6.979 7.975-9.97.272-.181-.09-.544-.362-.363zm-6.979 17.402a54.033 54.033 0 01-13.052-3.807c-.362-.181-.453.362-.181.544 4.26 1.903 8.701 3.172 13.233 3.897.363-.091.363-.634 0-.634zm-20.03-11.873c-2.991 3.807-5.348 7.976-6.979 12.508-.091.363.362.453.543.181 1.632-4.441 3.988-8.61 6.979-12.417.091-.272-.362-.543-.543-.272zm-2.991 21.3c-4.985-.272-9.698-1.722-14.048-4.169-.272-.181-.635.272-.272.453 4.35 2.538 9.244 3.988 14.32 4.26.363.091.363-.453 0-.544z" fill="#fff"/><path d="M100.244 71.963c-1.36-5.528-3.807-10.785-7.07-15.408-1.36 1.541-2.629 3.082-3.988 4.623.997-4.713-.725-9.608-3.535-13.596-2.81-3.897-6.616-6.979-10.332-9.97-1.541 1.632-3.263 3.173-5.166 4.35-1.813-2.084.453-5.71-.998-8.156-.453-.725-1.178-1.27-1.903-1.813-8.61-5.62-18.218-9.607-28.188-11.692-1.903-.363-4.078-.725-5.71.453-2.084 1.54-2.084 4.622-1.631 7.16.362 2.629.906 5.257 1.45 7.886.725 3.081 1.994 6.526 4.985 7.523 1.269.453 2.72.271 4.079.543 1.36.272 2.719 1.27 2.719 2.629-2.176.725-4.532.725-6.707-.09 1.812 3.806 3.988 7.522 6.525 10.966 2.357 3.353 5.62 6.798 9.698 6.435 1.632-.09 3.807-.725 4.713.725.726 1.178-.362 2.9-1.722 3.263-1.36.363-2.81-.181-4.169-.634 3.626 5.8 7.795 11.33 12.327 16.495 1.722 1.904 3.535 3.898 5.982 4.804 2.447.906 5.347.725 7.25 2.447-.906.635-1.722 1.27-2.628 1.904-.09 1.631 1.813 2.537 3.354 2.99a190.483 190.483 0 0019.758 4.895c.363.091.816.181 1.088 0 .634-.272.816-1.088.906-1.813.725-8.791.544-17.674-.725-26.375" fill="#AAC5FF"/><path d="M38.974 27.825c8.973 8.52 17.946 17.04 26.375 26.012 8.339 8.792 16.133 18.127 23.203 28.007 4.079 5.71 8.067 11.51 12.055 17.311.271.363-.363.725-.544.363-6.98-10.242-13.958-20.484-21.753-30.091C70.606 60 62.268 51.299 53.566 42.78c-4.984-4.895-9.97-9.608-15.045-14.412-.363-.362.09-.906.453-.543z" fill="#fff"/><path d="M56.647 31.45a63.939 63.939 0 012.175 15.498.318.318 0 01-.634 0c-.09-5.166-.816-10.332-2.085-15.317-.272-.363.363-.544.544-.181zm-3.624 22.387c5.166 2.085 10.513 3.444 15.951 4.17.454.09.272.724-.18.634-5.53-.725-10.968-2.085-16.134-4.26-.363-.09 0-.725.363-.544zm28.187.182a56.1 56.1 0 01-.544 17.402c-.09.453-.725.272-.634-.181a54.869 54.869 0 00.544-17.221c-.091-.363.634-.363.634 0zM71.059 78.037c5.347 2.81 11.148 4.351 17.22 4.351a.318.318 0 010 .634c-6.163 0-12.144-1.54-17.583-4.44-.362-.182-.09-.816.363-.544z" fill="#fff"/><path d="M262.482 54.381c1.269-3.716 3.354-7.25 5.982-10.242.816 1.179 1.631 2.357 2.447 3.445-.362-3.354 1.088-6.707 3.354-9.245 2.175-2.538 5.075-4.441 7.885-6.254.906 1.269 1.994 2.447 3.263 3.353 1.45-1.36.091-3.988 1.178-5.619.363-.544.907-.816 1.45-1.088 6.345-3.353 13.324-5.438 20.393-6.254 1.36-.18 2.901-.18 3.898.726 1.359 1.178 1.087 3.353.725 5.166-.453 1.813-.997 3.625-1.541 5.347-.725 2.085-1.813 4.441-3.988 4.985-.906.182-1.903 0-2.9.182-.997.09-1.994.725-2.085 1.631 1.45.634 3.082.816 4.623.363-1.541 2.537-3.263 4.985-5.257 7.25-1.813 2.176-4.351 4.351-7.161 3.898-1.178-.181-2.628-.725-3.353.181-.635.816 0 1.994.997 2.357.906.362 1.994.09 2.9-.182-2.9 3.807-6.163 7.342-9.698 10.695-1.359 1.27-2.719 2.448-4.532 2.9-1.722.454-3.806.182-5.256 1.27.543.453 1.087.997 1.722 1.45 0 1.088-1.451 1.631-2.538 1.903a181.167 181.167 0 01-14.049 2.175c-.272 0-.544.091-.815-.09-.454-.272-.454-.816-.454-1.27.091-6.162.816-12.326 2.266-18.308" fill="#AAC5FF"/><path d="M308.072 27.644c-6.798 5.347-13.596 10.695-20.122 16.314-6.435 5.62-12.417 11.602-18.036 17.946-3.263 3.716-6.345 7.523-9.517 11.239-.181.272.181.544.363.272 5.528-6.707 11.057-13.324 17.13-19.487 5.982-5.982 12.417-11.601 18.943-16.949 3.806-3.081 7.613-6.072 11.42-9.063.362-.09.09-.454-.181-.272z" fill="#fff"/><path d="M295.564 29.093c-1.269 3.445-2.085 6.98-2.538 10.605 0 .272.453.362.453.09.363-3.625 1.178-7.07 2.447-10.513.182-.272-.272-.453-.362-.181zm.997 15.771c-3.716 1.088-7.522 1.723-11.42 1.813-.272 0-.181.453.091.453a41.361 41.361 0 0011.511-1.903c.272 0 .09-.453-.182-.362zm-19.669-1.721a39.06 39.06 0 00-.815 12.145c0 .272.453.181.453-.09a37.887 37.887 0 01.816-11.965c.09-.272-.363-.362-.454-.09zm5.53 17.401a25.782 25.782 0 01-12.236 1.904c-.272 0-.363.453-.091.453 4.26.362 8.52-.272 12.508-1.994.272-.09.091-.544-.181-.363z" fill="#fff"/><path d="M68.43 120.183a38.013 38.013 0 00-10.785-8.973l-1.36 4.894c-.906-3.897-3.988-6.979-7.432-8.882-3.444-1.903-7.432-2.81-11.239-3.716-.544 1.813-1.269 3.535-2.266 5.075-2.084-.906-1.722-4.441-3.625-5.71-.635-.453-1.36-.543-2.085-.634a69.326 69.326 0 00-25.197 1.359c-1.54.363-3.262.907-4.078 2.357-.997 1.903.09 4.169 1.36 5.982 1.268 1.813 2.537 3.625 3.897 5.347 1.631 2.085 3.806 4.17 6.435 3.898 1.088-.181 2.175-.725 3.263-.997 1.087-.272 2.537 0 2.99.997-1.359 1.269-3.171 2.175-4.984 2.356a64.598 64.598 0 008.791 5.892c2.9 1.631 6.617 2.991 9.517 1.359 1.178-.725 2.629-1.903 3.716-1.178.997.634.816 2.266-.09 2.991-.907.725-2.176.906-3.354.997 4.804 2.991 9.88 5.71 15.046 7.885 1.994.816 4.078 1.632 6.163 1.45 2.175-.181 4.26-1.359 6.344-.725-.453.816-.815 1.541-1.269 2.357.544 1.269 2.266 1.269 3.535 1.088 5.53-.907 11.058-1.994 16.496-3.354.272-.091.635-.181.816-.363.362-.453.181-1.087 0-1.631a93.475 93.475 0 00-9.97-19.396" fill="#4180A9"/><path d="M7.07 109.126c9.698 3.172 19.396 6.254 28.913 9.97 9.335 3.626 18.49 7.795 27.281 12.599a815.868 815.868 0 0115.136 8.61c.272.181 0 .634-.272.453-8.882-5.166-17.674-10.332-27.01-14.683-9.063-4.26-18.489-7.795-27.915-11.057-5.438-1.904-10.876-3.626-16.314-5.439-.363-.09-.182-.543.18-.453z" fill="#fff"/><path d="M21.572 105.591c2.81 3.263 5.166 6.888 7.07 10.786.18.362-.363.544-.454.272-1.903-3.807-4.26-7.433-7.07-10.605-.271-.362.182-.725.454-.453zm5.256 17.855c4.532-.272 9.064-1.178 13.415-2.628.362-.091.453.453.09.544-4.35 1.45-8.882 2.356-13.505 2.628-.362.091-.362-.453 0-.544zm21.119-9.879c2.628 4.078 4.531 8.429 5.8 13.142.091.362-.453.453-.543.091-1.27-4.623-3.173-8.973-5.71-12.961-.272-.272.18-.544.453-.272zm.906 21.571c4.985.182 9.88-.725 14.411-2.9.363-.181.544.362.272.453-4.622 2.175-9.607 3.172-14.683 2.9-.453.091-.362-.453 0-.453z" fill="#fff"/><path d="M163.235 87.101c-4.713-4.35-6.979-11.148-5.891-17.492.453-2.538 1.45-5.167 3.444-6.798 1.994-1.632 5.076-2.175 7.16-.635 2.175 1.541 4.532 4.895 6.345 3.082 1.269-1.269.09-3.353 0-5.166-.091-3.263 4.169-5.257 7.251-4.26 3.081.997 5.256 3.897 7.16 6.526 3.806-2.357 3.263-7.795 3.716-12.236.816-7.342 6.163-14.049 13.142-16.405-.906 3.172-1.541 7.25 1.178 9.154.816.544 1.722.816 2.357 1.54 2.266 2.81-3.716 7.705-.816 9.97 2.175 1.723 5.438-1.903 7.795-.634 2.991 1.541.272 7.614 3.353 8.792 1.813.725 3.444-1.178 5.167-2.266 2.809-1.722 7.069-.725 8.701 2.175 1.722 2.9.634 7.07-2.266 8.792 4.35.181 9.063.453 12.417 3.263 3.353 2.81 3.897 9.154-.091 11.058" fill="#7DB4D9" opacity=".51"/><path d="M162.691 13.232l1.088 15.227 20.937-.906-.635-16.224-21.39 1.903z" fill="#4180A9"/><path d="M172.57 8.882l-19.487 4.985 21.753 1.994 20.121-3.716 1.541-.272-23.656-2.99c0-.091-.181-.091-.272 0z" fill="#263238"/><path d="M196.227 35.62l-.907-23.746h.453l.907 23.747h-.453z" fill="#263238"/><path d="M196.317 34.895l-.634 2.356.997.635.725-.907-1.088-2.084z" fill="#263238"/><path d="M171.12 38.249c.635-1.813.091-3.897-.543-5.71-.635-1.813-1.994-2.447-1.904-4.35.363-.273.816-.273 1.36-.273.453-.09.816-.09 1.359 0h.363c.544 0 1.088-.271 1.45-.634 1.088-1.088 1.722-2.628 1.994-4.079.272-1.54.272-3.081.363-4.622 0-.453.271-1.088.725-.997.181 0 .362.181.453.272.362.362.634.725.906 1.178.453.635.907 1.36 1.269 1.994.635 1.269 1.178 2.629 1.269 3.988.181 3.897-3.082 7.16-3.716 10.967-.272 1.45-.181 2.991 0 4.532" fill="#FFD0BC"/><path d="M132.056 31.27c.816 3.806.363 8.156-2.719 10.513-.363.272-.816.634-.725 1.088 0 .181.181.362.272.453 1.178 1.36 2.9 2.084 4.532 2.628 2.175.635 4.441 1.088 6.707.997 2.265-.09 4.531-.815 6.344-2.266.181-.18.453-.362.544-.634.091-.181.091-.453 0-.725l-.272-2.175c0-.182 0-.363-.181-.453a.693.693 0 00-.453-.182c-.816-.181-1.723-.272-2.538-.453-.816-.272-.997-.453-1.36-1.178-.362-.816-.544-3.444-.453-4.26.634-3.807 1.36-6.073 2.538-9.698" fill="#F4C5B5"/><path d="M130.063 12.326c-1.088.997-1.451 2.538-1.541 3.988-.091 1.45.09 2.9-.091 4.35-.181 1.36-.634 2.72-.816 4.08-.181 1.63.091 3.172.544 4.803.453 1.813.997 3.625 2.085 5.166.272.363.634.725.997.907.453.18.997.09 1.45-.091 3.988-.997 7.795-2.9 10.604-5.891 2.81-2.991 4.442-7.07 4.17-11.149" fill="#FFD0BC"/><path d="M141.21 25.197c.272-.726 1.088-1.36 1.813-1.27.816.091 1.541.726 1.631 1.541.182 1.36-1.087 2.357-1.903 3.535a6.046 6.046 0 00-.816 1.722c-.181.725-.181 1.541.272 2.085.725.997 2.357.725 3.354 0 1.45-.997 2.266-2.629 2.81-4.35.543-1.632.815-3.354 1.54-4.986.272-.725.635-1.45.907-2.175.815-1.994 1.903-3.716 1.812-5.8-.09-1.813-1.178-4.08-2.175-5.62-.997-1.54-2.538-2.81-4.441-3.082-.906-.18-1.903 0-2.9.182-.907.272-1.813.09-2.81.09-1.813-.09-3.172-1.178-4.804-1.903-2.719-1.178-6.072 0-8.066 2.175-1.813 1.904-2.81 4.532-2.448 7.16.363 2.538 2.266 4.986 4.804 5.53 1.36.271 2.719.18 4.079.271 2.9.272 5.529 2.085 6.979 4.532" fill="#263238"/><path d="M142.479 39.607c-.543.272-.725.635-1.269.726-1.087.362-2.175.453-3.353.634-2.175.272-4.894 0-6.979-.816-.091-.09-.272-.09-.363-.09-.271.09-.362.362-.362.634-1.088 8.792-1.269 17.674-.725 26.556.09 1.36.362 2.9 1.45 3.626.544.362 1.269.362 1.903.453 2.991.181 6.073.362 8.883-.544.272-.09.634-.181.815-.453.272-.272.363-.725.363-1.088 1.088-6.707 1.813-13.595.816-20.393-.272-1.812-.725-3.625-.544-5.438" fill="#407BFF"/><path d="M142.479 39.245c-.725 1.722-1.45 3.988-1.903 5.8-2.085 9.336-4.26 18.672-5.347 28.189 0 .18 0 .362.09.543.091.091.363.182.544.182 5.529-.091 11.058-.363 16.586-.725.454 0 .907-.091 1.179-.454.181-.272.181-.634.181-.997-.453-9.245 0-18.58 1.359-27.825 0-.181.091-.362-.09-.544-.091-.09-.181-.18-.363-.18-4.078-1.36-8.066-2.81-12.236-3.989z" fill="#263238"/><path d="M130.969 39.97c.453 4.17.816 8.34 1.269 12.418.725 6.888 1.359 13.777 2.991 20.483.09.272.09.544 0 .816-.181.363-.635.363-1.088.363-3.897-.181-7.795-.272-11.692-.453-.272-2.629-.453-5.167-.725-7.795-.544-6.254-1.178-12.599-1.541-18.852 0-.272-.272-2.085-.09-2.357.09-.181.09-.181.271-.362 3.354-1.904 7.251-2.9 10.605-4.26zm24.109 3.446c1.45 1.178 1.813 2.719 2.991 4.26 1.269 1.63 2.266 3.534 3.263 5.347 2.175 3.897 4.894 6.072 6.707 8.61.362-8.882 1.178-14.592 2.628-23.293 0-.181.091-.272.182-.363.09-.09.362-.09.543-.09 1.451.09 2.901.181 4.442.272.362 0 .815.09 1.087.362.182.272.182.544.182.816 0 1.36.09 2.719.09 4.078.091 4.532.181 9.064-.181 13.596-.453 4.532-1.45 8.973-3.444 13.051-.544 1.179-1.269 2.266-2.447 2.81-1.36.544-2.81.09-4.17-.453-3.535-1.45-6.344-3.897-9.426-6.163-1.45-1.088-3.444-1.813-4.26-3.354-.725-1.36-1.087-2.99-1.269-4.532-.725-4.894.907-10.604 3.082-14.954z" fill="#263238"/><path d="M120.092 44.593c1.269 1.178 1.903 4.44 2.175 6.163.272 1.813.272 3.716.091 5.529-.181 1.813-.635 3.535-1.088 5.347l-2.719 11.42a.69.69 0 01-.181.454c-.091.09-.272.09-.453.09-3.173 0-6.073-1.903-9.245-1.631 1.631-4.895 3.172-9.88 4.804-14.774.634-1.994 1.631-6.344 2.719-8.157.906-1.722 1.994-3.535 3.897-4.441z" fill="#263238"/><path d="M322.302 77.493c-.363 0-.816-.09-1.179-.181a3.24 3.24 0 01-1.903-1.722c-.725-1.723 0-3.717 1.631-4.442l5.348-2.447c.091-.09.272 0 .363.09.09.091 0 .273-.091.363l-5.348 2.448c-1.45.634-2.084 2.356-1.45 3.806.272.725.907 1.178 1.632 1.45.725.272 1.45.272 2.175-.09l8.973-4.079c1.087-.453 1.541-1.813 1.087-2.9-.453-1.088-1.812-1.541-2.9-1.088l-7.976 3.626c-.725.362-1.087 1.178-.725 1.903.363.725 1.178 1.088 1.903.725l7.523-3.444c.091-.09.272 0 .363.09.09.091 0 .272-.091.363l-7.523 3.444a1.99 1.99 0 01-2.628-.997 1.99 1.99 0 01.997-2.628l7.976-3.626c1.359-.634 2.9 0 3.535 1.36.634 1.36 0 2.9-1.36 3.535l-8.973 4.078a2.556 2.556 0 01-1.359.363zM67.161 107.042c.182.362.272.725.272 1.087.09.907-.181 1.722-.815 2.447-1.179 1.451-3.354 1.632-4.713.363l-4.532-3.807c-.09-.09-.09-.272 0-.362a.275.275 0 01.362 0l4.532 3.806c1.178.997 2.991.907 3.988-.362.453-.544.725-1.36.635-2.085-.091-.725-.454-1.45-.998-1.903l-7.522-6.345c-.907-.815-2.266-.634-3.082.272-.816.907-.634 2.266.272 3.082l6.707 5.619c.634.544 1.54.453 2.085-.181.543-.634.453-1.541-.182-2.085l-6.254-5.347a.276.276 0 010-.363.278.278 0 01.363 0l6.254 5.348c.816.725.906 1.903.272 2.81-.725.815-1.904.906-2.81.271l-6.707-5.619c-1.087-.906-1.269-2.628-.362-3.807.906-1.087 2.628-1.269 3.806-.362l7.523 6.344c.453.363.725.725.906 1.179z" fill="#407BFF"/><path d="M298.375 188.432S277.619 86.014 277.528 84.926l-98.974 3.082-.181 15.861.09-15.861-99.065-4.804c-.09 1.088-22.568 103.144-22.568 103.144l110.123.362s2.266 4.804 10.604 4.895c8.339.09 10.695-4.713 10.695-4.713l110.123 1.54z" fill="#263238"/><mask id="a" style="mask-type:luminance" maskUnits="userSpaceOnUse" x="56" y="82" width="242" height="110"><path d="M297.943 189.457S278.054 86.863 277.972 85.774l-99 2.245-.315 15.86.224-15.86-99.024-5.643c-.1 1.087-23.44 102.953-23.44 102.953l110.119 1.294s2.225 4.823 10.563 4.984c8.337.161 10.735-4.622 10.735-4.622l110.109 2.472z" fill="#fff"/></mask><g mask="url(#a)"><path opacity=".5" d="M189.257 72.242l-21.571-.182-1.091 128.974 21.571.183 1.091-128.975z" fill="#263238"/></g><path d="M177.557 176.921c-5.801-2.719-58.823-26.103-112.388-6.979 0 0 .725.544 1.45 1.994.272.453.453 1.087.634 1.812.181.726.363 1.632.453 2.629.09.544.09.997.09 1.631v2.991s77.223.635 100.063 2.176c0 0 .362-.363.997-.907.634-.544 1.722-1.269 2.991-1.813.725-.362 1.631-.634 2.628-.906.182 0 .272-.091.454-.091a12.316 12.316 0 012.628-.271c1.088 0 2.175.181 3.082.362.09 0 .271.091.362.091.906.272 1.722.544 2.447.906 1.36.635 2.447 1.36 3.263 1.903.725.544 1.088.907 1.088.907 22.84-1.088 99.609-.453 99.609-.453v-2.901c0-.543.09-1.087.181-1.631.181-1.088.362-1.903.544-2.719.181-.725.453-1.36.725-1.813.725-1.45 1.45-1.903 1.45-1.903-53.294-20.121-106.769 2.356-112.751 4.985z" fill="#7DB4D9"/><path d="M271.818 75.59c-41.693-22.387-89.639 8.43-93.355 10.876-3.626-2.447-51.028-34.079-93.083-12.417-1.632 9.88-21.843 97.071-21.843 97.071s61.632-8.701 114.11 6.073c54.744-13.868 114.383-4.079 114.383-4.079s-18.762-87.645-20.212-97.524z" fill="#fff"/><mask id="b" style="mask-type:luminance" maskUnits="userSpaceOnUse" x="63" y="66" width="230" height="112"><path d="M271.817 75.59c-41.692-22.386-89.638 8.43-93.355 10.877-3.625-2.447-51.028-34.079-93.083-12.417-1.631 9.88-21.843 97.071-21.843 97.071s61.633-8.701 114.111 6.073c54.744-13.868 114.382-4.079 114.382-4.079s-18.761-87.645-20.212-97.524z" fill="#fff"/></mask><g mask="url(#b)"><path opacity=".3" d="M176.469 71.059l-2.719 123.265 7.795-2.719-2.901-130.063-2.175 9.517z" fill="#fff"/></g><path d="M178.463 86.376l-.907 90.726" stroke="#7DB4D9" stroke-width=".906" stroke-miterlimit="10"/><path d="M191.786 90.998c7.613-4.17 16.224-7.07 24.653-9.154 17.311-4.351 35.801-4.804 52.478 2.175.363.181.544-.453.181-.635-16.495-6.888-34.804-6.616-51.934-2.447-8.701 2.175-17.674 5.166-25.559 9.426-.454.272-.182.816.181.635z" fill="#7DB4D9"/><path d="M191.786 99.155c7.613-4.17 16.224-7.07 24.653-9.154 17.311-4.35 35.801-4.804 52.478 2.175.363.181.544-.453.181-.635-16.495-6.888-34.804-6.616-51.934-2.447-8.701 2.176-17.674 5.167-25.559 9.427-.454.271-.182.815.181.634z" fill="#7DB4D9"/><path d="M191.786 107.313c7.613-4.169 16.224-7.069 24.653-9.154 17.311-4.35 35.801-4.804 52.478 2.175.363.181.544-.453.181-.634-16.495-6.889-34.804-6.617-51.934-2.447-8.701 2.175-17.674 5.166-25.559 9.426-.454.272-.182.815.181.634z" fill="#7DB4D9"/><path d="M191.786 115.469c7.613-4.169 16.224-7.069 24.653-9.154 17.311-4.35 35.801-4.804 52.478 2.175.363.182.544-.453.181-.634-16.495-6.888-34.804-6.616-51.934-2.447-8.701 2.175-17.674 5.166-25.559 9.426-.454.272-.182.816.181.634z" fill="#7DB4D9"/><path d="M191.786 123.627c7.613-4.17 16.224-7.07 24.653-9.155 17.311-4.35 35.801-4.803 52.478 2.176.363.181.544-.454.181-.635-16.495-6.888-34.804-6.616-51.934-2.447-8.701 2.175-17.674 5.166-25.559 9.426-.454.272-.182.907.181.635z" fill="#7DB4D9"/><path d="M191.786 131.785c7.613-4.169 16.224-7.07 24.653-9.154 17.311-4.351 35.801-4.804 52.478 2.175.363.181.544-.453.181-.635-16.495-6.888-34.804-6.616-51.934-2.447-8.701 2.176-17.674 5.167-25.559 9.426-.454.363-.182.907.181.635z" fill="#7DB4D9"/><path d="M191.786 139.942c7.613-4.169 16.224-7.07 24.653-9.154 17.311-4.351 35.801-4.804 52.478 2.175.363.181.544-.453.181-.634-16.495-6.889-34.804-6.617-51.934-2.448-8.701 2.176-17.674 5.167-25.559 9.427-.454.362-.182.906.181.634z" fill="#7DB4D9"/><path d="M191.786 148.098c7.613-4.169 16.224-7.069 24.653-9.154 17.311-4.35 35.801-4.804 52.478 2.175.363.182.544-.453.181-.634-16.495-6.888-34.804-6.617-51.934-2.447-8.701 2.175-17.674 5.166-25.559 9.426-.454.362-.182.906.181.634z" fill="#7DB4D9"/><path d="M191.786 156.345c7.613-4.169 16.224-7.069 24.653-9.154 17.311-4.35 35.801-4.804 52.478 2.175.363.182.544-.453.181-.634-16.495-6.888-34.804-6.616-51.934-2.447-8.701 2.175-17.674 5.166-25.559 9.426-.454.272-.182.816.181.634z" fill="#7DB4D9"/><path d="M191.786 164.504c7.613-4.17 16.224-7.07 24.653-9.155 17.311-4.35 35.801-4.803 52.478 2.176.363.181.544-.454.181-.635-16.495-6.888-34.804-6.616-51.934-2.447-8.701 2.175-17.674 5.166-25.559 9.426-.454.272-.182.816.181.635zm-27.463-73.506c-7.613-4.17-16.224-7.07-24.653-9.154-17.311-4.351-35.801-4.804-52.478 2.175-.363.181-.544-.453-.181-.635 16.495-6.888 34.804-6.616 51.934-2.447 8.701 2.175 17.674 5.166 25.559 9.426.544.272.182.816-.181.635z" fill="#7DB4D9"/><path d="M164.323 99.155c-7.613-4.17-16.224-7.07-24.653-9.154-17.311-4.35-35.801-4.804-52.478 2.175-.363.181-.544-.453-.181-.635 16.495-6.888 34.804-6.616 51.934-2.447 8.701 2.176 17.674 5.167 25.559 9.427.544.271.182.815-.181.634z" fill="#7DB4D9"/><path d="M164.323 107.313c-7.613-4.169-16.224-7.069-24.653-9.154-17.311-4.35-35.801-4.804-52.478 2.175-.363.181-.544-.453-.181-.634 16.495-6.889 34.804-6.617 51.934-2.447 8.701 2.175 17.674 5.166 25.559 9.426.544.272.182.815-.181.634z" fill="#7DB4D9"/><path d="M164.323 115.469c-7.613-4.169-16.224-7.069-24.653-9.154-17.311-4.35-35.801-4.804-52.478 2.175-.363.182-.544-.453-.181-.634 16.495-6.888 34.804-6.616 51.934-2.447 8.701 2.175 17.674 5.166 25.559 9.426.544.272.182.816-.181.634z" fill="#7DB4D9"/><path d="M164.323 123.627c-7.613-4.17-16.224-7.07-24.653-9.155-17.311-4.35-35.801-4.803-52.478 2.176-.363.181-.544-.454-.181-.635 16.495-6.888 34.804-6.616 51.934-2.447 8.701 2.175 17.674 5.166 25.559 9.426.544.272.182.907-.181.635z" fill="#7DB4D9"/><path d="M164.323 131.785c-7.613-4.169-16.224-7.07-24.653-9.154-17.311-4.351-35.801-4.804-52.478 2.175-.363.181-.544-.453-.181-.635 16.495-6.888 34.804-6.616 51.934-2.447 8.701 2.176 17.674 5.167 25.559 9.426.544.363.182.907-.181.635z" fill="#7DB4D9"/><path d="M164.323 139.942c-7.613-4.169-16.224-7.07-24.653-9.154-17.311-4.351-35.801-4.804-52.478 2.175-.363.181-.544-.453-.181-.634 16.495-6.889 34.804-6.617 51.934-2.448 8.701 2.176 17.674 5.167 25.559 9.427.544.362.182.906-.181.634z" fill="#7DB4D9"/><path d="M164.323 148.098c-7.613-4.169-16.224-7.069-24.653-9.154-17.311-4.35-35.801-4.804-52.478 2.175-.363.182-.544-.453-.181-.634 16.495-6.888 34.804-6.617 51.934-2.447 8.701 2.175 17.674 5.166 25.559 9.426.544.362.182.906-.181.634z" fill="#7DB4D9"/><path d="M164.323 156.345c-7.613-4.169-16.224-7.069-24.653-9.154-17.311-4.35-35.801-4.804-52.478 2.175-.363.182-.544-.453-.181-.634 16.495-6.888 34.804-6.616 51.934-2.447 8.701 2.175 17.674 5.166 25.559 9.426.544.272.182.816-.181.634z" fill="#7DB4D9"/><path d="M164.323 164.504c-7.613-4.17-16.224-7.07-24.653-9.155-17.311-4.35-35.801-4.803-52.478 2.176-.363.181-.544-.454-.181-.635 16.495-6.888 34.804-6.616 51.934-2.447 8.701 2.175 17.674 5.166 25.559 9.426.544.272.182.816-.181.635z" fill="#7DB4D9"/><path d="M89.005 154.807c.634 3.988 1.269 8.067 1.54 12.055.635 8.429-.09 16.858-.09 25.287 0 6.254.544 12.598 1.088 18.852 0 .272.09.453.181.635.181.272.634.362.997.362 1.269.091 2.447.182 3.716.182.816-6.164 1.088-12.327 1.632-18.581 1.087-13.142 3.081-26.194 6.072-39.064" fill="#4180A9"/><path d="M102.871 154.445c2.629 13.323.997 27.1 2.538 40.514.181 1.903.544 3.807.725 5.801.363 3.081.725 6.253.906 9.426 0 .181 0 .453.182.544.181.181.453.181.725.181.997-.091 1.994-.091 3.081-.181.454-6.526.997-13.143 1.45-19.668.635-7.976 1.179-16.043 2.538-23.928.725-4.623 1.813-9.245 1.994-13.958" fill="#4180A9"/><path d="M90.545 110.849c2.266 7.16.453 14.955-1.36 22.296-1.903 7.523-3.716 15.136-5.619 22.659 0 .181-.09.363 0 .544.09.09.272.09.363.181 12.236 1.45 24.562 1.541 36.798.181.272 0 .453-.09.634-.181.544-.362.454-1.088.272-1.722a218.354 218.354 0 01-5.71-43.324" fill="#407BFF"/><path d="M107.947 87.736c-.272 1.54-.363 3.172 0 4.713s1.269 2.991 2.628 3.807c-.362.634-.997 1.088-1.722 1.45-3.353 1.813-7.613 1.722-10.876-.181.816-.453 1.36-1.27 1.632-2.085.271-.816.362-1.813.362-2.719a16.508 16.508 0 00-1.631-6.526" fill="#F4C5B5"/><path d="M96.89 77.585c-.181 2.175.272 4.35.816 6.526.362 1.269.725 2.537 1.45 3.625.453.725 1.088 1.36 1.813 1.994.816.816 1.813 1.632 2.9 1.722 1.541.181 2.901-1.087 3.898-2.356 1.54-1.994 2.809-4.26 3.444-6.617.634-2.447.725-4.985.09-7.432-.272-1.087-.815-2.175-1.631-2.99-.816-.817-2.085-1.27-3.172-.907" fill="#FFD0BC"/><path d="M106.678 73.96c-.363 2.719 2.266 4.894 2.719 7.523.362 1.994-.544 3.988-1.179 5.89-.634 1.814-.997 3.808-.634 5.711.363 1.903 1.541 3.716 3.263 4.532 1.722.725 3.807.272 5.166-.997 1.904-1.903 1.813-4.985.907-7.523-.816-2.538-2.357-4.894-2.901-7.432-.362-1.722-.362-3.535-.544-5.257-.272-2.085-.997-4.17-2.447-5.71-1.359-1.54-3.444-2.629-5.529-2.447-.453 0-.906.09-1.268.09-.544 0-.997-.18-1.541-.362-2.629-.635-5.439.362-7.342 2.266-1.903 1.903-2.9 4.622-3.081 7.25-.091 1.45 0 2.992-.272 4.442-.635 3.081-3.173 5.438-4.442 8.429-.996 2.266-1.178 4.804-.362 7.16.816 2.357 2.628 4.26 4.894 5.076 2.266.815 5.076.362 6.889-1.269 1.54-1.36 2.266-3.444 2.447-5.529.181-2.084-.272-4.078-.816-6.072-.453-1.723-1.088-3.535-.453-5.257.544-1.632 2.085-2.72 3.263-4.079 1.631-1.903 2.538-4.35 3.353-6.707" fill="#263238"/><path d="M118.19 119.096a52.969 52.969 0 016.797-9.426c.997-.997 1.994-2.084 2.629-3.353.543-.997.725-2.176 1.087-3.263.635-1.813 1.632-3.535 3.263-4.532 1.632-.997 3.716-1.269 5.438-.363 1.179.635 2.085 1.994 2.176 3.263.09.635-.635.997-1.088.635-.634-.544-1.45-.907-2.357-1.178a1.537 1.537 0 00-.906 0c-.544.181-.725.906-.725 1.54 0 .635.181 1.269-.091 1.813-.362.906-1.45 1.541-2.175 2.175-1.088.816-1.45 1.722-1.813 3.082-1.45 5.619-4.35 10.967-8.338 15.227-.906.997-1.903 1.994-3.172 2.356-.725.182-1.451.182-2.085 0-1.903-.543.453-1.722-.997-1.994" fill="#FFD0BC"/><path d="M131.694 91.361a2.36 2.36 0 00-.635 2.175c.272 1.27 1.813 1.632 1.36 3.082-.091.453.544.634.725.181.181-.725.181-1.45-.272-2.085-.272-.362-.634-.543-.816-.906a1.654 1.654 0 01.272-1.994c.182-.272-.362-.816-.634-.453zm-27.554 33.716c-.181 10.877-.272 21.662-.453 32.539 0 .181.272.181.272 0 .181-10.877.272-21.662.453-32.539 0-.181-.272-.181-.272 0z" fill="#222221"/><path d="M116.92 117.827c.272.362.816.453 1.179.272.453-.181.725-.544.997-.907 2.537-3.444 5.166-6.978 7.704-10.423.181-.272.453-.543.725-.634.362-.091.725.091.997.362.634.363 1.178.726 1.812 1.179.182.09.363.272.454.453.09.181 0 .453-.091.634a64.936 64.936 0 01-7.523 16.315c-.634 1.087-1.359 2.175-2.447 2.9-.997.725-2.447 1.088-3.535.544-1.541-.725-2.266-2.719-3.897-3.082" fill="#407BFF"/><path d="M125.259 94.443s-9.245-.635-17.856 3.535h3.535l14.321-3.535zm-36.073-.272s9.244-.543 17.764 3.898h-3.535l-14.23-3.898z" fill="#fff"/><path d="M103.868 97.978s3.172 1.27 6.707.091l-.272 27.1s-2.991 2.176-6.707-.09l.272-27.1z" fill="#263238"/><path d="M110.485 98.07l-6.707-.091c.091 0 3.263 1.268 6.707.09z" fill="#fff"/><path d="M88.55 93.9l-.18 24.743 15.226 6.435.272-27.1-15.317-4.079zm37.343.27l-.181 24.835-15.408 6.163.181-27.1 15.408-3.897z" fill="#7DB4D9"/><path d="M99.518 118.551c.725 0 1.269-.453 1.632-1.087.362-.635.453-1.269.725-1.904.453-.997 1.178-1.903 1.903-2.809.634-.816 1.359-1.541 1.994-2.357.091.816 0 1.722-.453 2.447-.182.272-.363.544-.453.907-.091.362.09.725.362.815.363.091.635-.181.816-.453 1.45-1.631 3.263-2.9 5.166-3.897a21.389 21.389 0 01-.816 3.263h.363c.091 1.631-.906 3.263-2.175 4.35-1.269 1.088-2.81 1.813-4.351 2.447-1.269.544-2.538 1.179-3.897 1.723" fill="#FFD0BC"/><path d="M127.616 107.404c-.635.182-.635.997-.272 1.269.362.272.997 0 1.087-.453 0-.453-.453-.906-.815-.816z" fill="#fff"/><path d="M100.787 118.824c-.091-.182-.091-.363-.272-.544-.272-.181-.544-.181-.816-.091-3.897 1.179-7.704 2.266-11.601 3.444.544-.09.997-1.087 1.54-2.447l-1.268-.544.181-18.308c-3.716 7.16-5.166 15.68-6.435 23.928-.09.816-.272 1.631-.09 2.356.271 1.088 1.178 1.904 2.175 2.085.997.272 1.994 0 2.9-.181 5.166-1.269 10.06-3.716 14.502-7.16a11.834 11.834 0 01-.816-2.538z" fill="#407BFF"/><path d="M97.796 119.096c-.634.181-.634.997-.272 1.269.363.271.997 0 1.088-.454 0-.453-.453-.906-.816-.815zm6.163 7.341c-.635.182-.635.997-.272 1.269.362.272.997 0 1.087-.453.091-.453-.362-.906-.815-.816zm-.091 8.52c-.634.181-.634.997-.271 1.269.362.272.997 0 1.087-.453.091-.453-.362-.907-.816-.816zm0 8.52c-.634.182-.634.997-.271 1.269.362.272.997 0 1.087-.453.091-.453-.453-.906-.816-.816zm-.09 8.519c-.635.181-.635.997-.272 1.269.362.272.997 0 1.087-.453.091-.453-.362-.907-.815-.816z" fill="#fff"/><path d="M137.404 107.223v-.272c-1.269-5.257-2.628-10.514-4.26-15.68-.272-.906-1.722-.544-1.45.363 1.631 5.166 2.991 10.423 4.26 15.68 0 .09.09.181.09.272l.997 1.178.363-1.541z" fill="#222221"/><path d="M133.507 105.319s1.812-.906 3.081-2.628-1.269-.816-1.54-.453c-.182.453-2.085.634-2.085.634" fill="#FFD0BC"/><path d="M101.421 186.802c.091-2.085.182-4.985 1.45-6.798 1.541-2.356 5.801-2.356 8.248-2.447 3.444-.181 6.345.181 8.067 3.898.816 1.812.997 4.078 1.269 5.981.272 1.541 2.628.907 2.447-.634-.544-3.263-.906-7.432-3.625-9.698-2.629-2.175-6.164-2.175-9.336-1.903-2.719.272-6.163.362-8.248 2.447-2.175 2.266-2.447 6.163-2.628 9.154-.181 1.541 2.266 1.541 2.356 0z" fill="#AAC5FF"/><path fill-rule="evenodd" clip-rule="evenodd" d="M81.844 201.575l57.1.453-.181 20.031c0 3.263-2.719 5.891-5.982 5.891l-45.318-.362c-3.263 0-5.891-2.719-5.891-5.982l.272-20.031z" fill="#7DB4D9"/><path fill-rule="evenodd" clip-rule="evenodd" d="M140.032 186.892l-.181 20.212c0 2.447-2.085 4.441-4.532 4.441l-49.76-.453c-2.537 0-4.531-2.085-4.531-4.623l.181-20.121c0-.634.544-1.178 1.269-1.178l56.376.453c.634 0 1.178.544 1.178 1.269z" fill="#4180A9"/><path fill-rule="evenodd" clip-rule="evenodd" d="M88.823 185.261h5.347l-.272 34.804c0 1.088-1.178 1.994-2.719 1.994-1.45 0-2.628-.906-2.628-2.085l.272-34.713z" fill="#AAC5FF"/><path fill-rule="evenodd" clip-rule="evenodd" d="M91.27 206.832c.362 0 .634-.181.634-.544 0-.272-.272-.544-.635-.544-.362 0-.634.181-.634.544 0 .272.272.544.634.544zm0-2.99c.362 0 .634-.182.634-.544 0-.272-.272-.544-.635-.544-.362 0-.634.181-.634.453 0 .453.272.635.634.635zm-.09 8.792c.362 0 .634-.182.634-.544 0-.272-.272-.544-.635-.544-.362 0-.634.181-.634.544 0 .272.272.544.634.544zm.09-2.902c.362 0 .634-.181.634-.544 0-.272-.272-.543-.634-.543-.363 0-.635.181-.635.543-.09.272.272.544.635.544z" fill="#263238"/><path fill-rule="evenodd" clip-rule="evenodd" d="M88.641 200.126l5.347.091c.272 0 .544.181.544.362v4.26c0 .181-.272.363-.543.363l-5.348-.091c-.272 0-.544-.181-.544-.363v-4.259c0-.182.272-.363.544-.363zm.272.634v3.807h4.804v-3.807h-4.804z" fill="#407BFF"/><path fill-rule="evenodd" clip-rule="evenodd" d="M91.723 201.847c-.091.09-.272.09-.363.09-.181 0-.272 0-.362-.09v-1.088c0-.181.18-.272.362-.272.181 0 .363.182.363.272v1.088z" fill="#407BFF"/><path fill-rule="evenodd" clip-rule="evenodd" d="M126.98 185.532h5.348l-.272 34.804c0 1.088-1.178 1.994-2.719 1.994-1.45 0-2.629-.906-2.629-2.084l.272-34.714z" fill="#AAC5FF"/><path fill-rule="evenodd" clip-rule="evenodd" d="M129.518 207.103c.363 0 .634-.181.634-.544 0-.271-.271-.543-.634-.543s-.634.181-.634.543c-.091.363.181.544.634.544zm0-2.9c.363 0 .635-.181.635-.544 0-.272-.272-.544-.635-.544-.362 0-.634.182-.634.453-.091.363.272.635.634.635zm-.091 8.702c.362 0 .634-.181.634-.544 0-.272-.272-.544-.634-.544-.363 0-.635.182-.635.544 0 .363.272.544.635.544zm0-2.901c.362 0 .634-.182.634-.544 0-.272-.272-.544-.634-.544-.363 0-.635.181-.635.544 0 .362.272.544.635.544z" fill="#263238"/><path fill-rule="evenodd" clip-rule="evenodd" d="M126.799 200.397l5.347.091c.272 0 .544.181.544.363v4.26c0 .181-.272.362-.544.362l-5.347-.091c-.272 0-.544-.181-.544-.362v-4.26c.091-.181.272-.363.544-.363zm.362.635v3.807h4.804v-3.807h-4.804z" fill="#407BFF"/><path fill-rule="evenodd" clip-rule="evenodd" d="M129.881 202.21c-.091.091-.272.091-.363.091-.181 0-.272 0-.362-.091v-1.088c0-.181.181-.271.362-.271.182 0 .363.181.363.271v1.088z" fill="#407BFF"/><path d="M338.253 205.743l-80.031-.634a1.239 1.239 0 01-1.269-1.269l.09-7.886c0-.725.544-1.268 1.269-1.268l80.032.634a1.24 1.24 0 011.269 1.269l-.091 7.885c0 .635-.544 1.269-1.269 1.269zm9.335-70.786l-80.031-.634a1.24 1.24 0 01-1.269-1.269l.091-7.886a1.24 1.24 0 011.269-1.269l80.031.635a1.24 1.24 0 011.269 1.269l-.091 7.885c0 .725-.543 1.269-1.269 1.269z" fill="#263238"/><path d="M343.057 165.139l-77.222-.635c-1.45 0-2.628-1.178-2.628-2.719l.09-9.788c0-1.451 1.178-2.629 2.719-2.629l77.222.635c1.45 0 2.628 1.178 2.628 2.719l-.09 9.788c0 1.451-1.269 2.629-2.719 2.629z" fill="#AAC5FF"/><path d="M337.709 180.185l-78.49-.635c-1.088 0-1.994-.906-1.994-2.084l.09-11.058c0-1.088.907-1.994 2.085-1.994l78.491.635c1.087 0 1.994.906 1.994 2.084l-.091 11.058c-.091 1.087-.997 1.994-2.085 1.994z" fill="#4180A9"/><path d="M346.32 195.32l-78.491-.634c-1.088 0-1.994-.906-1.994-2.085l.091-11.057c0-1.088.906-1.994 2.084-1.994l78.491.634c1.088 0 1.994.907 1.994 2.085l-.091 11.057c-.09 1.179-.997 1.994-2.084 1.994zm-17.131-45.408l-78.49-.634c-1.088 0-1.994-.907-1.994-2.085l.09-11.057c0-1.088.907-1.994 2.085-1.994l78.491.634c1.087 0 1.994.906 1.994 2.085l-.091 11.057c0 1.088-.906 1.994-2.085 1.994z" fill="#7DB4D9"/><path d="M263.098 134.264l-6.344-.054-.128 15.136 6.344.054.128-15.136z" fill="#4180A9"/><path d="M275.426 164.536l-6.345-.054-.128 15.137 6.344.053.129-15.136zm53.567.454l-6.344-.053-.128 15.136 6.344.053.128-15.136z" fill="#263238"/><path d="M323.101 134.809l-6.344-.054-.128 15.136 6.344.054.128-15.136z" fill="#4180A9"/><path d="M273.159 149.47l-1.54-.013-.128 15.136 1.54.013.128-15.136zm6.164.001l-1.541-.013-.128 15.136 1.541.013.128-15.136zm-3.354 30.183l-1.541-.013-.128 15.136 1.541.013.128-15.136zm6.164.09l-1.541-.013-.128 15.137 1.54.013.129-15.137zm51.664.453l-1.541-.013-.128 15.136 1.541.013.128-15.136zm6.163.001l-1.541-.013-.128 15.136 1.541.013.128-15.136zm-8.156-30.274l-1.541-.013-.128 15.136 1.54.013.129-15.136zm6.072.091l-1.541-.013-.128 15.136 1.541.013.128-15.136z" fill="#407BFF"/><path d="M290.669 67.524c-1.087 2.356-1.45 4.985-.906 7.522a34.782 34.782 0 01-6.979-3.806c-.181-.09-.272-.272-.453-.363-.272-.453 0-.997.181-1.45a11.72 11.72 0 001.088-6.073" fill="#F4C5B5"/><path d="M328.465 114.202c1.269.362 2.175 1.722 2.538 2.991.362 1.359.272 2.719.362 4.078.272 3.626 1.813 6.979 3.354 10.242 1.359 2.81 2.628 5.71 3.988 8.52.362.725.634 1.45.906 2.175.544 1.903-.544 3.444-1.359 5.348 2.9.362 6.616 1.268 9.516 1.722 1.269.181 2.538.362 3.807.362.997 0 2.266-.634 3.263-.816-3.535-.997-6.798-2.628-8.882-5.619-1.632-2.356-2.538-5.076-3.263-7.885-1.904-8.067-1.541-16.768-5.167-24.291" fill="#4180A9"/><path d="M339.522 144.475a20.65 20.65 0 01-.907 2.084c-.362.816-.725 1.632-.725 2.538 0 .906.181 1.903.906 2.357.454.362 1.088.453 1.632.453 2.356.09 4.622-.635 6.888-.182.725.182 1.541.454 2.266.726a13.35 13.35 0 009.879-.816c.272-.091.544-.272.635-.544.272-.453 0-.997-.363-1.36-.362-.271-.815-.362-1.269-.453-2.809-.634-5.8-1.178-8.338-2.537-.181-.091-.544-.363-.725-.272a.708.708 0 00-.363.362c-.543.816-1.359.907-2.356.997-2.629.181-5.076-1.359-7.16-3.353z" fill="#263238"/><path d="M301.999 126.709c9.426-2.537 18.671-5.891 27.462-10.06 1.722-.816 3.807-1.632 5.438-.725 1.451.906 1.813 2.719 2.357 4.35 1.359 4.26 4.622 7.614 7.976 10.514 3.353 2.9 7.069 5.62 9.698 9.245 1.269 1.722 2.266 3.625 2.356 5.801 0 .362 0 .815.182 1.087.181.272.453.363.634.544 4.532 2.629 10.061 4.623 14.955 2.719-.725-1.269-2.085-1.903-3.353-2.628a31.472 31.472 0 01-8.792-7.432c-1.541-1.813-2.81-3.807-4.079-5.801l-14.955-23.112c-.815-1.269-1.722-2.629-2.991-3.535-2.175-1.45-5.075-1.178-7.613-.816-9.789 1.45-19.487 3.535-29.004 6.345" fill="#7DB4D9"/><path d="M357.286 144.836c-.362.725-.634 1.45-.997 2.175-.362.816-.816 1.722-.906 2.629-.091.906.272 1.994.997 2.537.544.363 1.269.454 1.903.454 2.629.09 5.348-.725 7.976-.182.906.182 1.722.454 2.629.725 3.716 1.088 7.885.726 11.42-.815.272-.091.634-.272.725-.544.272-.453 0-1.088-.363-1.36-.453-.362-.997-.453-1.45-.543-3.263-.635-6.616-1.269-9.607-2.629-.182-.091-.635-.362-.816-.272-.272.091-.272.181-.453.453-.635.907-1.541.997-2.629 1.088-3.263.091-6.163-1.541-8.429-3.716z" fill="#263238"/><path d="M277.708 101.604a27.087 27.087 0 00-3.897 11.782c-.272 2.81-.091 5.71 1.269 8.248 1.812 3.625 5.71 5.801 9.698 6.616 3.988.816 8.066.454 12.054.091 2.266-.181 4.441-.453 6.707-.634-.181-4.985-.453-10.242 1.632-14.865.181-.362.272-.906-.091-1.087-.181-.091-.362-.091-.453-.091-2.9.181-5.891 0-8.52-1.178-2.628-1.269-4.804-3.716-5.075-6.617 0-.362-.091-.906-.454-.997-.181-.09-.362 0-.634.091-3.716 1.178-7.885.816-11.42-.816" fill="#4180A9"/><path d="M298.373 51.935c.816 1.994 1.722 4.17 1.088 6.164-.182.634-.544 1.178-.725 1.903-.272.906-.363 2.085 0 2.991.181.453.272.725.453 1.269.181.453.181.997-.272 1.178-.272.182-.635.09-.997.182-.544.18-.816.815-.997 1.45-.453 1.36-.816 2.719-1.722 3.716-.181.181-.544.362-.816.362-.272.091-.544-.09-.816-.18l-3.806-1.904c-1.269-.635-2.447-1.27-3.444-2.175-1.541-1.45-2.266-3.535-2.448-5.62-.181-2.085.363-4.17 1.179-6.073" fill="#FFD0BC"/><path d="M281.696 69.97c1.722 1.723 3.988 3.082 6.344 3.626.544.181 1.178.09 1.541.272.091.09.363.907.544 1.178 1.722 3.626 3.535 7.251 5.257 10.877.362.815.815 1.631.906 2.537.181 1.088-.091 2.266-.363 3.354-.815 2.9-1.994 5.71-3.172 8.429-.272.725-.634 1.45-1.178 1.994-.906.816-2.266.906-3.535.906l-9.245.272c-.544 0-1.269 0-1.631-.362-.363-.272-.453-.725-.544-1.088-.816-2.9-1.36-5.891-1.903-8.882a31.317 31.317 0 01-.544-4.079c0-1.722.272-3.444.634-5.075.997-4.985 2.266-10.151 5.62-13.777.181-.181.453-.453.725-.362" fill="#407BFF"/><path d="M289.582 73.867c-.091 1.27-.182 3.173-1.36 3.716-1.088.544-2.447-.09-3.354-.906a16.573 16.573 0 01-4.894-6.254c.725-.272 1.269-.725 1.813-1.269 2.356 1.994 4.985 3.626 7.795 4.713z" fill="#AAC5FF"/><path d="M315.412 105.048a9.893 9.893 0 003.263-1.088c.816-.362 1.541-.906 2.357-1.269 1.631-.725 3.625-.725 5.347-.09 1.722.634 3.172 1.903 3.988 3.444-1.088-.091-2.175-.363-3.172-.997-.363-.272-.816-.544-1.269-.544-.363 0-.635.091-.997.181-.906.272-1.722.726-2.447 1.269-.453.363-.907.725-1.45.907-.635.181-1.269.181-1.904.09-.906-.09-1.813-.181-2.628-.272" fill="#FFD0BC"/><path d="M283.237 77.314c2.085-.182 3.625 2.175 4.622 3.988 1.904 3.534 2.629 7.522 3.988 11.238 1.36 3.716 3.535 7.523 7.161 9.155 1.359.634 2.9.997 4.441 1.269 1.994.362 3.988.815 5.982.997 1.812.181 3.625.09 5.438.181.362 0 .725 0 .997.181s.453.544.634.816c.363.725.725 1.359 1.088 2.084.181.272.272.635.272.907-.091.362-.272.544-.544.815-4.804 4.623-11.239 7.795-17.855 7.976-6.707.182-13.505-3.172-16.859-8.882-1.54-2.719-2.356-5.891-2.991-8.973-.634-3.081-1.178-6.163-.997-9.335.091-2.538.182-5.076.816-7.523.544-1.994 1.904-4.35 3.807-4.894z" fill="#AAC5FF"/><path d="M299.37 52.206c1.088 2.991.363 5.439-1.088 7.16-1.45 1.813-3.444 2.992-5.528 3.898-1.269.544-2.629.997-3.716 1.813-2.176 1.45-3.626 3.716-4.804 6.072-1.178 2.357-2.085 4.804-3.716 6.889-2.719 3.535-7.16 5.71-11.602 5.71-3.534-.09-7.16-1.632-8.791-4.713-.725-1.36-.997-2.9-1.088-4.35-.181-4.17 1.45-8.34 4.26-11.33 4.169-4.35 10.514-6.073 14.774-10.423 1.178-1.27 2.266-2.72 3.534-3.988 2.629-2.448 6.345-3.535 9.789-2.991 3.444.634 6.617 2.99 7.976 6.253z" fill="#263238"/><path d="M314.506 105.228c0 .272.272.544.544.544s.544-.272.544-.544-.272-.543-.544-.543-.544.181-.544.543zm-27.553-29.184c0 .272.272.544.543.544.272 0 .544-.272.544-.544s-.272-.544-.544-.544c-.271 0-.543.181-.543.544z" fill="#fff"/><path d="M317.95 109.127c8.248-1.269 16.496-2.629 24.744-3.898a.68.68 0 00.453-.634c.906-8.52 1.722-17.13 2.629-25.65.09-.816-1.179-.816-1.269 0-.454 4.078-.816 8.248-1.269 12.326-.272 2.9-.635 5.801-.907 8.701-.09.997.091 3.716-.453 4.532.725-1.088-2.175-.091-3.081 0l-8.43 1.36c-4.259.725-8.61 1.359-12.87 2.084-.634.091-.272 1.269.453 1.179z" fill="#263238"/><path d="M262.12 35.892l.272-.997-.091-13.686-6.163 12.145-.272 1.088 6.254 1.45z" fill="#AAC5FF"/><path d="M262.3 24.11v-2.901l-1.359 2.628 1.359.272z" fill="#263238"/><path d="M245.261 106.86c-.453 1.722-2.175 2.81-3.897 2.356-1.722-.453-2.81-2.175-2.357-3.897l.544-2.356c.453-1.723 2.175-2.81 3.898-2.357 1.722.453 2.809 2.175 2.356 3.897l-.544 2.357z" fill="#407BFF"/><path d="M256.145 33.394l-16.268 68.333 6.26 1.49 16.268-68.332-6.26-1.49z" fill="#7DB4D9"/><path d="M259.332 34.14l-16.268 68.333 2.998.713 16.268-68.332-2.998-.714z" fill="#4180A9"/><path d="M258.625 33.911l-16.269 68.332 1.588.378 16.268-68.332-1.587-.378zm-18.745 67.804l-.609 2.557 6.26 1.491.609-2.557-6.26-1.491z" fill="#263238"/><path d="M191.423 110.032c-.181.362-.363.725-.634.997-.635.634-1.451 1.087-2.357 1.087-1.813.091-3.444-1.359-3.535-3.172l-.362-5.891c0-.182.09-.272.272-.272.181 0 .271.09.271.272l.363 5.891c.091 1.541 1.45 2.81 2.991 2.719.725 0 1.45-.363 1.994-.906.544-.544.725-1.269.725-2.085l-.544-9.88a2.27 2.27 0 00-2.266-2.084 2.27 2.27 0 00-2.084 2.266l.453 8.701c0 .816.725 1.45 1.541 1.36.815-.091 1.45-.726 1.359-1.541l-.453-8.248c0-.181.091-.272.272-.272.181 0 .272.09.272.272l.453 8.248c.091 1.087-.816 1.994-1.813 2.084-1.087.091-1.994-.815-2.084-1.812l-.453-8.701c-.091-1.45 1.087-2.72 2.537-2.81 1.451-.09 2.719 1.088 2.81 2.538l.544 9.879c0 .453-.091.906-.272 1.36z" fill="#407BFF"/><path d="M234.204 90.636c7.069 8.429 6.072 20.937-2.357 28.097-8.429 7.069-20.937 6.072-28.097-2.357-7.07-8.429-6.073-20.937 2.357-28.097 8.429-7.07 20.936-5.982 28.097 2.357z" fill="#fff"/><path d="M234.022 90.635c7.07 8.43 6.073 20.937-2.356 28.098-8.43 7.069-20.937 6.072-28.098-2.357-7.069-8.429-6.072-20.937 2.357-28.097 8.338-7.16 20.937-6.073 28.097 2.356z" fill="#fff"/><path d="M213.9 122.811l10.152-38.52c-10.605-2.81-21.572 3.535-24.381 14.139-2.81 10.604 3.534 21.571 14.229 24.381z" fill="#F5F5F5"/><path d="M233.841 116.92l-4.441 3.807c-.272.181-.272.544 0 .816l24.381 29.728 1.269 1.541c1.632 1.994 4.351 2.357 6.073.997 1.722-1.45 1.722-4.169.09-6.163l-1.269-1.541-25.287-29.003c-.272-.272-.634-.363-.816-.182z" fill="#407BFF"/><path d="M224.415 82.84a21.072 21.072 0 0110.967 6.889c7.613 9.063 6.435 22.568-2.538 30.181-9.063 7.614-22.568 6.435-30.182-2.537-3.716-4.351-5.438-9.88-4.985-15.59.454-5.71 3.173-10.876 7.523-14.592 4.351-3.716 9.88-5.438 15.59-4.985 1.178.09 2.447.272 3.625.634zm8.61 8.792c-3.172-3.807-7.613-6.073-12.507-6.435a18.034 18.034 0 00-13.414 4.26c-3.716 3.172-6.073 7.613-6.436 12.507a18.04 18.04 0 004.26 13.415c6.526 7.794 18.218 8.701 26.013 2.175 7.704-6.526 8.701-18.127 2.084-25.922z" fill="#407BFF"/></g><defs><clipPath id="clip0_849_6689"><path fill="#fff" d="M0 0h416.2v227.949H0z"/></clipPath></defs></svg>