<svg width="416" height="334" fill="none" xmlns="http://www.w3.org/2000/svg"><path d="M208 332.972c114.81 0 207.882-5.434 207.882-12.137S322.81 308.698 208 308.698.118 314.132.118 320.835 93.19 332.972 208 332.972z" fill="#F5F5F5"/><path d="M126.902 311.807h-7.859l-.783-18.184h7.859l.783 18.184z" fill="#FFB07B"/><path d="M174.067 311.807h-7.859l-3.946-18.184h7.859l3.946 18.184z" fill="#9F5B53"/><path d="M165.649 310.928h8.824a.687.687 0 01.676.536l1.554 6.98a1.158 1.158 0 01-1.158 1.394c-3.077-.054-4.578-.236-8.459-.236-2.38 0-7.301.257-10.604.257-3.302 0-3.72-3.27-2.38-3.559 6.058-1.33 8.342-3.153 10.272-4.89a1.874 1.874 0 011.275-.482zm-46.552 0h8.577a.685.685 0 01.675.536l1.544 6.98a1.13 1.13 0 01-.223.971 1.126 1.126 0 01-.903.423c-3.098-.054-7.569-.236-11.461-.236-4.546 0-8.47.257-13.799.257-3.216 0-4.128-3.27-2.777-3.56 6.144-1.35 11.162-1.49 16.48-4.76a3.524 3.524 0 011.887-.611z" fill="#263238"/><path d="M113.318 55.12l-10.604-4.192s-12.19 24.906-16.083 26.16c-5.221 1.716-15.954 6.434-22.44 7.367-.826 1.072-2.144 4.288-1.876 5.468 8.942 2.916 27.994-.965 31.94-4.032 9.059-6.99 19.063-30.771 19.063-30.771z" fill="#FFB07B"/><path d="M116.17 49.47c2.648 7.033-10.722 27.726-10.722 27.726l-15.707-8.577a95.561 95.561 0 019.07-18.388c5.522-8.234 14.454-8.416 17.359-.761z" fill="#457EEF"/><path opacity=".6" d="M116.17 49.47c2.648 7.033-10.722 27.726-10.722 27.726l-15.707-8.577a95.561 95.561 0 019.07-18.388c5.522-8.234 14.454-8.416 17.359-.761z" fill="#FAFAFA"/><path d="M116.406 50.392c-3.077-1.458-6.53-.236-10.003 5.564-3.474 5.8-6.273 15.515-6.52 18.28l5.522 2.992s12.384-19.138 11.001-26.836z" fill="#457EEF"/><path opacity=".4" d="M116.406 50.392c-3.077-1.458-6.53-.236-10.003 5.564-3.474 5.8-6.273 15.515-6.52 18.28l5.522 2.992s12.384-19.138 11.001-26.836z" fill="#FAFAFA"/><path d="M65.563 84.38l-8.856-3.646-3.002 9.585c3.554.537 7.168.537 10.722 0l1.136-5.94z" fill="#FFB07B"/><path d="M50.264 80.509l.15 6.369 3.291 3.441 3.002-9.574-6.443-.236z" fill="#FFB07B"/><path d="M170.121 293.623h-7.859l2.037 9.382h7.859l-2.037-9.382z" fill="#8A4743"/><path d="M106.842 44.098s-9.274 23.717-.461 67.901h42.007c.29-6.433-3.763-37.923 2.466-68.308a109.627 109.627 0 00-14.066-1.78 154.995 154.995 0 00-17.863 0 78.586 78.586 0 00-12.083 2.187z" fill="#457EEF"/><path opacity=".6" d="M106.842 44.098s-9.274 23.717-.461 67.901h42.007c.29-6.433-3.763-37.923 2.466-68.308a109.627 109.627 0 00-14.066-1.78 154.995 154.995 0 00-17.863 0 78.586 78.586 0 00-12.083 2.187z" fill="#FAFAFA"/><path d="M141.719 51.196c-.697 4.996.879 16.962 5.64 30.793a201.335 201.335 0 012.905-35.275v-.064c-2.766-.279-7.869-.14-8.545 4.546z" fill="#457EEF"/><path opacity=".4" d="M141.719 51.196c-.697 4.996.879 16.962 5.64 30.793a201.335 201.335 0 012.905-35.275v-.064c-2.766-.279-7.869-.14-8.545 4.546z" fill="#FAFAFA"/><path d="M116.213 42.222c.879-.118 1.79-.225 2.712-.31 5.95-.344 11.913-.344 17.863 0 .75 0 1.501.085 2.251.15l-.257.643c-.118.289-2.981 7.183-15.01 7.183-1.577 0-6.348 0-7.849-3.216a5.183 5.183 0 01.29-4.45z" fill="#FAFAFA"/><path d="M134.45 25.207c-1.126 5.746-1.683 12.866 2.337 16.704 0 0-2.315 5.833-12.994 5.833-9.757 0-4.868-5.833-4.868-5.833 6.433-1.523 6.069-9.446 4.954-13.938l10.571-2.766z" fill="#FFB07B"/><path d="M133.699 30.546l-7.57-3.141-.975.257a16.335 16.335 0 001.19 3.838 13.937 13.937 0 008.03 6.433 19.65 19.65 0 01-.675-7.387zm11.483-4.181a7.504 7.504 0 01-5.114 2.433c-2.595.118-3.313-2.348-2.144-4.492 1.072-1.93 3.752-4.289 6.122-3.42a3.335 3.335 0 011.136 5.479z" fill="#DF9869"/><path d="M143.906 8.277c3.538 2.263 3.753 13.306-1.544 14.914-5.296 1.608-5.125-19.224 1.544-14.914z" fill="#263238"/><path d="M123.696 13.938c-.858 7.752-1.748 12.244 1.447 16.844 4.793 6.926 14.871 5.06 18.024-2.284 2.841-6.604 3.763-18.162-3.217-22.515a10.636 10.636 0 00-16.254 7.955z" fill="#FFB07B"/><path d="M122.41 18.699c2.069 1.072 4.642-3.989 5.178-9.285 3.517 3.334 23.588 2.916 20.554-1.909-4.696-7.505-21.787-9.113-24.456-4.17-4.879.214-5.983 13.016-1.276 15.364z" fill="#263238"/><path d="M118.775 21.787a7.43 7.43 0 003.989 4.02c2.412.976 3.913-1.072 3.495-3.527-.386-2.145-2.091-5.361-4.621-5.275a3.326 3.326 0 00-3.198 3.18 3.331 3.331 0 00.335 1.602z" fill="#DF9869"/><path d="M106.381 111.999s-1.073 58.733-.236 82.685c.89 24.917 9.596 106.498 9.596 106.498h13.305s.493-80.123 1.072-104.6c.644-26.676 3.871-84.583 3.871-84.583h-27.608z" fill="#457EEF"/><path d="M129.925 297.108c.064 0 0 4.353 0 4.353h-15.343l-.643-4.889 15.986.536z" fill="#457EEF"/><path opacity=".6" d="M129.925 297.108c.064 0 0 4.353 0 4.353h-15.343l-.643-4.889 15.986.536z" fill="#FAFAFA"/><path d="M124.758 127.588c.247 29.141 2.005 46.843 5.608 61.113.461-13.938 1.329-32.283 2.144-47.55l-7.752-13.563z" fill="#457EEF"/><path opacity=".2" d="M124.758 127.588c.247 29.141 2.005 46.843 5.608 61.113.461-13.938 1.329-32.283 2.144-47.55l-7.752-13.563z" fill="#000"/><path d="M121.284 111.999s8.91 60.041 13.81 82.556c5.36 24.66 25.549 106.67 25.549 106.67h14.389s-13.316-80.048-16.372-104.429c-3.324-26.472-10.271-84.701-10.271-84.701l-27.105-.096z" fill="#457EEF"/><path d="M175.032 297.44c.053 0 .718 4.021.718 4.021h-15.814l-1.405-4.621 16.501.6z" fill="#457EEF"/><path opacity=".6" d="M175.032 297.44c.053 0 .718 4.021.718 4.021h-15.814l-1.405-4.621 16.501.6z" fill="#FAFAFA"/><path d="M169.231 292.701a.161.161 0 01-.139-.118c-.118-.729-12.126-73.004-14.871-94.908-2.981-23.77-9.264-76.488-9.328-77.024a.12.12 0 01.006-.05.134.134 0 01.063-.076.138.138 0 01.147.016.137.137 0 01.052.088c.064.526 6.337 53.244 9.328 77.014 2.745 21.904 14.753 94.168 14.871 94.897a.133.133 0 01-.059.133.12.12 0 01-.048.017l-.022.011z" fill="#457EEF"/><path opacity=".2" d="M169.231 292.701a.161.161 0 01-.139-.118c-.118-.729-12.126-73.004-14.871-94.908-2.981-23.77-9.264-76.488-9.328-77.024a.12.12 0 01.006-.05.134.134 0 01.063-.076.138.138 0 01.147.016.137.137 0 01.052.088c.064.526 6.337 53.244 9.328 77.014 2.745 21.904 14.753 94.168 14.871 94.897a.133.133 0 01-.059.133.12.12 0 01-.048.017l-.022.011z" fill="#000"/><path d="M134.965 18.098c-.118.622.129 1.18.536 1.255.408.075.826-.376.933-1.008.107-.633-.129-1.18-.536-1.255-.408-.075-.804.376-.933 1.008zm7.054 1.202c-.107.621.129 1.178.537 1.254.407.075.825-.376.943-1.008.118-.633-.139-1.18-.547-1.255-.407-.075-.825.397-.933 1.008z" fill="#263238"/><path d="M139.715 19.235a22.951 22.951 0 002.058 5.854 3.63 3.63 0 01-3.077 0l1.019-5.854z" fill="#DF9869"/><path d="M136.584 26.547a.195.195 0 00.137-.033.193.193 0 00.077-.117.177.177 0 00-.082-.19.185.185 0 00-.068-.025 5.027 5.027 0 01-3.699-2.594.192.192 0 00-.246-.097.177.177 0 00-.061.041.176.176 0 00-.053.134c.001.025.007.05.017.072a5.354 5.354 0 003.978 2.809zm-3.356-11.097a.374.374 0 00.321-.097 2.979 2.979 0 012.552-.814.376.376 0 00.463-.414.359.359 0 00-.146-.247.356.356 0 00-.135-.058 3.667 3.667 0 00-3.216.987.384.384 0 000 .536.45.45 0 00.161.107zm12.394 1.908a.397.397 0 00.161 0 .372.372 0 00.212-.194.373.373 0 00.013-.288 3.73 3.73 0 00-2.434-2.37.377.377 0 00-.45.28.384.384 0 00.278.45 2.928 2.928 0 011.909 1.897.34.34 0 00.311.225z" fill="#263238"/><path d="M153.095 48.987l-9.424 6.347s13.595 24.178 12.448 28.048c-1.555 5.275-3.721 16.812-6.669 22.655.386 1.265 2.348 4.149 3.442 4.653 7.505-5.714 15.096-23.587 14.806-28.594-.686-11.333-14.603-33.109-14.603-33.109z" fill="#FFB07B"/><path d="M150.854 43.69c7.43 1.073 15.943 26.805 15.943 26.805l-15.621 8.845s-6.873-12.244-10.272-21.346c-3.538-9.521 1.973-15.461 9.95-14.303z" fill="#457EEF"/><path opacity=".6" d="M150.854 43.69c7.43 1.073 15.943 26.805 15.943 26.805l-15.621 8.845s-6.873-12.244-10.272-21.346c-3.538-9.521 1.973-15.461 9.95-14.303z" fill="#FAFAFA"/><path d="M163.055 312.268a2.353 2.353 0 01-1.512-.397 1.149 1.149 0 01-.386-.986.617.617 0 01.322-.525c.858-.44 3.399 1.072 3.688 1.297a.175.175 0 01.073.077c.015.033.02.07.013.105a.18.18 0 01-.139.15 8.833 8.833 0 01-2.059.279zm-1.158-1.619a.496.496 0 00-.236 0c-.053 0-.107.075-.118.225a.774.774 0 00.247.676 3.832 3.832 0 002.788.139 7.455 7.455 0 00-2.681-1.04z" fill="#457EEF"/><path d="M165.114 312h-.096c-.815-.45-2.381-2.144-2.22-3.045a.612.612 0 01.601-.482.987.987 0 01.793.236c.911.75 1.072 3.012 1.072 3.109a.223.223 0 01-.086.171l-.064.011zm-1.587-3.216h-.086c-.246 0-.268.139-.268.193-.107.514.901 1.812 1.705 2.433a4.456 4.456 0 00-.922-2.466.686.686 0 00-.472-.16h.043zm-47.733 3.495a3.028 3.028 0 01-1.908-.483 1.078 1.078 0 01-.343-.911.573.573 0 01.311-.493c.943-.536 4.106 1.072 4.46 1.254a.162.162 0 01.096.193.17.17 0 01-.139.15c-.814.177-1.644.274-2.477.29zm-1.415-1.63a.827.827 0 00-.354.064.24.24 0 00-.118.204.738.738 0 00.225.601c.494.428 1.78.493 3.517.214a10.161 10.161 0 00-3.238-1.083h-.032z" fill="#457EEF"/><path d="M118.26 312h-.075c-.944-.418-2.82-2.144-2.681-3.013 0-.203.183-.461.697-.514a1.292 1.292 0 011.073.321c.997.815 1.211 2.927 1.222 3.024a.192.192 0 01-.086.161.145.145 0 01-.072.033.148.148 0 01-.078-.012zm-1.909-3.216h-.117c-.333 0-.354.171-.365.214-.086.536 1.19 1.866 2.144 2.445a4.456 4.456 0 00-1.072-2.424.999.999 0 00-.59-.235z" fill="#457EEF"/><path d="M149.418 106.037l-7.505-.579 3.934 8.277s6.551.29 7.645-4.717l-4.074-2.981z" fill="#FFB07B"/><path d="M135.875 109.232l3.925 7.313 6.079-2.82-3.935-8.267-6.069 3.774z" fill="#FFB07B"/><path d="M88.625 320.62H78.14L54.35 63.58l10.378-.965L88.625 320.62z" fill="#457EEF"/><path opacity=".3" d="M88.625 320.62H78.14L54.35 63.58l10.378-.965L88.625 320.62z" fill="#FAFAFA"/><path d="M109.554 320.62H99.09L75.106 61.66l10.378-.965 24.07 259.925z" fill="#457EEF"/><path opacity=".3" d="M109.554 320.62H99.09L75.106 61.66l10.378-.965 24.07 259.925z" fill="#FAFAFA"/><path d="M99.09 320.62H88.626L64.728 62.615l10.378-.955L99.09 320.62z" fill="#457EEF"/><path opacity=".4" d="M99.09 320.62H88.626L64.728 62.615l10.378-.955L99.09 320.62z" fill="#FAFAFA"/><path d="M72.918 43.69l-9.339.87-9.23 19.02 31.135-2.885-12.566-17.004z" fill="#457EEF"/><path opacity=".8" d="M72.918 43.69l-9.339.87-9.23 19.02 31.135-2.885-12.566-17.004z" fill="#FAFAFA"/><path d="M67.526 36.4l-3.946 8.16 9.339-.87-5.393-7.29z" fill="#457EEF"/><path opacity=".4" d="M67.526 36.4l-3.946 8.16 9.339-.87-5.393-7.29z" fill="#FAFAFA"/><path d="M348.838 26.107l-12.18-1.35a124.442 124.442 0 01-2.38 24.895l-4.203 21.047 12.169 1.35 4.203-21.046a124.368 124.368 0 002.38-24.896h.011z" fill="#457EEF"/><path opacity=".4" d="M348.838 26.107l-12.18-1.35a124.442 124.442 0 01-2.38 24.895l-4.203 21.047 12.169 1.35 4.203-21.046a124.368 124.368 0 002.38-24.896h.011z" fill="#FAFAFA"/><path d="M368.309 51.196H180.412L157.125 320.63h187.897l23.287-269.435z" fill="#457EEF"/><path opacity=".8" d="M368.309 51.196H180.412L157.125 320.63h187.897l23.287-269.435z" fill="#FAFAFA"/><path d="M346.169 307.283H158.283l-1.158 13.348h187.897l1.147-13.348z" fill="#457EEF"/><path opacity=".4" d="M346.169 307.283H158.283l-1.158 13.348h187.897l1.147-13.348z" fill="#FAFAFA"/><path d="M356.065 51.196H168.168L144.881 320.63h187.897l23.287-269.435z" fill="#FAFAFA"/><path d="M333.925 307.283H146.039l-1.158 13.348h187.897l1.147-13.348z" fill="#457EEF"/><path opacity=".6" d="M333.925 307.283H146.039l-1.158 13.348h187.897l1.147-13.348z" fill="#FAFAFA"/><path d="M343.199 64.716H178.718a.222.222 0 01-.159-.066.219.219 0 01.003-.316.233.233 0 01.156-.068h164.481a.237.237 0 01.236.225c0 .03-.007.06-.019.088a.226.226 0 01-.128.123.223.223 0 01-.089.014zm-.932 10.818H177.786a.224.224 0 01-.225-.225.236.236 0 01.225-.225h164.481a.224.224 0 01.225.225.226.226 0 01-.225.225zm-.933 10.818H176.907a.224.224 0 01-.225-.225.224.224 0 01.225-.225h164.427a.224.224 0 01.225.225.226.226 0 01-.225.225zm-.933 10.818H175.92a.226.226 0 010-.45h164.481a.222.222 0 01.159.066.22.22 0 01.066.16.22.22 0 01-.139.208.222.222 0 01-.086.016zm-.933 10.819H174.987a.227.227 0 01-.225-.226.227.227 0 01.225-.225h164.481a.225.225 0 01.159.385.225.225 0 01-.159.066zm-.944 10.818h-164.47a.227.227 0 01-.225-.226.227.227 0 01.225-.225h164.47a.227.227 0 01.16.385.229.229 0 01-.16.066zm-.932 10.818H173.111a.225.225 0 01-.159-.385.225.225 0 01.159-.066h164.481a.227.227 0 01.225.226.227.227 0 01-.225.225zm-.933 10.829H172.178a.227.227 0 01-.225-.225.227.227 0 01.225-.226h164.481a.225.225 0 01.225.226.225.225 0 01-.225.225zm-.933 10.807H171.245a.225.225 0 010-.45h164.481a.225.225 0 110 .45zm-.933 10.818h-164.48a.225.225 0 110-.45h164.48a.225.225 0 01.226.225.239.239 0 01-.226.225zm-.943 10.818H169.402a.22.22 0 01-.105-.001.23.23 0 01-.158-.127.241.241 0 010-.204.226.226 0 01.065-.082.246.246 0 01.093-.046.248.248 0 01.105-.001h164.47a.243.243 0 01.104.001.234.234 0 01.158.128.228.228 0 010 .204.253.253 0 01-.064.082.24.24 0 01-.198.046h-.022zm-.933 10.819H168.436a.24.24 0 01-.186-.231.235.235 0 01.186-.23h164.481a.223.223 0 01.225.235.225.225 0 01-.225.226zm-.933 10.818H167.503a.223.223 0 01-.211-.147.225.225 0 01-.014-.089.225.225 0 01.225-.225h164.481a.225.225 0 01.225.225.208.208 0 01-.014.089.226.226 0 01-.211.147zm-.933 10.818h-164.48a.225.225 0 01-.226-.236.225.225 0 01.226-.225h164.48a.233.233 0 01.186.23.232.232 0 01-.052.148.24.24 0 01-.134.083zm-.933 10.818h-164.48a.225.225 0 01-.226-.236.225.225 0 01.226-.225h164.48a.236.236 0 010 .461zm-.964 10.818H164.705a.228.228 0 01-.104-.001.234.234 0 01-.158-.128.225.225 0 010-.203.234.234 0 01.262-.129h164.449a.243.243 0 01.104.001.237.237 0 01.159.331.237.237 0 01-.263.129zm-.911 10.808H163.762a.227.227 0 01-.225-.226.227.227 0 01.225-.225h164.481a.225.225 0 01.159.385.225.225 0 01-.159.066zm-.933 10.818H162.829a.225.225 0 01-.159-.385.225.225 0 01.159-.066H327.31a.225.225 0 01.159.385.225.225 0 01-.159.066zm-.933 10.85H161.896a.225.225 0 010-.45h164.481a.225.225 0 110 .45zm-.933 10.786H160.963a.227.227 0 01-.225-.225c0-.06.024-.117.066-.16a.226.226 0 01.159-.065h164.481c.06 0 .117.023.16.065a.228.228 0 010 .319.229.229 0 01-.16.066zm-.944 10.818H160.03a.227.227 0 01-.225-.225.225.225 0 01.225-.225H324.5a.225.225 0 110 .45zm-.932 10.818H159.087a.225.225 0 010-.45h164.481a.225.225 0 010 .45z" fill="#457EEF"/><path d="M343.199 64.716H178.718a.226.226 0 01-.225-.225.236.236 0 01.225-.225h164.481a.235.235 0 01.236.225.225.225 0 01-.236.225zm-.931 10.818H177.787a.225.225 0 01-.225-.225.235.235 0 01.225-.225h164.481a.226.226 0 01.159.384.227.227 0 01-.159.066zm-.934 10.818H176.907a.224.224 0 01-.225-.225.224.224 0 01.225-.225h164.427a.224.224 0 01.225.225.226.226 0 01-.225.225zm-.933 10.818H175.92a.226.226 0 010-.45h164.481a.222.222 0 01.159.066.22.22 0 01.066.16.22.22 0 01-.139.208.222.222 0 01-.086.016zm-.932 10.819H174.988a.225.225 0 01-.225-.226.225.225 0 01.225-.225h164.481a.227.227 0 01.225.225.227.227 0 01-.225.226zm-.944 10.818h-164.47a.225.225 0 01-.225-.226.225.225 0 01.225-.225h164.47a.225.225 0 01.159.385.225.225 0 01-.159.066zm-.933 10.818H173.111a.227.227 0 01-.225-.225.225.225 0 01.225-.225h164.481a.22.22 0 01.159.066.22.22 0 01.066.159.225.225 0 01-.225.225zm-.932 10.829H172.179a.225.225 0 01-.159-.385.225.225 0 01.159-.066H336.66a.227.227 0 01.225.226.227.227 0 01-.225.225zm-.933 10.807H171.246a.224.224 0 01-.225-.225.224.224 0 01.225-.225h164.481a.225.225 0 110 .45zm-.934 10.818h-164.48a.225.225 0 110-.45h164.48a.225.225 0 01.226.225.239.239 0 01-.226.225zm-.943 10.818H169.402a.22.22 0 01-.105-.001.23.23 0 01-.158-.127.241.241 0 010-.204.226.226 0 01.065-.082.246.246 0 01.093-.046.248.248 0 01.105-.001h164.47a.243.243 0 01.104.001.234.234 0 01.158.128.228.228 0 010 .204.253.253 0 01-.064.082.24.24 0 01-.198.046h-.022zm-.932 10.819H168.437a.234.234 0 01-.134-.379.233.233 0 01.134-.082h164.481a.227.227 0 01.163.069.227.227 0 01.062.166.227.227 0 01-.225.226zm-.933 10.818H167.504a.226.226 0 01-.163-.07.213.213 0 01-.048-.077.208.208 0 01-.014-.089.225.225 0 01.225-.225h164.481c.059 0 .117.023.159.065a.244.244 0 01.052.249.227.227 0 01-.048.077.227.227 0 01-.075.051.225.225 0 01-.088.019zm-.933 10.818H166.571a.226.226 0 01-.225-.236.225.225 0 01.225-.225h164.481a.233.233 0 01.186.23.238.238 0 01-.186.231zm-.933 10.818H165.638a.226.226 0 01-.225-.236.225.225 0 01.225-.225h164.481a.236.236 0 010 .461zm-.965 10.818H164.706a.233.233 0 01-.198-.047.233.233 0 010-.367.232.232 0 01.198-.047h164.448a.243.243 0 01.199.047.234.234 0 01.087.184.233.233 0 01-.087.183.243.243 0 01-.199.047zm-.911 10.808H163.762a.227.227 0 01-.225-.226.227.227 0 01.225-.225h164.481a.225.225 0 01.159.385.225.225 0 01-.159.066zm-.933 10.818H162.83a.229.229 0 01-.16-.066.228.228 0 01-.066-.159c0-.06.024-.117.066-.16a.229.229 0 01.16-.066h164.48c.06 0 .117.024.16.066.042.043.066.1.066.16a.228.228 0 01-.066.159.229.229 0 01-.16.066zm-.933 10.85h-164.48a.225.225 0 110-.45h164.48a.225.225 0 110 .45zm-.932 10.786H160.964a.225.225 0 010-.45h164.481a.225.225 0 110 .45zm-.944 10.818h-164.47a.225.225 0 010-.45h164.47a.225.225 0 010 .45zm-.933 10.818H159.087a.227.227 0 01-.225-.225.225.225 0 01.225-.225h164.481a.224.224 0 01.225.225.224.224 0 01-.225.225z" opacity=".5" fill="#FAFAFA"/><path d="M305.995 301.654a.125.125 0 01-.077-.045.122.122 0 01-.03-.084l21.068-243.692c0-.065.053-.097.118-.108a.13.13 0 01.107.13l-21.079 243.691a.107.107 0 01-.031.076.11.11 0 01-.076.032z" fill="#457EEF"/><path opacity=".3" d="M305.995 301.654a.125.125 0 01-.077-.045.122.122 0 01-.03-.084l21.068-243.692c0-.065.053-.097.118-.108a.13.13 0 01.107.13l-21.079 243.691a.107.107 0 01-.031.076.11.11 0 01-.076.032z" fill="#000"/><path d="M322.956 22.966h-12.244c.976 8.3 1.105 16.677.386 25.003l-1.844 21.39h12.244l1.844-21.39c.719-8.326.59-16.704-.386-25.003z" fill="#457EEF"/><path opacity=".3" d="M322.956 22.966h-12.244c.976 8.3 1.105 16.677.386 25.003l-1.844 21.39h12.244l1.844-21.39c.719-8.326.59-16.704-.386-25.003z" fill="#000"/><path d="M215.901 73.626h-.085a.247.247 0 01-.183-.236 2.141 2.141 0 00-.793-1.49 4.167 4.167 0 00-3.099-.815c-.863.149-1.71.379-2.53.686a13.03 13.03 0 01-2.809.729 6.788 6.788 0 01-4.857-1.426 4.687 4.687 0 01-4.707 2.058 4.63 4.63 0 01-3.034-2.144 1.64 1.64 0 00-2.144-.557 46 46 0 01-4.289 1.897.276.276 0 01-.225 0 .26.26 0 01-.086-.082.264.264 0 01-.043-.11 4.275 4.275 0 010-1.073.835.835 0 00-.3-.761.708.708 0 00-.697-.118 5.549 5.549 0 00-1.63.847l-.235.182c-1.073.837-1.995 1.458-2.616 1.373a.698.698 0 01-.451-.268 1.718 1.718 0 01-.246-1.19 4.384 4.384 0 013.409-3.742.27.27 0 01.311.203.276.276 0 01.002.108.275.275 0 01-.117.174.268.268 0 01-.099.04 3.816 3.816 0 00-2.97 3.27c-.05.28-.001.568.139.815a.122.122 0 00.097.053c.45.065 1.554-.76 2.219-1.265l.236-.182a6.368 6.368 0 011.78-.933 1.241 1.241 0 011.2.215 1.344 1.344 0 01.504 1.233 3.498 3.498 0 000 .579 41.852 41.852 0 003.871-1.748 2.144 2.144 0 012.863.772 3.96 3.96 0 003.531 2.012 3.97 3.97 0 003.448-2.151.247.247 0 01.183-.14.274.274 0 01.225.065 6.19 6.19 0 004.696 1.5 13.034 13.034 0 002.691-.696c.851-.32 1.731-.561 2.627-.719a4.795 4.795 0 013.517.933c.416.33.723.779.879 1.287 1.704-1.93 3.742-3.85 6.293-3.742a1.17 1.17 0 01.89.343 1.243 1.243 0 01.172.986l-.3 2.263a11.386 11.386 0 003.398-2.917c.422-.57.933-1.07 1.512-1.48a1.565 1.565 0 011.93-.063c.368.339.619.785.718 1.275 0 .14.086.28.14.408.114.307.34.56.632.707a.39.39 0 00.343 0 .27.27 0 01.354.129.278.278 0 01-.128.365.97.97 0 01-.772 0 1.825 1.825 0 01-.923-1.008c-.064-.14-.107-.29-.16-.44a1.984 1.984 0 00-.536-1.072 1.074 1.074 0 00-1.276.054 6.008 6.008 0 00-1.383 1.361 11.801 11.801 0 01-4.032 3.302.266.266 0 01-.268 0 .27.27 0 01-.118-.257l.365-2.777c0-.214.053-.45-.054-.568-.107-.118-.236-.14-.482-.15h-.161c-2.445 0-4.417 2.058-6.079 4a.293.293 0 01-.258.096zm61.103-.033a3.217 3.217 0 01-2.466-1.694 11.24 11.24 0 01-.6-1.2 9.516 9.516 0 00-.73-1.394 11.526 11.526 0 01-4.106 2.305.248.248 0 01-.257 0 .256.256 0 01-.086-.257c.086-.41.14-.826.161-1.244a2.074 2.074 0 00-1.785-2.164c-.336-.043-.678 0-.992.127l-3.088 1.19c-.493.182-1.983.761-2.788-.15a2.963 2.963 0 01-.257-.375 1.068 1.068 0 00-.354-.397c-.246-.118-.579.053-.879.246a139.853 139.853 0 01-5.983 3.485 5.027 5.027 0 01-2.337.815 2.645 2.645 0 01-2.048-.997 2.698 2.698 0 01-.675-1.555 7.025 7.025 0 01-4.235 1.92 2.015 2.015 0 01-1.19-.419 1.918 1.918 0 01-.526-2.22 5.026 5.026 0 011.319-1.747.265.265 0 01.195-.106.267.267 0 01.287.286.279.279 0 01-.032.11.275.275 0 01-.075.085 4.712 4.712 0 00-1.19 1.566 1.406 1.406 0 00.333 1.587c.27.174.59.257.911.235 1.565 0 2.948-1.072 4.353-2.144a.279.279 0 01.3 0 .26.26 0 01.111.118.26.26 0 01.018.16 2.137 2.137 0 00.536 1.737 2.142 2.142 0 001.608.805 4.691 4.691 0 002.144-.74c1.995-1.072 4-2.273 5.951-3.485a1.493 1.493 0 011.404-.268c.247.138.445.347.569.6.059.103.127.2.203.29.386.44 1.073.44 2.198 0l3.088-1.19a2.575 2.575 0 012.434.322 2.601 2.601 0 011.072 2.251 7.91 7.91 0 01-.096.869 11.123 11.123 0 003.709-2.241.302.302 0 01.204-.075.24.24 0 01.182.107 7.58 7.58 0 01.965 1.726c.183.397.365.794.579 1.158a2.414 2.414 0 002.338 1.383c.707-.16 1.168-.804 1.661-1.5a3.607 3.607 0 011.984-1.716 3.539 3.539 0 012.477.697c.278.15.557.31.836.44 1.63.718 3.409.289 5.286-.172a12.178 12.178 0 014.46-.515.26.26 0 01.185.098.264.264 0 01-.053.376.268.268 0 01-.196.052 11.955 11.955 0 00-4.289.514c-1.887.461-3.828.933-5.629.129a8.544 8.544 0 01-.879-.461 3.13 3.13 0 00-2.144-.633c-.719.161-1.18.815-1.673 1.501a3.583 3.583 0 01-1.973 1.716 2.15 2.15 0 01-.45.053zm-89.537 10.604a.289.289 0 01-.15 0 .303.303 0 01-.118-.246 6.63 6.63 0 01.375-1.64 7.118 7.118 0 01-5.725 1.21 2.202 2.202 0 01-1.073-.46 1.908 1.908 0 010-2.53 4.688 4.688 0 012.145-1.33.268.268 0 01.348.155.269.269 0 01-.155.349 4.287 4.287 0 00-1.898 1.158 1.394 1.394 0 000 1.8c.239.173.514.287.804.333a6.681 6.681 0 006.305-2.037.265.265 0 01.364 0 .266.266 0 01.064.365 5.719 5.719 0 00-.89 2.198l6.991-3.689a.27.27 0 01.343.076.28.28 0 010 .343.373.373 0 00-.064.386.768.768 0 00.536.493 2.143 2.143 0 001.447-.536l.075-.065a3.218 3.218 0 011.662-.76c.391 0 .777.081 1.137.235a25.957 25.957 0 0010.925 1.233c.568-.064 1.147-.14 1.716-.225a14.204 14.204 0 016.647.14.259.259 0 01.161.342.247.247 0 01-.231.18.25.25 0 01-.102-.019 14.002 14.002 0 00-6.433-.107c-.579.075-1.158.16-1.737.214a26.386 26.386 0 01-11.15-1.35 1.929 1.929 0 00-2.348.45l-.086.053a2.507 2.507 0 01-1.855.633 1.284 1.284 0 01-.943-.858.72.72 0 01-.054-.204l-6.872 3.678a.292.292 0 01-.161.032zm43.294-.665a.27.27 0 01-.161 0 .28.28 0 01-.107-.214V81.72a.269.269 0 01.536-.01v1.243a13.287 13.287 0 005.747-3.549.221.221 0 01.182-.086c.07.008.137.034.193.076.272.32.437.718.472 1.136.075.386.139.719.386.858.212.068.441.068.654 0a15.333 15.333 0 004.417-1.254c1.254-.569 2.959-1.34 4.149-.354l.215.204c.102.115.226.21.364.278.165.06.339.088.515.086.11-.01.222-.01.332 0 .377.071.74.205 1.072.397.177.095.359.177.547.246.44.172 1.008.118 1.179-.225a.263.263 0 01.253-.156c.035.002.07.011.101.027a.265.265 0 01.142.155.274.274 0 01-.013.21 1.458 1.458 0 01-1.844.493 6.068 6.068 0 01-.611-.268 2.917 2.917 0 00-.912-.354h-.289a1.96 1.96 0 01-.718-.128 1.778 1.778 0 01-.515-.397l-.182-.171c-.933-.762-2.402-.097-3.581.44a16.092 16.092 0 01-4.568 1.296 1.661 1.661 0 01-.986-.107 1.56 1.56 0 01-.654-1.233 3.257 3.257 0 00-.161-.622 13.937 13.937 0 01-6.09 3.57l-.064.011zm34.995-.772c-.092.01-.186.01-.278 0a1.172 1.172 0 01-.783-.621.805.805 0 010-.75.26.26 0 01.156-.141.258.258 0 01.209.022.26.26 0 01.128.154c.01.033.013.068.01.102a.279.279 0 01-.031.098.33.33 0 000 .29.635.635 0 00.407.321c.38.014.755-.09 1.072-.3a12.617 12.617 0 003.517-2.788.28.28 0 01.311-.064 1.489 1.489 0 01.665 1.255c.027.246.088.488.182.718a.865.865 0 00.515.418 3.335 3.335 0 002.144-.472l3.86-2.09a1.77 1.77 0 011.147-.29c.321.106.605.303.815.568l.171.172c1.255 1.2 3.313.514 5.125-.086l.343-.107a16.984 16.984 0 0110.379 0 .26.26 0 01.195.227.25.25 0 01-.013.105.276.276 0 01-.343.172 16.479 16.479 0 00-10.046 0l-.343.118c-1.866.61-4.171 1.383-5.672 0l-.182-.193a1.329 1.329 0 00-.547-.408 1.308 1.308 0 00-.772.236l-3.86 2.09a3.956 3.956 0 01-2.584.515 1.37 1.37 0 01-.836-.686 2.827 2.827 0 01-.236-.879 1.847 1.847 0 00-.214-.729 13.096 13.096 0 01-3.506 2.713 2.469 2.469 0 01-1.105.31zm-57.039 13.36a.236.236 0 01-.118 0 .292.292 0 01-.12-.122.295.295 0 01-.03-.168 15.85 15.85 0 000-4.664 6.995 6.995 0 01-2.412 1.684 2.94 2.94 0 01-3.367-.804 2.416 2.416 0 01-.182-.28c-.3-.45-.526-.771-.794-.686a.807.807 0 00-.311.269l-3.141 3.613a.258.258 0 01-.332 0 .276.276 0 01-.129-.311l.6-2.005a40.748 40.748 0 01-6.561-.375.273.273 0 01-.215-.182l-.321-.923a9.655 9.655 0 01-3.678 2.198 3.924 3.924 0 01-4.139-1.222 3.385 3.385 0 01-3.216.675.28.28 0 01-.182-.289 2.144 2.144 0 012.058-1.823.25.25 0 01.197.072.24.24 0 01.071.197.269.269 0 01-.268.267 1.675 1.675 0 00-1.479 1.137 2.83 2.83 0 002.691-.836.262.262 0 01.225-.086.278.278 0 01.204.14 3.33 3.33 0 003.72 1.254 10.308 10.308 0 003.774-2.338.257.257 0 01.247 0 .268.268 0 01.182.172l.386 1.136c2.214.292 4.447.406 6.68.343a.255.255 0 01.214.097.256.256 0 010 .247l-.343 1.168 2.327-2.68c.145-.189.337-.337.557-.43.665-.213 1.072.44 1.405.912.05.09.108.176.171.258a2.4 2.4 0 002.745.61 7.64 7.64 0 002.584-1.93.296.296 0 01.268-.064.266.266 0 01.182.215 16.26 16.26 0 01.172 4.503l2.337-2.573a4.688 4.688 0 012.005-1.501 4.728 4.728 0 012.927.407 4.01 4.01 0 002.659.354.269.269 0 01.343.16.28.28 0 01-.161.344 4.436 4.436 0 01-3.023-.354 3.09 3.09 0 00-4.353.954l-2.906 3.217a.289.289 0 01-.15.043zm30.504-2.552h-.29c-.74-.183-.975-.912-1.179-1.555a2.865 2.865 0 00-.515-1.072 9.937 9.937 0 01-6.143 2.144.279.279 0 01-.268-.268.268.268 0 01.268-.268 9.335 9.335 0 005.939-2.144.27.27 0 01.322 0c.454.396.763.931.879 1.522.215.676.376 1.073.794 1.19.252.04.509.002.74-.107a9.825 9.825 0 002.776-1.458c.235-.203.509-.356.805-.45a2.143 2.143 0 011.479.3l.257.118c1.534.675 3.217.31 4.986-.064a10.07 10.07 0 014.814-.258.279.279 0 01.193.333.271.271 0 01-.128.16.27.27 0 01-.204.022 9.79 9.79 0 00-4.568.268c-1.78.375-3.624.772-5.307 0l-.268-.118a1.748 1.748 0 00-1.072-.279c-.213.071-.41.184-.579.333a10.97 10.97 0 01-2.959 1.576 2.676 2.676 0 01-.772.075zm-60.76 22.837c-.415 0-.826-.08-1.211-.236a1.768 1.768 0 01-.89-.729c-.59-1.072.482-2.144 1.576-2.809a.266.266 0 01.365.107.269.269 0 01-.097.365c-.718.407-1.801 1.297-1.372 2.08.15.223.368.392.622.482 1.136.483 2.594.086 4.288-1.158a23.989 23.989 0 003.345-2.916.295.295 0 01.204-.086.264.264 0 01.107.027.265.265 0 01.086.07c.286.44.39.974.29 1.49-.074.369-.005.752.193 1.072a1.234 1.234 0 001.157.161 14.911 14.911 0 004.536-2.016c.6-.364 1.222-.729 1.855-1.072.184-.115.394-.181.611-.193.686 0 .89.665 1.072 1.19.065.339.221.654.45.912.3.246.697.107 1.308-.129.358-.17.743-.279 1.137-.322.6.018 1.182.212 1.672.558l.343.193c.504.257 1.223.429 1.598 0a.268.268 0 01.375 0 .278.278 0 010 .386 1.9 1.9 0 01-1.106.386 1.9 1.9 0 01-1.124-.333l-.364-.203a2.548 2.548 0 00-1.373-.483 3.382 3.382 0 00-.965.279c-.6.236-1.276.515-1.855 0a2.334 2.334 0 01-.621-1.179c-.161-.558-.269-.794-.526-.805a.904.904 0 00-.375.14c-.611.311-1.222.675-1.823 1.072a15.35 15.35 0 01-4.707 2.091 1.727 1.727 0 01-1.651-.333 1.897 1.897 0 01-.332-1.511 2.6 2.6 0 000-.826 25.334 25.334 0 01-3.217 2.713 6.434 6.434 0 01-3.581 1.565zm35.499.054a2.52 2.52 0 01-1.179-.258 1.948 1.948 0 01-1.008-1.919 1.266 1.266 0 01.911-1.158.252.252 0 01.2.023.26.26 0 01.122.159.266.266 0 01-.089.284.26.26 0 01-.093.049.737.737 0 00-.515.697 1.45 1.45 0 00.708 1.383 3.95 3.95 0 001.547.156 3.949 3.949 0 001.487-.456l5.65-2.145c.239-.108.505-.138.761-.086a1.075 1.075 0 01.644.697c.063.151.154.29.268.408.214.171.59.096 1.126-.215l4.556-2.723c.275-.205.612-.307.955-.289.707.107.868.836.997 1.426.031.17.074.339.128.503a2.222 2.222 0 002.595 1.191 7.504 7.504 0 002.68-1.459l.247-.182a3.119 3.119 0 011.758-.74 3.22 3.22 0 011.298.408h.085a16.243 16.243 0 006.433 1.576 2.017 2.017 0 01-.171-1.072 2.62 2.62 0 011.018-1.834 4.481 4.481 0 013.453-.525 9.398 9.398 0 013.334 1.34l.343.236c.331.253.691.465 1.072.633a5.365 5.365 0 003.603-.494l.933-.343c3.055-.997 6.368-.546 9.285-.16l11.483 1.543a.267.267 0 01.184.098.26.26 0 01.051.203.265.265 0 01-.104.173.265.265 0 01-.196.052l-11.483-1.533c-2.873-.386-6.122-.826-9.049.139l-.922.322a4.292 4.292 0 01-5.189-.193l-.343-.226a8.754 8.754 0 00-3.142-1.265 3.968 3.968 0 00-3.034.44 2.007 2.007 0 00-.793 1.437 1.358 1.358 0 00.343 1.072.281.281 0 01-.049.41.276.276 0 01-.144.051 16.914 16.914 0 01-7.173-1.641h-.086a2.628 2.628 0 00-1.072-.353 2.65 2.65 0 00-1.415.643l-.247.171a7.712 7.712 0 01-2.884 1.555 2.769 2.769 0 01-3.216-1.522c-.054-.172-.097-.365-.14-.547-.128-.601-.236-.965-.547-1.008a1.077 1.077 0 00-.6.214l-4.567 2.724c-.279.161-1.126.664-1.737.171a1.756 1.756 0 01-.408-.589c-.107-.236-.193-.386-.311-.419a.714.714 0 00-.418.075l-5.65 2.145a6.874 6.874 0 01-2.284.547zm79.33-1.984a1.334 1.334 0 01-.719-.182.985.985 0 01-.461-.869.709.709 0 01.376-.621.28.28 0 01.364.117.278.278 0 01-.118.365.154.154 0 00-.07.066c-.015.029-.021.062-.015.095a.475.475 0 00.192.386c.346.13.727.13 1.073 0a57.563 57.563 0 006.014-1.501c.987-.3 2.145-.311 2.456.589.031.109.053.22.064.333.01.113.042.222.097.321.096.129.364.14.589.14a29.418 29.418 0 008.492-1.49.27.27 0 11.171.514 29.994 29.994 0 01-8.652 1.512 1.186 1.186 0 01-1.072-.365 1.073 1.073 0 01-.193-.557.952.952 0 00-.054-.236c-.236-.708-1.629-.3-1.78-.247a58.846 58.846 0 01-6.068 1.512c-.225.061-.454.1-.686.118zM169.026 257.32a2.542 2.542 0 01-1.18-.268 1.962 1.962 0 01-.795-.807 1.961 1.961 0 01-.213-1.113 1.243 1.243 0 01.912-1.158.273.273 0 01.304.081.267.267 0 01-.165.434.741.741 0 00-.514.697 1.47 1.47 0 00.707 1.394 3.992 3.992 0 003.034-.311l5.651-2.144c.238-.108.504-.138.761-.086a1.077 1.077 0 01.643.697c.061.152.152.291.268.407.215.172.59.097 1.072-.214l4.557-2.724c.278-.196.614-.294.954-.278.708.096.869.825.997 1.415.032.171.075.339.129.504a2.22 2.22 0 002.584 1.158 7.436 7.436 0 002.67-1.458l.257-.183a2.385 2.385 0 013.056-.332h.075a16.324 16.324 0 006.433 1.576 2.144 2.144 0 01-.172-1.072 2.62 2.62 0 011.072-1.834 4.538 4.538 0 013.453-.525 9.398 9.398 0 013.334 1.34l.333.236a3.895 3.895 0 004.717.14l.933-.344c3.045-.986 6.369-.546 9.285-.16l11.483 1.544a.257.257 0 01.129.47.28.28 0 01-.194.055l-11.515-1.426c-2.873-.386-6.122-.815-9.049.139l-.922.322a5.618 5.618 0 01-3.967.504 5.788 5.788 0 01-1.233-.697l-.332-.225a8.923 8.923 0 00-3.142-1.265 4.005 4.005 0 00-3.034.439 2.041 2.041 0 00-.793 1.437 1.356 1.356 0 00.343 1.072.284.284 0 01.047.291.287.287 0 01-.096.119.276.276 0 01-.144.051 16.958 16.958 0 01-7.173-1.64h-.086a2.788 2.788 0 00-1.072-.354 2.65 2.65 0 00-1.415.643l-.247.182a7.835 7.835 0 01-2.884 1.544 2.757 2.757 0 01-1.885-.175 2.758 2.758 0 01-1.331-1.347 6.698 6.698 0 01-.14-.547c-.128-.6-.236-.965-.547-1.008a1.071 1.071 0 00-.6.215l-4.567 2.723c-.279.161-1.073.675-1.737.172a1.677 1.677 0 01-.408-.59c-.107-.236-.182-.386-.311-.418a.804.804 0 00-.418.075l-5.661 2.144a6.772 6.772 0 01-2.251.483zm79.329-2.037a1.33 1.33 0 01-.718-.183.984.984 0 01-.461-.868.706.706 0 01.375-.622.28.28 0 01.365.118.277.277 0 01-.118.364.15.15 0 00-.086.161.463.463 0 00.193.386c.345.13.727.13 1.072 0a55.066 55.066 0 006.015-1.501c.986-.3 2.144-.311 2.455.59.032.109.053.22.065.332a.807.807 0 00.096.322c.096.129.365.139.59.139 2.874-.08 5.72-.583 8.448-1.49a.27.27 0 01.343.172.27.27 0 01-.171.343 30.038 30.038 0 01-8.652 1.511 1.174 1.174 0 01-1.073-.353 1.078 1.078 0 01-.193-.569.924.924 0 000-.235c-.236-.708-1.629-.301-1.79-.247a58.921 58.921 0 01-6.058 1.512 3.576 3.576 0 01-.697.118zm-20.552-128.371a4.97 4.97 0 01-3.088-.954 3.283 3.283 0 01-.922-1.137 2.995 2.995 0 01-.955.494 5.928 5.928 0 01-4.771-1.019 1.144 1.144 0 00-.579-.247c-.248.054-.471.19-.632.386l-.751.708a2.405 2.405 0 01-3.238.079 2.417 2.417 0 01-.675-.958l-.343-.869a19.888 19.888 0 01-10.379.869 11.347 11.347 0 01-4.095 1.362.292.292 0 01-.226-.076.288.288 0 01-.085-.214 3.895 3.895 0 00-.397-2.08 7.203 7.203 0 01-4.45.472l-.3-.065a3.657 3.657 0 00-.986-.15 3.477 3.477 0 00-1.437.515l-.514.289a9.647 9.647 0 01-3.217 1.319 3.44 3.44 0 01-3.495-1.372 3.303 3.303 0 01-2.359.74 1.667 1.667 0 01-1.265-1.223 1.068 1.068 0 01.354-1.179.276.276 0 01.375 0 .287.287 0 01-.054.386.586.586 0 00-.161.622 1.144 1.144 0 00.837.825 3.276 3.276 0 002.219-.825.276.276 0 01.225 0 .312.312 0 01.172.161 2.84 2.84 0 003.066 1.34 9.448 9.448 0 003.002-1.265l.515-.29a3.814 3.814 0 011.673-.579c.384.003.766.057 1.136.161l.279.064a6.667 6.667 0 004.342-.546.288.288 0 01.354.107c.394.696.601 1.483.6 2.284a10.728 10.728 0 003.667-1.298.27.27 0 01.182 0c3.496.664 7.107.345 10.433-.922a.28.28 0 01.353.161l.44 1.072a1.875 1.875 0 003.034.686l.761-.718c.253-.291.604-.479.987-.525.314.021.616.133.868.321a5.518 5.518 0 004.289.976 2.78 2.78 0 00.901-.504 3.492 3.492 0 01-.183-1.072 2.577 2.577 0 01.944-2.144.297.297 0 01.214-.054.252.252 0 01.172.118 2.389 2.389 0 01.193 2.144 3.415 3.415 0 01-.719 1.137c.197.417.487.784.847 1.072a5.607 5.607 0 004.696.579 20.885 20.885 0 002.402-.815 17.565 17.565 0 016.433-1.362 26.243 26.243 0 003.163-.364l1.233-.279c1.791-.429 3.635-.858 5.264 0a.267.267 0 01.051.445.268.268 0 01-.297.027c-1.448-.761-3.217-.354-4.889.053l-1.255.279a29.96 29.96 0 01-3.216.375 23.03 23.03 0 00-3.817.515c-.815.228-1.617.5-2.402.815-.805.325-1.629.604-2.466.836a8.788 8.788 0 01-2.058.311zm-3.367-5.168a2.145 2.145 0 00-.504 1.458c-.001.217.024.433.075.644.171-.222.308-.468.408-.729.167-.441.175-.927.021-1.373zm42.961 4.235c-.316 0-.631-.021-.944-.064a.289.289 0 01-.182-.107.241.241 0 010-.204 3.15 3.15 0 00-.086-1.447 15.223 15.223 0 01-8.974.857.248.248 0 01-.193-.16.264.264 0 010-.247l.815-1.19a.259.259 0 01.365-.075.264.264 0 01.116.172.27.27 0 01-.041.203l-.59.858c2.876.515 5.84.161 8.513-1.019a.246.246 0 01.214 0 .27.27 0 01.151.14c.216.548.297 1.14.235 1.726 2.381.225 4.654-.997 6.841-2.144.632-.344 1.276-.697 1.919-1.008a1.63 1.63 0 011.147-.215c.403.166.726.481.901.879.047.094.101.183.161.269.847 1.275 2.798 1.243 4.288.997a4.299 4.299 0 011.426-.065c.347.087.679.225.987.408l.321.161c1.78.857 4.096.568 7.087-.88 1.426-.697 3.067-1.361 4.343-.482a.259.259 0 01.086.072.255.255 0 01.05.1c.009.037.01.075.004.113a.27.27 0 01-.342.209.28.28 0 01-.099-.054c-1.072-.719-2.519-.108-3.816.525-3.142 1.522-5.608 1.812-7.506.879l-.332-.172a3.727 3.727 0 00-.836-.353 3.211 3.211 0 00-1.18.064c-2.412.397-4.074 0-4.878-1.222l-.182-.29c-.172-.289-.333-.568-.579-.643a1.16 1.16 0 00-.761.182c-.633.311-1.276.654-1.898.997-2.134 1.073-4.257 2.23-6.551 2.23zm-89.911 21.68h-.258a1.617 1.617 0 01-1.168-1.544c.02-.62.177-1.228.461-1.78a.259.259 0 01.148-.143.258.258 0 01.205.004.276.276 0 01.14.353 3.721 3.721 0 00-.418 1.544 1.07 1.07 0 00.739 1.072 1.46 1.46 0 00.826-.16 7.838 7.838 0 002.906-2.059.26.26 0 01.131-.087.266.266 0 01.158.001c.45.15.515.601.579.965.008.201.067.397.172.568.15.161.461.172.943 0a39.367 39.367 0 004.857-1.908 2.274 2.274 0 011.576-.204.87.87 0 01.493.472c.064.179.093.368.086.558a.707.707 0 00.075.396c.097.108.322.118.697 0l4.289-1.168a4.8 4.8 0 012.712-.215 2.148 2.148 0 011.287 1.147c.137.303.171.642.096.965a4.76 4.76 0 004.289-.461.266.266 0 01.301 0 .264.264 0 01.111.278.281.281 0 01-.112.173 5.287 5.287 0 01-4.985.396.218.218 0 01-.14-.15.222.222 0 010-.203.933.933 0 000-.783 1.614 1.614 0 00-.954-.847 4.507 4.507 0 00-2.412.214l-4.289 1.18c-.214 0-.89.246-1.254-.204a1.07 1.07 0 01-.193-.718 1.106 1.106 0 000-.354.379.379 0 00-.193-.193c-.398-.072-.809 0-1.158.204a41.536 41.536 0 01-4.922 1.929c-.257.075-1.072.333-1.501-.182a1.556 1.556 0 01-.311-.836 1.7 1.7 0 00-.096-.429 8.286 8.286 0 01-2.938 2.026c-.309.128-.641.19-.975.183zm38.222 2.176a1.167 1.167 0 01-1.275-.804 3.109 3.109 0 01.525-2.391 6.886 6.886 0 01-2.498.472 2.735 2.735 0 01-2.488-1.169 1.602 1.602 0 01.172-1.705 1.071 1.071 0 011.179-.461.278.278 0 01.147.429.266.266 0 01-.18.105.291.291 0 01-.106-.008.582.582 0 00-.611.268 1.078 1.078 0 00-.14 1.072 2.41 2.41 0 002.038.901h.064a6.083 6.083 0 003.163-.901 4.277 4.277 0 011.072-.804.266.266 0 01.343.086.275.275 0 01.063.176.276.276 0 01-.063.177c-.33.297-.689.559-1.072.783a3.434 3.434 0 00-1.072 2.766c.118.365.482.504 1.072.408a17.302 17.302 0 005.361-3.281l1.179-.933a.29.29 0 01.322 0 .246.246 0 01.096.3l-.568 1.748a13.662 13.662 0 007.205-2.734.267.267 0 01.426.252.271.271 0 01-.104.177 4.21 4.21 0 00-1.48 2.273l6.733-1.566a1.204 1.204 0 01.997.097c.213.196.347.463.376.75a1.243 1.243 0 000 .193c.321 1.19 2.144 1.233 2.948 1.19a9.76 9.76 0 003.999-.793 24.826 24.826 0 012.691-.911.678.678 0 01.622.214c.225.29.086.729-.064 1.19-.15.461-.247.783-.118.901s.268.193 1.351-.161l5.779-3.399a3.764 3.764 0 012.048-.707 3.597 3.597 0 012.358 1.544l.108.139a4.108 4.108 0 001.758 1.501 1.404 1.404 0 001.254-.268.751.751 0 00.301-.665.257.257 0 01.171-.289.292.292 0 01.322.118 4.21 4.21 0 001.908 1.629c.547-.096.804-.686 1.072-1.372a2.754 2.754 0 011.416-1.737 2.5 2.5 0 011.533.107c6.969 1.834 14.549 1.072 21.229.29a.266.266 0 01.241.432.278.278 0 01-.177.104c-6.733.729-14.367 1.555-21.443-.3a2.148 2.148 0 00-1.223-.108c-.546.183-.814.794-1.072 1.448-.257.654-.707 1.608-1.597 1.705a.18.18 0 01-.129 0 4.786 4.786 0 01-1.865-1.362 1.328 1.328 0 01-.365.45c-.24.202-.526.342-.832.408a1.922 1.922 0 01-.926-.032 4.608 4.608 0 01-2.016-1.684l-.107-.128a3.05 3.05 0 00-1.962-1.351 3.219 3.219 0 00-1.759.632l-5.821 3.431c-1.073.343-1.652.354-1.963.054-.311-.3-.16-.933 0-1.448.065-.214.193-.611.14-.707h-.118c-.874.247-1.733.544-2.573.89a10.464 10.464 0 01-4.16.825c-1.919.097-3.217-.482-3.496-1.587a1.887 1.887 0 01-.053-.225.795.795 0 00-.172-.429c-.118-.085-.343 0-.547 0l-7.151 1.651a.257.257 0 01-.246-.064.236.236 0 01-.076-.236c.088-.56.28-1.098.569-1.587a14.212 14.212 0 01-6.337 1.834.265.265 0 01-.225-.107.256.256 0 010-.247l.418-1.276-.482.386a17.759 17.759 0 01-5.511 3.367 2.59 2.59 0 01-.526.064z" fill="#263238"/></svg>