<svg width="22" height="15" fill="none" xmlns="http://www.w3.org/2000/svg"><path d="M21.937 7.196c-.032-.074-.809-1.835-2.535-3.6C17.102 1.242 14.197 0 11 0 7.803 0 4.898 1.243 2.598 3.595.872 5.361.092 7.125.063 7.196a.765.765 0 000 .61c.032.074.809 1.834 2.535 3.6C4.898 13.756 7.803 15 11 15c3.197 0 6.102-1.243 8.402-3.594 1.726-1.766 2.503-3.526 2.535-3.6a.764.764 0 000-.61zM11 13.5c-2.822 0-5.286-1.05-7.327-3.117A12.493 12.493 0 011.558 7.5a12.48 12.48 0 012.115-2.883C5.713 2.55 8.178 1.5 11 1.5s5.286 1.05 7.327 3.117a12.491 12.491 0 012.12 2.883c-.662 1.262-3.54 6-9.447 6zM11 3c-.87 0-1.72.264-2.445.758a4.48 4.48 0 00-1.62 2.02 4.595 4.595 0 00-.25 2.6c.17.873.588 1.675 1.204 2.304a4.37 4.37 0 002.253 1.232 4.309 4.309 0 002.542-.256A4.423 4.423 0 0014.659 10a4.574 4.574 0 00-.55-5.68A4.356 4.356 0 0011 3zm0 7.5c-.58 0-1.147-.176-1.63-.506a2.987 2.987 0 01-1.08-1.346 3.063 3.063 0 01-.167-1.733 3.022 3.022 0 01.803-1.536c.41-.42.933-.706 1.502-.821a2.873 2.873 0 011.694.17c.537.227.995.612 1.317 1.105a3.054 3.054 0 01-.365 3.788A2.9 2.9 0 0111 10.5z" fill="#6C757D"/></svg>