<svg width="100" height="100" fill="none" xmlns="http://www.w3.org/2000/svg"><circle cx="50" cy="50" r="50" fill="#D62425"/><path d="M65.332 63.831l-.002.019-.001.018a74.672 74.672 0 00-.022 7.982l-14.959 3.88a71.611 71.611 0 00-3.835-6.963l-.009-.014-.01-.014c-.736-1.018-1.985-1.768-3.408-2.534-.318-.171-.646-.344-.985-.522-1.213-.638-2.553-1.343-3.955-2.261-3.558-2.33-7.49-6.024-10.254-13.311h0c-1.804-4.743-1.875-11.486.562-17.577 2.43-6.072 7.343-11.473 15.504-13.603 8.16-2.129 15.017.21 20.019 4.349 5.018 4.152 8.152 10.105 8.832 15.14 1.032 7.744-.661 12.9-2.675 16.678-.795 1.49-1.636 2.76-2.397 3.912-.212.32-.418.632-.616.936-.885 1.367-1.624 2.633-1.789 3.885z" fill="gold" stroke="#000"/><path d="M43.588 52.011l-.727.342 11.095 24.17.727-.343-11.095-24.169zm17.113-4.303l-.8.054 1.749 26.596.8-.054-1.75-26.596z" fill="#000"/><path d="M53.27 58.448a5.41 5.41 0 01-3.578-1.962l-.21-.225a1.988 1.988 0 01-.465.674c-.2.19-.437.335-.695.426-2.38.612-4.552-4.061-4.638-4.261l.357-.163s2.147 4.562 4.183 4.037a1.765 1.765 0 00.974-1.037c-1.53-1.813-2.776-4.387-2.393-5.799.052-.228.166-.437.33-.603.163-.166.37-.281.595-.334a1.473 1.473 0 011.48.412c1.024 1.063 1.16 3.75.642 5.649-.05.204-.117.405-.197.6l.32.337c.802.825 2.357 2.162 3.825 1.774 1.233-.312 1.949-1.687 2.331-3.336a6.755 6.755 0 01-2.529-3.899c-.456-1.762-.074-3.037.975-3.312.864-.224 1.554.513 1.937 2.012.335 1.65.335 3.35 0 4.999a2.305 2.305 0 001.752.25c1.455-.375 1.838-4.199 1.875-5.648h.395c0 .224-.136 5.498-2.172 6.023a2.683 2.683 0 01-1.937-.25c-.407 1.724-1.233 3.174-2.59 3.524a2.076 2.076 0 01-.568.112zm-5.133-8.922a1.07 1.07 0 00-.333 0 .823.823 0 00-.406.225.84.84 0 00-.223.412c-.32 1.137.666 3.437 2.159 5.274l.11-.35c.482-1.737.371-4.312-.542-5.261a1.01 1.01 0 00-.765-.3zm6.711-1.762h-.185c-.987.262-.987 1.687-.703 2.824a6.847 6.847 0 002.233 3.587 11.883 11.883 0 00-.086-4.687c-.111-.5-.506-1.7-1.234-1.7l-.025-.024z" fill="#000"/><path d="M50.257 78.935l-.734-2.885 18.49-4.828.734 2.886-18.49 4.827zm.239 4.869l-.729-2.88L68.23 76.13l.73 2.88-18.464 4.795zm1.136 4.473l-.729-2.88 18.463-4.795.729 2.88-18.463 4.795z" fill="#EBEBEB" stroke="#000"/><path d="M42.833 15.786a10.294 10.294 0 01-1.172-2.774 9.977 9.977 0 01-.395-2.987c.527.86.922 1.795 1.172 2.774.275.97.408 1.977.395 2.987zm-12.116 7.06a9.887 9.887 0 01-2.32-1.812 10.233 10.233 0 01-1.825-2.386 9.573 9.573 0 012.38 1.811 9.988 9.988 0 011.765 2.387zm-7.005 12.259a9.653 9.653 0 01-2.949-.362A9.798 9.798 0 0118 33.605a11.072 11.072 0 015.712 1.5zm-.014 14.171c-.85.53-1.773.93-2.739 1.187a9.62 9.62 0 01-2.948.4 10.898 10.898 0 015.687-1.587zm6.996 12.271a9.988 9.988 0 01-1.788 2.412 10.134 10.134 0 01-2.357 1.812 11.252 11.252 0 014.145-4.261v.037zm45.214-12.234a9.63 9.63 0 012.948.363c.971.24 1.902.623 2.764 1.137a9.347 9.347 0 01-2.961-.363 9.725 9.725 0 01-2.751-1.137zm.012-14.17c.846-.553 1.77-.974 2.739-1.25a9.619 9.619 0 012.948-.4 10.898 10.898 0 01-5.687 1.587v.063zm-6.995-12.272a9.986 9.986 0 011.789-2.412 10.13 10.13 0 012.356-1.85 11.255 11.255 0 01-4.145 4.262zm-12.151-7.085a10.018 10.018 0 01.358-2.987A10.07 10.07 0 0158.254 10a9.702 9.702 0 01-.358 3 9.995 9.995 0 01-1.122 2.786z" fill="gold"/></svg>