<svg width="100" height="100" fill="none" xmlns="http://www.w3.org/2000/svg"><circle cx="50" cy="50" r="50" fill="#D62425"/><path d="M21.534 73.786l1.055-.71c-4.644-7.115-9.186-21.262-6.957-24.063 4.783-6.017 34.112-13.402 34.408-13.475l-.3-1.244c-1.224.303-30.043 7.565-35.096 13.91-2.867 3.61 2.263 18.496 6.89 25.582z" fill="#263238"/><path d="M23.75 85.7l1.085-.662c-.03-.052-3.002-5.055-3.479-7.514a9.526 9.526 0 01.262-4.478l-1.195-.427a10.75 10.75 0 00-.308 5.162c.52 2.672 3.508 7.706 3.635 7.92zm7.802-4.9l1.051-.714c-.392-.595-3.888-5.86-5.796-6.74-1.908-.881-4.775-1.36-4.897-1.381l-.211 1.282c.03 0 2.883.497 4.584 1.284 1.187.53 3.863 4.13 5.27 6.269z" fill="#263238"/><path d="M26.773 86.363l1.085-.658c-.033-.056-3.124-5.256-3.955-6.693-.655-1.129-1.63-5.042-1.95-6.453l-1.234.287c.047.213 1.203 5.285 2.09 6.816.836 1.463 3.935 6.65 3.964 6.701z" fill="#263238"/><path d="M30.214 83.511l.996-.795c-.03-.034-2.79-3.601-3.538-4.91-.806-1.41-5.205-5.264-5.708-5.696l-.823.97c1.896 1.652 4.906 4.44 5.438 5.372.81 1.39 3.542 4.91 3.635 5.06z" fill="#263238"/><path d="M95.535 54.82L48.16 57.296 9.477 29.189l47.75-1.464 38.308 27.094z" fill="gold" stroke="#000"/><path d="M22.899 54.525l2.718-14.634s16.191-2.16 27.185 1.283c10.993 3.443 22.713 13.172 22.713 13.172l-5.573 14.967S56.183 61.564 47.25 58.96c-8.933-2.605-24.351-4.435-24.351-4.435z" fill="gold"/><path d="M69.669 68.575c-2.6-1.437-14.32-7.782-22.279-10.104-7.991-2.337-21.118-4.036-23.902-4.383l2.546-13.742.348-.04c.46-.053 1.131-.124 1.971-.198 1.68-.15 4.036-.312 6.732-.367 5.405-.111 12.134.211 17.554 1.914 5.432 1.707 11.065 4.97 15.356 7.823a102.798 102.798 0 015.206 3.701 80.618 80.618 0 011.712 1.336l-5.244 14.06z" fill="gold" stroke="#000"/><path opacity=".1" d="M69.669 68.575c-2.6-1.437-14.32-7.782-22.279-10.104-7.991-2.337-21.118-4.036-23.902-4.383l2.546-13.742.348-.04c.46-.053 1.131-.124 1.971-.198 1.68-.15 4.036-.312 6.732-.367 5.405-.111 12.134.211 17.554 1.914 5.432 1.707 11.065 4.97 15.356 7.823a102.798 102.798 0 015.206 3.701 80.618 80.618 0 011.712 1.336l-5.244 14.06z" fill="#000" stroke="#000"/><path d="M48.871 40.862l.05.026c-.029.017-.045.017-.05-.026z" fill="#263238"/><path d="M66.894 68.214c-4.957-.963-14.739-2.948-21.579-4.848h0c-4.73-1.313-10.271-3.63-14.644-5.627a187.803 187.803 0 01-4.944-2.347c4.886.658 14.876 2.14 21.383 4.043h0c6.395 1.863 15.306 6.393 19.784 8.779z" fill="gold" stroke="#000"/><path opacity=".4" d="M22.899 54.525s12.745 6.676 22.282 9.323c9.39 2.608 24.288 5.371 24.753 5.452-.422-.24-13.89-7.783-22.684-10.344-8.642-2.528-23.36-4.311-24.305-4.427l-.046-.004z" fill="#000"/></svg>